;==============================================================================
; 
; Predefined constants for Dragon Spirit (note names, registers, etc)
; 
; This file is autogenerated; please do not modify it directly.
; 
;==============================================================================
.define Cn0 0
.define Cs0 1
.define Df0 1
.define Dn0 2
.define Ds0 3
.define Ef0 3
.define En0 4
.define Fn0 5
.define Fs0 6
.define Gf0 6
.define Gn0 7
.define Gs0 8
.define Af0 8
.define An0 9
.define As0 10
.define Bf0 10
.define Bn0 11
.define Cn1 12
.define Cs1 13
.define Df1 13
.define Dn1 14
.define Ds1 15
.define Ef1 15
.define En1 16
.define Fn1 17
.define Fs1 18
.define Gf1 18
.define Gn1 19
.define Gs1 20
.define Af1 20
.define An1 21
.define As1 22
.define Bf1 22
.define Bn1 23
.define Cn2 24
.define Cs2 25
.define Df2 25
.define Dn2 26
.define Ds2 27
.define Ef2 27
.define En2 28
.define Fn2 29
.define Fs2 30
.define Gf2 30
.define Gn2 31
.define Gs2 32
.define Af2 32
.define An2 33
.define As2 34
.define Bf2 34
.define Bn2 35
.define Cn3 36
.define Cs3 37
.define Df3 37
.define Dn3 38
.define Ds3 39
.define Ef3 39
.define En3 40
.define Fn3 41
.define Fs3 42
.define Gf3 42
.define Gn3 43
.define Gs3 44
.define Af3 44
.define An3 45
.define As3 46
.define Bf3 46
.define Bn3 47
.define Cn4 48
.define Cs4 49
.define Df4 49
.define Dn4 50
.define Ds4 51
.define Ef4 51
.define En4 52
.define Fn4 53
.define Fs4 54
.define Gf4 54
.define Gn4 55
.define Gs4 56
.define Af4 56
.define An4 57
.define As4 58
.define Bf4 58
.define Bn4 59
.define Cn5 60
.define Cs5 61
.define Df5 61
.define Dn5 62
.define Ds5 63
.define Ef5 63
.define En5 64
.define Fn5 65
.define Fs5 66
.define Gf5 66
.define Gn5 67
.define Gs5 68
.define Af5 68
.define An5 69
.define As5 70
.define Bf5 70
.define Bn5 71
.define Cn6 72
.define Cs6 73
.define Df6 73
.define Dn6 74
.define Ds6 75
.define Ef6 75
.define En6 76
.define Fn6 77
.define Fs6 78
.define Gf6 78
.define Gn6 79
.define Gs6 80
.define Af6 80
.define An6 81
.define As6 82
.define Bf6 82
.define Bn6 83
.define Cn7 84
.define Cs7 85
.define Df7 85
.define Dn7 86
.define Ds7 87
.define Ef7 87
.define En7 88
.define Fn7 89
.define Fs7 90
.define Gf7 90
.define Gn7 91
.define Gs7 92
.define Af7 92
.define An7 93
.define As7 94
.define Bf7 94
.define Bn7 95
.define Cn8 96
.define Cs8 97
.define Df8 97
.define Dn8 98
.define Ds8 99
.define Ef8 99
.define En8 100
.define Fn8 101
.define Fs8 102
.define Gf8 102
.define Gn8 103
.define Gs8 104
.define Af8 104
.define An8 105
.define As8 106
.define Bf8 106
.define Bn8 107
.define Cn9 108
.define Cs9 109
.define Df9 109
.define Dn9 110
.define Ds9 111
.define Ef9 111
.define En9 112
.define Fn9 113
.define Fs9 114
.define Gf9 114
.define Gn9 115
.define Gs9 116
.define Af9 116
.define An9 117
.define As9 118
.define Bf9 118
.define Bn9 119
.define Q__ 255
.define CCC 255
.define ___ 65536
