	.include "song.inc"
	.segment "BANK0"
	.export area91
.proc area91
song00c_start:
	INIT        %11111111
	TEMPO       001
	TVOL        255
	SPEED       016
	PIT         ___,___,___,___,___,___,___,004
	PITRAT      ___,___,___,___,___,___,___,100
	TRS         ___,___,___,___,___,___,___,___
	PITDEP      ___,___,___,___,___,___,___,180
	ENV         ___,___,___,___,___,___,___,___
	GTM         ___,___,___,___,___,___,___,004
	INS         047,047,047,047,045,___,000,001
	VOL         235,235,235,235,___,___,235,255
	LFO         ___,___,___,___,___,___,___,___
	DTN         ___,004,008,018,___,___,___,___
	PAN         L__,___,__R,___,___,___,___,___
song00c_rept000:
	SPEED       016
	INS         ___,___,___,___,___,064,___,___
	VOL         ___,___,___,___,210,240,___,___
	FRQ         Dn5,___,___,___,Q__,Q__,Q__,Q__ ;
	FRQ         ___,Gn4,___,___,___,___,___,___ ;
	FRQ         ___,___,Cn5,___,___,___,___,___ ;
	FRQ         ___,___,___,Dn5,___,___,___,___ ;
	SPEED       008
	FRQ         Gn4,___,___,___,___,___,___,___ ;
	FRQ         ___,Cn5,___,___,___,___,___,___ ;
	FRQ         ___,___,Dn5,___,___,___,___,___ ;
	FRQ         ___,___,___,___,___,___,___,___ ;
	FRQ         ___,___,___,Fn4,___,___,___,___ ;
	FRQ         Gn4,___,___,___,___,___,___,___ ;
	FRQ         ___,Cn5,___,___,___,___,___,___ ;
	FRQ         ___,___,___,___,___,___,___,___ ;
	REPT        $01, song00c_rept000
song00c_rept001:
	SPEED       016
	FRQ         Dn5,___,___,___,Dn4,___,___,___ ;
	SPEED       004
	FRQ         ___,Gn4,___,___,Dn4,___,___,___ ;
	FRQ         ___,___,___,___,Dn4,___,___,___ ;
	FRQ         ___,___,___,___,Dn4,___,___,___ ;
	FRQ         ___,___,___,___,___,___,___,___ ;
	SPEED       008
	FRQ         ___,___,Cn5,___,Dn4,___,___,___ ;
	FRQ         ___,___,___,___,Dn4,___,___,___ ;
	FRQ         ___,___,___,Dn5,Dn4,___,___,___ ;
	FRQ         ___,___,___,___,Dn4,___,___,___ ;
	FRQ         Gn4,___,___,___,Dn4,___,___,___ ;
	FRQ         ___,Cn5,___,___,Dn4,___,___,___ ;
	SPEED       004
	FRQ         ___,___,Dn5,___,Cs4,___,___,___ ;
	FRQ         ___,___,___,___,Dn4,___,___,___ ;
	FRQ         ___,___,___,___,Dn4,___,___,___ ;
	FRQ         ___,___,___,___,___,___,___,___ ;
	FRQ         ___,___,___,Fn4,___,___,___,___ ;
	FRQ         ___,___,___,___,___,___,___,___ ;
	FRQ         Gn4,___,___,___,Dn4,___,___,___ ;
	FRQ         ___,___,___,___,___,___,___,___ ;
	FRQ         ___,Cn5,___,___,Cs4,___,___,___ ;
	FRQ         ___,___,___,___,Dn4,___,___,___ ;
	FRQ         ___,___,___,___,Dn4,___,___,___ ;
	FRQ         ___,___,___,___,Dn4,___,___,___ ;
	SPEED       016
	REPT        $01, song00c_rept001
	SPEED       016
	FRQ         Dn5,___,___,___,Dn4,___,___,___ ;
	SPEED       004
	FRQ         ___,Gn4,___,___,Dn4,___,___,___ ;
	FRQ         ___,___,___,___,Dn4,___,___,___ ;
	FRQ         ___,___,___,___,Dn4,___,___,___ ;
	FRQ         ___,___,___,___,___,___,___,___ ;
	SPEED       008
	FRQ         ___,___,Cn5,___,Dn4,Gn2,___,Cn2 ;
	FRQ         ___,___,___,___,Dn4,___,___,___ ;
	FRQ         ___,___,___,Dn5,Dn4,___,___,___ ;
	FRQ         ___,___,___,___,Dn4,___,___,___ ;
	FRQ         Gn4,___,___,___,Dn4,___,___,___ ;
	FRQ         ___,Cn5,___,___,Dn4,___,___,___ ;
	SPEED       004
	FRQ         ___,___,Dn5,___,Cs4,___,___,___ ;
	FRQ         ___,___,___,___,Dn4,___,___,___ ;
	FRQ         ___,___,___,___,Dn4,___,___,___ ;
	FRQ         ___,___,___,___,___,___,___,___ ;
	FRQ         ___,___,___,Fn4,___,___,___,___ ;
	FRQ         ___,___,___,___,___,___,___,___ ;
	FRQ         Gn4,___,___,___,Dn4,___,___,___ ;
	FRQ         ___,___,___,___,___,___,___,___ ;
	FRQ         ___,Cn5,___,___,Cs4,___,___,___ ;
	FRQ         ___,___,___,___,Dn4,___,___,___ ;
	FRQ         ___,___,___,___,Dn4,___,___,___ ;
	FRQ         ___,___,___,___,Dn4,___,___,___ ;
	SPEED       016
	FRQ         Dn5,___,___,___,Dn4,___,___,___ ;
	SPEED       004
	FRQ         ___,Gn4,___,___,Dn4,___,___,___ ;
	FRQ         ___,___,___,___,Dn4,___,___,___ ;
	FRQ         ___,___,___,___,Dn4,___,___,___ ;
	FRQ         ___,___,___,___,___,___,___,___ ;
	SPEED       008
	FRQ         ___,___,Cn5,___,Dn4,___,___,___ ;
	FRQ         ___,___,___,___,Dn4,___,___,___ ;
	FRQ         ___,___,___,Dn5,Dn4,___,___,___ ;
	FRQ         ___,___,___,___,Dn4,___,___,___ ;
	FRQ         Gn4,___,___,___,Dn4,___,___,___ ;
	FRQ         ___,Cn5,___,___,Dn4,___,___,___ ;
	SPEED       004
	FRQ         ___,___,Dn5,___,Cs4,___,___,___ ;
	FRQ         ___,___,___,___,Dn4,___,___,___ ;
	FRQ         ___,___,___,___,Dn4,___,___,___ ;
	FRQ         ___,___,___,___,___,___,___,___ ;
	FRQ         ___,___,___,Fn4,___,___,___,Cn2 ;
	FRQ         ___,___,___,___,___,___,___,___ ;
	FRQ         Gn4,___,___,___,Dn4,___,___,___ ;
	FRQ         ___,___,___,___,___,___,___,___ ;
	FRQ         ___,Cn5,___,___,Cs4,___,___,___ ;
	FRQ         ___,___,___,___,Dn4,___,___,___ ;
	FRQ         ___,___,___,___,Dn4,Fn2,___,___ ;
	FRQ         ___,___,___,___,Dn4,___,___,___ ;
song00c_rept002:
	INS         ___,___,___,___,___,005,029,___
	VOL         ___,___,___,___,___,255,245,___
	DTN         ___,___,___,___,___,___,000,___
	LFO         ___,___,___,___,___,___,___,___
song00c_jmp000:
	SPEED       008
	FRQ         Dn5,___,___,___,Dn4,Gn2,___,Cn2 ;
	FRQ         ___,___,___,___,___,Q__,___,___ ;
	SPEED       004
	FRQ         ___,Gn4,___,___,Dn4,Gn2,___,Cn2 ;
	FRQ         ___,___,___,___,Dn4,___,___,___ ;
	FRQ         ___,___,___,___,Dn4,Q__,___,___ ;
	FRQ         ___,___,___,___,___,___,___,___ ;
	SPEED       008
	FRQ         ___,___,Cn5,___,Dn4,___,___,___ ;
	FRQ         ___,___,___,___,Dn4,___,___,___ ;
	FRQ         ___,___,___,Dn5,Dn4,___,___,___ ;
	FRQ         ___,___,___,___,Dn4,___,___,___ ;
	FRQ         Gn4,___,___,___,Dn4,___,___,___ ;
	FRQ         ___,Cn5,___,___,Dn4,___,___,___ ;
	SPEED       004
	FRQ         ___,___,Dn5,___,Cs4,___,___,___ ;
	FRQ         ___,___,___,___,Dn4,___,___,___ ;
	FRQ         ___,___,___,___,Dn4,___,___,___ ;
	FRQ         ___,___,___,___,___,___,___,___ ;
	FRQ         ___,___,___,Fn4,___,___,___,___ ;
	FRQ         ___,___,___,___,___,___,___,___ ;
	FRQ         Gn4,___,___,___,Dn4,___,___,___ ;
	FRQ         ___,___,___,___,___,___,___,___ ;
	FRQ         ___,Cn5,___,___,Cs4,___,___,___ ;
	FRQ         ___,___,___,___,Dn4,___,___,___ ;
	FRQ         ___,___,___,___,Dn4,___,___,Cn2 ;
	FRQ         ___,___,___,___,Dn4,___,___,___ ;
	LOOP        $01, song00c_loop000
	SPEED       008
	FRQ         Dn5,___,___,___,Dn4,Gn2,___,Cn2 ;
	FRQ         ___,___,___,___,___,Q__,___,___ ;
	SPEED       004
	FRQ         ___,Gn4,___,___,Dn4,Gn2,___,Cn2 ;
	FRQ         ___,___,___,___,Dn4,___,___,___ ;
	FRQ         ___,___,___,___,Dn4,Q__,___,___ ;
	FRQ         ___,___,___,___,___,___,___,___ ;
	SPEED       008
	FRQ         ___,___,Cn5,___,Dn4,___,___,___ ;
	FRQ         ___,___,___,___,Dn4,___,___,___ ;
	FRQ         ___,___,___,Dn5,Dn4,___,___,___ ;
	FRQ         ___,___,___,___,Dn4,___,___,___ ;
	FRQ         Gn4,___,___,___,Dn4,___,___,___ ;
	FRQ         ___,Cn5,___,___,Dn4,___,___,___ ;
	SPEED       004
	FRQ         ___,___,Dn5,___,Cs4,___,___,___ ;
	FRQ         ___,___,___,___,Dn4,___,___,___ ;
	FRQ         ___,___,___,___,Dn4,___,___,___ ;
	FRQ         ___,___,___,___,___,___,___,___ ;
	FRQ         ___,___,___,Fn4,___,___,Gn2,___ ;
	FRQ         ___,___,___,___,___,___,___,___ ;
	FRQ         Gn4,___,___,___,Dn4,___,___,___ ;
	FRQ         ___,___,___,___,___,___,___,___ ;
	FRQ         ___,Cn5,___,___,Cs4,___,___,___ ;
	FRQ         ___,___,___,___,Dn4,___,___,___ ;
	FRQ         ___,___,___,___,Dn4,___,___,___ ;
	FRQ         ___,___,___,___,Dn4,___,___,___ ;
	SPEED       016
	JUMP        song00c_jmp000
song00c_loop000:
	SPEED       008
	FRQ         Dn5,___,___,___,Dn4,Gn2,___,Cn2 ;
	FRQ         ___,___,___,___,___,Q__,___,___ ;
	SPEED       004
	FRQ         ___,Gn4,___,___,Dn4,Gn2,___,Cn2 ;
	FRQ         ___,___,___,___,Dn4,___,___,___ ;
	FRQ         ___,___,___,___,Dn4,Q__,___,___ ;
	FRQ         ___,___,___,___,___,___,___,___ ;
	SPEED       008
	FRQ         ___,___,Cn5,___,Dn4,___,___,___ ;
	FRQ         ___,___,___,___,Dn4,___,___,___ ;
	FRQ         ___,___,___,Dn5,Dn4,___,___,___ ;
	FRQ         ___,___,___,___,Dn4,___,___,___ ;
	FRQ         Gn4,___,___,___,Dn4,___,___,___ ;
	FRQ         ___,Cn5,___,___,Dn4,___,___,___ ;
	SPEED       001
	GTM         ___,___,___,___,___,___,___,255
	FRQ         ___,___,Dn5,___,Cs4,Fn3,___,Cn3 ;
	FRQ         ___,___,___,___,___,___,___,Cn3 ;
	FRQ         ___,___,___,___,___,___,___,___ ;
	FRQ         ___,___,___,___,___,___,___,___ ;
	SPEED       004
	FRQ         ___,___,___,___,Dn4,___,___,___ ;
	FRQ         ___,___,___,___,Dn4,Gn3,___,___ ;
	FRQ         ___,___,___,___,___,___,___,___ ;
	GTM         ___,___,___,___,___,___,___,003
	FRQ         ___,___,___,Fn4,___,Cn3,Gn2,Cn2 ;
	FRQ         ___,___,___,___,___,___,___,___ ;
	FRQ         Gn4,___,___,___,Dn4,Dn3,___,Cn2 ;
	FRQ         ___,___,___,___,___,___,___,___ ;
	GTM         ___,___,___,___,___,___,___,255
	SPEED       001
	FRQ         ___,Cn5,___,___,Cs4,Fn2,___,Gn2 ;
	FRQ         ___,___,___,___,___,___,___,Gn2 ;
	FRQ         ___,___,___,___,___,___,___,___ ;
	FRQ         ___,___,___,___,___,___,___,___ ;
	SPEED       004
	FRQ         ___,___,___,___,Dn4,___,___,___ ;
	FRQ         ___,___,___,___,Dn4,Gn2,___,___ ;
	FRQ         ___,___,___,___,Dn4,___,___,___ ;
	SPEED       016
	INS         ___,___,___,___,___,___,033,___
	VOL         ___,___,___,___,___,___,230,___
	GTM         ___,___,___,___,___,___,___,003
	SPEED       008
	FRQ         Dn5,___,___,___,Dn4,Gs2,Gs2,Cn2 ;
	FRQ         ___,___,___,___,___,Q__,___,___ ;
	SPEED       004
	FRQ         ___,Gn4,___,___,Dn4,Gs2,___,Cn2 ;
	FRQ         ___,___,___,___,Dn4,___,___,___ ;
	FRQ         ___,___,___,___,Dn4,___,___,___ ;
	FRQ         ___,___,___,___,___,___,___,___ ;
	SPEED       008
	FRQ         ___,___,Cn5,___,Dn4,___,___,___ ;
	FRQ         ___,___,___,___,Dn4,___,___,___ ;
	FRQ         ___,___,___,Dn5,Dn4,___,___,___ ;
	FRQ         ___,___,___,___,Dn4,___,___,___ ;
	FRQ         Gn4,___,___,___,Dn4,___,___,___ ;
	FRQ         ___,Cn5,___,___,Dn4,___,___,___ ;
	SPEED       004
	FRQ         ___,___,Dn5,___,Cs4,___,___,___ ;
	FRQ         ___,___,___,___,Dn4,___,___,___ ;
	FRQ         ___,___,___,___,Dn4,___,___,___ ;
	FRQ         ___,___,___,___,___,___,___,___ ;
	FRQ         ___,___,___,Fn4,___,___,___,___ ;
	FRQ         ___,___,___,___,___,___,___,___ ;
	FRQ         Gn4,___,___,___,Dn4,___,___,___ ;
	FRQ         ___,___,___,___,___,___,___,___ ;
	FRQ         ___,Cn5,___,___,Cs4,___,___,___ ;
	FRQ         ___,___,___,___,Dn4,___,___,___ ;
	FRQ         ___,___,___,___,Dn4,___,___,Cn2 ;
	FRQ         ___,___,___,___,Dn4,___,___,___ ;
	SPEED       008
	FRQ         Dn5,___,___,___,Dn4,Gs2,___,Cn2 ;
	FRQ         ___,___,___,___,___,Q__,___,___ ;
	SPEED       004
	FRQ         ___,Gn4,___,___,Dn4,Gs2,___,Cn2 ;
	FRQ         ___,___,___,___,Dn4,___,___,___ ;
	FRQ         ___,___,___,___,Dn4,Q__,___,___ ;
	FRQ         ___,___,___,___,___,___,___,___ ;
	SPEED       008
	FRQ         ___,___,Cn5,___,Dn4,___,___,___ ;
	FRQ         ___,___,___,___,Dn4,___,___,___ ;
	FRQ         ___,___,___,Dn5,Dn4,___,___,___ ;
	FRQ         ___,___,___,___,Dn4,___,___,___ ;
	FRQ         Gn4,___,___,___,Dn4,___,___,___ ;
	FRQ         ___,Cn5,___,___,Dn4,___,___,___ ;
	SPEED       004
	FRQ         ___,___,Dn5,___,Cs4,___,___,___ ;
	FRQ         ___,___,___,___,Dn4,___,___,___ ;
	FRQ         ___,___,___,___,Dn4,___,___,___ ;
	FRQ         ___,___,___,___,___,___,___,___ ;
	FRQ         ___,___,___,Fn4,___,___,___,___ ;
	FRQ         ___,___,___,___,___,___,___,___ ;
	FRQ         Gn4,___,___,___,Dn4,___,___,___ ;
	FRQ         ___,___,___,___,___,___,___,___ ;
	FRQ         ___,Cn5,___,___,Cs4,___,___,___ ;
	FRQ         ___,___,___,___,Dn4,___,___,___ ;
	FRQ         ___,___,___,___,Dn4,___,___,___ ;
	FRQ         ___,___,___,___,Dn4,___,___,___ ;
	SPEED       008
	FRQ         Dn5,___,___,___,Dn4,Gs2,___,Cn2 ;
	FRQ         ___,___,___,___,___,Q__,___,___ ;
	SPEED       004
	FRQ         ___,Gn4,___,___,Dn4,Gs2,___,Cn2 ;
	FRQ         ___,___,___,___,Dn4,___,___,___ ;
	FRQ         ___,___,___,___,Dn4,___,___,___ ;
	FRQ         ___,___,___,___,___,___,___,___ ;
	SPEED       008
	FRQ         ___,___,Cn5,___,Dn4,___,___,___ ;
	FRQ         ___,___,___,___,Dn4,___,___,___ ;
	FRQ         ___,___,___,Dn5,Dn4,___,___,___ ;
	FRQ         ___,___,___,___,Dn4,___,___,___ ;
	FRQ         Gn4,___,___,___,Dn4,___,___,___ ;
	FRQ         ___,Cn5,___,___,Dn4,___,___,___ ;
	SPEED       004
	FRQ         ___,___,Dn5,___,Cs4,___,___,___ ;
	FRQ         ___,___,___,___,Dn4,___,___,___ ;
	FRQ         ___,___,___,___,Dn4,___,___,___ ;
	FRQ         ___,___,___,___,___,___,___,___ ;
	FRQ         ___,___,___,Fn4,___,___,___,___ ;
	FRQ         ___,___,___,___,___,___,___,___ ;
	FRQ         Gn4,___,___,___,Dn4,___,___,___ ;
	FRQ         ___,___,___,___,___,___,___,___ ;
	FRQ         ___,Cn5,___,___,Cs4,___,___,___ ;
	FRQ         ___,___,___,___,Dn4,___,___,___ ;
	FRQ         ___,___,___,___,Dn4,___,___,Cn2 ;
	FRQ         ___,___,___,___,Dn4,___,___,___ ;
	SPEED       008
	FRQ         Dn5,___,___,___,Dn4,Gs2,___,Cn2 ;
	FRQ         ___,___,___,___,___,Q__,___,___ ;
	SPEED       004
	FRQ         ___,Gn4,___,___,Dn4,Gs2,___,Cn2 ;
	FRQ         ___,___,___,___,Dn4,___,___,___ ;
	FRQ         ___,___,___,___,Dn4,Q__,___,___ ;
	FRQ         ___,___,___,___,___,___,___,___ ;
	SPEED       008
	FRQ         ___,___,Cn5,___,Dn4,___,___,___ ;
	FRQ         ___,___,___,___,Dn4,___,___,___ ;
	FRQ         ___,___,___,Dn5,Dn4,___,___,___ ;
	FRQ         ___,___,___,___,Dn4,___,___,___ ;
	FRQ         Gn4,___,___,___,Dn4,___,___,___ ;
	FRQ         ___,Cn5,___,___,Dn4,___,___,___ ;
	SPEED       004
	FRQ         ___,___,Dn5,___,Cs4,___,___,___ ;
	FRQ         ___,___,___,___,Dn4,___,___,___ ;
	FRQ         ___,___,___,___,Dn4,___,___,___ ;
	FRQ         ___,___,___,___,___,___,___,___ ;
	FRQ         ___,___,___,Fn4,___,___,___,___ ;
	FRQ         ___,___,___,___,___,___,___,___ ;
	FRQ         Gn4,___,___,___,Dn4,___,___,___ ;
	FRQ         ___,___,___,___,___,___,___,___ ;
	FRQ         ___,Cn5,___,___,Cs4,___,___,___ ;
	FRQ         ___,___,___,___,Dn4,___,___,___ ;
	FRQ         ___,___,___,___,Dn4,___,___,___ ;
	FRQ         ___,___,___,___,Dn4,___,___,___ ;
	REPT        $01, song00c_rept002
	SPEED       008
	INS         ___,___,___,___,___,065,065,___
	VOL         ___,___,___,___,___,245,225,___
	LFO         ___,___,___,___,___,002,001,___
	DTN         ___,___,___,___,___,___,032,___
	FRQ         Dn5,___,___,___,Q__,Q__,Q__,___ ;
	FRQ         ___,___,___,___,___,___,___,___ ;
	FRQ         ___,Gn4,___,___,___,___,___,___ ;
	FRQ         ___,___,___,___,___,___,___,___ ;
	FRQ         ___,___,Cn5,___,___,___,___,___ ;
	FRQ         ___,___,___,___,___,___,___,___ ;
	FRQ         ___,___,___,Dn5,___,___,___,___ ;
	FRQ         ___,___,___,___,___,___,___,___ ;
	FRQ         Gn4,___,___,___,___,___,___,___ ;
	FRQ         ___,Cn5,___,___,___,___,___,___ ;
	FRQ         ___,___,Dn5,___,___,___,___,___ ;
	FRQ         ___,___,___,___,___,___,___,___ ;
	SPEED       001
	GTM         ___,___,___,___,___,___,___,255
	FRQ         ___,___,___,Fn4,___,___,___,Cn3 ;
	FRQ         ___,___,___,___,___,___,___,Cn3 ;
	SPEED       006
	FRQ         ___,___,___,___,___,___,___,___ ;
	SPEED       008
	FRQ         Gn4,___,___,___,___,___,___,___ ;
	SPEED       001
	FRQ         ___,Cn5,___,___,___,___,___,Gn2 ;
	FRQ         ___,___,___,___,___,___,___,Gn2 ;
	SPEED       014
	FRQ         ___,___,___,___,___,___,___,___ ;
	SPEED       008
	FRQ         Dn5,___,___,___,___,Gn3,Gn3,___ ;
	FRQ         ___,___,___,___,___,___,___,___ ;
	FRQ         ___,Gn4,___,___,___,___,___,___ ;
	FRQ         ___,___,___,___,___,___,___,___ ;
	FRQ         ___,___,Cn5,___,___,___,___,Cn2 ;
	FRQ         ___,___,___,___,___,___,___,___ ;
	FRQ         ___,___,___,Dn5,___,___,___,___ ;
	FRQ         ___,___,___,___,___,___,___,___ ;
	FRQ         Gn4,___,___,___,___,___,___,___ ;
	FRQ         ___,Cn5,___,___,___,___,___,___ ;
	FRQ         ___,___,Dn5,___,___,___,___,___ ;
	FRQ         ___,___,___,___,___,___,___,___ ;
	FRQ         ___,___,___,Fn4,___,Fn4,___,Cn2 ;
	FRQ         Gn4,___,___,___,___,___,___,___ ;
	FRQ         ___,Cn5,___,___,___,En4,___,___ ;
	FRQ         ___,___,___,___,___,___,Fn4,___ ;
	FRQ         Dn5,___,___,___,___,___,___,___ ;
	FRQ         ___,___,___,___,___,___,En4,___ ;
	FRQ         ___,Gn4,___,___,___,___,___,___ ;
	FRQ         ___,___,___,___,___,___,___,___ ;
	FRQ         ___,___,Cn5,___,___,___,___,Cn2 ;
	FRQ         ___,___,___,___,___,___,___,___ ;
	FRQ         ___,___,___,Dn5,___,___,___,___ ;
	FRQ         ___,___,___,___,___,___,___,___ ;
	FRQ         Gn4,___,___,___,___,Dn4,___,___ ;
	FRQ         ___,Cn5,___,___,___,Cn4,___,___ ;
	FRQ         ___,___,Dn5,___,___,Dn4,___,___ ;
	FRQ         ___,___,___,___,___,___,Dn4,___ ;
	FRQ         ___,___,___,Fn4,___,___,Cn4,Cn2 ;
	FRQ         Gn4,___,___,___,___,___,Dn4,___ ;
	FRQ         ___,Cn5,___,___,___,___,___,___ ;
	FRQ         ___,___,___,___,___,___,___,___ ;
	FRQ         Dn5,___,___,___,___,___,___,___ ;
	FRQ         ___,___,___,___,___,___,___,___ ;
	FRQ         ___,Gn4,___,___,___,___,___,___ ;
	FRQ         ___,___,___,___,___,___,___,___ ;
	FRQ         ___,___,Cn5,___,___,___,___,Cn2 ;
	FRQ         ___,___,___,___,___,___,___,___ ;
	FRQ         ___,___,___,Dn5,___,___,___,___ ;
	FRQ         ___,___,___,___,___,___,___,___ ;
	FRQ         Gn4,___,___,___,___,___,___,___ ;
	FRQ         ___,Cn5,___,___,___,___,___,___ ;
	FRQ         ___,___,Dn5,___,___,___,___,___ ;
	FRQ         ___,___,___,___,___,___,___,___ ;
	FRQ         ___,___,___,Fn4,___,___,___,Cn2 ;
	FRQ         Gn4,___,___,___,___,___,___,___ ;
	FRQ         ___,Cn5,___,___,___,An4,___,___ ;
	FRQ         ___,___,___,___,___,As4,___,___ ;
	FRQ         Dn5,___,___,___,___,An4,___,___ ;
	FRQ         ___,___,___,___,___,___,An4,___ ;
	FRQ         ___,Gn4,___,___,___,___,As4,___ ;
	FRQ         ___,___,___,___,___,___,An4,___ ;
	FRQ         ___,___,Cn5,___,___,___,___,Cn2 ;
	FRQ         ___,___,___,___,___,___,___,___ ;
	FRQ         ___,___,___,Dn5,___,___,___,___ ;
	FRQ         ___,___,___,___,___,___,___,___ ;
	FRQ         Gn4,___,___,___,___,___,___,___ ;
	FRQ         ___,Cn5,___,___,___,___,___,___ ;
	FRQ         ___,___,Dn5,___,___,___,___,___ ;
	FRQ         ___,___,___,___,___,___,___,___ ;
	FRQ         ___,___,___,Fn4,___,___,___,Cn2 ;
	FRQ         Gn4,___,___,___,___,___,___,___ ;
	FRQ         ___,Cn5,___,___,___,Gn4,___,___ ;
	FRQ         ___,___,___,___,___,Fn4,___,___ ;
	FRQ         Dn5,___,___,___,___,Gn4,___,___ ;
	FRQ         ___,___,___,___,___,___,Gn4,___ ;
	FRQ         ___,Gn4,___,___,___,___,Fn4,___ ;
	FRQ         ___,___,___,___,___,___,Gn4,___ ;
	FRQ         ___,___,Cn5,___,___,___,___,Cn2 ;
	FRQ         ___,___,___,___,___,___,___,___ ;
	FRQ         ___,___,___,Dn5,___,___,___,___ ;
	FRQ         ___,___,___,___,___,___,___,___ ;
	FRQ         Gn4,___,___,___,___,___,___,___ ;
	FRQ         ___,Cn5,___,___,___,___,___,___ ;
	FRQ         ___,___,Dn5,___,___,___,___,___ ;
	FRQ         ___,___,___,___,___,___,___,___ ;
	FRQ         ___,___,___,Fn4,___,___,___,Cn2 ;
	FRQ         Gn4,___,___,___,___,___,___,___ ;
	FRQ         ___,Cn5,___,___,___,___,___,___ ;
	FRQ         ___,___,___,___,___,___,___,___ ;
	FRQ         Dn5,___,___,___,___,___,___,___ ;
	FRQ         ___,___,___,___,___,___,___,___ ;
	FRQ         ___,Gn4,___,___,___,___,___,___ ;
	FRQ         ___,___,___,___,___,___,___,___ ;
	FRQ         ___,___,Cn5,___,___,___,___,Cn2 ;
	FRQ         ___,___,___,___,___,___,___,___ ;
	FRQ         ___,___,___,Dn5,___,___,___,___ ;
	FRQ         ___,___,___,___,___,___,___,___ ;
	FRQ         Gn4,___,___,___,___,___,___,___ ;
	FRQ         ___,Cn5,___,___,___,___,___,___ ;
	FRQ         ___,___,Dn5,___,___,___,___,___ ;
	FRQ         ___,___,___,___,___,___,___,___ ;
	FRQ         ___,___,___,Fn4,___,___,___,Cn2 ;
	FRQ         Gn4,___,___,___,___,___,___,___ ;
	FRQ         ___,Cn5,___,___,___,___,___,___ ;
	FRQ         ___,___,___,___,___,___,___,___ ;
	FRQ         Dn5,___,___,___,___,Gs3,___,___ ;
	FRQ         ___,___,___,___,___,___,___,___ ;
	FRQ         ___,Gn4,___,___,___,___,___,___ ;
	FRQ         ___,___,___,___,___,___,Gs3,___ ;
	FRQ         ___,___,Cn5,___,___,___,___,Cn2 ;
	FRQ         ___,___,___,___,___,___,___,___ ;
	FRQ         ___,___,___,Dn5,___,___,___,___ ;
	FRQ         ___,___,___,___,___,___,___,___ ;
	FRQ         Gn4,___,___,___,___,___,___,___ ;
	FRQ         ___,Cn5,___,___,___,___,___,___ ;
	FRQ         ___,___,Dn5,___,___,___,___,___ ;
	FRQ         ___,___,___,___,___,___,___,___ ;
	FRQ         ___,___,___,Fn4,___,___,___,Cn2 ;
	FRQ         Gn4,___,___,___,___,___,___,___ ;
	FRQ         ___,Cn5,___,___,___,Fn4,___,___ ;
	FRQ         ___,___,___,___,___,Ds4,___,___ ;
	FRQ         Dn5,___,___,___,___,Fn4,___,___ ;
	FRQ         ___,___,___,___,___,___,Fn4,___ ;
	FRQ         ___,Gn4,___,___,___,___,Ds4,___ ;
	FRQ         ___,___,___,___,___,___,Fn4,___ ;
	FRQ         ___,___,Cn5,___,___,___,___,Cn2 ;
	FRQ         ___,___,___,___,___,___,___,___ ;
	FRQ         ___,___,___,Dn5,___,___,___,___ ;
	FRQ         ___,___,___,___,___,___,___,___ ;
	FRQ         Gn4,___,___,___,___,Ds4,___,___ ;
	FRQ         ___,Cn5,___,___,___,___,___,___ ;
	FRQ         ___,___,Dn5,___,___,Dn4,___,___ ;
	FRQ         ___,___,___,___,___,___,Ds4,___ ;
	FRQ         ___,___,___,Fn4,___,Ds4,___,Cn2 ;
	FRQ         Gn4,___,___,___,___,___,Dn4,___ ;
	FRQ         ___,Cn5,___,___,___,Dn4,___,___ ;
	FRQ         ___,___,___,___,___,Ds4,Ds4,___ ;
	PIT         ___,___,___,___,___,030,___,___
	PITRAT      ___,___,___,___,___,010,049,___
	PITDEP      ___,___,___,___,___,255,___,___
	FRQ         Dn5,___,___,___,___,Dn4,Ds4,___ ;
	FRQ         ___,___,___,___,___,___,___,___ ;
	FRQ         ___,Gn4,___,___,___,___,Dn4,___ ;
	PIT         ___,___,___,___,___,___,030,___
	PITRAT      ___,___,___,___,___,___,010,___
	PITDEP      ___,___,___,___,___,___,255,___
	FRQ         ___,___,___,___,___,___,Dn4,___ ;
	FRQ         ___,___,Cn5,___,___,___,___,Cn2 ;
	FRQ         ___,___,___,___,___,___,___,___ ;
	FRQ         ___,___,___,Dn5,___,___,___,___ ;
	FRQ         ___,___,___,___,___,___,___,___ ;
	FRQ         Gn4,___,___,___,___,___,___,___ ;
	FRQ         ___,Cn5,___,___,___,___,___,___ ;
	FRQ         ___,___,Dn5,___,___,___,___,___ ;
	FRQ         ___,___,___,___,___,___,___,___ ;
	FRQ         ___,___,___,Fn4,___,___,___,Cn2 ;
	FRQ         Gn4,___,___,___,___,___,___,___ ;
	FRQ         ___,Cn5,___,___,___,___,___,___ ;
	FRQ         ___,___,___,___,___,___,___,___ ;
	PIT         ___,___,___,___,___,029,000,___
	PITRAT      ___,___,___,___,___,015,000,___
	PITDEP      ___,___,___,___,___,255,000,___
	INS         ___,___,___,___,___,___,064,___
	VOL         ___,___,___,___,240,___,245,___
	DTN         ___,___,___,___,___,___,000,___
	SPEED       016
	FRQ         Dn5,___,___,___,Dn4,Dn5,Gn2,Cn2 ;
	SPEED       004
	FRQ         ___,Gn4,___,___,Dn4,___,___,___ ;
	FRQ         ___,___,___,___,Dn4,___,___,___ ;
	FRQ         ___,___,___,___,Dn4,___,___,___ ;
	FRQ         ___,___,___,___,___,___,___,___ ;
	SPEED       008
	FRQ         ___,___,Cn5,___,Dn4,___,___,___ ;
	FRQ         ___,___,___,___,Dn4,___,___,___ ;
	FRQ         ___,___,___,Dn5,Dn4,___,___,___ ;
	FRQ         ___,___,___,___,Dn4,___,___,___ ;
	FRQ         Gn4,___,___,___,Dn4,___,___,___ ;
	FRQ         ___,Cn5,___,___,Dn4,___,___,___ ;
	SPEED       004
	FRQ         ___,___,Dn5,___,Cs4,___,___,___ ;
	FRQ         ___,___,___,___,Dn4,___,___,___ ;
	FRQ         ___,___,___,___,Dn4,___,___,___ ;
	FRQ         ___,___,___,___,___,___,___,___ ;
	FRQ         ___,___,___,Fn4,___,___,___,___ ;
	FRQ         ___,___,___,___,___,___,___,___ ;
	FRQ         Gn4,___,___,___,Dn4,___,___,___ ;
	FRQ         ___,___,___,___,___,___,___,___ ;
	FRQ         ___,Cn5,___,___,Cs4,___,___,___ ;
	FRQ         ___,___,___,___,Dn4,___,___,___ ;
	FRQ         ___,___,___,___,Dn4,___,___,___ ;
	FRQ         ___,___,___,___,Dn4,___,___,___ ;
	PIT         ___,___,___,___,___,001,___,___
	SPEED       008
	FRQ         Dn5,___,___,___,___,Q__,Q__,___ ;
	FRQ         ___,___,___,___,___,___,___,___ ;
	FRQ         ___,Gn4,___,___,___,___,___,___ ;
	FRQ         ___,___,___,___,___,___,___,___ ;
	FRQ         ___,___,Cn5,___,___,___,___,Cn2 ;
	FRQ         ___,___,___,___,___,___,___,___ ;
	FRQ         ___,___,___,Dn5,___,___,___,___ ;
	FRQ         ___,___,___,___,___,___,___,___ ;
	FRQ         Gn4,___,___,___,___,___,___,___ ;
	FRQ         ___,Cn5,___,___,___,___,___,___ ;
	FRQ         ___,___,Dn5,___,___,___,___,___ ;
	FRQ         ___,___,___,___,___,___,___,___ ;
	FRQ         ___,___,___,Fn4,___,___,___,Cn2 ;
	FRQ         Gn4,___,___,___,___,___,___,___ ;
	FRQ         ___,Cn5,___,___,___,___,___,___ ;
	FRQ         ___,___,___,___,___,___,___,___ ;
	JUMP        song00c_rept000
song00d_start:
	INIT        %11111111
	TEMPO       001
	TVOL        255
	SPEED       008
	PIT         ___,___,___,___,030,030,028,004
	PITRAT      ___,___,___,___,010,010,008,100
	TRS         ___,___,___,___,___,___,___,___
	PITDEP      ___,___,___,___,100,100,255,180
	ENV         ___,___,___,___,___,___,___,___
	GTM         ___,___,___,___,___,___,___,003
	INS         ___,___,___,___,___,___,___,001
	VOL         ___,___,___,___,___,___,___,255
	INS         007,007,___,___,047,047,030,___
	VOL         235,235,___,___,235,235,245,___
	LFO         ___,___,___,___,___,___,___,___
	PAN         ___,___,___,___,___,___,___,___
	DTN         ___,___,016,036,008,022,___,___
song00d_rept000:
	INS         ___,___,007,007,___,___,___,___
	VOL         ___,___,230,230,___,___,___,___
	LFO         ___,___,001,001,___,___,___,___
	PAN         ___,___,L__,__R,___,___,___,___
	FRQ         En3,An3,En3,An3,En3,An3,Cn3,Cn2 ;
	FRQ         ___,___,___,___,___,___,___,___ ;
	FRQ         ___,Gs3,___,Gs3,___,___,___,Cn2 ;
	FRQ         ___,___,___,___,___,___,___,___ ;
	FRQ         Ds3,Gn3,Ds3,Gn3,___,Gn3,___,___ ;
	FRQ         ___,___,___,___,___,___,___,___ ;
	FRQ         ___,Fs3,___,Fs3,___,___,___,___ ;
	FRQ         ___,___,___,___,___,___,___,___ ;
	FRQ         Cs3,Fn3,Cs3,Fn3,Cs3,Fn3,___,Cn2 ;
	FRQ         ___,___,___,___,___,___,___,___ ;
	FRQ         ___,Fs3,___,Fs3,___,___,___,___ ;
	FRQ         ___,___,___,___,___,___,___,___ ;
	FRQ         Cn3,Gn3,Cn3,Gn3,___,Gn3,___,Cn2 ;
	FRQ         ___,Gs3,___,Gs3,___,___,___,___ ;
	FRQ         Cs3,Gn3,Cs3,Gn3,___,___,___,___ ;
	FRQ         ___,___,___,___,___,___,___,___ ;
	FRQ         Dn3,___,Dn3,___,Dn3,___,___,Cn2 ;
	FRQ         ___,___,___,___,___,___,___,___ ;
	FRQ         ___,Fn3,___,Fn3,___,Fn3,___,___ ;
	FRQ         ___,Fs3,___,Fs3,___,___,___,___ ;
	FRQ         Ds3,Gn3,Ds3,Gn3,Ds3,___,___,___ ;
	FRQ         ___,___,___,___,___,___,___,___ ;
	FRQ         ___,Gs3,___,Gs3,___,Gs3,___,___ ;
	FRQ         ___,___,___,___,___,___,___,___ ;
	FRQ         En3,___,En3,___,En3,___,___,___ ;
	FRQ         ___,___,___,___,___,___,___,___ ;
	FRQ         Cs3,Fn3,Cs3,Fn3,___,Fn3,___,Cn2 ;
	FRQ         ___,___,___,___,___,___,___,___ ;
	GTM         ___,___,___,___,___,___,___,255
	FRQ         Dn3,Fs3,Dn3,Fs3,Dn3,___,___,Cn3 ;
	GTM         ___,___,___,___,___,___,___,003
	FRQ         ___,___,___,___,___,___,___,___ ;
	FRQ         ___,Gs3,___,Gs3,___,___,___,___ ;
	FRQ         ___,___,___,___,___,___,___,___ ;
	FRQ         ___,As3,___,As3,___,___,___,___ ;
	FRQ         ___,___,___,___,___,___,___,___ ;
	REPT        $01, song00d_rept000
	INS         ___,___,011,011,___,___,___,___
	VOL         ___,___,230,230,___,___,___,___
	LFO         ___,___,___,001,___,___,___,___
	PAN         ___,___,_C_,_C_,___,___,___,___
	FRQ         En3,An3,Fn5,An5,En3,An3,Cn3,Cn2 ;
	FRQ         ___,___,___,___,___,___,___,___ ;
	FRQ         ___,Gs3,Cn5,As4,___,___,___,Cn2 ;
	FRQ         ___,___,___,___,___,___,___,___ ;
	FRQ         Ds3,Gn3,Dn5,Fs5,___,Gn3,___,___ ;
	FRQ         ___,___,___,___,___,___,___,___ ;
	FRQ         ___,Fs3,Fn5,An5,___,___,___,___ ;
	FRQ         ___,___,___,___,___,___,___,___ ;
	FRQ         Cs3,Fn3,Cn5,As4,Cs3,Fn3,___,Cn2 ;
	FRQ         ___,___,___,___,___,___,___,___ ;
	FRQ         ___,Fs3,Dn5,Fs5,___,___,___,___ ;
	FRQ         ___,___,___,___,___,___,___,___ ;
	FRQ         Cn3,Gn3,___,___,___,Gn3,___,Cn2 ;
	FRQ         ___,___,___,___,___,___,___,___ ;
	FRQ         Cs3,Gn3,Cn5,En5,___,___,___,___ ;
	FRQ         ___,___,Dn5,Fs5,___,___,___,___ ;
	FRQ         Dn3,___,___,___,Dn3,___,___,Cn2 ;
	PAN         ___,___,__R,L__,___,___,___,___
	FRQ         ___,___,As5,___,___,___,___,___ ;
	FRQ         ___,Fn3,Gs5,As5,___,Fn3,___,___ ;
	FRQ         ___,___,Fs5,Gs5,___,___,___,___ ;
	FRQ         Ds3,Gn3,En5,Fs5,Ds3,___,___,___ ;
	FRQ         ___,___,Dn5,En5,___,___,___,___ ;
	FRQ         ___,Gs3,Cn5,Dn5,___,Gs3,___,___ ;
	FRQ         ___,___,As4,Cn5,___,___,___,___ ;
	FRQ         En3,___,Gs4,As4,En3,___,___,___ ;
	FRQ         ___,___,___,Gs4,___,___,___,___ ;
	FRQ         Cs3,Fn3,Fs4,___,___,Fn3,___,Cn2 ;
	FRQ         ___,___,___,Fs4,___,___,___,___ ;
	FRQ         Dn3,Fs3,En4,___,Dn3,___,___,Cn2 ;
	FRQ         ___,___,___,En4,___,___,___,___ ;
	FRQ         ___,Gs3,___,___,___,___,___,___ ;
	FRQ         ___,___,Dn4,___,___,___,___,___ ;
	FRQ         ___,As3,___,Dn4,___,___,___,___ ;
	FRQ         ___,___,___,___,___,___,___,___ ;
song00d_rept001:
	INS         ___,___,007,007,___,___,___,___
	VOL         ___,___,230,230,___,___,___,___
	LFO         ___,___,001,001,___,___,___,___
	PAN         ___,___,L__,__R,___,___,___,___
	FRQ         Cn3,Fn3,Cn3,Fn3,En3,Fn3,Cn3,Cn2 ;
	FRQ         ___,Fs3,___,Fs3,___,___,___,___ ;
	FRQ         ___,Gs3,___,Gs3,___,___,___,Cn2 ;
	FRQ         ___,___,___,___,___,___,___,___ ;
	FRQ         Ds3,Gn3,Ds3,Gn3,___,Gn3,___,___ ;
	FRQ         ___,___,___,___,___,___,___,___ ;
	FRQ         ___,Gs3,___,Gs3,___,___,___,___ ;
	FRQ         ___,___,___,___,___,___,___,___ ;
	FRQ         Fn3,Fn3,Fn3,Fn3,Cs3,Fn3,___,Cn2 ;
	FRQ         ___,___,___,___,___,___,___,___ ;
	FRQ         ___,Gs3,___,Gs3,___,___,___,___ ;
	FRQ         ___,___,___,___,___,___,___,___ ;
	FRQ         Dn3,En3,Dn3,En3,___,En3,___,Cn2 ;
	FRQ         Cs3,Fs3,Cs3,Fs3,___,___,___,___ ;
	FRQ         Cn3,En3,Cn3,En3,___,___,___,___ ;
	FRQ         ___,___,___,___,___,___,___,___ ;
	FRQ         Dn3,___,Dn3,___,Dn3,___,___,Cn2 ;
	FRQ         ___,___,___,___,___,___,___,___ ;
	FRQ         ___,___,___,___,___,___,___,___ ;
	FRQ         ___,___,___,___,___,___,___,___ ;
	FRQ         ___,An3,___,An3,___,An3,___,___ ;
	FRQ         ___,Fs3,___,Fs3,___,___,___,___ ;
	FRQ         Cs3,Gn3,Cs3,Gn3,Ds3,___,___,___ ;
	FRQ         Cn3,___,Cn3,___,___,___,___,___ ;
	FRQ         ___,Gs3,___,Gs3,___,Gs3,___,___ ;
	FRQ         ___,___,___,___,___,___,___,___ ;
	FRQ         Dn3,___,Dn3,___,En3,___,___,___ ;
	FRQ         ___,___,___,___,___,___,___,___ ;
	FRQ         Cs3,Fs3,Cs3,Fs3,___,Fs3,___,Cn2 ;
	FRQ         ___,___,___,___,___,___,___,___ ;
	GTM         ___,___,___,___,___,___,___,255
	FRQ         Dn3,Fs3,Dn3,Fs3,Dn3,___,___,Cn3 ;
	GTM         ___,___,___,___,___,___,___,003
	FRQ         ___,___,___,___,___,___,___,___ ;
	FRQ         ___,Gs3,___,Gs3,___,Gs3,___,___ ;
	FRQ         ___,___,___,___,___,___,___,___ ;
	FRQ         ___,Fs3,___,Fs3,___,___,___,___ ;
	FRQ         ___,___,___,___,___,___,___,___ ;
	FRQ         ___,___,___,___,___,___,___,___ ;
	FRQ         ___,___,___,___,___,___,___,___ ;
	FRQ         ___,___,___,___,___,___,___,___ ;
	FRQ         ___,___,___,___,___,___,___,___ ;
	REPT        $01, song00d_rept001
	FRQ         Fn4,An3,Gs4,An3,En3,An3,Cn3,Cn2 ;
	FRQ         ___,___,___,___,___,___,___,___ ;
	FRQ         An3,Gs3,Cn4,Gs3,___,___,___,Cn2 ;
	FRQ         ___,___,___,___,___,___,___,___ ;
	FRQ         Fn4,Gn3,Gs4,An3,___,Gn3,___,___ ;
	FRQ         ___,___,___,___,___,___,___,___ ;
	FRQ         An3,Fs3,Cn4,Fs3,___,___,___,___ ;
	FRQ         ___,___,___,___,___,___,___,___ ;
	FRQ         Fn4,Fn3,Gs4,Fn3,Cs3,Fn3,___,Cn2 ;
	FRQ         ___,___,___,___,___,___,___,___ ;
	FRQ         An3,Fs3,Cn4,Fs3,___,___,___,___ ;
	FRQ         ___,___,___,___,___,___,___,___ ;
	FRQ         ___,Gn3,___,Gn3,___,Gn3,___,Cn2 ;
	FRQ         ___,Gs3,___,Gs3,___,___,___,___ ;
	FRQ         ___,Gn3,___,Gn3,___,___,___,___ ;
	FRQ         ___,___,___,___,___,___,___,___ ;
	FRQ         ___,___,___,___,Dn3,___,___,Cn2 ;
	FRQ         ___,___,___,___,___,___,___,___ ;
	FRQ         ___,Fn3,___,Fn3,___,Fn3,___,___ ;
	FRQ         ___,Fs3,___,Fs3,___,___,___,___ ;
	FRQ         ___,Gn3,___,Gn3,Ds3,___,___,___ ;
	FRQ         ___,___,___,___,___,___,___,___ ;
	FRQ         ___,Gs3,___,Gs3,___,Gs3,___,___ ;
	FRQ         ___,___,___,___,___,___,___,___ ;
	JUMP        song00d_rept000
.endproc
