	.include "song.inc"
	.segment "BANK0"
	.export area92
.proc area92
song00d_start:
	INIT        %11111111
	TEMPO       001
	TVOL        255
	SPEED       008
	PIT         ___,___,___,___,030,030,028,004
	PITRAT      ___,___,___,___,010,010,008,100
	TRS         ___,___,___,___,___,___,___,___
	PITDEP      ___,___,___,___,100,100,255,180
	ENV         ___,___,___,___,___,___,___,___
	GTM         ___,___,___,___,___,___,___,003
	INS         ___,___,___,___,___,___,___,001
	VOL         ___,___,___,___,___,___,___,255
	INS         007,007,___,___,047,047,030,___
	VOL         235,235,___,___,235,235,245,___
	LFO         ___,___,___,___,___,___,___,___
	PAN         ___,___,___,___,___,___,___,___
	DTN         ___,___,016,036,008,022,___,___
song00d_rept000:
	INS         ___,___,007,007,___,___,___,___
	VOL         ___,___,230,230,___,___,___,___
	LFO         ___,___,001,001,___,___,___,___
	PAN         ___,___,L__,__R,___,___,___,___
	FRQ         En3,An3,En3,An3,En3,An3,Cn3,Cn2 ;
	FRQ         ___,___,___,___,___,___,___,___ ;
	FRQ         ___,Gs3,___,Gs3,___,___,___,Cn2 ;
	FRQ         ___,___,___,___,___,___,___,___ ;
	FRQ         Ds3,Gn3,Ds3,Gn3,___,Gn3,___,___ ;
	FRQ         ___,___,___,___,___,___,___,___ ;
	FRQ         ___,Fs3,___,Fs3,___,___,___,___ ;
	FRQ         ___,___,___,___,___,___,___,___ ;
	FRQ         Cs3,Fn3,Cs3,Fn3,Cs3,Fn3,___,Cn2 ;
	FRQ         ___,___,___,___,___,___,___,___ ;
	FRQ         ___,Fs3,___,Fs3,___,___,___,___ ;
	FRQ         ___,___,___,___,___,___,___,___ ;
	FRQ         Cn3,Gn3,Cn3,Gn3,___,Gn3,___,Cn2 ;
	FRQ         ___,Gs3,___,Gs3,___,___,___,___ ;
	FRQ         Cs3,Gn3,Cs3,Gn3,___,___,___,___ ;
	FRQ         ___,___,___,___,___,___,___,___ ;
	FRQ         Dn3,___,Dn3,___,Dn3,___,___,Cn2 ;
	FRQ         ___,___,___,___,___,___,___,___ ;
	FRQ         ___,Fn3,___,Fn3,___,Fn3,___,___ ;
	FRQ         ___,Fs3,___,Fs3,___,___,___,___ ;
	FRQ         Ds3,Gn3,Ds3,Gn3,Ds3,___,___,___ ;
	FRQ         ___,___,___,___,___,___,___,___ ;
	FRQ         ___,Gs3,___,Gs3,___,Gs3,___,___ ;
	FRQ         ___,___,___,___,___,___,___,___ ;
	FRQ         En3,___,En3,___,En3,___,___,___ ;
	FRQ         ___,___,___,___,___,___,___,___ ;
	FRQ         Cs3,Fn3,Cs3,Fn3,___,Fn3,___,Cn2 ;
	FRQ         ___,___,___,___,___,___,___,___ ;
	GTM         ___,___,___,___,___,___,___,255
	FRQ         Dn3,Fs3,Dn3,Fs3,Dn3,___,___,Cn3 ;
	GTM         ___,___,___,___,___,___,___,003
	FRQ         ___,___,___,___,___,___,___,___ ;
	FRQ         ___,Gs3,___,Gs3,___,___,___,___ ;
	FRQ         ___,___,___,___,___,___,___,___ ;
	FRQ         ___,As3,___,As3,___,___,___,___ ;
	FRQ         ___,___,___,___,___,___,___,___ ;
	REPT        $01, song00d_rept000
	INS         ___,___,011,011,___,___,___,___
	VOL         ___,___,230,230,___,___,___,___
	LFO         ___,___,___,001,___,___,___,___
	PAN         ___,___,_C_,_C_,___,___,___,___
	FRQ         En3,An3,Fn5,An5,En3,An3,Cn3,Cn2 ;
	FRQ         ___,___,___,___,___,___,___,___ ;
	FRQ         ___,Gs3,Cn5,As4,___,___,___,Cn2 ;
	FRQ         ___,___,___,___,___,___,___,___ ;
	FRQ         Ds3,Gn3,Dn5,Fs5,___,Gn3,___,___ ;
	FRQ         ___,___,___,___,___,___,___,___ ;
	FRQ         ___,Fs3,Fn5,An5,___,___,___,___ ;
	FRQ         ___,___,___,___,___,___,___,___ ;
	FRQ         Cs3,Fn3,Cn5,As4,Cs3,Fn3,___,Cn2 ;
	FRQ         ___,___,___,___,___,___,___,___ ;
	FRQ         ___,Fs3,Dn5,Fs5,___,___,___,___ ;
	FRQ         ___,___,___,___,___,___,___,___ ;
	FRQ         Cn3,Gn3,___,___,___,Gn3,___,Cn2 ;
	FRQ         ___,___,___,___,___,___,___,___ ;
	FRQ         Cs3,Gn3,Cn5,En5,___,___,___,___ ;
	FRQ         ___,___,Dn5,Fs5,___,___,___,___ ;
	FRQ         Dn3,___,___,___,Dn3,___,___,Cn2 ;
	PAN         ___,___,__R,L__,___,___,___,___
	FRQ         ___,___,As5,___,___,___,___,___ ;
	FRQ         ___,Fn3,Gs5,As5,___,Fn3,___,___ ;
	FRQ         ___,___,Fs5,Gs5,___,___,___,___ ;
	FRQ         Ds3,Gn3,En5,Fs5,Ds3,___,___,___ ;
	FRQ         ___,___,Dn5,En5,___,___,___,___ ;
	FRQ         ___,Gs3,Cn5,Dn5,___,Gs3,___,___ ;
	FRQ         ___,___,As4,Cn5,___,___,___,___ ;
	FRQ         En3,___,Gs4,As4,En3,___,___,___ ;
	FRQ         ___,___,___,Gs4,___,___,___,___ ;
	FRQ         Cs3,Fn3,Fs4,___,___,Fn3,___,Cn2 ;
	FRQ         ___,___,___,Fs4,___,___,___,___ ;
	FRQ         Dn3,Fs3,En4,___,Dn3,___,___,Cn2 ;
	FRQ         ___,___,___,En4,___,___,___,___ ;
	FRQ         ___,Gs3,___,___,___,___,___,___ ;
	FRQ         ___,___,Dn4,___,___,___,___,___ ;
	FRQ         ___,As3,___,Dn4,___,___,___,___ ;
	FRQ         ___,___,___,___,___,___,___,___ ;
song00d_rept001:
	INS         ___,___,007,007,___,___,___,___
	VOL         ___,___,230,230,___,___,___,___
	LFO         ___,___,001,001,___,___,___,___
	PAN         ___,___,L__,__R,___,___,___,___
	FRQ         Cn3,Fn3,Cn3,Fn3,En3,Fn3,Cn3,Cn2 ;
	FRQ         ___,Fs3,___,Fs3,___,___,___,___ ;
	FRQ         ___,Gs3,___,Gs3,___,___,___,Cn2 ;
	FRQ         ___,___,___,___,___,___,___,___ ;
	FRQ         Ds3,Gn3,Ds3,Gn3,___,Gn3,___,___ ;
	FRQ         ___,___,___,___,___,___,___,___ ;
	FRQ         ___,Gs3,___,Gs3,___,___,___,___ ;
	FRQ         ___,___,___,___,___,___,___,___ ;
	FRQ         Fn3,Fn3,Fn3,Fn3,Cs3,Fn3,___,Cn2 ;
	FRQ         ___,___,___,___,___,___,___,___ ;
	FRQ         ___,Gs3,___,Gs3,___,___,___,___ ;
	FRQ         ___,___,___,___,___,___,___,___ ;
	FRQ         Dn3,En3,Dn3,En3,___,En3,___,Cn2 ;
	FRQ         Cs3,Fs3,Cs3,Fs3,___,___,___,___ ;
	FRQ         Cn3,En3,Cn3,En3,___,___,___,___ ;
	FRQ         ___,___,___,___,___,___,___,___ ;
	FRQ         Dn3,___,Dn3,___,Dn3,___,___,Cn2 ;
	FRQ         ___,___,___,___,___,___,___,___ ;
	FRQ         ___,___,___,___,___,___,___,___ ;
	FRQ         ___,___,___,___,___,___,___,___ ;
	FRQ         ___,An3,___,An3,___,An3,___,___ ;
	FRQ         ___,Fs3,___,Fs3,___,___,___,___ ;
	FRQ         Cs3,Gn3,Cs3,Gn3,Ds3,___,___,___ ;
	FRQ         Cn3,___,Cn3,___,___,___,___,___ ;
	FRQ         ___,Gs3,___,Gs3,___,Gs3,___,___ ;
	FRQ         ___,___,___,___,___,___,___,___ ;
	FRQ         Dn3,___,Dn3,___,En3,___,___,___ ;
	FRQ         ___,___,___,___,___,___,___,___ ;
	FRQ         Cs3,Fs3,Cs3,Fs3,___,Fs3,___,Cn2 ;
	FRQ         ___,___,___,___,___,___,___,___ ;
	GTM         ___,___,___,___,___,___,___,255
	FRQ         Dn3,Fs3,Dn3,Fs3,Dn3,___,___,Cn3 ;
	GTM         ___,___,___,___,___,___,___,003
	FRQ         ___,___,___,___,___,___,___,___ ;
	FRQ         ___,Gs3,___,Gs3,___,Gs3,___,___ ;
	FRQ         ___,___,___,___,___,___,___,___ ;
	FRQ         ___,Fs3,___,Fs3,___,___,___,___ ;
	FRQ         ___,___,___,___,___,___,___,___ ;
	FRQ         ___,___,___,___,___,___,___,___ ;
	FRQ         ___,___,___,___,___,___,___,___ ;
	FRQ         ___,___,___,___,___,___,___,___ ;
	FRQ         ___,___,___,___,___,___,___,___ ;
	REPT        $01, song00d_rept001
	FRQ         Fn4,An3,Gs4,An3,En3,An3,Cn3,Cn2 ;
	FRQ         ___,___,___,___,___,___,___,___ ;
	FRQ         An3,Gs3,Cn4,Gs3,___,___,___,Cn2 ;
	FRQ         ___,___,___,___,___,___,___,___ ;
	FRQ         Fn4,Gn3,Gs4,An3,___,Gn3,___,___ ;
	FRQ         ___,___,___,___,___,___,___,___ ;
	FRQ         An3,Fs3,Cn4,Fs3,___,___,___,___ ;
	FRQ         ___,___,___,___,___,___,___,___ ;
	FRQ         Fn4,Fn3,Gs4,Fn3,Cs3,Fn3,___,Cn2 ;
	FRQ         ___,___,___,___,___,___,___,___ ;
	FRQ         An3,Fs3,Cn4,Fs3,___,___,___,___ ;
	FRQ         ___,___,___,___,___,___,___,___ ;
	FRQ         ___,Gn3,___,Gn3,___,Gn3,___,Cn2 ;
	FRQ         ___,Gs3,___,Gs3,___,___,___,___ ;
	FRQ         ___,Gn3,___,Gn3,___,___,___,___ ;
	FRQ         ___,___,___,___,___,___,___,___ ;
	FRQ         ___,___,___,___,Dn3,___,___,Cn2 ;
	FRQ         ___,___,___,___,___,___,___,___ ;
	FRQ         ___,Fn3,___,Fn3,___,Fn3,___,___ ;
	FRQ         ___,Fs3,___,Fs3,___,___,___,___ ;
	FRQ         ___,Gn3,___,Gn3,Ds3,___,___,___ ;
	FRQ         ___,___,___,___,___,___,___,___ ;
	FRQ         ___,Gs3,___,Gs3,___,Gs3,___,___ ;
	FRQ         ___,___,___,___,___,___,___,___ ;
	JUMP        song00d_rept000
.endproc
