	.include "song.inc"
	.segment "BANK0"
	.export area3
.proc area3
song005_start:
;	CHANNEL		___,___,___,___,004,___,___,___
	CHANNEL		001,007,002,003,004,005,009,006
	LINK		___,003,___,___,___,___,___,___
	LINKVOL		___,001,___,___,___,___,___,___
	TEMPO       001
	SPEED       006
	PIT         011,013,015,017,019,___,___,004
	PITRAT      135,138,140,143,147,___,___,100
	TVOL        255
	PITDEP      115,114,116,113,112,___,___,180
	ENV         ___,013,___,___,___,___,011,___
	GTM         ___,___,___,___,___,___,___,003
	INS         040,040,040,040,040,005,007,001
	DTN         ___,004,018,008,036,___,032,___
	VOL         240,240,240,240,240,255,230,255
	LFO         ___,001,___,___,001,___,___,___
	SPEED       012
	FRQ         ___,___,___,___,___,___,___,Cn2 ;
	PAN         L__,_C_,_C_,_C_,__R,___,___,___
	VOL         170,170,170,170,170,170,170,210
	FRQ         Gn3,Cn4,En4,Cn4,En4,Cn2,Cn5,Cn2 ;
	VOL         180,180,180,180,180,180,180,215
	FRQ         Gn3,Cn4,En4,Cn4,En4,Cn2,Cn5,Cn2 ;
	VOL         190,190,190,190,190,190,190,220
	FRQ         Gn3,Cn4,En4,Cn4,En4,Cn2,Cn5,Cn2 ;
	VOL         200,200,200,200,200,200,200,225
	FRQ         Gn3,Cn4,En4,Cn4,En4,Cn2,Cn5,Cn2 ;
	VOL         210,210,210,210,210,210,210,230
	FRQ         Gn3,Cn4,En4,Cn4,En4,Cn2,Cn5,Cn2 ;
	VOL         220,220,220,220,220,220,220,235
	FRQ         Gn3,Cn4,En4,Cn4,En4,Cn2,Cn5,Cn2 ;
	VOL         230,230,230,230,230,230,230,245
	FRQ         Gn3,Cn4,En4,Cn4,En4,Cn2,Cn5,Cn2 ;
song005_jmp002:
	INS         040,040,040,040,040,005,007,001
	VOL         240,240,240,240,240,255,230,255
	LFO         ___,001,___,___,001,___,___,___
	SPEED       006
	VOL         240,240,240,240,240,255,240,255
	PAN         L__,_C_,_C_,_C_,__R,___,___,___
	DTN         ___,004,018,016,036,___,___,___
	GTM         ___,___,___,___,___,___,___,003
	FRQ         Gn3,Cn4,En4,Cn4,En4,Cn2,Cn5,Cn2 ;
	FRQ         ___,___,___,___,___,___,___,___ ;
	FRQ         ___,___,___,___,___,Cn3,Cn6,___ ;
	FRQ         ___,___,___,___,___,___,Cn6,___ ;
	GTM         ___,___,___,___,___,___,___,255
	FRQ         ___,___,___,___,___,Cn2,Cn5,Cn3 ;
	FRQ         ___,___,___,___,___,___,___,___ ;
	FRQ         ___,___,___,___,___,Cn3,Cn6,___ ;
	FRQ         ___,___,___,___,___,___,Cn6,___ ;
	GTM         ___,___,___,___,___,___,___,003
	FRQ         ___,___,___,___,___,Cn2,Cn5,Cn2 ;
	FRQ         ___,___,___,___,___,___,___,___ ;
	FRQ         ___,___,___,___,___,Cn3,Cn6,___ ;
	FRQ         ___,___,___,___,___,___,Cn6,___ ;
	GTM         ___,___,___,___,___,___,___,255
	FRQ         Gn3,Cn4,En4,Cn4,En4,Cn2,Cn5,Cn3 ;
	FRQ         ___,___,___,___,___,___,___,___ ;
	GTM         ___,___,___,___,___,___,___,003
	FRQ         Gn3,Bn3,Dn4,Bn3,Dn4,Cn3,Cn6,Cn2 ;
	FRQ         ___,___,___,___,___,___,Cn6,___ ;
	GTM         ___,___,___,___,___,___,___,003
	FRQ         ___,___,___,___,___,Cn2,Cn5,Cn2 ;
	FRQ         ___,___,___,___,___,___,___,___ ;
	FRQ         ___,___,___,___,___,Cn3,Cn6,___ ;
	FRQ         ___,___,___,___,___,___,Cn6,___ ;
	GTM         ___,___,___,___,___,___,___,255
	FRQ         ___,___,___,___,___,Cn2,Cn5,Cn3 ;
	FRQ         ___,___,___,___,___,___,___,___ ;
	FRQ         ___,___,___,___,___,Cn3,Cn6,___ ;
	FRQ         ___,___,___,___,___,___,Cn6,___ ;
	GTM         ___,___,___,___,___,___,___,003
	FRQ         ___,___,___,___,___,Cn2,Cn5,Cn2 ;
	FRQ         ___,___,___,___,___,___,___,___ ;
	FRQ         ___,___,___,___,___,Cn3,Cn6,___ ;
	FRQ         ___,___,___,___,___,___,Cn6,Cn2 ;
	GTM         ___,___,___,___,___,___,___,255
	FRQ         ___,___,___,___,___,Cn2,Cn5,Cn3 ;
	FRQ         ___,___,___,___,___,___,___,___ ;
	GTM         ___,___,___,___,___,___,___,003
	FRQ         ___,___,___,___,___,Cn3,Cn6,Cn2 ;
	FRQ         ___,___,___,___,___,___,Cn6,___ ;
	GTM         ___,___,___,___,___,___,___,003
	FRQ         Fn3,As4,Dn4,As4,Dn4,Cn2,Cn5,Cn2 ;
	FRQ         ___,___,___,___,___,___,___,___ ;
	FRQ         ___,___,___,___,___,Cn3,Cn6,___ ;
	FRQ         ___,___,___,___,___,___,Cn6,___ ;
	GTM         ___,___,___,___,___,___,___,255
	FRQ         ___,___,___,___,___,Cn2,Cn5,Cn3 ;
	FRQ         ___,___,___,___,___,___,___,___ ;
	FRQ         ___,___,___,___,___,Cn3,Cn6,___ ;
	FRQ         ___,___,___,___,___,___,Cn6,___ ;
	GTM         ___,___,___,___,___,___,___,003
	FRQ         ___,___,___,___,___,Cn2,Cn5,Cn2 ;
	FRQ         ___,___,___,___,___,___,___,___ ;
	FRQ         ___,___,___,___,___,Cn3,Cn6,___ ;
	FRQ         ___,___,___,___,___,___,Cn6,___ ;
	GTM         ___,___,___,___,___,___,___,255
	FRQ         Fn3,As4,Dn4,As4,Dn4,Cn2,Cn5,Cn3 ;
	FRQ         ___,___,___,___,___,___,___,___ ;
	GTM         ___,___,___,___,___,___,___,003
	FRQ         Fn3,An3,Cn4,An3,Cn4,Cn3,Cn6,Cn2 ;
	FRQ         ___,___,___,___,___,___,Cn6,___ ;
	GTM         ___,___,___,___,___,___,___,003
	FRQ         Q__,Q__,Q__,Q__,Q__,Cn2,Cn5,Cn2 ;
	FRQ         ___,___,___,___,___,___,___,Cn2 ;
	FRQ         Fn3,An3,Cn4,An3,Cn4,Cn3,Cn6,___ ;
	FRQ         ___,___,___,___,___,___,Cn6,Cn2 ;
	GTM         ___,___,___,___,___,___,___,255
	FRQ         Q__,Q__,Q__,Q__,Q__,Cn2,Cn5,Cn3 ;
	FRQ         ___,___,___,___,___,___,___,___ ;
	FRQ         Gn3,Bn3,Dn4,Bn3,Dn4,Cn3,Cn6,Cn3 ;
	FRQ         ___,___,___,___,___,___,Cn6,___ ;
	GTM         ___,___,___,___,___,___,___,003
	FRQ         Q__,Q__,Q__,Q__,Q__,Cn2,Cn5,Cn2 ;
	FRQ         ___,___,___,___,___,___,___,___ ;
	FRQ         Gn3,Bn3,Dn4,Bn3,Dn4,Cn3,Cn6,___ ;
	FRQ         ___,___,___,___,___,___,Cn6,___ ;
	GTM         ___,___,___,___,___,___,___,255
	FRQ         ___,___,___,___,___,Cn2,Cn5,Cn3 ;
	FRQ         ___,___,___,___,___,___,___,Cn3 ;
	FRQ         ___,___,___,___,___,Cn3,Cn6,Cn3 ;
	FRQ         ___,___,___,___,___,___,Cn6,___ ;
	GTM         ___,___,___,___,___,___,___,003
	FRQ         Gn3,Cn4,En4,Cn4,En4,Cn2,Cn5,Cn2 ;
	FRQ         ___,___,___,___,___,___,___,___ ;
	FRQ         ___,___,___,___,___,Cn3,Cn6,___ ;
	FRQ         ___,___,___,___,___,___,Cn6,___ ;
	GTM         ___,___,___,___,___,___,___,255
	FRQ         ___,___,___,___,___,Cn2,Cn5,Cn3 ;
	FRQ         ___,___,___,___,___,___,___,___ ;
	FRQ         ___,___,___,___,___,Cn3,Cn6,___ ;
	FRQ         ___,___,___,___,___,___,Cn6,___ ;
	GTM         ___,___,___,___,___,___,___,003
	FRQ         ___,___,___,___,___,Cn2,Cn5,Cn2 ;
	FRQ         ___,___,___,___,___,___,___,___ ;
	FRQ         ___,___,___,___,___,Cn3,Cn6,___ ;
	FRQ         ___,___,___,___,___,___,Cn6,___ ;
	GTM         ___,___,___,___,___,___,___,255
	FRQ         Gn3,Cn4,En4,Cn4,En4,Cn2,Cn5,Cn3 ;
	FRQ         ___,___,___,___,___,___,___,___ ;
	GTM         ___,___,___,___,___,___,___,003
	FRQ         Gn3,Bn3,Dn4,Bn3,Dn4,Cn3,Cn6,Cn2 ;
	FRQ         ___,___,___,___,___,___,Cn6,___ ;
	GTM         ___,___,___,___,___,___,___,003
	FRQ         ___,___,___,___,___,Cn2,Cn5,Cn2 ;
	FRQ         ___,___,___,___,___,___,___,___ ;
	FRQ         ___,___,___,___,___,Cn3,Cn6,Cn2 ;
	FRQ         ___,___,___,___,___,___,Cn6,___ ;
	GTM         ___,___,___,___,___,___,___,255
	FRQ         ___,___,___,___,___,Cn2,Cn5,Cn3 ;
	FRQ         ___,___,___,___,___,___,___,___ ;
	FRQ         ___,___,___,___,___,Cn3,Cn6,___ ;
	FRQ         ___,___,___,___,___,___,Cn6,___ ;
	GTM         ___,___,___,___,___,___,___,003
	FRQ         ___,___,___,___,___,Cn2,Cn5,Cn2 ;
	FRQ         ___,___,___,___,___,___,___,___ ;
	FRQ         ___,___,___,___,___,Cn3,Cn6,___ ;
	FRQ         ___,___,___,___,___,___,Cn6,___ ;
	GTM         ___,___,___,___,___,___,___,255
	FRQ         ___,___,___,___,___,Cn2,Cn5,Cn3 ;
	FRQ         ___,___,___,___,___,___,___,___ ;
	GTM         ___,___,___,___,___,___,___,003
	FRQ         ___,___,___,___,___,Cn3,Cn6,Cn2 ;
	FRQ         ___,___,___,___,___,___,Cn6,___ ;
	GTM         ___,___,___,___,___,___,___,003
	FRQ         As3,Dn4,Fn4,Dn4,Fn4,Cn2,Cn5,Cn2 ;
	FRQ         ___,___,___,___,___,___,___,___ ;
	FRQ         ___,___,___,___,___,Cn3,Cn6,___ ;
	FRQ         ___,___,___,___,___,___,Cn6,___ ;
	GTM         ___,___,___,___,___,___,___,255
	FRQ         ___,___,___,___,___,Cn2,Cn5,Cn3 ;
	FRQ         ___,___,___,___,___,___,___,___ ;
	FRQ         ___,___,___,___,___,Cn3,Cn6,___ ;
	FRQ         ___,___,___,___,___,___,Cn6,___ ;
	GTM         ___,___,___,___,___,___,___,003
	FRQ         ___,___,___,___,___,Cn2,Cn5,Cn2 ;
	FRQ         ___,___,___,___,___,___,___,___ ;
	FRQ         ___,___,___,___,___,Cn3,Cn6,___ ;
	FRQ         ___,___,___,___,___,___,Cn6,Cn2 ;
	GTM         ___,___,___,___,___,___,___,255
	FRQ         Dn4,Fn4,An4,Fn4,An4,Cn2,Cn5,Cn3 ;
	FRQ         ___,___,___,___,___,___,___,___ ;
	GTM         ___,___,___,___,___,___,___,003
	FRQ         Cn4,Fn4,An4,Fn4,An4,Cn3,Cn6,Cn2 ;
	FRQ         ___,___,___,___,___,___,Cn6,___ ;
	GTM         ___,___,___,___,___,___,___,003
	FRQ         Q__,Q__,Q__,Q__,Q__,Cn2,Cn5,Cn2 ;
	FRQ         ___,___,___,___,___,___,___,___ ;
	FRQ         Cn4,Fn4,An4,Fn4,An4,Cn3,Cn6,Cn3 ;
	FRQ         ___,___,___,___,___,___,Cn6,Cn3 ;
	GTM         ___,___,___,___,___,___,___,255
	FRQ         Q__,Q__,Q__,Q__,Q__,Cn2,Cn5,Cn3 ;
	FRQ         ___,___,___,___,___,___,___,___ ;
	FRQ         Dn4,Gn4,Bn4,Gn4,Bn4,Cn3,Cn6,___ ;
	FRQ         ___,___,___,___,___,___,Cn6,___ ;
	FRQ         Q__,Q__,Q__,Q__,Q__,Cn2,Cn5,Cn2 ;
	FRQ         ___,___,___,___,___,___,___,Cn3 ;
	FRQ         Dn4,Gn4,Bn4,Gn4,Bn4,Cn3,Cn6,Cn3 ;
	FRQ         ___,___,___,___,___,___,Cn6,Cn3 ;
	FRQ         ___,___,___,___,___,Cn2,Cn5,Cn2 ;
	FRQ         ___,___,___,___,___,___,___,Cn3 ;
	FRQ         ___,___,___,___,___,Cn3,Cn6,Cn3 ;
	FRQ         ___,___,___,___,___,___,Cn6,Cn3 ;
	FRQ         ___,___,___,___,___,___,___,Cn3 ;
	FRQ         ___,___,___,___,___,___,___,Cn3 ;
	FRQ         ___,___,___,___,___,___,___,Gn2 ;
	FRQ         ___,___,___,___,___,___,___,Gn2 ;
	FRQ         ___,___,___,___,___,___,___,Gn2 ;
	FRQ         ___,___,___,___,___,___,___,___ ;
	INS         ___,___,___,___,___,___,___,038
	VOL         ___,___,___,___,___,___,___,230
	GTM         ___,___,___,___,___,___,___,001
	FRQ         ___,___,___,___,___,___,___,Cn8 ;
	FRQ         ___,___,___,___,___,___,___,Cn8 ;
	FRQ         ___,___,___,___,___,___,___,Cn8 ;
	FRQ         ___,___,___,___,___,___,___,___ ;
	FRQ         ___,___,___,___,___,___,___,Cn8 ;
	FRQ         ___,___,___,___,___,___,___,Cn8 ;
	PIT         ___,___,___,___,___,___,___,___
	PITRAT      ___,___,___,___,___,___,___,___
	PITDEP      ___,___,___,___,___,___,___,___
	INS         ___,___,___,___,___,___,___,001
	VOL         ___,___,___,___,___,___,___,255
	GTM         ___,___,___,___,___,___,___,255
	PAN         ___,___,___,___,___,___,___,___
	DEL         ___,___,___,___,___,___,___,___
	FRQ         ___,___,___,___,___,___,___,Cn3 ;
	FRQ         ___,___,___,___,___,___,___,___ ;
	FRQ         ___,___,___,___,___,___,___,___ ;
	FRQ         ___,___,___,___,___,___,___,___ ;
song005_jmp000:
	GTM         ___,___,___,___,___,___,___,003
	PAN         ___,___,___,___,___,___,___,___
	FRQ         Gn3,Cn4,En4,Cn4,En4,Cn2,___,Cn2 ;
	FRQ         ___,___,___,___,___,___,___,___ ;
	INS         ___,___,___,___,___,___,___,038
	VOL         ___,___,___,___,___,___,___,230
	GTM         ___,___,___,___,___,___,___,001
	FRQ         ___,___,___,___,___,Cn3,___,Cn6 ;
	FRQ         ___,___,___,___,___,___,___,Cn6 ;
	INS         ___,___,___,___,___,___,___,001
	VOL         ___,___,___,___,___,___,___,255
	GTM         ___,___,___,___,___,___,___,255
	PAN         ___,___,___,___,___,___,___,___
	DEL         ___,___,___,___,___,___,___,___
	FRQ         ___,___,___,___,___,Cn2,___,Cn3 ;
	FRQ         ___,___,___,___,___,___,___,___ ;
	FRQ         Cn3,En3,Gn3,En3,Gn3,Cn3,___,___ ;
	FRQ         ___,___,___,___,___,___,___,___ ;
	GTM         ___,___,___,___,___,___,___,003
	FRQ         ___,___,___,___,___,___,___,Cn2 ;
	FRQ         ___,___,___,___,___,___,___,___ ;
	INS         ___,___,___,___,___,___,___,038
	VOL         ___,___,___,___,___,___,___,230
	GTM         ___,___,___,___,___,___,___,001
	FRQ         ___,___,___,___,___,Cn3,___,Cn6 ;
	FRQ         ___,___,___,___,___,___,___,Cn6 ;
	INS         ___,___,___,___,___,___,___,001
	VOL         ___,___,___,___,___,___,___,255
	GTM         ___,___,___,___,___,___,___,255
	PAN         ___,___,___,___,___,___,___,___
	DEL         ___,___,___,___,___,___,___,___
	FRQ         Gn3,Cn4,En4,Cn4,En4,Cn2,___,Cn3 ;
	FRQ         ___,___,___,___,___,___,___,___ ;
	GTM         ___,___,___,___,___,___,___,003
	PAN         ___,___,___,___,___,___,___,___
	FRQ         Gn3,Bn3,Dn4,Bn3,Dn4,Cn3,___,Cn2 ;
	INS         ___,___,___,___,___,___,___,038
	VOL         ___,___,___,___,___,___,___,230
	GTM         ___,___,___,___,___,___,___,001
	FRQ         ___,___,___,___,___,___,___,Cn6 ;
	INS         ___,___,___,___,___,___,___,001
	VOL         ___,___,___,___,___,___,___,255
	GTM         ___,___,___,___,___,___,___,003
	PAN         ___,___,___,___,___,___,___,___
	FRQ         ___,___,___,___,___,Cn2,___,Cn2 ;
	FRQ         ___,___,___,___,___,___,___,___ ;
	INS         ___,___,___,___,___,___,___,038
	VOL         ___,___,___,___,___,___,___,230
	GTM         ___,___,___,___,___,___,___,001
	FRQ         ___,___,___,___,___,Cn3,___,Cn6 ;
	INS         ___,___,___,___,___,___,___,001
	VOL         ___,___,___,___,___,___,___,255
	FRQ         ___,___,___,___,___,___,___,Cn2 ;
	GTM         ___,___,___,___,___,___,___,255
	PAN         ___,___,___,___,___,___,___,___
	DEL         ___,___,___,___,___,___,___,___
	FRQ         ___,___,___,___,___,Cn2,___,Cn3 ;
	FRQ         ___,___,___,___,___,___,___,___ ;
	FRQ         ___,___,___,___,___,Cn3,___,___ ;
	FRQ         ___,___,___,___,___,___,___,___ ;
	GTM         ___,___,___,___,___,___,___,003
	PAN         ___,___,___,___,___,___,___,___
	FRQ         ___,___,___,___,___,Cn2,___,Cn2 ;
	FRQ         ___,___,___,___,___,___,___,Cn2 ;
	INS         ___,___,___,___,___,___,___,038
	VOL         ___,___,___,___,___,___,___,230
	GTM         ___,___,___,___,___,___,___,001
	FRQ         ___,___,___,___,___,Cn3,___,Cn6 ;
	INS         ___,___,___,___,___,___,___,001
	VOL         ___,___,___,___,___,___,___,255
	GTM         ___,___,___,___,___,___,___,003
	PAN         ___,___,___,___,___,___,___,___
	FRQ         ___,___,___,___,___,___,___,Cn2 ;
	GTM         ___,___,___,___,___,___,___,255
	PAN         ___,___,___,___,___,___,___,___
	DEL         ___,___,___,___,___,___,___,___
	FRQ         Gn3,Bn3,Dn4,Bn3,Dn4,Cn2,___,Cn3 ;
	FRQ         ___,___,___,___,___,___,___,___ ;
	GTM         ___,___,___,___,___,___,___,003
	PAN         ___,___,___,___,___,___,___,___
	FRQ         Gn3,Cn4,En4,Cn4,En4,Cn3,___,Cn2 ;
	INS         ___,___,___,___,___,___,___,038
	VOL         ___,___,___,___,___,___,___,230
	GTM         ___,___,___,___,___,___,___,001
	FRQ         ___,___,___,___,___,___,___,Cn6 ;
	INS         ___,___,___,___,___,___,___,001
	VOL         ___,___,___,___,___,___,___,255
	GTM         ___,___,___,___,___,___,___,003
	PAN         ___,___,___,___,___,___,___,___
	LOOP        $01, song005_loop000
	GTM         ___,___,___,___,___,___,___,003
	PAN         ___,___,___,___,___,___,___,___
	FRQ         An3,Cn4,Fn4,Cn4,Fn4,Cn2,___,Cn2 ;
	FRQ         ___,___,___,___,___,___,___,___ ;
	INS         ___,___,___,___,___,___,___,038
	VOL         ___,___,___,___,___,___,___,230
	GTM         ___,___,___,___,___,___,___,001
	FRQ         ___,___,___,___,___,Cn3,___,Cn6 ;
	FRQ         ___,___,___,___,___,___,___,Cn6 ;
	INS         ___,___,___,___,___,___,___,001
	VOL         ___,___,___,___,___,___,___,255
	GTM         ___,___,___,___,___,___,___,255
	PAN         ___,___,___,___,___,___,___,___
	DEL         ___,___,___,___,___,___,___,___
	FRQ         An3,Cn4,Fn4,Cn4,Fn4,Cn2,___,Cn3 ;
	FRQ         ___,___,___,___,___,___,___,___ ;
	FRQ         Gn3,Cn4,En4,Cn4,En4,Cn3,___,___ ;
	FRQ         ___,___,___,___,___,___,___,___ ;
	GTM         ___,___,___,___,___,___,___,003
	PAN         ___,___,___,___,___,___,___,___
	FRQ         Q__,Q__,Q__,Q__,Q__,Cn2,___,Cn2 ;
	FRQ         ___,___,___,___,___,___,___,___ ;
	INS         ___,___,___,___,___,___,___,038
	VOL         ___,___,___,___,___,___,___,230
	GTM         ___,___,___,___,___,___,___,001
	FRQ         Fn3,An3,Cn4,An3,Cn4,Cn3,___,Cn6 ;
	FRQ         ___,___,___,___,___,___,___,Cn6 ;
	INS         ___,___,___,___,___,___,___,001
	VOL         ___,___,___,___,___,___,___,255
	GTM         ___,___,___,___,___,___,___,255
	PAN         ___,___,___,___,___,___,___,___
	DEL         ___,___,___,___,___,___,___,___
	FRQ         ___,___,___,___,___,Cn2,___,Cn3 ;
	FRQ         ___,___,___,___,___,___,___,___ ;
	FRQ         ___,___,___,___,___,Cn3,___,___ ;
	FRQ         ___,___,___,___,___,___,___,___ ;
	GTM         ___,___,___,___,___,___,___,003
	PAN         ___,___,___,___,___,___,___,___
	FRQ         Gn3,Cn4,En4,Cn4,En4,Cn2,___,Cn2 ;
	FRQ         ___,___,___,___,___,___,___,___ ;
	INS         ___,___,___,___,___,___,___,038
	VOL         ___,___,___,___,___,___,___,230
	GTM         ___,___,___,___,___,___,___,001
	FRQ         ___,___,___,___,___,Cn3,___,Cn6 ;
	INS         ___,___,___,___,___,___,___,001
	VOL         ___,___,___,___,___,___,___,255
	GTM         ___,___,___,___,___,___,___,003
	PAN         ___,___,___,___,___,___,___,___
	FRQ         ___,___,___,___,___,___,___,Cn2 ;
	GTM         ___,___,___,___,___,___,___,255
	PAN         ___,___,___,___,___,___,___,___
	DEL         ___,___,___,___,___,___,___,___
	FRQ         ___,___,___,___,___,Cn2,___,Cn3 ;
	FRQ         ___,___,___,___,___,___,___,___ ;
	FRQ         ___,Fn4,Fn4,___,___,Cn3,___,___ ;
	FRQ         ___,En4,En4,___,___,___,___,___ ;
	GTM         ___,___,___,___,___,___,___,003
	PAN         ___,___,___,___,___,___,___,___
	FRQ         Gn3,Bn3,Dn4,Bn3,Dn4,Cn2,___,Cn2 ;
	FRQ         ___,___,___,___,___,___,___,Cn2 ;
	FRQ         ___,___,___,___,___,Cn3,___,Cn2 ;
	FRQ         ___,___,___,___,___,___,___,Cn2 ;
	GTM         ___,___,___,___,___,___,___,255
	PAN         ___,___,___,___,___,___,___,___
	DEL         ___,___,___,___,___,___,___,___
	FRQ         ___,___,___,___,___,Cn2,___,Cn3 ;
	FRQ         ___,___,___,___,___,___,___,___ ;
	GTM         ___,___,___,___,___,___,___,003
	PAN         ___,___,___,___,___,___,___,___
	FRQ         ___,___,___,___,___,Cn3,___,Cn2 ;
	INS         ___,___,___,___,___,___,___,038
	VOL         ___,___,___,___,___,___,___,230
	GTM         ___,___,___,___,___,___,___,001
	FRQ         ___,___,___,___,___,___,___,Cn6 ;
	INS         ___,___,___,___,___,___,___,001
	VOL         ___,___,___,___,___,___,___,255
	GTM         ___,___,___,___,___,___,___,003
	JUMP        song005_jmp000
song005_loop000:
	GTM         ___,___,___,___,___,___,___,003
	PAN         ___,___,___,___,___,___,___,___
	FRQ         An3,Cn4,Fn4,Cn4,Fn4,Cn2,___,Cn2 ;
	FRQ         ___,___,___,___,___,___,___,___ ;
	INS         ___,___,___,___,___,___,___,038
	VOL         ___,___,___,___,___,___,___,230
	GTM         ___,___,___,___,___,___,___,001
	FRQ         An3,Cn4,Fn4,Cn4,Fn4,Cn3,___,Cn6 ;
	FRQ         ___,___,___,___,___,___,___,Cn6 ;
	INS         ___,___,___,___,___,___,___,001
	VOL         ___,___,___,___,___,___,___,255
	GTM         ___,___,___,___,___,___,___,255
	PAN         ___,___,___,___,___,___,___,___
	DEL         ___,___,___,___,___,___,___,___
	FRQ         Q__,Q__,Q__,Q__,Q__,Cn2,___,Cn3 ;
	FRQ         ___,___,___,___,___,___,___,___ ;
	FRQ         Bn3,Dn4,Gn4,Dn4,Gn4,Cn3,___,___ ;
	FRQ         ___,___,___,___,___,___,___,___ ;
	GTM         ___,___,___,___,___,___,___,003
	PAN         ___,___,___,___,___,___,___,___
	FRQ         Q__,Q__,Q__,Q__,Q__,Cn2,___,Cn2 ;
	FRQ         ___,___,___,___,___,___,___,___ ;
	INS         ___,___,___,___,___,___,___,038
	VOL         ___,___,___,___,___,___,___,230
	GTM         ___,___,___,___,___,___,___,001
	FRQ         Cn4,Fn4,An4,Fn4,An4,Cn3,___,Cn6 ;
	FRQ         ___,___,___,___,___,___,___,Cn6 ;
	INS         ___,___,___,___,___,___,___,001
	VOL         ___,___,___,___,___,___,___,255
	GTM         ___,___,___,___,___,___,___,255
	PAN         ___,___,___,___,___,___,___,___
	DEL         ___,___,___,___,___,___,___,___
	FRQ         ___,___,___,___,___,Cn2,___,Cn3 ;
	FRQ         ___,___,___,___,___,___,___,___ ;
	FRQ         ___,___,___,___,___,Cn3,___,___ ;
	FRQ         ___,___,___,___,___,___,___,___ ;
	GTM         ___,___,___,___,___,___,___,003
	PAN         ___,___,___,___,___,___,___,___
	FRQ         Gn3,Cn4,En4,Cn4,En4,Cn2,___,Cn2 ;
	FRQ         ___,___,___,___,___,___,___,___ ;
	INS         ___,___,___,___,___,___,___,038
	VOL         ___,___,___,___,___,___,___,230
	GTM         ___,___,___,___,___,___,___,001
	FRQ         ___,___,___,___,___,Cn3,___,Cn6 ;
	INS         ___,___,___,___,___,___,___,001
	VOL         ___,___,___,___,___,___,___,255
	GTM         ___,___,___,___,___,___,___,003
	PAN         ___,___,___,___,___,___,___,___
	FRQ         ___,___,___,___,___,___,___,Cn2 ;
	GTM         ___,___,___,___,___,___,___,255
	PAN         ___,___,___,___,___,___,___,___
	DEL         ___,___,___,___,___,___,___,___
	FRQ         ___,___,___,___,___,Cn2,___,Cn3 ;
	FRQ         ___,___,___,___,___,___,___,___ ;
	FRQ         ___,Bn3,Dn4,Bn3,Dn4,Cn3,___,___ ;
	FRQ         ___,Cn4,En4,Cn4,En4,___,___,___ ;
	GTM         ___,___,___,___,___,___,___,003
	PAN         ___,___,___,___,___,___,___,___
	FRQ         Gn3,Bn3,Dn4,Bn3,Dn4,Cn2,___,Cn2 ;
	FRQ         ___,___,___,___,___,___,___,Cn2 ;
	FRQ         ___,___,___,___,___,Cn3,___,Cn2 ;
	FRQ         ___,___,___,___,___,___,___,Cn2 ;
	GTM         ___,___,___,___,___,___,___,255
	PAN         ___,___,___,___,___,___,___,___
	DEL         ___,___,___,___,___,___,___,___
	FRQ         ___,___,___,___,___,Cn2,___,Cn3 ;
	FRQ         ___,___,___,___,___,___,___,___ ;
	GTM         ___,___,___,___,___,___,___,003
	PAN         ___,___,___,___,___,___,___,___
	FRQ         ___,___,___,___,___,Cn3,___,Cn2 ;
	INS         ___,___,___,___,___,___,___,038
	VOL         ___,___,___,___,___,___,___,230
	GTM         ___,___,___,___,___,___,___,001
	FRQ         ___,___,___,___,___,___,___,Cn6 ;
	INS         ___,___,___,___,___,___,___,001
	VOL         ___,___,___,___,___,___,___,255
	INS         ___,___,___,011,011,___,___,___
	PAN         _C_,_C_,_C_,_C_,_C_,___,___,___
	DTN         018,000,032,___,___,___,___,___
	VOL         ___,___,___,240,240,___,___,___
	LFO         001,001,___,___,___,___,___,___
	GTM         ___,___,___,___,___,___,___,003
	PAN         ___,___,___,___,___,___,___,___
	FRQ         Fn3,An3,Cn4,An3,Cn4,Fn3,___,Cn2 ;
	FRQ         ___,___,___,___,___,Fn3,___,___ ;
	INS         ___,___,___,___,___,___,___,038
	VOL         ___,___,___,___,___,___,___,230
	GTM         ___,___,___,___,___,___,___,001
	FRQ         ___,___,___,___,___,Fn3,___,Cn8 ;
	FRQ         ___,___,___,___,___,___,___,Cn8 ;
	INS         ___,___,___,___,___,___,___,001
	VOL         ___,___,___,___,___,___,___,255
	GTM         ___,___,___,___,___,___,___,255
	PAN         ___,___,___,___,___,___,___,___
	DEL         ___,___,___,___,___,___,___,___
	FRQ         ___,___,___,___,___,Fn2,___,Cn3 ;
	FRQ         ___,___,___,___,___,___,___,___ ;
	FRQ         ___,___,___,___,___,Fn3,___,___ ;
	INS         ___,___,___,___,___,___,___,038
	VOL         ___,___,___,___,___,___,___,230
	GTM         ___,___,___,___,___,___,___,001
	FRQ         ___,___,___,___,___,Fn3,___,Cn8 ;
	INS         ___,___,___,___,___,___,___,001
	VOL         ___,___,___,___,___,___,___,255
	GTM         ___,___,___,___,___,___,___,003
	PAN         ___,___,___,___,___,___,___,___
	FRQ         ___,___,___,___,___,Fn3,___,Cn2 ;
	FRQ         ___,___,___,___,___,___,___,___ ;
	FRQ         ___,___,___,___,___,Fn2,___,Cn2 ;
	FRQ         ___,___,___,___,___,___,___,Cn2 ;
	GTM         ___,___,___,___,___,___,___,255
	PAN         ___,___,___,___,___,___,___,___
	DEL         ___,___,___,___,___,___,___,___
	FRQ         Gn3,Cn4,En4,Cn4,En4,Fn3,___,Cn3 ;
	FRQ         ___,___,___,___,___,Fn3,___,___ ;
	FRQ         Gn3,Bn3,Dn4,Bn3,Dn4,Fn2,___,___ ;
	INS         ___,___,___,___,___,___,___,038
	VOL         ___,___,___,___,___,___,___,230
	GTM         ___,___,___,___,___,___,___,001
	FRQ         ___,___,___,___,___,___,___,Cn8 ;
	INS         ___,___,___,___,___,___,___,001
	VOL         ___,___,___,___,___,___,___,255
	GTM         ___,___,___,___,___,___,___,003
	PAN         ___,___,___,___,___,___,___,___
	FRQ         ___,___,___,___,___,Fn3,___,Cn2 ;
	FRQ         ___,___,___,___,___,Fn3,___,___ ;
	INS         ___,___,___,___,___,___,___,038
	VOL         ___,___,___,___,___,___,___,230
	GTM         ___,___,___,___,___,___,___,001
	FRQ         ___,___,___,___,___,Fn3,___,Cn8 ;
	FRQ         ___,___,___,___,___,___,___,Cn8 ;
	INS         ___,___,___,___,___,___,___,001
	VOL         ___,___,___,___,___,___,___,255
	GTM         ___,___,___,___,___,___,___,255
	PAN         ___,___,___,___,___,___,___,___
	DEL         ___,___,___,___,___,___,___,___
	FRQ         ___,___,___,___,___,Fn2,___,Cn3 ;
	FRQ         ___,___,___,___,___,___,___,___ ;
	FRQ         ___,___,___,___,___,Fn3,___,___ ;
	INS         ___,___,___,___,___,___,___,038
	VOL         ___,___,___,___,___,___,___,230
	GTM         ___,___,___,___,___,___,___,001
	FRQ         ___,___,___,___,___,Fn3,___,Cn8 ;
	INS         ___,___,___,___,___,___,___,001
	VOL         ___,___,___,___,___,___,___,255
	GTM         ___,___,___,___,___,___,___,003
	PAN         ___,___,___,___,___,___,___,___
	FRQ         ___,___,___,___,___,Fn3,___,Cn2 ;
	FRQ         ___,___,___,___,___,___,___,Cn2 ;
	FRQ         ___,___,___,___,___,Fn2,___,Cn2 ;
	FRQ         ___,___,___,___,___,___,___,Cn2 ;
	GTM         ___,___,___,___,___,___,___,255
	PAN         ___,___,___,___,___,___,___,___
	DEL         ___,___,___,___,___,___,___,___
	FRQ         ___,___,En4,___,En4,Fn3,___,Cn3 ;
	FRQ         ___,___,___,___,___,Fn3,___,___ ;
	DEL         ___,___,___,___,___,___,___,___
	FRQ         ___,___,Fn4,___,Fn4,Fn2,___,Gn2 ;
	FRQ         ___,___,___,___,___,___,___,___ ;
	GTM         ___,___,___,___,___,___,___,003
	PAN         ___,___,___,___,___,___,___,___
	FRQ         As3,Dn4,Gn4,Dn4,Gn4,En3,___,Cn2 ;
	FRQ         ___,___,___,___,___,En3,___,___ ;
	INS         ___,___,___,___,___,___,___,038
	VOL         ___,___,___,___,___,___,___,230
	GTM         ___,___,___,___,___,___,___,001
	FRQ         ___,___,___,___,___,En3,___,Cn8 ;
	FRQ         ___,___,___,___,___,___,___,Cn8 ;
	INS         ___,___,___,___,___,___,___,001
	VOL         ___,___,___,___,___,___,___,255
	GTM         ___,___,___,___,___,___,___,255
	PAN         ___,___,___,___,___,___,___,___
	DEL         ___,___,___,___,___,___,___,___
	FRQ         ___,___,___,___,___,En2,___,Cn3 ;
	FRQ         ___,___,___,___,___,___,___,___ ;
	FRQ         ___,___,___,___,___,En3,___,___ ;
	INS         ___,___,___,___,___,___,___,038
	VOL         ___,___,___,___,___,___,___,230
	GTM         ___,___,___,___,___,___,___,001
	FRQ         ___,___,___,___,___,En3,___,Cn8 ;
	INS         ___,___,___,___,___,___,___,001
	VOL         ___,___,___,___,___,___,___,255
	GTM         ___,___,___,___,___,___,___,003
	PAN         ___,___,___,___,___,___,___,___
	FRQ         ___,___,___,___,___,En3,___,Cn2 ;
	FRQ         ___,___,___,___,___,___,___,___ ;
	FRQ         ___,___,___,___,___,En2,___,Cn2 ;
	FRQ         ___,___,___,___,___,___,___,Cn2 ;
	GTM         ___,___,___,___,___,___,___,255
	PAN         ___,___,___,___,___,___,___,___
	DEL         ___,___,___,___,___,___,___,___
	FRQ         ___,___,___,___,___,En3,___,Cn3 ;
	FRQ         ___,___,___,___,___,En3,___,___ ;
	FRQ         ___,___,___,___,___,En2,___,___ ;
	INS         ___,___,___,___,___,___,___,038
	VOL         ___,___,___,___,___,___,___,230
	GTM         ___,___,___,___,___,___,___,001
	FRQ         ___,___,___,___,___,___,___,Cn8 ;
	INS         ___,___,___,___,___,___,___,001
	VOL         ___,___,___,___,___,___,___,255
	GTM         ___,___,___,___,___,___,___,255
	SPEED       001
	PAN         ___,___,___,___,___,___,___,___
	DEL         ___,___,___,___,___,___,___,___
	FRQ         En3,Fn4,An4,Fn4,An4,An2,___,Gn3 ;
	DEL         ___,___,___,___,___,___,___,___
	FRQ         ___,___,___,___,___,___,___,Gn3 ;
	SPEED       002
	FRQ         ___,___,___,___,___,___,___,___ ;
	FRQ         ___,___,___,___,___,___,___,___ ;
	SPEED       006
	FRQ         ___,___,___,___,___,___,___,___ ;
	SPEED       001
	DEL         ___,___,___,___,___,___,___,___
	FRQ         En3,En4,Gn4,En4,Gn4,Gn2,___,Gn3 ;
	DEL         ___,___,___,___,___,___,___,___
	FRQ         ___,___,___,___,___,___,___,Gn3 ;
	SPEED       002
	FRQ         ___,___,___,___,___,___,___,___ ;
	FRQ         ___,___,___,___,___,___,___,___ ;
	SPEED       006
	FRQ         ___,___,___,___,___,___,___,___ ;
	FRQ         ___,___,___,___,___,___,___,___ ;
	FRQ         ___,___,___,___,___,___,___,___ ;
	SPEED       001
	DEL         ___,___,___,___,___,___,___,___
	FRQ         En3,Dn4,Fn4,Dn4,Fn4,Fn2,___,Cn3 ;
	DEL         ___,___,___,___,___,___,___,___
	FRQ         ___,___,___,___,___,___,___,Cn3 ;
	SPEED       002
	FRQ         ___,___,___,___,___,___,___,___ ;
	FRQ         ___,___,___,___,___,___,___,___ ;
	SPEED       006
	FRQ         ___,___,___,___,___,___,___,___ ;
	FRQ         ___,___,___,___,___,___,___,___ ;
	FRQ         ___,___,___,___,___,___,___,___ ;
	SPEED       001
	DEL         ___,___,___,___,___,___,___,___
	FRQ         En3,Cn4,En4,Cn4,En4,En2,___,Cn3 ;
	DEL         ___,___,___,___,___,___,___,___
	FRQ         ___,___,___,___,___,___,___,Cn3 ;
	SPEED       002
	FRQ         ___,___,___,___,___,___,___,___ ;
	FRQ         ___,___,___,___,___,___,___,___ ;
	SPEED       006
	FRQ         ___,___,___,___,___,___,___,___ ;
	SPEED       001
	DEL         ___,___,___,___,___,___,___,___
	FRQ         En3,Bn3,Dn4,Bn3,Dn4,Dn3,___,Gn2 ;
	DEL         ___,___,___,___,___,___,___,___
	FRQ         ___,___,___,___,___,___,___,Gn2 ;
	SPEED       002
	FRQ         ___,___,___,___,___,___,___,___ ;
	FRQ         ___,___,___,___,___,___,___,___ ;
	SPEED       006
	FRQ         ___,___,___,___,___,___,___,___ ;
	SPEED       001
	DEL         ___,___,___,___,___,___,___,___
	FRQ         En3,Cn4,En4,Cn4,En4,En2,___,Gn2 ;
	DEL         ___,___,___,___,___,___,___,___
	FRQ         ___,___,___,___,___,___,___,Gn2 ;
	SPEED       002
	FRQ         ___,___,___,___,___,___,___,___ ;
	FRQ         ___,___,___,___,___,___,___,___ ;
	SPEED       006
	FRQ         ___,___,___,___,___,___,___,___ ;
	GTM         ___,___,___,___,___,___,___,003
	PAN         ___,___,___,___,___,___,___,___
	FRQ         As3,Dn4,Fn4,Dn4,Fn4,As2,___,Cn2 ;
	FRQ         ___,___,___,___,___,As2,___,___ ;
	INS         ___,___,___,___,___,___,___,038
	VOL         ___,___,___,___,___,___,___,230
	GTM         ___,___,___,___,___,___,___,001
	FRQ         ___,___,___,___,___,As2,___,Cn8 ;
	FRQ         ___,___,___,___,___,___,___,Cn8 ;
	INS         ___,___,___,___,___,___,___,001
	VOL         ___,___,___,___,___,___,___,255
	GTM         ___,___,___,___,___,___,___,255
	PAN         ___,___,___,___,___,___,___,___
	DEL         ___,___,___,___,___,___,___,___
	FRQ         ___,___,___,___,___,As1,___,Cn3 ;
	FRQ         ___,___,___,___,___,___,___,___ ;
	FRQ         ___,___,___,___,___,As2,___,___ ;
	INS         ___,___,___,___,___,___,___,038
	VOL         ___,___,___,___,___,___,___,230
	GTM         ___,___,___,___,___,___,___,001
	FRQ         ___,___,___,___,___,As2,___,Cn8 ;
	INS         ___,___,___,___,___,___,___,001
	VOL         ___,___,___,___,___,___,___,255
	GTM         ___,___,___,___,___,___,___,003
	PAN         ___,___,___,___,___,___,___,___
	FRQ         ___,___,___,___,___,As2,___,Cn2 ;
	FRQ         ___,___,___,___,___,___,___,___ ;
	FRQ         ___,___,___,___,___,As1,___,Cn2 ;
	FRQ         ___,___,___,___,___,___,___,Cn2 ;
	GTM         ___,___,___,___,___,___,___,255
	PAN         ___,___,___,___,___,___,___,___
	DEL         ___,___,___,___,___,___,___,___
	FRQ         ___,___,___,___,___,As2,___,Cn3 ;
	FRQ         ___,___,___,___,___,As2,___,___ ;
	FRQ         ___,___,___,___,___,As1,___,___ ;
	INS         ___,___,___,___,___,___,___,038
	VOL         ___,___,___,___,___,___,___,230
	GTM         ___,___,___,___,___,___,___,001
	FRQ         ___,___,___,___,___,___,___,Cn8 ;
	INS         ___,___,___,___,___,___,___,001
	VOL         ___,___,___,___,___,___,___,255
	GTM         ___,___,___,___,___,___,___,003
	PAN         ___,___,___,___,___,___,___,___
	FRQ         As3,Dn4,Gn4,Dn4,Gn4,As2,___,Cn2 ;
	FRQ         ___,___,___,___,___,As2,___,___ ;
	INS         ___,___,___,___,___,___,___,038
	VOL         ___,___,___,___,___,___,___,230
	GTM         ___,___,___,___,___,___,___,001
	FRQ         ___,___,___,___,___,As2,___,Cn8 ;
	FRQ         ___,___,___,___,___,___,___,Cn8 ;
	INS         ___,___,___,___,___,___,___,001
	VOL         ___,___,___,___,___,___,___,255
	GTM         ___,___,___,___,___,___,___,255
	PAN         ___,___,___,___,___,___,___,___
	DEL         ___,___,___,___,___,___,___,___
	FRQ         ___,___,___,___,___,As1,___,Cn3 ;
	FRQ         ___,___,___,___,___,___,___,___ ;
	FRQ         ___,___,___,___,___,As2,___,___ ;
	INS         ___,___,___,___,___,___,___,038
	VOL         ___,___,___,___,___,___,___,230
	GTM         ___,___,___,___,___,___,___,001
	FRQ         ___,___,___,___,___,As2,___,Cn8 ;
	INS         ___,___,___,___,___,___,___,001
	VOL         ___,___,___,___,___,___,___,255
	GTM         ___,___,___,___,___,___,___,003
	PAN         ___,___,___,___,___,___,___,___
	FRQ         ___,___,___,___,___,As2,___,Cn2 ;
	FRQ         ___,___,___,___,___,___,___,___ ;
	FRQ         ___,___,___,___,___,As1,___,Cn2 ;
	FRQ         ___,___,___,___,___,___,___,Cn2 ;
	GTM         ___,___,___,___,___,___,___,255
	PAN         ___,___,___,___,___,___,___,___
	DEL         ___,___,___,___,___,___,___,___
	FRQ         ___,___,___,___,___,As2,___,Cn3 ;
	FRQ         ___,___,___,___,___,As2,___,___ ;
	FRQ         ___,___,___,___,___,As1,___,___ ;
	INS         ___,___,___,___,___,___,___,038
	VOL         ___,___,___,___,___,___,___,230
	GTM         ___,___,___,___,___,___,___,001
	FRQ         ___,___,___,___,___,___,___,Cn8 ;
	INS         ___,___,___,___,___,___,___,001
	VOL         ___,___,___,___,___,___,___,255
	GTM         ___,___,___,___,___,___,___,003
	PAN         ___,___,___,___,___,___,___,___
	FRQ         Cn4,Fn4,Gn4,Fn4,Gn4,Cn3,___,Cn2 ;
	FRQ         ___,___,___,___,___,Cn3,___,___ ;
	INS         ___,___,___,___,___,___,___,038
	VOL         ___,___,___,___,___,___,___,230
	GTM         ___,___,___,___,___,___,___,001
	FRQ         ___,___,___,___,___,Cn3,___,Cn8 ;
	FRQ         ___,___,___,___,___,___,___,Cn8 ;
	INS         ___,___,___,___,___,___,___,001
	VOL         ___,___,___,___,___,___,___,255
	GTM         ___,___,___,___,___,___,___,255
	PAN         ___,___,___,___,___,___,___,___
	DEL         ___,___,___,___,___,___,___,___
	FRQ         ___,___,___,___,___,Cn2,___,Cn3 ;
	FRQ         ___,___,___,___,___,___,___,___ ;
	FRQ         ___,___,___,___,___,Cn3,___,___ ;
	INS         ___,___,___,___,___,___,___,038
	VOL         ___,___,___,___,___,___,___,230
	GTM         ___,___,___,___,___,___,___,001
	FRQ         ___,___,___,___,___,Cn3,___,Cn8 ;
	INS         ___,___,___,___,___,___,___,001
	VOL         ___,___,___,___,___,___,___,255
	GTM         ___,___,___,___,___,___,___,003
	PAN         ___,___,___,___,___,___,___,___
	FRQ         ___,___,___,___,___,Cn3,___,Cn2 ;
	FRQ         ___,___,___,___,___,___,___,___ ;
	FRQ         ___,___,___,___,___,Cn2,___,Cn2 ;
	FRQ         ___,___,___,___,___,___,___,Cn2 ;
	GTM         ___,___,___,___,___,___,___,255
	PAN         ___,___,___,___,___,___,___,___
	DEL         ___,___,___,___,___,___,___,___
	FRQ         ___,___,___,___,___,Cn3,___,Cn3 ;
	FRQ         ___,___,___,___,___,Cn3,___,___ ;
	FRQ         ___,___,___,___,___,Cn2,___,___ ;
	INS         ___,___,___,___,___,___,___,038
	VOL         ___,___,___,___,___,___,___,230
	GTM         ___,___,___,___,___,___,___,001
	FRQ         ___,___,___,___,___,___,___,Cn8 ;
	INS         ___,___,___,___,___,___,___,001
	VOL         ___,___,___,___,___,___,___,255
	GTM         ___,___,___,___,___,___,___,003
	PAN         ___,___,___,___,___,___,___,___
	FRQ         En4,Gs4,Cn5,Gs4,Cn5,Cn3,___,Cn2 ;
	FRQ         ___,___,___,___,___,Cn3,___,___ ;
	INS         ___,___,___,___,___,___,___,038
	VOL         ___,___,___,___,___,___,___,230
	GTM         ___,___,___,___,___,___,___,001
	FRQ         ___,___,___,___,___,Cn3,___,Cn8 ;
	FRQ         ___,___,___,___,___,___,___,Cn8 ;
	INS         ___,___,___,___,___,___,___,001
	VOL         ___,___,___,___,___,___,___,255
	GTM         ___,___,___,___,___,___,___,255
	PAN         ___,___,___,___,___,___,___,___
	DEL         ___,___,___,___,___,___,___,___
	FRQ         ___,___,___,___,___,Cn2,___,Cn3 ;
	FRQ         ___,___,___,___,___,___,___,___ ;
	FRQ         ___,___,___,___,___,Cn3,___,___ ;
	INS         ___,___,___,___,___,___,___,038
	VOL         ___,___,___,___,___,___,___,230
	GTM         ___,___,___,___,___,___,___,001
	FRQ         ___,___,___,___,___,Cn3,___,Cn8 ;
	INS         ___,___,___,___,___,___,___,001
	VOL         ___,___,___,___,___,___,___,255
	GTM         ___,___,___,___,___,___,___,003
	PAN         ___,___,___,___,___,___,___,___
	FRQ         ___,___,___,___,___,Cn3,___,Cn2 ;
	FRQ         ___,___,___,___,___,___,___,___ ;
	FRQ         ___,___,___,___,___,Cn2,___,Cn2 ;
	FRQ         ___,___,___,___,___,___,___,Cn2 ;
	GTM         ___,___,___,___,___,___,___,255
	PAN         ___,___,___,___,___,___,___,___
	DEL         ___,___,___,___,___,___,___,___
	FRQ         ___,___,___,___,___,Cn3,___,Cn3 ;
	FRQ         ___,___,___,___,___,Cn3,___,___ ;
	FRQ         ___,___,___,___,___,Cn2,___,___ ;
	INS         ___,___,___,___,___,___,___,038
	VOL         ___,___,___,___,___,___,___,230
	GTM         ___,___,___,___,___,___,___,001
	FRQ         ___,___,___,___,___,___,___,Cn8 ;
	INS         ___,___,___,___,___,___,___,001
	VOL         ___,___,___,___,___,___,___,255
song005_jmp001:
	INS         040,040,040,040,040,___,___,___
	VOL         240,240,240,240,240,___,___,___
	LFO         ___,001,___,___,001,___,___,___
	PAN         _C_,L__,_C_,L__,__R,___,___,___
	DTN         ___,___,008,018,036,___,___,___
	GTM         ___,___,___,___,___,___,___,003
	PAN         ___,___,___,___,___,___,___,___
	FRQ         Cn4,Fn4,An4,Fn4,An4,Fn2,___,Cn2 ;
	INS         ___,___,___,___,___,___,___,038
	VOL         ___,___,___,___,___,___,___,230
	GTM         ___,___,___,___,___,___,___,001
	FRQ         ___,___,___,___,___,___,___,Cn8 ;
	FRQ         ___,___,___,___,___,___,___,Cn8 ;
	FRQ         ___,___,___,___,___,___,___,Cn8 ;
	INS         ___,___,___,___,___,___,___,001
	VOL         ___,___,___,___,___,___,___,255
	GTM         ___,___,___,___,___,___,___,255
	PAN         ___,___,___,___,___,___,___,___
	DEL         ___,___,___,___,___,___,___,___
	FRQ         ___,___,___,___,___,___,___,___ ;
	FRQ         ___,___,___,___,___,___,___,___ ;
	FRQ         Fn3,An3,Cn4,An3,Cn4,Cn2,___,Cn3 ;
	FRQ         ___,___,___,___,___,___,___,___ ;
	GTM         ___,___,___,___,___,___,___,003
	PAN         ___,___,___,___,___,___,___,___
	FRQ         ___,___,___,___,___,___,___,Cn2 ;
	INS         ___,___,___,___,___,___,___,038
	VOL         ___,___,___,___,___,___,___,230
	GTM         ___,___,___,___,___,___,___,001
	FRQ         ___,___,___,___,___,___,___,Cn8 ;
	INS         ___,___,___,___,___,___,___,001
	VOL         ___,___,___,___,___,___,___,255
	GTM         ___,___,___,___,___,___,___,003
	PAN         ___,___,___,___,___,___,___,___
	FRQ         ___,___,___,___,___,___,___,Cn2 ;
	FRQ         ___,___,___,___,___,___,___,Cn2 ;
	GTM         ___,___,___,___,___,___,___,255
	PAN         ___,___,___,___,___,___,___,___
	DEL         ___,___,___,___,___,___,___,___
	FRQ         Cn4,Fn4,An4,Fn4,An4,Fn2,___,Cn3 ;
	FRQ         ___,___,___,___,___,___,___,___ ;
	FRQ         Cn4,En4,Gn4,En4,Gn4,___,___,___ ;
	INS         ___,___,___,___,___,___,___,038
	VOL         ___,___,___,___,___,___,___,230
	GTM         ___,___,___,___,___,___,___,001
	FRQ         ___,___,___,___,___,___,___,Cn8 ;
	INS         ___,___,___,___,___,___,___,001
	VOL         ___,___,___,___,___,___,___,255
	GTM         ___,___,___,___,___,___,___,003
	PAN         ___,___,___,___,___,___,___,___
	FRQ         ___,___,___,___,___,En2,___,Cn2 ;
	INS         ___,___,___,___,___,___,___,038
	VOL         ___,___,___,___,___,___,___,230
	GTM         ___,___,___,___,___,___,___,001
	FRQ         ___,___,___,___,___,___,___,Cn8 ;
	FRQ         ___,___,___,___,___,___,___,Cn8 ;
	FRQ         ___,___,___,___,___,___,___,Cn8 ;
	INS         ___,___,___,___,___,___,___,001
	VOL         ___,___,___,___,___,___,___,255
	GTM         ___,___,___,___,___,___,___,255
	PAN         ___,___,___,___,___,___,___,___
	DEL         ___,___,___,___,___,___,___,___
	FRQ         ___,___,___,___,___,___,___,___ ;
	FRQ         ___,___,___,___,___,___,___,___ ;
	FRQ         ___,___,___,___,___,Cn2,___,Cn3 ;
	FRQ         ___,___,___,___,___,___,___,___ ;
	PIT         ___,___,___,___,___,___,___,___
	PITRAT      ___,___,___,___,___,___,___,___
	PITDEP      ___,___,___,___,___,___,___,___
	PAN         ___,___,___,___,___,___,___,___
	GTM         ___,___,___,___,___,___,___,003
	INS         ___,___,___,___,___,___,___,___
	VOL         ___,___,___,___,___,___,___,___
	FRQ         ___,___,___,___,___,___,Cn6,Cn2 ; <---
	FRQ         ___,___,___,___,___,___,Cn7,___ ;
	FRQ         ___,___,___,___,___,___,Cn6,Cn2 ;
	FRQ         ___,___,___,___,___,___,Cn6,Cn2 ;
	GTM         ___,___,___,___,___,___,___,255
	FRQ         Cn4,En4,Gn4,En4,Gn4,En2,Cn6,Cn3 ;
	FRQ         ___,___,___,___,___,___,Cn7,___ ;
	FRQ         Cn4,Fn4,An4,Fn4,An4,___,Cn6,___ ;
	FRQ         ___,___,___,___,___,___,Cn6,___ ;
	PIT         ___,___,___,___,___,___,___,004
	PITRAT      ___,___,___,___,___,___,___,100
	PITDEP      ___,___,___,___,___,___,___,180
	INS         ___,___,___,___,___,___,___,___
	VOL         ___,___,___,___,___,___,___,___
	PAN         ___,___,___,___,___,___,___,___
	GTM         ___,___,___,___,___,___,___,003
	PAN         ___,___,___,___,___,___,___,___
	FRQ         Dn4,Fn4,As4,Fn4,As4,Gn2,Q__,Cn2 ;
	INS         ___,___,___,___,___,___,___,038
	VOL         ___,___,___,___,___,___,___,230
	GTM         ___,___,___,___,___,___,___,001
	FRQ         ___,___,___,___,___,___,___,Cn8 ;
	FRQ         ___,___,___,___,___,___,___,Cn8 ;
	FRQ         ___,___,___,___,___,___,___,Cn8 ;
	INS         ___,___,___,___,___,___,___,001
	VOL         ___,___,___,___,___,___,___,255
	GTM         ___,___,___,___,___,___,___,255
	PAN         ___,___,___,___,___,___,___,___
	DEL         ___,___,___,___,___,___,___,___
	FRQ         Dn4,Fn4,As4,Fn4,As4,___,___,___ ;
	FRQ         ___,___,___,___,___,___,___,___ ;
	FRQ         Dn4,Fn4,An4,Fn4,An4,Dn2,___,Cn3 ;
	FRQ         ___,___,___,___,___,___,___,___ ;
	GTM         ___,___,___,___,___,___,___,003
	PAN         ___,___,___,___,___,___,___,___
	FRQ         Q__,Q__,Q__,Q__,Q__,___,___,Cn2 ;
	INS         ___,___,___,___,___,___,___,038
	VOL         ___,___,___,___,___,___,___,230
	GTM         ___,___,___,___,___,___,___,001
	FRQ         ___,___,___,___,___,___,___,Cn8 ;
	INS         ___,___,___,___,___,___,___,001
	VOL         ___,___,___,___,___,___,___,255
	GTM         ___,___,___,___,___,___,___,003
	PAN         ___,___,___,___,___,___,___,___
	FRQ         An3,Dn4,Fn4,Dn4,Fn4,___,___,Cn2 ;
	FRQ         ___,___,___,___,___,___,___,Cn2 ;
	GTM         ___,___,___,___,___,___,___,255
	PAN         ___,___,___,___,___,___,___,___
	DEL         ___,___,___,___,___,___,___,___
	FRQ         ___,___,___,___,___,Gn2,___,Cn3 ;
	FRQ         ___,___,___,___,___,___,___,___ ;
	FRQ         ___,___,___,___,___,___,___,___ ;
	INS         ___,___,___,___,___,___,___,038
	VOL         ___,___,___,___,___,___,___,230
	GTM         ___,___,___,___,___,___,___,001
	FRQ         ___,___,___,___,___,___,___,Cn8 ;
	INS         ___,___,___,___,___,___,___,001
	VOL         ___,___,___,___,___,___,___,255
	LOOP        $01, song005_loop001
	GTM         ___,___,___,___,___,___,___,003
	PAN         ___,___,___,___,___,___,___,___
	FRQ         Cn4,Fn4,An4,Fn4,An4,Cn2,___,Cn2 ;
	INS         ___,___,___,___,___,___,___,038
	VOL         ___,___,___,___,___,___,___,230
	GTM         ___,___,___,___,___,___,___,001
	FRQ         ___,___,___,___,___,___,___,Cn8 ;
	FRQ         ___,___,___,___,___,___,___,Cn8 ;
	FRQ         ___,___,___,___,___,___,___,Cn8 ;
	INS         ___,___,___,___,___,___,___,001
	VOL         ___,___,___,___,___,___,___,255
	GTM         ___,___,___,___,___,___,___,255
	PAN         ___,___,___,___,___,___,___,___
	DEL         ___,___,___,___,___,___,___,___
	FRQ         ___,___,___,___,___,___,___,___ ;
	FRQ         ___,___,___,___,___,___,___,___ ;
	FRQ         ___,As4,As4,___,___,Gn2,___,Cn3 ;
	FRQ         ___,An4,An4,___,___,___,___,___ ;
	PIT         ___,___,___,___,___,___,___,___
	PITRAT      ___,___,___,___,___,___,___,___
	PITDEP      ___,___,___,___,___,___,___,___
	PAN         ___,___,___,___,___,___,___,___
	GTM         ___,___,___,___,___,___,___,003
	INS         ___,___,___,___,___,___,___,___
	VOL         ___,___,___,___,___,___,___,___
	FRQ         Cn4,En4,Gn4,En4,Gn4,___,Cn6,Cn2 ; <---
	FRQ         ___,___,___,___,___,___,Cn6,___ ;
	FRQ         ___,___,___,___,___,___,Cn6,Cn2 ;
	FRQ         ___,___,___,___,___,___,Cn6,Cn2 ;
	GTM         ___,___,___,___,___,___,___,255
	FRQ         ___,___,___,___,___,Cn2,Cn6,Cn3 ;
	FRQ         ___,___,___,___,___,___,___,___ ;
	FRQ         ___,___,___,___,___,___,___,___ ;
	FRQ         ___,___,___,___,___,___,___,___ ;
	INS         ___,___,___,___,___,___,___,___
	VOL         ___,___,___,___,___,___,___,___
	PIT         ___,___,___,___,___,___,___,004
	PITRAT      ___,___,___,___,___,___,___,100
	PITDEP      ___,___,___,___,___,___,___,180
	JUMP        song005_jmp001
song005_loop001:
	GTM         ___,___,___,___,___,___,___,003
	PAN         ___,___,___,___,___,___,L__,___
	FRQ         Cn4,Fn4,An4,Fn4,An4,Cn2,Q__,Cn2 ;
	INS         ___,___,___,___,___,___,___,038
	VOL         ___,___,___,___,___,___,___,230
	GTM         ___,___,___,___,___,___,___,001
	FRQ         ___,___,___,___,___,___,___,Cn8 ;
	FRQ         ___,___,___,___,___,___,___,Cn8 ;
	FRQ         ___,___,___,___,___,___,___,Cn8 ;
	INS         ___,___,___,___,___,___,___,001
	VOL         ___,___,___,___,___,___,___,255
	GTM         ___,___,___,___,___,___,___,255
	PAN         ___,___,___,___,___,___,___,___
	DEL         ___,___,___,___,___,___,___,___
	FRQ         ___,___,___,___,___,___,___,___ ;
	FRQ         ___,___,___,___,___,___,___,___ ;
	FRQ         ___,Gn4,Gn4,___,___,Gn2,___,Cn3 ;
	FRQ         ___,An4,An4,___,___,___,___,___ ;
	PIT         ___,___,___,___,___,___,___,___
	PITRAT      ___,___,___,___,___,___,___,___
	PITDEP      ___,___,___,___,___,___,___,___
	PAN         ___,___,___,___,___,___,___,___
	GTM         ___,___,___,___,___,___,___,003
	INS         ___,___,___,___,___,___,___,___
	VOL         ___,___,___,___,___,___,___,___
	FRQ         En4,Gn4,Cn5,Gn4,Cn5,___,Cn6,Cn2 ; <---
	FRQ         ___,___,___,___,___,___,Cn6,___ ;
	FRQ         ___,___,___,___,___,___,Cn6,Cn2 ;
	FRQ         ___,___,___,___,___,___,Cn6,Cn2 ;
	GTM         ___,___,___,___,___,___,___,255
	FRQ         ___,___,___,___,___,Cn2,Cn6,Cn3 ;
	FRQ         ___,___,___,___,___,___,Cn6,___ ;
	FRQ         ___,___,___,___,___,___,Cn6,___ ;
	FRQ         ___,___,___,___,___,___,Cn6,___ ;
	PIT         ___,___,___,___,___,___,___,004
	PITRAT      ___,___,___,___,___,___,___,100
	PITDEP      ___,___,___,___,___,___,___,180
	INS         040,040,040,040,040,005,___,001
	VOL         240,240,240,240,240,255,___,255
	LFO         ___,001,___,___,001,___,___,___
	PAN         ___,L__,_C_,_C_,__R,___,___,___
	DTN         ___,___,008,018,036,___,___,___
	GTM         ___,___,___,___,___,___,___,003
	PAN         ___,___,___,___,___,___,___,___
	FRQ         Dn4,Fn4,An4,Fn4,An4,As2,Q__,Cn2 ;
	FRQ         ___,___,___,___,___,___,___,___ ;
	INS         ___,___,___,___,___,___,___,038
	VOL         ___,___,___,___,___,___,___,230
	GTM         ___,___,___,___,___,___,___,001
	FRQ         ___,___,___,___,___,As2,___,Cn8 ;
	FRQ         ___,___,___,___,___,___,___,___ ;
	INS         ___,___,___,___,___,___,___,001
	VOL         ___,___,___,___,___,___,___,255
	GTM         ___,___,___,___,___,___,___,255
	PAN         ___,___,___,___,___,___,___,___
	DEL         ___,___,___,___,___,___,___,___
	FRQ         ___,___,___,___,___,As2,___,Cn3 ;
	FRQ         ___,___,___,___,___,___,___,___ ;
	INS         ___,___,___,___,___,___,___,038
	VOL         ___,___,___,___,___,___,___,230
	GTM         ___,___,___,___,___,___,___,001
	FRQ         ___,___,___,___,___,As2,___,Cn8 ;
	INS         ___,___,___,___,___,___,___,001
	VOL         ___,___,___,___,___,___,___,255
	FRQ         ___,___,___,___,___,___,___,___ ;
	GTM         ___,___,___,___,___,___,___,003
	PAN         ___,___,___,___,___,___,___,___
	FRQ         Fn3,An3,Dn4,An3,Dn4,As2,___,Cn2 ;
	FRQ         ___,___,___,___,___,___,___,___ ;
	FRQ         ___,___,___,___,___,As2,___,Cn2 ;
	FRQ         ___,___,___,___,___,___,___,___ ;
	GTM         ___,___,___,___,___,___,___,255
	PAN         ___,___,___,___,___,___,___,___
	DEL         ___,___,___,___,___,___,___,___
	FRQ         Dn4,Fn4,An4,Fn4,An4,As2,___,Cn3 ;
	FRQ         ___,___,___,___,___,___,___,___ ;
	INS         ___,___,___,___,___,___,___,038
	VOL         ___,___,___,___,___,___,___,230
	GTM         ___,___,___,___,___,___,___,001
	FRQ         Cn4,En4,Gn4,En4,Gn4,As2,___,Cn8 ;
	INS         ___,___,___,___,___,___,___,001
	VOL         ___,___,___,___,___,___,___,255
	FRQ         ___,___,___,___,___,___,___,___ ;
	GTM         ___,___,___,___,___,___,___,003
	PAN         ___,___,___,___,___,___,___,___
	FRQ         ___,___,___,___,___,As2,___,Cn2 ;
	FRQ         ___,___,___,___,___,___,___,___ ;
	INS         ___,___,___,___,___,___,___,038
	VOL         ___,___,___,___,___,___,___,230
	GTM         ___,___,___,___,___,___,___,001
	FRQ         ___,___,___,___,___,As2,___,Cn8 ;
	FRQ         ___,___,___,___,___,___,___,___ ;
	INS         ___,___,___,___,___,___,___,001
	VOL         ___,___,___,___,___,___,___,255
	GTM         ___,___,___,___,___,___,___,255
	PAN         ___,___,___,___,___,___,___,___
	DEL         ___,___,___,___,___,___,___,___
	FRQ         ___,___,___,___,___,As2,___,Cn3 ;
	FRQ         ___,___,___,___,___,___,___,___ ;
	INS         ___,___,___,___,___,___,___,038
	VOL         ___,___,___,___,___,___,___,230
	GTM         ___,___,___,___,___,___,___,001
	FRQ         ___,___,___,___,___,As2,___,Cn8 ;
	INS         ___,___,___,___,___,___,___,001
	VOL         ___,___,___,___,___,___,___,255
	FRQ         ___,___,___,___,___,___,___,___ ;
	GTM         ___,___,___,___,___,___,___,003
	PAN         ___,___,___,___,___,___,___,___
	FRQ         ___,___,___,___,___,As2,___,Cn2 ;
	FRQ         ___,___,___,___,___,___,___,___ ;
	FRQ         ___,An4,An4,___,___,As2,___,Cn2 ;
	FRQ         ___,___,___,___,___,___,___,___ ;
	GTM         ___,___,___,___,___,___,___,255
	PAN         ___,___,___,___,___,___,___,___
	DEL         ___,___,___,___,___,___,___,___
	FRQ         ___,As4,As4,___,___,As2,___,Cn3 ;
	FRQ         ___,___,___,___,___,___,___,___ ;
	INS         ___,___,___,___,___,___,___,038
	VOL         ___,___,___,___,___,___,___,230
	GTM         ___,___,___,___,___,___,___,001
	FRQ         Cn4,En4,Gn4,En4,Gn4,As2,___,Cn8 ;
	INS         ___,___,___,___,___,___,___,001
	VOL         ___,___,___,___,___,___,___,255
	FRQ         ___,___,___,___,___,___,___,___ ;
	GTM         ___,___,___,___,___,___,___,003
	PAN         ___,___,___,___,___,___,___,___
	FRQ         ___,___,___,___,___,An2,___,Cn2 ;
	FRQ         ___,___,___,___,___,___,___,___ ;
	INS         ___,___,___,___,___,___,___,038
	VOL         ___,___,___,___,___,___,___,230
	GTM         ___,___,___,___,___,___,___,001
	FRQ         ___,___,___,___,___,An2,___,Cn8 ;
	FRQ         ___,___,___,___,___,___,___,___ ;
	INS         ___,___,___,___,___,___,___,001
	VOL         ___,___,___,___,___,___,___,255
	GTM         ___,___,___,___,___,___,___,255
	PAN         ___,___,___,___,___,___,___,___
	DEL         ___,___,___,___,___,___,___,___
	FRQ         ___,___,___,___,___,An2,___,Cn3 ;
	FRQ         ___,___,___,___,___,___,___,___ ;
	INS         ___,___,___,___,___,___,___,038
	VOL         ___,___,___,___,___,___,___,230
	GTM         ___,___,___,___,___,___,___,001
	FRQ         ___,___,___,___,___,An2,___,Cn8 ;
	INS         ___,___,___,___,___,___,___,001
	VOL         ___,___,___,___,___,___,___,255
	FRQ         ___,___,___,___,___,___,___,___ ;
	GTM         ___,___,___,___,___,___,___,003
	PAN         ___,___,___,___,___,___,___,___
	FRQ         ___,___,___,___,___,An2,___,Cn2 ;
	FRQ         ___,___,___,___,___,___,___,___ ;
	FRQ         Fn4,An4,Dn5,An4,Dn5,An2,___,Cn2 ;
	FRQ         ___,___,___,___,___,___,___,___ ;
	GTM         ___,___,___,___,___,___,___,255
	PAN         ___,___,___,___,___,___,___,___
	DEL         ___,___,___,___,___,___,___,___
	FRQ         Q__,Q__,Q__,Q__,Q__,An2,___,Cn3 ;
	FRQ         ___,___,___,___,___,___,___,___ ;
	INS         ___,___,___,___,___,___,___,038
	VOL         ___,___,___,___,___,___,___,230
	GTM         ___,___,___,___,___,___,___,001
	FRQ         Dn4,Fn4,An4,Fn4,An4,An2,___,Cn8 ;
	INS         ___,___,___,___,___,___,___,001
	VOL         ___,___,___,___,___,___,___,255
	FRQ         ___,___,___,___,___,___,___,___ ;
	GTM         ___,___,___,___,___,___,___,003
	PAN         ___,___,___,___,___,___,___,___
	FRQ         ___,___,___,___,___,Dn2,___,Cn2 ;
	FRQ         ___,___,___,___,___,___,___,___ ;
	INS         ___,___,___,___,___,___,___,038
	VOL         ___,___,___,___,___,___,___,230
	GTM         ___,___,___,___,___,___,___,001
	FRQ         Dn4,Fn4,An4,Fn4,An4,Dn2,___,Cn8 ;
	FRQ         ___,___,___,___,___,___,___,___ ;
	INS         ___,___,___,___,___,___,___,001
	VOL         ___,___,___,___,___,___,___,255
	GTM         ___,___,___,___,___,___,___,255
	PAN         ___,___,___,___,___,___,___,___
	DEL         ___,___,___,___,___,___,___,___
	FRQ         Cn4,En4,Gn4,En4,Gn4,Dn2,___,Cn3 ;
	FRQ         ___,___,___,___,___,___,___,___ ;
	INS         ___,___,___,___,___,___,___,038
	VOL         ___,___,___,___,___,___,___,230
	GTM         ___,___,___,___,___,___,___,001
	FRQ         ___,___,___,___,___,Dn2,___,Cn8 ;
	INS         ___,___,___,___,___,___,___,001
	VOL         ___,___,___,___,___,___,___,255
	FRQ         ___,___,___,___,___,___,___,___ ;
	GTM         ___,___,___,___,___,___,___,003
	PAN         ___,___,___,___,___,___,___,___
	FRQ         Dn4,Fn4,An4,Fn4,An4,Dn3,___,Cn2 ;
	FRQ         ___,___,___,___,___,Dn3,___,___ ;
	FRQ         ___,___,___,___,___,Dn2,___,Cn2 ;
	FRQ         ___,___,___,___,___,___,___,___ ;
	GTM         ___,___,___,___,___,___,___,255
	PAN         ___,___,___,___,___,___,___,___
	DEL         ___,___,___,___,___,___,___,___
	FRQ         ___,Dn4,Fn4,Dn4,Fn4,Dn3,___,Cn3 ;
	FRQ         ___,___,___,___,___,Dn3,___,___ ;
	INS         ___,___,___,___,___,___,___,038
	VOL         ___,___,___,___,___,___,___,230
	GTM         ___,___,___,___,___,___,___,001
	FRQ         ___,En4,Gn4,En4,Gn4,Dn2,___,Cn8 ;
	INS         ___,___,___,___,___,___,___,001
	VOL         ___,___,___,___,___,___,___,255
	FRQ         ___,___,___,___,___,___,___,___ ;
	GTM         ___,___,___,___,___,___,___,003
	PAN         ___,___,___,___,___,___,___,___
	FRQ         Dn4,Fn4,An4,Fn4,An4,As2,___,Cn2 ;
	FRQ         ___,___,___,___,___,___,___,___ ;
	INS         ___,___,___,___,___,___,___,038
	VOL         ___,___,___,___,___,___,___,230
	GTM         ___,___,___,___,___,___,___,001
	FRQ         Q__,Q__,Q__,Q__,Q__,Q__,___,Cn8 ;
	FRQ         ___,___,___,___,___,___,___,Cn8 ;
	INS         ___,___,___,___,___,___,___,001
	VOL         ___,___,___,___,___,___,___,255
	GTM         ___,___,___,___,___,___,___,255
	PAN         ___,___,___,___,___,___,___,___
	DEL         ___,___,___,___,___,___,___,___
	FRQ         ___,___,___,___,___,___,___,Cn3 ;
	FRQ         ___,___,___,___,___,___,___,___ ;
	FRQ         ___,___,___,___,___,___,___,___ ;
	INS         ___,___,___,___,___,___,___,038
	VOL         ___,___,___,___,___,___,___,230
	GTM         ___,___,___,___,___,___,___,001
	FRQ         ___,___,___,___,___,___,___,Cn8 ;
	INS         ___,___,___,___,___,___,___,001
	VOL         ___,___,___,___,___,___,___,255
	GTM         ___,___,___,___,___,___,___,003
	PAN         ___,___,___,___,___,___,___,___
	FRQ         ___,___,___,___,___,___,___,Cn2 ;
	FRQ         ___,___,___,___,___,___,___,___ ;
	FRQ         ___,___,___,___,___,___,___,Cn2 ;
	FRQ         ___,___,___,___,___,___,___,___ ;
	GTM         ___,___,___,___,___,___,___,255
	PAN         ___,___,___,___,___,___,___,___
	DEL         ___,___,___,___,___,___,___,___
	FRQ         Dn4,Fn4,An4,Fn4,An4,As2,___,Cn3 ;
	FRQ         ___,___,___,___,___,___,___,___ ;
	INS         ___,___,___,___,___,___,___,038
	VOL         ___,___,___,___,___,___,___,230
	GTM         ___,___,___,___,___,___,___,001
	FRQ         Cn4,En4,Gn4,En4,Gn4,As2,___,Cn8 ;
	INS         ___,___,___,___,___,___,___,001
	VOL         ___,___,___,___,___,___,___,255
	FRQ         ___,___,___,___,___,___,___,___ ;
	GTM         ___,___,___,___,___,___,___,003
	PAN         ___,___,___,___,___,___,___,___
	FRQ         ___,___,___,___,___,As2,___,Cn2 ;
	FRQ         ___,___,___,___,___,___,___,___ ;
	INS         ___,___,___,___,___,___,___,038
	VOL         ___,___,___,___,___,___,___,230
	GTM         ___,___,___,___,___,___,___,001
	FRQ         ___,___,___,___,___,As2,___,Cn8 ;
	FRQ         ___,___,___,___,___,___,___,___ ;
	INS         ___,___,___,___,___,___,___,001
	VOL         ___,___,___,___,___,___,___,255
	GTM         ___,___,___,___,___,___,___,255
	PAN         ___,___,___,___,___,___,___,___
	DEL         ___,___,___,___,___,___,___,___
	FRQ         ___,___,___,___,___,As2,___,Cn3 ;
	FRQ         ___,___,___,___,___,___,___,___ ;
	INS         ___,___,___,___,___,___,___,038
	VOL         ___,___,___,___,___,___,___,230
	GTM         ___,___,___,___,___,___,___,001
	FRQ         ___,___,___,___,___,As2,___,Cn8 ;
	INS         ___,___,___,___,___,___,___,001
	VOL         ___,___,___,___,___,___,___,255
	FRQ         ___,___,___,___,___,___,___,___ ;
	GTM         ___,___,___,___,___,___,___,003
	FRQ         ___,___,___,___,___,As2,___,Cn2 ;
	FRQ         ___,___,___,___,___,___,___,___ ;
	FRQ         ___,___,___,___,___,As2,___,Cn2 ;
	FRQ         ___,___,___,___,___,___,___,___ ;
	GTM         ___,___,___,___,___,___,___,255
	PAN         ___,___,___,___,___,___,___,___
	DEL         ___,___,___,___,___,___,___,___
	FRQ         ___,___,___,___,___,As2,___,Cn3 ;
	FRQ         ___,___,___,___,___,___,___,___ ;
	INS         ___,___,___,___,___,___,___,038
	VOL         ___,___,___,___,___,___,___,230
	GTM         ___,___,___,___,___,___,___,001
	FRQ         ___,___,___,___,___,As2,___,Cn8 ;
	INS         ___,___,___,___,___,___,___,001
	VOL         ___,___,___,___,___,___,___,255
	FRQ         ___,___,___,___,___,___,___,___ ;
	GTM         ___,___,___,___,___,___,___,003
	PAN         ___,___,___,___,___,___,___,___
	FRQ         En4,Gn4,Cn5,Gn4,Cn5,As2,___,Cn2 ;
	FRQ         ___,___,___,___,___,___,___,Cn2 ;
	FRQ         Q__,Q__,Q__,Q__,Q__,Q__,___,Cn2 ;
	FRQ         ___,___,___,___,___,___,___,Cn2 ;
	GTM         ___,___,___,___,___,___,___,255
	SPEED       001
	DEL         ___,___,___,___,___,___,___,___
	FRQ         ___,___,___,___,___,___,___,Cn3 ;
	DEL         ___,___,___,___,___,___,___,___
	FRQ         ___,___,___,___,___,___,___,Cn3 ;
	FRQ         ___,___,___,___,___,___,___,___ ;
	FRQ         ___,___,___,___,___,___,___,___ ;
	FRQ         ___,___,___,___,___,___,___,___ ;
	FRQ         ___,___,___,___,___,___,___,___ ;
	SPEED       006
	FRQ         ___,___,___,___,___,___,___,___ ;
	SPEED       001
	DEL         ___,___,___,___,___,___,___,___
	FRQ         ___,___,___,___,___,___,___,Gn2 ;
	DEL         ___,___,___,___,___,___,___,___
	FRQ         ___,___,___,___,___,___,___,Gn2 ;
	FRQ         ___,___,___,___,___,___,___,___ ;
	FRQ         ___,___,___,___,___,___,___,___ ;
	FRQ         ___,___,___,___,___,___,___,___ ;
	FRQ         ___,___,___,___,___,___,___,___ ;
	SPEED       006
	FRQ         ___,___,___,___,___,___,___,___ ;
	GTM         ___,___,___,___,___,___,___,003
	PAN         ___,___,___,___,___,___,___,___
	FRQ         ___,___,___,___,___,___,___,Cn2 ;
	FRQ         ___,___,___,___,___,___,___,___ ;
	FRQ         Fn4,An4,Dn5,An4,Dn5,An2,___,Cn2 ;
	FRQ         ___,___,___,___,___,___,___,___ ;
	GTM         ___,___,___,___,___,___,___,255
	PAN         ___,___,___,___,___,___,___,___
	DEL         ___,___,___,___,___,___,___,___
	FRQ         Q__,Q__,Q__,Q__,Q__,An2,___,Cn3 ;
	FRQ         ___,___,___,___,___,___,___,___ ;
	INS         ___,___,___,___,___,___,___,038
	VOL         ___,___,___,___,___,___,___,230
	GTM         ___,___,___,___,___,___,___,001
	FRQ         Fn4,An4,Dn5,An4,Dn5,An2,___,Cn8 ;
	INS         ___,___,___,___,___,___,___,001
	VOL         ___,___,___,___,___,___,___,255
	FRQ         ___,___,___,___,___,___,___,___ ;
	GTM         ___,___,___,___,___,___,___,003
	PAN         ___,___,___,___,___,___,___,___
	FRQ         ___,___,___,___,___,Dn2,___,Cn2 ;
	FRQ         ___,___,___,___,___,___,___,___ ;
	INS         ___,___,___,___,___,___,___,038
	VOL         ___,___,___,___,___,___,___,230
	GTM         ___,___,___,___,___,___,___,001
	FRQ         ___,___,___,___,___,Dn2,___,Cn8 ;
	FRQ         ___,___,___,___,___,___,___,___ ;
	INS         ___,___,___,___,___,___,___,001
	VOL         ___,___,___,___,___,___,___,255
	GTM         ___,___,___,___,___,___,___,255
	PAN         ___,___,___,___,___,___,___,___
	DEL         ___,___,___,___,___,___,___,___
	FRQ         ___,___,___,___,___,Dn2,___,Cn3 ;
	FRQ         ___,___,___,___,___,___,___,___ ;
	INS         ___,___,___,___,___,___,___,038
	VOL         ___,___,___,___,___,___,___,230
	GTM         ___,___,___,___,___,___,___,001
	FRQ         ___,___,___,___,___,Dn2,___,Cn8 ;
	INS         ___,___,___,___,___,___,___,001
	VOL         ___,___,___,___,___,___,___,255
	FRQ         ___,___,___,___,___,___,___,___ ;
	GTM         ___,___,___,___,___,___,___,003
	PAN         ___,___,___,___,___,___,___,___
	FRQ         ___,___,___,___,___,Dn3,___,Cn2 ;
	FRQ         ___,___,___,___,___,Dn3,___,___ ;
	FRQ         ___,___,___,___,___,Dn2,___,Cn2 ;
	FRQ         ___,___,___,___,___,___,___,___ ;
	GTM         ___,___,___,___,___,___,___,255
	PAN         ___,___,___,___,___,___,___,___
	DEL         ___,___,___,___,___,___,___,___
	FRQ         ___,___,___,___,___,Dn2,___,Cn3 ;
	FRQ         ___,___,___,___,___,___,___,___ ;
	INS         ___,___,___,___,___,___,___,038
	VOL         ___,___,___,___,___,___,___,230
	GTM         ___,___,___,___,___,___,___,001
	FRQ         ___,___,___,___,___,Dn3,___,Cn8 ;
	INS         ___,___,___,___,___,___,___,001
	VOL         ___,___,___,___,___,___,___,255
	FRQ         ___,___,___,___,___,___,___,___ ;
	GTM         ___,___,___,___,___,___,___,003
	PAN         ___,___,___,___,___,___,___,___
	FRQ         Q__,Q__,Q__,Q__,Q__,Q__,___,Cn2 ;
	INS         ___,___,___,___,___,___,___,038
	VOL         ___,___,___,___,___,___,___,230
	GTM         ___,___,___,___,___,___,___,001
	FRQ         ___,___,___,___,___,___,___,Cn8 ;
	FRQ         ___,___,___,___,___,___,___,Cn8 ;
	INS         ___,___,___,___,___,___,___,001
	VOL         ___,___,___,___,___,___,___,255
	GTM         ___,___,___,___,___,___,___,003
	PAN         ___,___,___,___,___,___,___,___
	FRQ         ___,___,___,___,___,___,___,Cn2 ;
	GTM         ___,___,___,___,___,___,___,255
	PAN         ___,___,___,___,___,___,___,___
	DEL         ___,___,___,___,___,___,___,___
	FRQ         ___,___,___,___,___,___,___,Cn3 ;
	FRQ         ___,___,___,___,___,___,___,___ ;
	FRQ         ___,___,___,___,___,___,___,___ ;
	INS         ___,___,___,___,___,___,___,038
	VOL         ___,___,___,___,___,___,___,230
	GTM         ___,___,___,___,___,___,___,001
	FRQ         ___,___,___,___,___,___,___,Cn8 ;
	INS         ___,___,___,___,___,___,___,001
	VOL         ___,___,___,___,___,___,___,255
	GTM         ___,___,___,___,___,___,___,003
	PAN         ___,___,___,___,___,___,___,___
	FRQ         ___,___,___,___,___,___,___,Cn2 ;
	INS         ___,___,___,___,___,___,___,038
	VOL         ___,___,___,___,___,___,___,230
	GTM         ___,___,___,___,___,___,___,001
	FRQ         ___,___,___,___,___,___,___,Cn8 ;
	INS         ___,___,___,___,___,___,___,001
	VOL         ___,___,___,___,___,___,___,255
	GTM         ___,___,___,___,___,___,___,003
	PAN         ___,___,___,___,___,___,___,___
	FRQ         ___,___,___,___,___,___,___,Cn2 ;
	INS         ___,___,___,___,___,___,___,038
	VOL         ___,___,___,___,___,___,___,230
	GTM         ___,___,___,___,___,___,___,001
	FRQ         ___,___,___,___,___,___,___,Cn8 ;
	INS         ___,___,___,___,___,___,___,001
	VOL         ___,___,___,___,___,___,___,255
	GTM         ___,___,___,___,___,___,___,255
	PAN         ___,___,___,___,___,___,___,___
	DEL         ___,___,___,___,___,___,___,___
	FRQ         An2,An3,Cn4,An3,Cn4,An2,___,Cn3 ;
	FRQ         ___,___,___,___,___,___,___,___ ;
	INS         ___,___,___,___,___,___,___,038
	VOL         ___,___,___,___,___,___,___,230
	GTM         ___,___,___,___,___,___,___,001
	FRQ         Bn2,Bn3,Dn4,Bn3,Dn4,Bn2,___,Cn8 ;
	INS         ___,___,___,___,___,___,___,001
	VOL         ___,___,___,___,___,___,___,255
	FRQ         ___,___,___,___,___,___,___,___ ;
	PIT         ___,___,___,___,___,___,___,___
	PITRAT      ___,___,___,___,___,___,___,___
	PITDEP      ___,___,___,___,___,___,___,___
	JUMP        song005_jmp002
.endproc
