	.include "song.inc"
	.segment "BANK0"
	.export area4
.proc area4
song006_start:
	INIT        %11111111
	TEMPO       001
	TVOL        250
	SPEED       006
	PIT         019,015,017,011,015,015,___,004
	PITDEP      100,100,100,120,120,120,___,180
	PITRAT      140,140,140,145,145,145,___,100
	PAN         ___,___,__R,___,___,___,___,___
	INS         086,086,086,086,086,086,005,001
	VOL         234,223,223,234,230,230,255,255
	LFO         ___,___,___,001,___,001,___,___
	PAN         L__,___,___,__R,___,___,___,___
	DTN         000,006,008,054,002,016,___,___
song006_jmp000:
	FRQ         Gn2,An3,Dn4,Gn2,Q__,Q__,Gn2,___ ;
	FRQ         ___,___,___,___,___,___,___,___ ;
	FRQ         ___,Gn3,Q__,___,___,___,Gn2,___ ;
	FRQ         ___,An3,Dn4,___,___,___,Gn2,___ ;
	FRQ         ___,Q__,Q__,___,___,___,Gn2,Cn2 ;
	FRQ         ___,An3,Dn4,___,___,___,___,___ ;
	FRQ         ___,Gn3,Q__,___,___,___,Gn2,___ ;
	FRQ         ___,___,___,___,___,___,___,___ ;
	FRQ         ___,An3,Dn4,___,___,___,Gn2,___ ;
	FRQ         ___,___,___,___,___,___,___,___ ;
	FRQ         ___,Gn3,Q__,___,___,___,Gn2,___ ;
	FRQ         ___,An3,Dn4,___,___,___,___,___ ;
	FRQ         ___,Q__,Q__,___,___,___,Gn2,Cn2 ;
	FRQ         ___,An3,Dn3,___,___,___,___,___ ;
	FRQ         ___,Gn3,Q__,___,___,___,Gn2,___ ;
	FRQ         ___,___,___,___,___,___,___,___ ;
	FRQ         ___,An3,Dn4,___,___,___,Gn2,___ ;
	FRQ         ___,___,___,___,___,___,___,___ ;
	FRQ         ___,Gn3,Q__,___,___,___,Gn2,___ ;
	FRQ         ___,An3,Dn4,___,___,___,Gn2,___ ;
	FRQ         ___,Q__,Q__,___,___,___,Gn2,Cn2 ;
	FRQ         ___,An3,Dn4,___,___,___,___,___ ;
	FRQ         ___,Gn3,Q__,___,___,___,Gn2,___ ;
	FRQ         ___,___,___,___,___,___,___,___ ;
	FRQ         ___,An3,Dn4,___,___,___,Gn2,___ ;
	FRQ         ___,___,___,___,___,___,___,___ ;
	FRQ         ___,Gn3,Q__,___,___,___,Gn2,___ ;
	FRQ         ___,An3,Dn4,___,___,___,___,___ ;
	FRQ         ___,Q__,Q__,___,___,___,Gn2,Cn2 ;
	FRQ         ___,An3,Dn3,___,___,___,___,___ ;
	FRQ         ___,Gn3,Q__,___,___,___,Gn2,___ ;
	FRQ         ___,___,___,___,___,___,___,___ ;
	FRQ         Gn2,An3,Dn4,Gn2,___,___,Gn2,Cn2 ;
	FRQ         ___,___,___,___,___,___,___,___ ;
	FRQ         ___,Gn3,Q__,___,___,___,Gn2,___ ;
	FRQ         ___,An3,Dn4,___,___,___,Gn2,___ ;
	FRQ         ___,Q__,Q__,___,___,___,Gn2,Cn2 ;
	FRQ         ___,An3,Dn4,___,___,___,___,___ ;
	FRQ         ___,Gn3,Q__,___,___,___,Gn2,___ ;
	FRQ         ___,___,___,___,___,___,___,___ ;
	FRQ         ___,An3,Dn4,___,___,___,Gn2,Cn2 ;
	FRQ         ___,___,___,___,___,___,___,___ ;
	FRQ         ___,Gn3,Q__,___,___,___,Gn2,___ ;
	FRQ         ___,An3,Dn4,___,___,___,___,___ ;
	FRQ         ___,Q__,Q__,___,___,___,Gn2,Cn2 ;
	FRQ         ___,An3,Dn3,___,___,___,___,___ ;
	FRQ         ___,Gn3,Q__,___,___,___,Gn2,___ ;
	FRQ         ___,___,___,___,___,___,___,___ ;
	FRQ         ___,An3,Dn4,___,Gn2,___,Gn2,Cn2 ;
	FRQ         ___,___,___,___,Q__,___,___,___ ;
	FRQ         ___,Gn3,Q__,___,Gn2,___,Gn2,___ ;
	FRQ         ___,An3,Dn4,___,Gn2,___,Gn2,Cn2 ;
	FRQ         ___,Q__,Q__,___,Gn2,___,Gn2,Cn3 ;
	FRQ         ___,An3,Dn4,___,Q__,___,___,___ ;
	FRQ         ___,Gn3,Q__,___,Gn2,___,Gn2,___ ;
	FRQ         ___,___,___,___,Q__,___,___,___ ;
	FRQ         ___,An3,Dn4,___,Gn2,___,Gn2,Cn2 ;
	FRQ         ___,___,___,___,Gn3,___,Gn3,Cn3 ;
	FRQ         ___,Gn3,Q__,___,Gn3,___,Gn3,Cn3 ;
	FRQ         ___,An3,Dn4,___,Gn2,___,Gn2,Cn3 ;
	FRQ         ___,Q__,Q__,___,Gn3,___,Gn3,Cn2 ;
	FRQ         ___,An3,Dn3,___,Gn3,___,Gn3,Cn3 ;
	FRQ         ___,Gn3,Q__,___,Gn2,___,Gn2,Cn3 ;
	FRQ         ___,___,___,___,Gn3,___,Gn3,Cn3 ;
	FRQ         Gn2,An3,Dn4,Gn2,Cn5,En5,Gn2,Cn2 ;
	FRQ         ___,___,___,___,___,___,___,___ ;
	FRQ         ___,Gn3,Q__,___,___,___,Gn2,___ ;
	FRQ         ___,An3,Dn4,___,___,___,Gn2,___ ;
	FRQ         ___,Q__,Q__,___,___,___,Gn2,Cn3 ;
	FRQ         ___,An3,Dn4,___,___,___,___,___ ;
	FRQ         ___,Gn3,Q__,___,___,___,Gn2,___ ;
	FRQ         ___,___,___,___,___,___,___,___ ;
	FRQ         ___,An3,Dn4,___,Bn4,Dn5,Gn2,Cn2 ;
	FRQ         ___,___,___,___,___,___,___,___ ;
	FRQ         ___,Gn3,Q__,___,___,___,Gn2,___ ;
	FRQ         ___,An3,Dn4,___,___,___,___,___ ;
	FRQ         ___,Q__,Q__,___,___,___,Gn2,Cn3 ;
	FRQ         ___,An3,Dn3,___,___,___,___,___ ;
	FRQ         ___,Gn3,Q__,___,___,___,Gn2,___ ;
	FRQ         ___,___,___,___,___,___,___,___ ;
	FRQ         ___,An3,Dn4,___,An4,Cn5,Gn2,Cn2 ;
	FRQ         ___,___,___,___,___,___,___,___ ;
	FRQ         ___,Gn3,Q__,___,___,___,Gn2,___ ;
	FRQ         ___,An3,Dn4,___,___,___,Gn2,___ ;
	FRQ         ___,Q__,Q__,___,___,___,Gn2,Cn3 ;
	FRQ         ___,An3,Dn4,___,___,___,___,___ ;
	FRQ         ___,Gn3,Q__,___,___,___,Gn2,___ ;
	FRQ         ___,___,___,___,___,___,___,___ ;
	FRQ         ___,An3,Dn4,___,Gn4,Bn4,Gn2,Cn2 ;
	FRQ         ___,___,___,___,___,___,___,___ ;
	FRQ         ___,Gn3,Q__,___,___,___,Gn2,___ ;
	FRQ         ___,An3,Dn4,___,An4,Cn5,___,Cn2 ;
	FRQ         ___,Q__,Q__,___,___,___,Gn2,Cn3 ;
	FRQ         ___,An3,Dn3,___,___,___,___,___ ;
	FRQ         ___,Gn3,Q__,___,Bn4,Dn5,Gn2,___ ;
	FRQ         ___,___,___,___,___,___,___,___ ;
	FRQ         Fn2,Bn3,En4,Fn2,Bn4,Dn5,Fn2,Cn2 ;
	FRQ         ___,___,___,___,___,___,___,___ ;
	FRQ         ___,An3,Q__,___,___,___,Fn2,___ ;
	FRQ         ___,Bn3,En4,___,___,___,Fn2,___ ;
	FRQ         ___,Q__,Q__,___,___,___,Fn2,Cn3 ;
	FRQ         ___,Bn3,En4,___,___,___,___,___ ;
	FRQ         ___,An3,Q__,___,___,___,Fn2,___ ;
	FRQ         ___,___,___,___,___,___,___,___ ;
	FRQ         ___,Bn3,En4,___,___,___,Fn2,Cn2 ;
	FRQ         ___,___,___,___,___,___,___,___ ;
	FRQ         ___,An3,Q__,___,___,___,Fn2,___ ;
	FRQ         ___,Bn3,En4,___,___,___,___,___ ;
	FRQ         ___,Q__,Q__,___,An4,Cn5,Fn2,Cn3 ;
	FRQ         ___,Bn3,En3,___,___,___,___,___ ;
	FRQ         ___,An3,Q__,___,Gn4,Bn4,Fn2,___ ;
	FRQ         ___,___,___,___,___,___,___,___ ;
	GTM         ___,___,___,___,___,005,___,___
	FRQ         ___,Bn3,En4,___,Cn5,Cn5,Fn2,Cn2 ;
	FRQ         ___,___,___,___,___,___,___,___ ;
	FRQ         ___,An3,Q__,___,___,Dn5,Fn2,___ ;
	FRQ         ___,Bn3,En4,___,___,___,Fn2,___ ;
	FRQ         ___,Q__,Q__,___,___,An4,Fn2,Cn3 ;
	FRQ         ___,Bn3,En4,___,___,___,___,___ ;
	FRQ         ___,An3,Q__,___,___,Bn4,Fn2,___ ;
	FRQ         ___,___,___,___,___,___,___,___ ;
	FRQ         ___,Bn3,En4,___,___,Cn5,Fn2,Cn2 ;
	FRQ         ___,___,___,___,___,___,___,___ ;
	FRQ         ___,An3,Q__,___,___,Bn4,Fn2,___ ;
	FRQ         ___,Bn3,En4,___,___,Cn5,___,Cn2 ;
	FRQ         ___,Q__,Q__,___,___,Dn5,Fn2,Cn3 ;
	FRQ         ___,Bn3,En3,___,___,___,___,Cn3 ;
	FRQ         ___,An3,Q__,___,___,Cn5,Fn2,Cn3 ;
	FRQ         ___,___,___,___,___,Dn5,___,___ ;
	GTM         ___,___,___,___,___,255,___,___
	FRQ         Gn2,An3,Dn4,Gn2,Cn5,En5,Gn2,Cn2 ;
	FRQ         ___,___,___,___,___,___,___,___ ;
	FRQ         ___,Gn3,Q__,___,___,___,Gn2,___ ;
	FRQ         ___,An3,Dn4,___,___,___,Gn2,___ ;
	FRQ         ___,Q__,Q__,___,___,___,Gn2,Cn3 ;
	FRQ         ___,An3,Dn4,___,___,___,___,___ ;
	FRQ         ___,Gn3,Q__,___,___,___,Gn2,___ ;
	FRQ         ___,___,___,___,___,___,___,___ ;
	FRQ         ___,An3,Dn4,___,Bn4,Dn5,Gn2,Cn2 ;
	FRQ         ___,___,___,___,___,___,___,___ ;
	FRQ         ___,Gn3,Q__,___,___,___,Gn2,___ ;
	FRQ         ___,An3,Dn4,___,___,___,___,___ ;
	FRQ         ___,Q__,Q__,___,___,___,Gn2,Cn3 ;
	FRQ         ___,An3,Dn3,___,___,___,___,___ ;
	FRQ         ___,Gn3,Q__,___,___,___,Gn2,___ ;
	FRQ         ___,___,___,___,___,___,___,___ ;
	FRQ         ___,An3,Dn4,___,An4,Cn5,Gn2,Cn2 ;
	FRQ         ___,___,___,___,___,___,___,___ ;
	FRQ         ___,Gn3,Q__,___,___,___,Gn2,___ ;
	FRQ         ___,An3,Dn4,___,___,___,Gn2,___ ;
	FRQ         ___,Q__,Q__,___,___,___,Gn2,Cn3 ;
	FRQ         ___,An3,Dn4,___,___,___,___,___ ;
	FRQ         ___,Gn3,Q__,___,___,___,Gn2,___ ;
	FRQ         ___,___,___,___,___,___,___,___ ;
	FRQ         ___,An3,Dn4,___,Gn4,Bn4,Gn2,Cn2 ;
	FRQ         ___,___,___,___,___,___,___,___ ;
	FRQ         ___,Gn3,Q__,___,___,___,Gn2,___ ;
	FRQ         ___,An3,Dn4,___,An4,Cn5,___,Cn2 ;
	FRQ         ___,Q__,Q__,___,___,___,Gn2,Cn3 ;
	FRQ         ___,An3,Dn3,___,___,___,___,___ ;
	FRQ         ___,Gn3,Q__,___,Bn4,Dn5,Gn2,___ ;
	FRQ         ___,___,___,___,___,___,___,___ ;
	PIT         ___,___,___,___,034,034,___,___
	PITDEP      ___,___,___,___,255,255,___,___
	PITRAT      ___,___,___,___,002,002,___,___
	FRQ         Fn2,Bn3,En4,Fn2,___,An5,Fn2,Cn2 ;
	FRQ         ___,___,___,___,An5,___,___,___ ;
	FRQ         ___,An3,Q__,___,___,___,Fn2,___ ;
	FRQ         ___,Bn3,En4,___,___,___,Fn2,___ ;
	FRQ         ___,Q__,Q__,___,___,___,Fn2,Cn3 ;
	FRQ         ___,Bn3,En4,___,___,___,___,___ ;
	FRQ         ___,An3,Q__,___,___,___,Fn2,___ ;
	FRQ         ___,___,___,___,___,___,___,___ ;
	FRQ         ___,Bn3,En4,___,___,___,Fn2,Cn2 ;
	FRQ         ___,___,___,___,___,___,___,___ ;
	FRQ         ___,An3,Q__,___,___,___,Fn2,___ ;
	FRQ         ___,Bn3,En4,___,___,___,___,___ ;
	FRQ         ___,Q__,Q__,___,___,___,Fn2,Cn3 ;
	FRQ         ___,Bn3,En3,___,___,___,___,___ ;
	FRQ         ___,An3,Q__,___,___,___,Fn2,___ ;
	FRQ         ___,___,___,___,___,___,___,___ ;
	FRQ         ___,Bn3,En4,___,___,___,Fn2,Cn2 ;
	FRQ         ___,___,___,___,___,___,___,___ ;
	FRQ         ___,An3,Q__,___,___,___,Fn2,___ ;
	FRQ         ___,Bn3,En4,___,___,___,Fn2,___ ;
	FRQ         ___,Q__,Q__,___,___,___,Fn2,Cn3 ;
	FRQ         ___,Bn3,En4,___,___,___,___,___ ;
	FRQ         ___,An3,Q__,___,___,___,Fn2,___ ;
	FRQ         ___,___,___,___,___,___,___,___ ;
	FRQ         ___,Bn3,En4,___,___,___,Fn2,Cn2 ;
	FRQ         ___,___,___,___,___,___,___,___ ;
	FRQ         ___,An3,Q__,___,___,___,Fn2,___ ;
	FRQ         ___,Bn3,En4,___,___,___,___,Cn2 ;
	FRQ         ___,Q__,Q__,___,___,___,Fn2,Cn3 ;
	FRQ         ___,Bn3,En3,___,___,___,___,___ ;
	FRQ         ___,An3,Q__,___,___,___,Fn2,___ ;
	FRQ         ___,___,___,___,___,___,___,___ ;
	PIT         ___,___,___,___,013,015,___,___
	PITDEP      ___,___,___,___,120,120,___,___
	PITRAT      ___,___,___,___,145,145,___,___
	FRQ         Gn2,An3,Dn4,Gn2,Cn4,Gn4,Gn2,Cn2 ;
	FRQ         ___,___,___,___,___,___,___,___ ;
	FRQ         ___,Gn3,Q__,___,___,___,Gn2,___ ;
	FRQ         ___,An3,Dn4,___,___,___,Gn2,Cn2 ;
	FRQ         ___,Q__,Q__,___,___,___,Gn2,Cn3 ;
	FRQ         ___,An3,Dn4,___,___,___,___,___ ;
	FRQ         ___,Gn3,Q__,___,___,___,Gn2,___ ;
	FRQ         ___,___,___,___,___,___,___,___ ;
	FRQ         ___,An3,Dn4,___,___,___,Gn2,Cn2 ;
	FRQ         ___,___,___,___,___,___,___,___ ;
	FRQ         ___,Gn3,Q__,___,___,___,Gn2,___ ;
	FRQ         ___,An3,Dn4,___,___,___,___,___ ;
	FRQ         ___,Q__,Q__,___,___,___,Gn2,Cn3 ;
	FRQ         ___,An3,Dn3,___,___,___,___,___ ;
	FRQ         ___,Gn3,Q__,___,___,___,Gn2,Cn2 ;
	FRQ         ___,___,___,___,___,___,___,___ ;
	FRQ         ___,An3,Dn4,___,Cn4,Gn4,Gn2,Cn2 ;
	FRQ         ___,___,___,___,___,___,___,___ ;
	FRQ         ___,Gn3,Q__,___,Q__,Q__,Gn2,___ ;
	FRQ         ___,An3,Dn4,___,Cn4,Fn4,Gn2,Cn2 ;
	FRQ         ___,Q__,Q__,___,___,___,Gn2,Cn3 ;
	FRQ         ___,An3,Dn4,___,Q__,Q__,___,___ ;
	FRQ         ___,Gn3,Q__,___,Cn4,En4,Gn2,___ ;
	FRQ         ___,___,___,___,___,___,___,___ ;
	FRQ         ___,An3,Dn4,___,Q__,Q__,Gn2,Cn2 ;
	FRQ         ___,___,___,___,Cn4,Fn4,___,Cn2 ;
	FRQ         ___,Gn3,Q__,___,___,___,Gn2,Cn2 ;
	FRQ         ___,An3,Dn4,___,Q__,Q__,___,___ ;
	FRQ         ___,Q__,Q__,___,Cn4,En4,Gn2,Cn3 ;
	FRQ         ___,An3,Dn3,___,___,___,___,Cn3 ;
	FRQ         ___,Gn3,Q__,___,Q__,Q__,Gn2,Cn3 ;
	FRQ         ___,___,___,___,Bn3,Dn4,___,___ ;
	FRQ         Fn2,Bn3,En4,Fn2,___,___,Fn2,Cn2 ;
	FRQ         ___,___,___,___,___,___,___,___ ;
	FRQ         ___,An3,Q__,___,An3,Cn4,Fn2,___ ;
	FRQ         ___,Bn3,En4,___,___,___,Fn2,Cn2 ;
	FRQ         ___,Q__,Q__,___,___,___,Fn2,Cn3 ;
	FRQ         ___,Bn3,En4,___,___,___,___,___ ;
	FRQ         ___,An3,Q__,___,___,___,Fn2,___ ;
	FRQ         ___,___,___,___,___,___,___,___ ;
	FRQ         ___,Bn3,En4,___,___,___,Fn2,Cn2 ;
	FRQ         ___,___,___,___,___,___,___,___ ;
	FRQ         ___,An3,Q__,___,___,___,Fn2,___ ;
	FRQ         ___,Bn3,En4,___,___,___,___,___ ;
	FRQ         ___,Q__,Q__,___,Cn4,En4,Fn2,Cn3 ;
	FRQ         ___,Bn3,En3,___,___,___,___,___ ;
	FRQ         ___,An3,Q__,___,___,___,Fn2,Cn2 ;
	FRQ         ___,___,___,___,___,___,___,___ ;
	FRQ         ___,Bn3,En4,___,Bn3,Dn4,Fn2,Cn2 ;
	FRQ         ___,___,___,___,___,___,___,___ ;
	FRQ         ___,An3,Q__,___,___,___,Fn2,___ ;
	FRQ         ___,Bn3,En4,___,___,___,Fn2,Cn2 ;
	FRQ         ___,Q__,Q__,___,___,___,Fn2,Cn3 ;
	FRQ         ___,Bn3,En4,___,___,___,___,___ ;
	FRQ         ___,An3,Q__,___,___,___,Fn2,___ ;
	FRQ         ___,___,___,___,___,___,___,___ ;
	FRQ         ___,Bn3,En4,___,___,___,Fn2,Cn2 ;
	FRQ         ___,___,___,___,___,___,___,___ ;
	FRQ         ___,An3,Q__,___,___,___,Fn2,___ ;
	FRQ         ___,Bn3,En4,___,___,___,___,___ ;
	FRQ         ___,Q__,Q__,___,___,___,Fn2,Cn3 ;
	FRQ         ___,Bn3,En3,___,___,___,___,___ ;
	FRQ         ___,An3,Q__,___,___,___,Fn2,___ ;
	FRQ         ___,___,___,___,___,___,___,___ ;
	PIT         ___,___,___,___,035,035,___,___
	PITDEP      ___,___,___,___,255,255,___,___
	PITRAT      ___,___,___,___,012,012,___,___
	FRQ         Gn2,An3,Dn4,Gn2,Gn4,Bn4,Gn2,Cn2 ;
	FRQ         ___,___,___,___,___,___,___,___ ;
	FRQ         ___,Gn3,Q__,___,___,___,Gn2,___ ;
	FRQ         ___,An3,Dn4,___,___,___,Gn2,Cn2 ;
	FRQ         ___,Q__,Q__,___,___,___,Gn2,Cn3 ;
	FRQ         ___,An3,Dn4,___,___,___,___,___ ;
	FRQ         ___,Gn3,Q__,___,___,___,Gn2,___ ;
	FRQ         ___,___,___,___,___,___,___,___ ;
	FRQ         ___,An3,Dn4,___,___,___,Gn2,Cn2 ;
	FRQ         ___,___,___,___,___,___,___,___ ;
	FRQ         ___,Gn3,Q__,___,___,___,Gn2,___ ;
	FRQ         ___,An3,Dn4,___,___,___,___,___ ;
	FRQ         ___,Q__,Q__,___,___,___,Gn2,Cn3 ;
	FRQ         ___,An3,Dn3,___,___,___,___,___ ;
	FRQ         ___,Gn3,Q__,___,___,___,Gn2,Cn2 ;
	FRQ         ___,___,___,___,___,___,___,___ ;
	PIT         ___,___,___,___,013,015,___,___
	PITDEP      ___,___,___,___,120,120,___,___
	PITRAT      ___,___,___,___,145,145,___,___
	FRQ         ___,An3,Dn4,___,Cn5,An4,Gn2,Cn2 ;
	FRQ         ___,___,___,___,___,___,___,___ ;
	FRQ         ___,Gn3,Q__,___,Q__,Q__,Gn2,___ ;
	FRQ         ___,An3,Dn4,___,Bn4,Gn4,Gn2,Cn2 ;
	FRQ         ___,Q__,Q__,___,___,___,Gn2,Cn3 ;
	FRQ         ___,An3,Dn4,___,Q__,Q__,___,___ ;
	FRQ         ___,Gn3,Q__,___,Cn5,An4,Gn2,___ ;
	FRQ         ___,___,___,___,___,___,___,___ ;
	FRQ         ___,An3,Dn4,___,Q__,Q__,Gn2,Cn2 ;
	FRQ         ___,___,___,___,Bn4,Dn5,___,___ ;
	FRQ         ___,Gn3,Q__,___,___,___,Gn2,___ ;
	FRQ         ___,An3,Dn4,___,Q__,Q__,___,___ ;
	FRQ         ___,Q__,Q__,___,An4,Cn5,Gn2,Cn3 ;
	FRQ         ___,An3,Dn3,___,___,___,___,___ ;
	FRQ         ___,Gn3,Q__,___,Q__,Q__,Gn2,___ ;
	FRQ         ___,___,___,___,Gn4,Bn4,___,___ ;
	FRQ         Fn2,Bn3,En4,Fn2,___,___,Fn2,Cn2 ;
	FRQ         ___,___,___,___,___,___,___,___ ;
	PIT         ___,___,___,___,035,035,___,___
	PITDEP      ___,___,___,___,255,255,___,___
	PITRAT      ___,___,___,___,008,008,___,___
	FRQ         ___,An3,Q__,___,An4,Cn5,Fn2,___ ;
	FRQ         ___,Bn3,En4,___,___,___,Fn2,Cn2 ;
	FRQ         ___,Q__,Q__,___,___,___,Fn2,Cn3 ;
	FRQ         ___,Bn3,En4,___,___,___,___,___ ;
	FRQ         ___,An3,Q__,___,___,___,Fn2,___ ;
	FRQ         ___,___,___,___,___,___,___,___ ;
	FRQ         ___,Bn3,En4,___,___,___,Fn2,Cn2 ;
	FRQ         ___,___,___,___,___,___,___,___ ;
	FRQ         ___,An3,Q__,___,___,___,Fn2,___ ;
	FRQ         ___,Bn3,En4,___,___,___,___,___ ;
	FRQ         ___,Q__,Q__,___,___,___,Fn2,Cn3 ;
	FRQ         ___,Bn3,En3,___,___,___,___,___ ;
	FRQ         ___,An3,Q__,___,___,___,Fn2,Cn2 ;
	FRQ         ___,___,___,___,___,___,___,___ ;
	FRQ         ___,Bn3,En4,___,___,___,Fn2,Cn2 ;
	FRQ         ___,___,___,___,___,___,___,___ ;
	FRQ         ___,An3,Q__,___,___,___,Fn2,___ ;
	FRQ         ___,Bn3,En4,___,___,___,Fn2,Cn2 ;
	FRQ         ___,Q__,Q__,___,___,___,Fn2,Cn3 ;
	FRQ         ___,Bn3,En4,___,___,___,___,___ ;
	FRQ         ___,An3,Q__,___,___,___,Fn2,___ ;
	FRQ         ___,___,___,___,___,___,___,___ ;
	FRQ         ___,Bn3,En4,___,___,___,Fn2,Cn2 ;
	FRQ         ___,___,___,___,___,___,___,En3 ;
	FRQ         ___,An3,Q__,___,___,___,Fn2,En3 ;
	FRQ         ___,Bn3,En4,___,___,___,___,En3 ;
	FRQ         ___,Q__,Q__,___,___,___,Fn2,Cn3 ;
	FRQ         ___,Bn3,En3,___,___,___,___,Cn3 ;
	FRQ         ___,An3,Q__,___,___,___,Fn2,Gn2 ;
	FRQ         ___,___,___,___,___,___,___,___ ;
	PIT         ___,___,___,___,013,015,___,___
	PITDEP      ___,___,___,___,120,120,___,___
	PITRAT      ___,___,___,___,145,145,___,___
	VOL         ___,___,___,___,235,227,___,___
	FRQ         Gn2,An3,Dn4,Gn2,En6,Q__,Gn2,Cn2 ;
	FRQ         ___,___,___,___,Dn6,___,___,___ ;
	FRQ         ___,Gn3,Q__,___,Cn6,___,Gn2,___ ;
	FRQ         ___,An3,Dn4,___,Dn6,En6,Gn2,Cn2 ;
	FRQ         ___,Q__,Q__,___,Cn6,Dn6,Gn2,Cn3 ;
	FRQ         ___,An3,Dn4,___,Bn5,Cn6,___,___ ;
	FRQ         ___,Gn3,Q__,___,Cn6,Dn6,Gn2,___ ;
	FRQ         ___,___,___,___,Bn5,Cn6,___,___ ;
	FRQ         ___,An3,Dn4,___,An5,Bn5,Gn2,Cn2 ;
	FRQ         ___,___,___,___,Bn5,Cn6,___,___ ;
	FRQ         ___,Gn3,Q__,___,An5,Bn5,Gn2,___ ;
	FRQ         ___,An3,Dn4,___,Gn5,An5,___,___ ;
	FRQ         ___,Q__,Q__,___,An5,Bn5,Gn2,Cn3 ;
	FRQ         ___,An3,Dn3,___,Gn5,An5,___,___ ;
	FRQ         ___,Gn3,Q__,___,Fn5,Gn5,Gn2,Cn2 ;
	FRQ         ___,___,___,___,Gn5,An5,___,___ ;
	FRQ         ___,An3,Dn4,___,Fn5,Gn5,Gn2,Cn2 ;
	FRQ         ___,___,___,___,En5,Fn5,___,___ ;
	FRQ         ___,Gn3,Q__,___,Fn5,Gn5,Gn2,___ ;
	FRQ         ___,An3,Dn4,___,En5,Fn5,Gn2,Cn2 ;
	FRQ         ___,Q__,Q__,___,Dn5,En5,Gn2,Cn3 ;
	FRQ         ___,An3,Dn4,___,En5,Fn5,___,___ ;
	FRQ         ___,Gn3,Q__,___,Dn5,En5,Gn2,___ ;
	FRQ         ___,___,___,___,Cn5,Dn5,___,___ ;
	FRQ         ___,An3,Dn4,___,Dn5,En5,Gn2,Cn2 ;
	FRQ         ___,___,___,___,Cn5,Dn5,___,___ ;
	FRQ         ___,Gn3,Q__,___,Bn4,Cn5,Gn2,___ ;
	FRQ         ___,An3,Dn4,___,Cn5,Dn5,___,___ ;
	FRQ         ___,Q__,Q__,___,Bn4,Cn5,Gn2,Cn3 ;
	FRQ         ___,An3,Dn3,___,An4,Bn4,___,Cn2 ;
	FRQ         ___,Gn3,Q__,___,Bn4,Cn5,Gn2,___ ;
	FRQ         ___,___,___,___,An4,Bn4,___,___ ;
	FRQ         Fn2,Bn3,En4,Fn2,Gn4,An4,Fn2,Cn2 ;
	FRQ         ___,___,___,___,An4,Bn4,___,___ ;
	FRQ         ___,An3,Q__,___,Gn4,An4,Fn2,___ ;
	FRQ         ___,Bn3,En4,___,Fn4,Gn4,Fn2,Cn2 ;
	FRQ         ___,Q__,Q__,___,___,An4,Fn2,Cn3 ;
	FRQ         ___,Bn3,En4,___,___,Gn4,___,___ ;
	FRQ         ___,An3,Q__,___,___,Fn4,Fn2,___ ;
	FRQ         ___,___,___,___,___,___,___,___ ;
	FRQ         ___,Bn3,En4,___,Cn5,___,Fn2,Cn2 ;
	FRQ         ___,___,___,___,___,___,___,___ ;
	FRQ         ___,An3,Q__,___,___,___,Fn2,___ ;
	FRQ         ___,Bn3,En4,___,___,Cn5,___,___ ;
	FRQ         ___,Q__,Q__,___,___,___,Fn2,Cn3 ;
	FRQ         ___,Bn3,En3,___,___,___,___,___ ;
	FRQ         ___,An3,Q__,___,___,___,Fn2,Cn2 ;
	FRQ         ___,___,___,___,___,___,___,___ ;
	FRQ         ___,Bn3,En4,___,___,___,Fn2,Cn2 ;
	FRQ         ___,___,___,___,___,___,___,___ ;
	FRQ         ___,An3,Q__,___,___,___,Fn2,___ ;
	FRQ         ___,Bn3,En4,___,___,___,Fn2,Cn2 ;
	FRQ         ___,Q__,Q__,___,___,___,Fn2,Cn3 ;
	FRQ         ___,Bn3,En4,___,___,___,___,___ ;
	FRQ         ___,An3,Q__,___,___,___,Fn2,___ ;
	FRQ         ___,___,___,___,___,___,___,___ ;
	FRQ         ___,Bn3,En4,___,___,___,Fn2,Cn2 ;
	FRQ         ___,___,___,___,___,___,___,___ ;
	FRQ         ___,An3,Q__,___,___,___,Fn2,___ ;
	FRQ         ___,Bn3,En4,___,___,___,___,___ ;
	FRQ         ___,Q__,Q__,___,___,___,Fn2,Cn3 ;
	FRQ         ___,Bn3,En3,___,___,___,___,Cn2 ;
	FRQ         ___,An3,Q__,___,___,___,Fn2,___ ;
	FRQ         ___,___,___,___,___,___,___,___ ;
	FRQ         Gn2,An3,Dn4,Gn2,Gn4,___,Gn2,Cn2 ;
	FRQ         ___,___,___,___,An4,___,___,___ ;
	FRQ         ___,Gn3,Q__,___,Bn4,___,Gn2,___ ;
	FRQ         ___,An3,Dn4,___,Cn5,Gn4,Gn2,Cn2 ;
	FRQ         ___,Q__,Q__,___,Bn4,An4,Gn2,Cn3 ;
	FRQ         ___,An3,Dn4,___,An4,Bn4,___,___ ;
	FRQ         ___,Gn3,Q__,___,Gn4,Cn5,Gn2,___ ;
	FRQ         ___,___,___,___,An4,Bn4,___,___ ;
	FRQ         ___,An3,Dn4,___,Bn4,An4,Gn2,Cn2 ;
	FRQ         ___,___,___,___,Cn5,Gn4,___,___ ;
	FRQ         ___,Gn3,Q__,___,Bn4,An4,Gn2,___ ;
	FRQ         ___,An3,Dn4,___,An4,Bn4,___,___ ;
	FRQ         ___,Q__,Q__,___,Gn4,Cn5,Gn2,Cn3 ;
	FRQ         ___,An3,Dn3,___,An4,Bn4,___,___ ;
	FRQ         ___,Gn3,Q__,___,Bn4,An4,Gn2,Cn2 ;
	FRQ         ___,___,___,___,Cn5,Gn4,___,___ ;
	FRQ         ___,An3,Dn4,___,Bn4,An4,Gn2,Cn2 ;
	FRQ         ___,___,___,___,An4,Bn4,___,___ ;
	FRQ         ___,Gn3,Q__,___,Gn4,Cn5,Gn2,___ ;
	FRQ         ___,An3,Dn4,___,An4,Bn4,Gn2,Cn2 ;
	FRQ         ___,Q__,Q__,___,Bn4,An4,Gn2,Cn3 ;
	FRQ         ___,An3,Dn4,___,Cn5,Gn4,___,___ ;
	FRQ         ___,Gn3,Q__,___,Dn5,An4,Gn2,___ ;
	FRQ         ___,___,___,___,Cn5,Bn4,___,___ ;
	FRQ         ___,An3,Dn4,___,Bn4,Cn5,Gn2,Cn2 ;
	FRQ         ___,___,___,___,Cn5,Dn5,___,___ ;
	FRQ         ___,Gn3,Q__,___,An4,Cn5,Gn2,___ ;
	FRQ         ___,An3,Dn4,___,Bn4,Bn4,___,___ ;
	FRQ         ___,Q__,Q__,___,Gn4,Cn5,Gn2,Cn3 ;
	FRQ         ___,An3,Dn3,___,An4,An4,___,Cn2 ;
	FRQ         ___,Gn3,Q__,___,Fn4,Bn4,Gn2,___ ;
	FRQ         ___,___,___,___,Gn4,Gn4,___,___ ;
	PIT         ___,___,___,___,034,___,___,___
	PITDEP      ___,___,___,___,155,___,___,___
	PITRAT      ___,___,___,___,008,___,___,___
	FRQ         Fn2,Bn3,En4,Fn2,Fn4,An4,Fn2,Cn2 ;
	FRQ         ___,___,___,___,___,Fn4,___,___ ;
	FRQ         ___,An3,Q__,___,___,Gn4,Fn2,___ ;
	PIT         ___,___,___,___,___,034,___,___
	PITDEP      ___,___,___,___,___,155,___,___
	PITRAT      ___,___,___,___,___,008,___,___
	FRQ         ___,Bn3,En4,___,___,Fn4,Fn2,Cn2 ;
	FRQ         ___,Q__,Q__,___,___,___,Fn2,Cn3 ;
	FRQ         ___,Bn3,En4,___,___,___,___,___ ;
	FRQ         ___,An3,Q__,___,___,___,Fn2,___ ;
	FRQ         ___,___,___,___,___,___,___,___ ;
	PIT         ___,___,___,___,035,035,___,___
	PITDEP      ___,___,___,___,255,255,___,___
	PITRAT      ___,___,___,___,008,008,___,___
	FRQ         ___,Bn3,En4,___,En5,___,Fn2,Cn2 ;
	FRQ         ___,___,___,___,___,___,___,___ ;
	FRQ         ___,An3,Q__,___,___,___,Fn2,___ ;
	FRQ         ___,Bn3,En4,___,___,En5,___,___ ;
	FRQ         ___,Q__,Q__,___,___,___,Fn2,Cn3 ;
	FRQ         ___,Bn3,En3,___,___,___,___,___ ;
	FRQ         ___,An3,Q__,___,___,___,Fn2,Cn2 ;
	FRQ         ___,___,___,___,___,___,___,___ ;
	FRQ         ___,Bn3,En4,___,___,___,Fn2,Cn2 ;
	FRQ         ___,___,___,___,___,___,___,___ ;
	FRQ         ___,An3,Q__,___,___,___,Fn2,___ ;
	FRQ         ___,Bn3,En4,___,___,___,Fn2,Cn2 ;
	FRQ         ___,Q__,Q__,___,___,___,Fn2,Cn3 ;
	FRQ         ___,Bn3,En4,___,___,___,___,___ ;
	FRQ         ___,An3,Q__,___,___,___,Fn2,___ ;
	FRQ         ___,___,___,___,___,___,___,___ ;
	FRQ         ___,Bn3,En4,___,___,___,Fn2,Cn2 ;
	FRQ         ___,___,___,___,___,___,___,___ ;
	FRQ         ___,An3,Q__,___,___,___,Fn2,___ ;
	FRQ         ___,Bn3,En4,___,___,___,___,___ ;
	FRQ         ___,Q__,Q__,___,___,___,Fn2,Cn3 ;
	FRQ         ___,Bn3,En3,___,___,___,___,Cn2 ;
	FRQ         ___,An3,Q__,___,___,___,Fn2,___ ;
	FRQ         ___,___,___,___,___,___,___,___ ;
	PIT         ___,___,___,___,013,015,___,___
	PITDEP      ___,___,___,___,120,120,___,___
	PITRAT      ___,___,___,___,145,145,___,___
	FRQ         Gn2,An3,Dn4,Gn2,Gn4,Bn4,Gn2,Cn2 ;
	FRQ         ___,___,___,___,___,___,___,___ ;
	FRQ         ___,Gn3,Q__,___,___,___,Gn2,___ ;
	FRQ         ___,An3,Dn4,___,___,___,Gn2,Cn2 ;
	FRQ         ___,Q__,Q__,___,___,___,Gn2,Cn3 ;
	FRQ         ___,An3,Dn4,___,___,___,___,___ ;
	FRQ         ___,Gn3,Q__,___,___,___,Gn2,___ ;
	FRQ         ___,___,___,___,___,___,___,___ ;
	FRQ         ___,An3,Dn4,___,___,___,Gn2,Cn2 ;
	FRQ         ___,___,___,___,___,___,___,___ ;
	FRQ         ___,Gn3,Q__,___,___,___,Gn2,___ ;
	FRQ         ___,An3,Dn4,___,___,___,___,___ ;
	FRQ         ___,Q__,Q__,___,___,___,Gn2,Cn3 ;
	FRQ         ___,An3,Dn3,___,___,___,___,___ ;
	FRQ         ___,Gn3,Q__,___,___,___,Gn2,Cn2 ;
	FRQ         ___,___,___,___,___,___,___,___ ;
	FRQ         ___,An3,Dn4,___,An4,Cn5,Gn2,Cn2 ;
	FRQ         ___,___,___,___,___,___,___,___ ;
	FRQ         ___,Gn3,Q__,___,___,___,Gn2,___ ;
	FRQ         ___,An3,Dn4,___,___,___,Gn2,Cn2 ;
	FRQ         ___,Q__,Q__,___,___,___,Gn2,Cn3 ;
	FRQ         ___,An3,Dn4,___,___,___,___,___ ;
	FRQ         ___,Gn3,Q__,___,___,___,Gn2,___ ;
	FRQ         ___,___,___,___,___,___,___,___ ;
	FRQ         ___,An3,Dn4,___,Bn4,Dn5,Gn2,Cn2 ;
	FRQ         ___,___,___,___,___,___,___,___ ;
	FRQ         ___,Gn3,Q__,___,___,___,Gn2,___ ;
	FRQ         ___,An3,Dn4,___,___,___,___,___ ;
	FRQ         ___,Q__,Q__,___,___,___,Gn2,Cn3 ;
	FRQ         ___,An3,Dn3,___,___,___,___,Cn2 ;
	FRQ         ___,Gn3,Q__,___,___,___,Gn2,___ ;
	FRQ         ___,___,___,___,___,___,___,___ ;
	PIT         ___,___,___,___,034,034,___,___
	PITDEP      ___,___,___,___,255,255,___,___
	PITRAT      ___,___,___,___,001,001,___,___
	FRQ         Fn2,Bn3,En4,Fn2,En5,Gn5,Fn2,Cn2 ;
	FRQ         ___,___,___,___,___,___,___,___ ;
	FRQ         ___,An3,Q__,___,___,___,Fn2,___ ;
	FRQ         ___,Bn3,En4,___,___,___,Fn2,Cn2 ;
	FRQ         ___,Q__,Q__,___,___,___,Fn2,Cn3 ;
	FRQ         ___,Bn3,En4,___,___,___,___,___ ;
	FRQ         ___,An3,Q__,___,___,___,Fn2,___ ;
	FRQ         ___,___,___,___,___,___,___,___ ;
	FRQ         ___,Bn3,En4,___,___,___,Fn2,Cn2 ;
	FRQ         ___,___,___,___,___,___,___,___ ;
	FRQ         ___,An3,Q__,___,___,___,Fn2,___ ;
	FRQ         ___,Bn3,En4,___,___,___,___,___ ;
	FRQ         ___,Q__,Q__,___,___,___,Fn2,Cn3 ;
	FRQ         ___,Bn3,En3,___,___,___,___,___ ;
	FRQ         ___,An3,Q__,___,___,___,Fn2,Cn2 ;
	FRQ         ___,___,___,___,___,___,___,___ ;
	FRQ         ___,Bn3,En4,___,___,___,Fn2,Cn2 ;
	FRQ         ___,___,___,___,___,___,___,___ ;
	FRQ         ___,An3,Q__,___,___,___,Fn2,___ ;
	FRQ         ___,Bn3,En4,___,___,___,Fn2,Cn2 ;
	FRQ         ___,Q__,Q__,___,___,___,Fn2,Cn3 ;
	FRQ         ___,Bn3,En4,___,___,___,___,___ ;
	FRQ         ___,An3,Q__,___,___,___,Fn2,___ ;
	FRQ         ___,___,___,___,___,___,___,___ ;
	FRQ         ___,Bn3,En4,___,___,___,Fn2,Cn2 ;
	FRQ         ___,___,___,___,___,___,___,___ ;
	FRQ         ___,An3,Q__,___,___,___,Fn2,___ ;
	FRQ         ___,Bn3,En4,___,___,___,___,___ ;
	FRQ         ___,Q__,Q__,___,___,___,Fn2,Cn3 ;
	FRQ         ___,Bn3,En3,___,___,___,___,Cn2 ;
	FRQ         ___,An3,Q__,___,___,___,Fn2,___ ;
	FRQ         ___,___,___,___,___,___,___,___ ;
	PIT         ___,___,___,___,013,015,___,___
	PITDEP      ___,___,___,___,120,120,___,___
	PITRAT      ___,___,___,___,145,145,___,___
	PAN         ___,___,___,___,__R,__R,___,___
	FRQ         Gn2,An3,Dn4,Gn2,An3,Dn4,Gn2,Cn2 ;
	FRQ         ___,___,___,___,___,___,___,___ ;
	FRQ         ___,Gn3,Q__,___,Gn3,Q__,Gn2,___ ;
	FRQ         ___,An3,Dn4,___,An3,Dn4,Gn2,Cn2 ;
	FRQ         ___,Q__,Q__,___,Q__,Q__,Gn2,Cn3 ;
	FRQ         ___,An3,Dn4,___,___,___,___,___ ;
	FRQ         ___,Gn3,Q__,___,___,___,Gn2,___ ;
	FRQ         ___,___,___,___,___,___,___,___ ;
	PAN         ___,___,___,___,L__,L__,___,___
	FRQ         ___,An3,Dn4,___,An4,Dn5,Gn2,Cn2 ;
	FRQ         ___,___,___,___,___,___,___,___ ;
	FRQ         ___,Gn3,Q__,___,Gn4,Q__,Gn2,___ ;
	FRQ         ___,An3,Dn4,___,An4,Dn5,___,___ ;
	FRQ         ___,Q__,Q__,___,Q__,Q__,Gn2,Cn3 ;
	FRQ         ___,An3,Dn3,___,___,___,___,___ ;
	FRQ         ___,Gn3,Q__,___,___,___,Gn2,Cn2 ;
	FRQ         ___,___,___,___,___,___,___,___ ;
	FRQ         ___,An3,Dn4,___,___,___,Gn2,Cn2 ;
	FRQ         ___,___,___,___,___,___,___,___ ;
	FRQ         ___,Gn3,Q__,___,___,___,Gn2,___ ;
	FRQ         ___,An3,Dn4,___,___,___,Gn2,Cn2 ;
	FRQ         ___,Q__,Q__,___,___,___,Gn2,Cn3 ;
	FRQ         ___,An3,Dn4,___,___,___,___,___ ;
	FRQ         ___,Gn3,Q__,___,___,___,Gn2,___ ;
	FRQ         ___,___,___,___,___,___,___,___ ;
	PAN         ___,___,___,___,_C_,_C_,___,___
	FRQ         ___,An3,Dn4,___,An3,Dn4,Gn2,Cn2 ;
	FRQ         ___,___,___,___,___,___,___,___ ;
	FRQ         ___,Gn3,Q__,___,Gn3,Q__,Gn2,___ ;
	FRQ         ___,An3,Dn4,___,An3,Dn4,___,___ ;
	FRQ         ___,Q__,Q__,___,Q__,Q__,Gn2,Cn3 ;
	FRQ         ___,An3,Dn3,___,___,___,___,Cn2 ;
	FRQ         ___,Gn3,Q__,___,___,___,Gn2,___ ;
	FRQ         ___,___,___,___,___,___,___,___ ;
	PAN         ___,___,___,___,L__,L__,___,___
	FRQ         Fn2,Bn3,En4,Fn2,Bn3,En4,Fn2,Cn2 ;
	FRQ         ___,___,___,___,___,___,___,___ ;
	FRQ         ___,An3,Q__,___,An3,Q__,Fn2,___ ;
	FRQ         ___,Bn3,En4,___,Bn3,En4,Fn2,Cn2 ;
	FRQ         ___,Q__,Q__,___,Q__,Q__,Fn2,Cn3 ;
	FRQ         ___,Bn3,En4,___,___,___,___,___ ;
	FRQ         ___,An3,Q__,___,___,___,Fn2,___ ;
	FRQ         ___,___,___,___,___,___,___,___ ;
	PAN         ___,___,___,___,__R,__R,___,___
	FRQ         ___,Bn3,En4,___,Bn4,En5,Fn2,Cn2 ;
	FRQ         ___,___,___,___,___,___,___,___ ;
	FRQ         ___,An3,Q__,___,An4,Q__,Fn2,___ ;
	FRQ         ___,Bn3,En4,___,Bn4,En5,___,___ ;
	FRQ         ___,Q__,Q__,___,Q__,Q__,Fn2,Cn3 ;
	FRQ         ___,Bn3,En3,___,___,___,___,___ ;
	FRQ         ___,An3,Q__,___,___,___,Fn2,Cn2 ;
	FRQ         ___,___,___,___,___,___,___,___ ;
	FRQ         ___,Bn3,En4,___,___,___,Fn2,Cn2 ;
	FRQ         ___,___,___,___,___,___,___,Cn3 ;
	FRQ         ___,An3,Q__,___,___,___,Fn2,Cn3 ;
	FRQ         ___,Bn3,En4,___,___,___,Fn2,Cn3 ;
	FRQ         ___,Q__,Q__,___,___,___,Fn2,Cn3 ;
	FRQ         ___,Bn3,En4,___,___,___,___,Cn3 ;
	FRQ         ___,An3,Q__,___,___,___,Fn2,___ ;
	FRQ         ___,___,___,___,___,___,___,___ ;
	PAN         ___,___,___,___,_C_,_C_,___,___
	FRQ         ___,Bn3,En4,___,Bn3,En4,Fn2,Cn2 ;
	FRQ         ___,___,___,___,___,___,___,En3 ;
	FRQ         ___,An3,Q__,___,An3,Q__,Fn2,En3 ;
	FRQ         ___,Bn3,En4,___,Bn3,En4,___,Gn2 ;
	FRQ         ___,Q__,Q__,___,Q__,Q__,Fn2,Cn3 ;
	FRQ         ___,Bn3,En3,___,___,___,___,Cn3 ;
	FRQ         ___,An3,Q__,___,___,___,Fn2,Cn3 ;
	FRQ         ___,___,___,___,___,___,___,Cn2 ;
	FRQ         Gn2,An3,Dn4,Gn2,Gn1,Gn2,Gn2,___ ;
	FRQ         ___,___,___,___,___,___,___,___ ;
	FRQ         ___,Gn3,Q__,___,___,___,___,___ ;
	FRQ         ___,An3,Dn4,___,___,___,___,___ ;
	FRQ         ___,Q__,Q__,___,___,___,___,Cn2 ;
	FRQ         ___,An3,Dn4,___,___,___,___,___ ;
	FRQ         ___,Gn3,Q__,___,___,___,___,___ ;
	FRQ         ___,___,___,___,___,___,___,___ ;
	FRQ         ___,An3,Dn4,___,___,___,___,___ ;
	FRQ         ___,___,___,___,___,___,___,___ ;
	FRQ         ___,Gn3,Q__,___,___,___,___,___ ;
	FRQ         ___,An3,Dn4,___,___,___,___,___ ;
	FRQ         ___,Q__,Q__,___,___,___,___,Cn2 ;
	FRQ         ___,An3,Dn3,___,___,___,___,___ ;
	FRQ         ___,Gn3,Q__,___,___,___,___,___ ;
	FRQ         ___,___,___,___,___,___,___,___ ;
	FRQ         ___,An3,Dn4,___,___,___,___,___ ;
	FRQ         ___,___,___,___,___,___,___,___ ;
	FRQ         ___,Gn3,Q__,___,___,___,___,___ ;
	FRQ         ___,An3,Dn4,___,___,___,___,___ ;
	FRQ         ___,Q__,Q__,___,___,___,___,Cn2 ;
	FRQ         ___,An3,Dn4,___,___,___,___,___ ;
	FRQ         ___,Gn3,Q__,___,___,___,___,___ ;
	FRQ         ___,___,___,___,___,___,___,___ ;
	FRQ         ___,An3,Dn4,___,___,___,___,___ ;
	FRQ         ___,___,___,___,___,___,___,___ ;
	FRQ         ___,Gn3,Q__,___,___,___,___,___ ;
	FRQ         ___,An3,Dn4,___,___,___,___,___ ;
	FRQ         ___,Q__,Q__,___,___,___,___,Cn2 ;
	FRQ         ___,An3,Dn3,___,___,___,___,___ ;
	FRQ         ___,Gn3,Q__,___,___,___,___,___ ;
	FRQ         ___,___,___,___,___,___,___,___ ;
	FRQ         Fn2,Bn3,En4,Fn2,Fn1,Fn2,Fn2,Cn2 ;
	FRQ         ___,___,___,___,___,___,___,___ ;
	FRQ         ___,An3,Q__,___,___,___,___,___ ;
	FRQ         ___,Bn3,En4,___,___,___,___,Cn2 ;
	FRQ         ___,Q__,Q__,___,___,___,___,Cn3 ;
	FRQ         ___,Bn3,En4,___,___,___,___,___ ;
	FRQ         ___,An3,Q__,___,___,___,___,___ ;
	FRQ         ___,___,___,___,___,___,___,___ ;
	FRQ         ___,Bn3,En4,___,___,___,___,___ ;
	FRQ         ___,___,___,___,___,___,___,___ ;
	FRQ         ___,An3,Q__,___,___,___,___,___ ;
	FRQ         ___,Bn3,En4,___,___,___,___,___ ;
	FRQ         ___,Q__,Q__,___,___,___,___,Cn2 ;
	FRQ         ___,Bn3,En3,___,___,___,___,___ ;
	FRQ         ___,An3,Q__,___,___,___,___,___ ;
	FRQ         ___,___,___,___,___,___,___,___ ;
	FRQ         ___,Bn3,En4,___,___,___,___,___ ;
	FRQ         ___,___,___,___,___,___,___,___ ;
	FRQ         ___,An3,Q__,___,___,___,___,___ ;
	FRQ         ___,Bn3,En4,___,___,___,___,___ ;
	FRQ         ___,Q__,Q__,___,___,___,___,Cn2 ;
	FRQ         ___,Bn3,En4,___,___,___,___,___ ;
	FRQ         ___,An3,Q__,___,___,___,___,___ ;
	FRQ         ___,___,___,___,___,___,___,___ ;
	FRQ         ___,Bn3,En4,___,___,___,___,___ ;
	FRQ         ___,___,___,___,___,___,___,___ ;
	FRQ         ___,An3,Q__,___,___,___,___,___ ;
	FRQ         ___,Bn3,En4,___,___,___,___,___ ;
	FRQ         ___,Q__,Q__,___,___,___,___,Cn3 ;
	FRQ         ___,Bn3,En3,___,___,___,___,Cn3 ;
	FRQ         ___,An3,Q__,___,___,___,___,Cn2 ;
	FRQ         ___,___,___,___,___,___,___,___ ;
	FRQ         Gn2,An3,Dn4,Gn2,Gn1,Gn2,Gn2,Cn2 ;
	FRQ         ___,___,___,___,___,___,___,Cn2 ;
	FRQ         ___,Gn3,Q__,___,___,___,___,Cn2 ;
	FRQ         ___,An3,Dn4,___,___,___,___,___ ;
	FRQ         ___,Q__,Q__,___,___,___,___,Cn3 ;
	FRQ         ___,An3,Dn4,___,___,___,___,Cn2 ;
	FRQ         ___,Gn3,Q__,___,___,___,___,___ ;
	FRQ         ___,___,___,___,___,___,___,___ ;
	FRQ         ___,An3,Dn4,___,___,___,___,En3 ;
	FRQ         ___,___,___,___,___,___,___,En3 ;
	FRQ         ___,Gn3,Q__,___,___,___,___,___ ;
	FRQ         ___,An3,Dn4,___,___,___,___,Cn3 ;
	FRQ         ___,Q__,Q__,___,___,___,___,Cn3 ;
	FRQ         ___,An3,Dn3,___,___,___,___,___ ;
	FRQ         ___,Gn3,Q__,___,___,___,___,Gn2 ;
	FRQ         ___,___,___,___,___,___,___,Gn2 ;
	FRQ         ___,An3,Dn4,___,___,___,___,___ ;
	FRQ         ___,___,___,___,___,___,___,___ ;
	FRQ         ___,Gn3,Q__,___,___,___,___,___ ;
	FRQ         ___,An3,Dn4,___,___,___,___,___ ;
	FRQ         ___,Q__,Q__,___,___,___,___,Cn2 ;
	FRQ         ___,An3,Dn4,___,___,___,___,___ ;
	FRQ         ___,Gn3,Q__,___,___,___,___,___ ;
	FRQ         ___,___,___,___,___,___,___,___ ;
	FRQ         ___,An3,Dn4,___,An3,Dn4,___,___ ;
	FRQ         ___,___,___,___,___,___,___,___ ;
	FRQ         ___,Gn3,Q__,___,Gn3,Q__,___,___ ;
	FRQ         ___,An3,Dn4,___,An3,Dn4,___,___ ;
	FRQ         ___,Q__,Q__,___,Q__,Q__,___,Cn3 ;
	FRQ         ___,An3,Dn3,___,___,___,___,Cn3 ;
	FRQ         ___,Gn3,Q__,___,___,___,___,___ ;
	FRQ         ___,___,___,___,___,___,___,___ ;
	FRQ         Fn2,Bn3,En4,Fn2,Fn1,Fn2,Fn2,Cn3 ;
	FRQ         ___,___,___,___,___,___,___,Gn2 ;
	FRQ         ___,An3,Q__,___,___,___,___,Cn2 ;
	FRQ         ___,Bn3,En4,___,___,___,___,Cn3 ;
	FRQ         ___,Q__,Q__,___,___,___,___,Gn2 ;
	FRQ         ___,Bn3,En4,___,___,___,___,Cn2 ;
	FRQ         ___,An3,Q__,___,___,___,___,Cn3 ;
	FRQ         ___,___,___,___,___,___,___,Cn2 ;
	FRQ         ___,Bn3,En4,___,___,___,___,Cn2 ;
	FRQ         ___,___,___,___,___,___,___,___ ;
	FRQ         ___,An3,Q__,___,___,___,___,___ ;
	FRQ         ___,Bn3,En4,___,___,___,___,Cn2 ;
	FRQ         ___,Q__,Q__,___,___,___,___,___ ;
	FRQ         ___,Bn3,En3,___,___,___,___,___ ;
	FRQ         ___,An3,Q__,___,___,___,___,Cn3 ;
	FRQ         ___,___,___,___,___,___,___,___ ;
	FRQ         ___,Bn3,En4,___,___,___,___,Cn2 ;
	FRQ         ___,___,___,___,___,___,___,___ ;
	FRQ         ___,An3,Q__,___,___,___,___,___ ;
	FRQ         ___,Bn3,En4,___,___,___,___,___ ;
	FRQ         ___,Q__,Q__,___,___,___,___,Cn3 ;
	FRQ         ___,Bn3,En4,___,___,___,___,Cn3 ;
	FRQ         ___,An3,Q__,___,___,___,___,Cn3 ;
	FRQ         ___,___,___,___,___,___,___,___ ;
	FRQ         ___,Bn3,En4,___,Bn3,En4,___,___ ;
	FRQ         ___,___,___,___,___,___,___,___ ;
	FRQ         ___,An3,Q__,___,An3,Q__,___,___ ;
	FRQ         ___,Bn3,En4,___,Bn3,En4,___,___ ;
	FRQ         ___,Q__,Q__,___,Q__,Q__,___,Cn3 ;
	FRQ         ___,Bn3,En3,___,Bn3,En3,___,Cn3 ;
	FRQ         ___,An3,Q__,___,An3,Q__,___,Cn2 ;
	FRQ         ___,___,___,___,___,___,___,___ ;
	TRS         ___,___,___,___,___,012,___,___
	FRQ         Gn2,An3,Dn4,Gn2,Gn1,Gn2,Gn2,Cn2 ;
	FRQ         ___,___,___,___,___,Fn3,Fn3,Cn2 ;
	FRQ         ___,Gn3,Q__,___,___,Gn3,Gn3,Cn2 ;
	FRQ         ___,An3,Dn4,___,___,Gn2,Gn2,___ ;
	FRQ         ___,Q__,Q__,___,___,Fn3,Fn3,Cn2 ;
	FRQ         ___,An3,Dn4,___,___,Gn3,Gn3,Cn2 ;
	FRQ         ___,Gn3,Q__,___,___,Gn2,Gn2,Cn2 ;
	FRQ         ___,___,___,___,___,Fn3,Fn3,___ ;
	FRQ         ___,An3,Dn4,___,___,Gn3,Gn3,Cn2 ;
	FRQ         ___,___,___,___,___,Gn2,Gn2,Cn2 ;
	FRQ         ___,Gn3,Q__,___,___,Fn3,Fn3,Cn2 ;
	FRQ         ___,An3,Dn4,___,___,Gn3,Gn3,___ ;
	FRQ         ___,Q__,Q__,___,___,Gn2,Gn2,Cn2 ;
	FRQ         ___,An3,Dn3,___,___,Fn3,Fn3,Cn2 ;
	FRQ         ___,Gn3,Q__,___,___,Gn3,Gn3,Cn2 ;
	FRQ         ___,___,___,___,___,Gn2,Gn2,Cn2 ;
	FRQ         ___,An3,Dn4,___,___,Fn3,Fn3,Cn2 ;
	FRQ         ___,___,___,___,___,Gn3,Gn3,Cn2 ;
	FRQ         ___,Gn3,Q__,___,___,Fn3,Fn3,Cn2 ;
	FRQ         ___,An3,Dn4,___,___,En3,En3,___ ;
	FRQ         ___,Q__,Q__,___,___,Fn3,Fn3,Cn2 ;
	FRQ         ___,An3,Dn4,___,___,Dn3,Dn3,___ ;
	FRQ         ___,Gn3,Q__,___,___,En3,En3,___ ;
	FRQ         ___,___,___,___,___,Cn3,Cn3,Cn2 ;
	FRQ         ___,An3,Dn4,___,___,Dn3,Dn3,Cn2 ;
	FRQ         ___,___,___,___,___,Bn2,Bn2,Cn2 ;
	FRQ         ___,Gn3,Q__,___,___,Cn3,Cn3,Cn2 ;
	FRQ         ___,An3,Dn4,___,___,An2,An2,___ ;
	FRQ         ___,Q__,Q__,___,___,Bn2,Bn2,Cn2 ;
	FRQ         ___,An3,Dn3,___,___,Gn2,Gn2,Cn2 ;
	FRQ         ___,Gn3,Q__,___,___,An2,An2,___ ;
	FRQ         ___,___,___,___,___,___,___,___ ;
	FRQ         Fn2,Bn3,En4,Fn2,Fn1,Fn2,Fn2,Cn2 ;
	FRQ         ___,___,___,___,___,Fn3,Fn3,___ ;
	FRQ         ___,An3,Q__,___,___,Fn2,Fn2,___ ;
	FRQ         ___,Bn3,En4,___,___,Fn2,Fn2,Cn2 ;
	FRQ         ___,Q__,Q__,___,___,Fn3,Fn3,Cn3 ;
	FRQ         ___,Bn3,En4,___,___,Fn2,Fn2,Cn3 ;
	FRQ         ___,An3,Q__,___,___,Fn3,Fn3,Cn3 ;
	FRQ         ___,___,___,___,___,Fn3,Fn3,___ ;
	FRQ         ___,Bn3,En4,___,___,Fn2,Fn2,Cn2 ;
	FRQ         ___,___,___,___,___,En3,En3,Cn2 ;
	FRQ         ___,An3,Q__,___,___,Fn3,Fn3,Cn2 ;
	FRQ         ___,Bn3,En4,___,___,Fn2,Fn2,___ ;
	FRQ         ___,Q__,Q__,___,___,En3,En3,Cn2 ;
	FRQ         ___,Bn3,En3,___,___,Fn3,Fn3,Cn2 ;
	FRQ         ___,An3,Q__,___,___,Fn2,Fn2,Cn2 ;
	FRQ         ___,___,___,___,___,Fn3,Fn3,___ ;
	FRQ         ___,Bn3,En4,___,___,Fn3,Fn3,Cn2 ;
	FRQ         ___,___,___,___,___,Q__,Q__,___ ;
	FRQ         ___,An3,Q__,___,___,En3,En3,Cn2 ;
	FRQ         ___,Bn3,En4,___,___,Q__,Q__,___ ;
	FRQ         ___,Q__,Q__,___,___,Dn3,Dn3,Cn2 ;
	FRQ         ___,Bn3,En4,___,___,En3,En3,Cn2 ;
	FRQ         ___,An3,Q__,___,___,Cn3,Cn3,Cn2 ;
	FRQ         ___,___,___,___,___,Dn3,Dn3,___ ;
	FRQ         ___,Bn3,En4,___,___,En3,En3,Cn2 ;
	FRQ         ___,___,___,___,___,Q__,Q__,___ ;
	FRQ         ___,An3,Q__,___,___,Dn3,Dn3,Cn2 ;
	FRQ         ___,Bn3,En4,___,___,Q__,Q__,___ ;
	FRQ         ___,Q__,Q__,___,___,Cn3,Cn3,Cn3 ;
	FRQ         ___,Bn3,En3,___,___,Dn3,Dn3,Cn3 ;
	FRQ         ___,An3,Q__,___,___,Bn2,Bn2,Cn2 ;
	FRQ         ___,___,___,___,___,Cn3,Cn3,___ ;
	TRS         ___,___,___,___,___,012,___,___
	FRQ         Gn2,An3,Dn4,Gn2,Gn1,Gn2,Gn2,Cn2 ;
	SPEED       003
	FRQ         ___,___,___,___,___,___,___,Cn2 ;
	FRQ         ___,___,___,___,___,___,___,Cn2 ;
	SPEED       006
	FRQ         ___,Gn3,Q__,___,___,___,___,Cn2 ;
	FRQ         ___,An3,Dn4,___,___,___,___,___ ;
	FRQ         ___,Q__,Q__,___,___,___,___,Cn3 ;
	FRQ         ___,An3,Dn4,___,___,___,___,Cn3 ;
	FRQ         ___,Gn3,Q__,___,___,___,___,Cn3 ;
	FRQ         ___,___,___,___,___,___,___,___ ;
	FRQ         ___,An3,Dn4,___,___,___,___,En3 ;
	FRQ         ___,___,___,___,___,___,___,En3 ;
	FRQ         ___,Gn3,Q__,___,___,___,___,Gn2 ;
	FRQ         ___,An3,Dn4,___,___,___,___,Cn3 ;
	FRQ         ___,Q__,Q__,___,___,___,___,Cn2 ;
	FRQ         ___,An3,Dn3,___,___,___,___,Gn2 ;
	FRQ         ___,Gn3,Q__,___,___,___,___,Gn2 ;
	FRQ         ___,___,___,___,___,___,___,___ ;
	FRQ         ___,An3,Dn4,___,___,___,___,Gn3 ;
	FRQ         ___,___,___,___,___,___,___,___ ;
	FRQ         ___,Gn3,Q__,___,___,___,___,Cn3 ;
	FRQ         ___,An3,Dn4,___,___,___,___,___ ;
	FRQ         ___,Q__,Q__,___,___,___,___,Cn2 ;
	FRQ         ___,An3,Dn4,___,___,___,___,___ ;
	FRQ         ___,Gn3,Q__,___,___,___,___,Gn3 ;
	FRQ         ___,___,___,___,___,___,___,Gn3 ;
	FRQ         ___,An3,Dn4,___,An3,Dn4,___,Cn3 ;
	FRQ         ___,___,___,___,___,___,___,Cn3 ;
	FRQ         ___,Gn3,Q__,___,Gn3,Q__,___,Gn2 ;
	FRQ         ___,An3,Dn4,___,An3,Dn4,___,Cn2 ;
	FRQ         ___,Q__,Q__,___,Q__,Q__,___,Cn3 ;
	FRQ         ___,An3,Dn3,___,___,___,___,Cn3 ;
	FRQ         ___,Gn3,Q__,___,___,___,___,___ ;
	FRQ         ___,___,___,___,___,___,___,___ ;
	FRQ         Fn2,Bn3,En4,Fn2,Fn1,Fn2,Fn2,Cn3 ;
	FRQ         ___,___,___,___,___,___,___,Gn2 ;
	FRQ         ___,An3,Q__,___,___,___,___,Cn2 ;
	FRQ         ___,Bn3,En4,___,___,___,___,Cn2 ;
	FRQ         ___,Q__,Q__,___,___,___,___,En3 ;
	FRQ         ___,Bn3,En4,___,___,___,___,En3 ;
	FRQ         ___,An3,Q__,___,___,___,___,En3 ;
	FRQ         ___,___,___,___,___,___,___,___ ;
	FRQ         ___,Bn3,En4,___,___,___,___,Cn3 ;
	FRQ         ___,___,___,___,___,___,___,Cn3 ;
	FRQ         ___,An3,Q__,___,___,___,___,Cn3 ;
	FRQ         ___,Bn3,En4,___,___,___,___,___ ;
	FRQ         ___,Q__,Q__,___,___,___,___,Gn2 ;
	FRQ         ___,Bn3,En3,___,___,___,___,Gn2 ;
	FRQ         ___,An3,Q__,___,___,___,___,Gn2 ;
	FRQ         ___,___,___,___,___,___,___,___ ;
	FRQ         ___,Bn3,En4,___,___,___,___,Cn3 ;
	SPEED       003
	FRQ         ___,___,___,___,___,___,___,Gn2 ;
	FRQ         ___,___,___,___,___,___,___,Gn2 ;
	SPEED       006
	FRQ         ___,An3,Q__,___,___,___,___,Cn2 ;
	SPEED       003
	FRQ         ___,Bn3,En4,___,___,___,___,Gn3 ;
	FRQ         ___,___,___,___,___,___,___,Gn3 ;
	SPEED       006
	FRQ         ___,Q__,Q__,___,___,___,___,En3 ;
	FRQ         ___,Bn3,En4,___,___,___,___,Cn3 ;
	FRQ         ___,An3,Q__,___,___,___,___,Gn2 ;
	FRQ         ___,___,___,___,___,___,___,___ ;
	FRQ         ___,Bn3,En4,___,Bn3,En4,___,Cn3 ;
	SPEED       003
	FRQ         ___,___,___,___,___,___,___,Gn2 ;
	FRQ         ___,___,___,___,___,___,___,Gn2 ;
	SPEED       006
	FRQ         ___,An3,Q__,___,An3,Q__,___,Cn2 ;
	FRQ         ___,Bn3,En4,___,Bn3,En4,___,Gn3 ;
	FRQ         ___,Q__,Q__,___,Q__,Q__,___,En3 ;
	FRQ         ___,Bn3,En3,___,Bn3,En3,___,Gn2 ;
	FRQ         ___,An3,Q__,___,An3,Q__,___,Cn2 ;
	FRQ         ___,___,___,___,___,___,___,Cn2 ;
	FRQ         Gn2,An3,Dn4,Gn2,Gn1,Gn2,Gn2,Cn2 ;
	FRQ         ___,___,___,___,___,___,___,___ ;
	FRQ         ___,Gn3,Q__,___,___,___,___,___ ;
	FRQ         ___,An3,Dn4,___,___,___,___,___ ;
	FRQ         ___,Q__,Q__,___,___,___,___,Cn3 ;
	FRQ         ___,An3,Dn4,___,___,___,___,___ ;
	FRQ         ___,Gn3,Q__,___,___,___,___,___ ;
	FRQ         ___,___,___,___,___,___,___,___ ;
	FRQ         ___,An3,Dn4,___,___,___,___,___ ;
	FRQ         ___,___,___,___,___,___,___,___ ;
	FRQ         ___,Gn3,Q__,___,___,___,___,___ ;
	FRQ         ___,An3,Dn4,___,___,___,___,___ ;
	FRQ         ___,Q__,Q__,___,___,___,___,Cn3 ;
	FRQ         ___,An3,Dn3,___,___,___,___,___ ;
	FRQ         ___,Gn3,Q__,___,___,___,___,___ ;
	FRQ         ___,___,___,___,___,___,___,___ ;
	FRQ         ___,An3,Dn4,___,___,___,___,Cn2 ;
	FRQ         ___,___,___,___,___,___,___,___ ;
	FRQ         ___,Gn3,Q__,___,___,___,___,___ ;
	FRQ         ___,An3,Dn4,___,___,___,___,___ ;
	FRQ         ___,Q__,Q__,___,___,___,___,Cn3 ;
	FRQ         ___,An3,Dn4,___,___,___,___,___ ;
	FRQ         ___,Gn3,Q__,___,___,___,___,___ ;
	FRQ         ___,___,___,___,___,___,___,___ ;
	FRQ         ___,An3,Dn4,___,___,___,___,___ ;
	FRQ         ___,___,___,___,___,___,___,___ ;
	FRQ         ___,Gn3,Q__,___,___,___,___,___ ;
	FRQ         ___,An3,Dn4,___,___,___,___,___ ;
	FRQ         ___,Q__,Q__,___,___,___,___,Cn3 ;
	FRQ         ___,An3,Dn3,___,___,___,___,___ ;
	FRQ         ___,Gn3,Q__,___,___,___,___,___ ;
	FRQ         ___,___,___,___,___,___,___,___ ;
	FRQ         Fn2,Bn3,En4,Fn2,Fn1,Fn2,Fn2,Cn2 ;
	FRQ         ___,___,___,___,___,___,___,___ ;
	FRQ         ___,An3,Q__,___,___,___,___,___ ;
	FRQ         ___,Bn3,En4,___,___,___,___,Cn2 ;
	FRQ         ___,Q__,Q__,___,___,___,___,Cn3 ;
	FRQ         ___,Bn3,En4,___,___,___,___,___ ;
	FRQ         ___,An3,Q__,___,___,___,___,___ ;
	FRQ         ___,___,___,___,___,___,___,___ ;
	FRQ         ___,Bn3,En4,___,___,___,___,___ ;
	FRQ         ___,___,___,___,___,___,___,___ ;
	FRQ         ___,An3,Q__,___,___,___,___,___ ;
	FRQ         ___,Bn3,En4,___,___,___,___,___ ;
	FRQ         ___,Q__,Q__,___,___,___,___,Cn3 ;
	FRQ         ___,Bn3,En3,___,___,___,___,___ ;
	FRQ         ___,An3,Q__,___,___,___,___,___ ;
	FRQ         ___,___,___,___,___,___,___,___ ;
	FRQ         ___,Bn3,En4,___,___,___,___,___ ;
	FRQ         ___,___,___,___,___,___,___,___ ;
	FRQ         ___,An3,Q__,___,___,___,___,___ ;
	FRQ         ___,Bn3,En4,___,___,___,___,___ ;
	FRQ         ___,Q__,Q__,___,___,___,___,Cn3 ;
	FRQ         ___,Bn3,En4,___,___,___,___,___ ;
	FRQ         ___,An3,Q__,___,___,___,___,___ ;
	FRQ         ___,___,___,___,___,___,___,___ ;
	FRQ         ___,Bn3,En4,___,___,___,___,___ ;
	FRQ         ___,___,___,___,___,___,___,___ ;
	FRQ         ___,An3,Q__,___,___,___,___,___ ;
	FRQ         ___,Bn3,En4,___,___,___,___,___ ;
	FRQ         ___,Q__,Q__,___,___,___,___,Cn3 ;
	FRQ         ___,Bn3,En3,___,___,___,___,Cn3 ;
	FRQ         ___,An3,Q__,___,___,___,___,Gn2 ;
	FRQ         ___,___,___,___,___,___,___,___ ;
	TRS         ___,___,___,___,___,000,___,___
	JUMP        song006_jmp000
.endproc
