	.include "song.inc"
	.segment "BANK0"
	.export area7
.proc area7
song00a_start:
	TEMPO       001
	SPEED       010
	TVOL        250
	PIT         004,___,011,013,015,___,017,019
	PITRAT      100,___,135,136,137,___,141,142
	PITDEP      180,___,122,120,121,___,120,120
	INS         001,003,034,034,034,007,011,011
	VOL         255,255,225,225,229,255,240,250
	PAN         ___,___,L__,__R,_C_,___,___,___
	LFO         ___,___,___,___,___,___,___,001
	DTN         ___,___,004,008,018,___,___,006
song00a_jmp000:
	FRQ         ___,Cn3,Gn3,Cn4,En4,Gn3,___,___ ;
	FRQ         ___,___,___,___,___,Cn4,___,___ ;
	FRQ         ___,___,___,___,___,___,Cn5,___ ;
	FRQ         ___,___,___,___,___,___,___,___ ;
	FRQ         ___,___,___,___,___,Gn3,Gn5,___ ;
	FRQ         ___,___,___,___,___,Cn4,___,___ ;
	FRQ         Cn3,___,___,___,___,En4,___,___ ;
	FRQ         ___,___,___,___,___,___,___,___ ;
	FRQ         ___,As2,Gn3,As3,Dn4,Gn3,Cn5,___ ;
	FRQ         ___,___,___,___,___,As3,___,___ ;
	FRQ         ___,___,___,___,___,___,___,___ ;
	FRQ         ___,___,___,___,___,___,___,___ ;
	FRQ         ___,As2,___,___,___,Gn3,Gn5,___ ;
	FRQ         ___,___,___,___,___,As3,___,___ ;
	FRQ         Cn3,___,___,___,___,Dn4,___,___ ;
	FRQ         ___,___,___,___,___,___,___,___ ;
	FRQ         Cn2,Ds3,Gn3,As3,Ds4,Gn3,___,___ ;
	FRQ         Cn2,___,___,___,___,As3,___,___ ;
	FRQ         ___,___,___,___,___,___,Cn5,___ ;
	FRQ         ___,___,___,___,___,___,___,___ ;
	FRQ         ___,___,___,___,___,Gn3,Gn5,___ ;
	FRQ         ___,___,___,___,___,As3,___,___ ;
	FRQ         Cn3,___,___,___,___,Ds4,___,___ ;
	FRQ         ___,___,___,___,___,___,___,___ ;
	FRQ         ___,Fn3,An3,Cn4,Fn4,An3,Cn5,___ ;
	FRQ         ___,___,___,___,___,Cn4,___,___ ;
	FRQ         Cn3,___,___,___,___,___,___,___ ;
	FRQ         ___,___,___,___,___,___,___,___ ;
	FRQ         ___,Gn2,Bn3,Dn4,Fn4,Bn3,Gn5,___ ;
	FRQ         Cn2,___,___,___,___,Dn4,___,___ ;
	FRQ         En3,___,___,___,___,Fn4,___,___ ;
	FRQ         En3,___,___,___,___,___,___,___ ;
	FRQ         ___,Cn3,Gn3,Cn4,En4,Gn3,___,___ ;
	FRQ         ___,___,___,___,___,Cn4,___,___ ;
	FRQ         ___,___,___,___,___,___,Cn5,___ ;
	FRQ         ___,___,___,___,___,___,___,___ ;
	FRQ         ___,___,___,___,___,Gn3,Gn5,___ ;
	FRQ         ___,___,___,___,___,Cn4,___,___ ;
	FRQ         Cn3,___,___,___,___,En4,___,___ ;
	FRQ         ___,___,___,___,___,___,___,___ ;
	FRQ         ___,As2,Gn3,As3,Dn4,Gn3,Cn5,___ ;
	FRQ         ___,___,___,___,___,As3,___,___ ;
	FRQ         ___,___,___,___,___,___,___,___ ;
	FRQ         ___,___,___,___,___,___,___,___ ;
	FRQ         ___,As2,___,___,___,Gn3,Gn5,___ ;
	FRQ         ___,___,___,___,___,As3,___,___ ;
	FRQ         Cn3,___,___,___,___,Dn4,___,___ ;
	FRQ         ___,___,___,___,___,___,___,___ ;
	FRQ         ___,Ds3,Gn3,As3,Ds4,Gn3,___,___ ;
	FRQ         ___,___,___,___,___,As3,___,___ ;
	FRQ         ___,___,___,___,___,___,Cn5,___ ;
	FRQ         ___,___,___,___,___,___,___,___ ;
	FRQ         ___,___,___,___,___,Gn3,Gn5,___ ;
	FRQ         ___,___,___,___,___,As3,___,___ ;
	FRQ         Cn3,___,___,___,___,Ds4,___,___ ;
	FRQ         ___,___,___,___,___,___,___,___ ;
	FRQ         ___,Fn3,An3,Cn4,Fn4,An3,Cn5,___ ;
	FRQ         ___,___,___,___,___,Cn4,___,___ ;
	FRQ         Cn3,___,___,___,___,___,___,___ ;
	FRQ         ___,___,___,___,___,___,___,___ ;
	FRQ         ___,Gn2,Bn3,Dn4,Fn4,Bn3,Gn5,___ ;
	FRQ         Cn2,___,___,___,___,Dn4,___,___ ;
	FRQ         Cn3,___,___,___,___,Fn4,___,___ ;
	FRQ         Cn3,___,___,___,___,___,___,___ ;
	FRQ         Cn2,Cn3,Gn3,Cn4,En4,Gn3,___,___ ;
	FRQ         Cn2,Cn3,___,___,___,Cn4,___,___ ;
	FRQ         Cn3,___,___,___,___,En4,___,En4 ;
	FRQ         ___,___,___,___,___,___,___,___ ;
	FRQ         ___,Cn3,___,___,___,Gn3,En4,Dn4 ;
	FRQ         ___,Cn3,___,___,___,Cn4,___,Cn4 ;
	FRQ         Cn3,___,___,___,___,En4,Dn4,___ ;
	FRQ         ___,___,___,___,___,Cn4,Cn4,___ ;
	FRQ         Cn2,As2,Gn3,As3,Dn4,Gn3,___,As3 ;
	FRQ         Cn2,As2,___,___,___,As3,___,___ ;
	FRQ         Cn3,___,___,___,___,Dn4,As3,___ ;
	FRQ         ___,___,___,___,___,___,___,___ ;
	FRQ         ___,As2,___,___,___,Gn3,___,Cn4 ;
	FRQ         Cn2,As2,___,___,___,As3,___,___ ;
	FRQ         Cn3,___,___,___,___,Dn4,Cn4,Dn4 ;
	FRQ         Cn2,___,___,___,___,As3,___,___ ;
	FRQ         Cn2,Ds3,Gn3,As3,Ds4,Gn3,Dn4,Gn3 ;
	FRQ         Cn2,Ds3,___,___,___,As3,___,___ ;
	FRQ         Cn3,___,___,___,___,Ds4,Gn3,___ ;
	FRQ         ___,___,___,___,___,___,___,___ ;
	FRQ         ___,Ds3,___,___,___,Gn3,___,___ ;
	FRQ         ___,Ds3,___,___,___,As3,___,___ ;
	FRQ         Cn3,___,___,___,___,Ds4,___,___ ;
	FRQ         ___,___,___,___,___,As3,___,___ ;
	FRQ         Cn2,Fn3,An3,Cn4,Fn4,An3,Fn4,An3 ;
	FRQ         Cn2,Fn3,___,___,___,Cn4,En4,___ ;
	FRQ         Cn3,___,___,___,___,Fn4,Dn4,___ ;
	FRQ         ___,___,___,___,___,___,Cn4,___ ;
	FRQ         ___,Gn2,Bn3,Dn4,Fn4,Bn3,Bn3,___ ;
	FRQ         Cn2,Gn2,___,___,___,Dn4,An3,___ ;
	FRQ         Cn3,___,___,___,___,Fn4,Bn3,___ ;
	FRQ         Cn3,___,___,___,___,Dn4,Gn3,___ ;
	FRQ         Cn2,Cn3,Gn3,Cn4,En4,Gn3,___,___ ;
	FRQ         Cn2,Cn3,___,___,___,Cn4,___,___ ;
	FRQ         Cn3,___,___,___,___,En4,Cn5,En4 ;
	FRQ         ___,___,___,___,___,___,___,___ ;
	FRQ         ___,Cn3,___,___,___,Gn3,Gn5,Dn4 ;
	FRQ         ___,Cn3,___,___,___,Cn4,___,Cn4 ;
	FRQ         Cn3,___,___,___,___,En4,___,___ ;
	FRQ         ___,___,___,___,___,Cn4,___,___ ;
	FRQ         Cn2,As2,Gn3,As3,Dn4,Gn3,Cn5,Gn4 ;
	FRQ         Cn2,As2,___,___,___,As3,___,___ ;
	FRQ         Cn3,___,___,___,___,Dn4,___,___ ;
	FRQ         ___,___,___,___,___,___,___,___ ;
	FRQ         ___,As2,___,___,___,Gn3,Gn5,Cn5 ;
	FRQ         Cn2,As2,___,___,___,As3,___,___ ;
	FRQ         Cn3,___,___,___,___,Dn4,___,Dn5 ;
	FRQ         Cn2,___,___,___,___,As3,___,___ ;
	FRQ         Cn2,Ds3,Gn3,As3,Ds4,Gn3,___,Gn5 ;
	FRQ         Cn2,Ds3,___,___,___,As3,___,___ ;
	FRQ         Cn3,___,___,___,___,Ds4,Cn5,___ ;
	FRQ         ___,___,___,___,___,___,___,___ ;
	FRQ         ___,Ds3,___,___,___,Gn3,Gn5,___ ;
	FRQ         ___,Ds3,___,___,___,As3,___,___ ;
	FRQ         Cn3,___,___,___,___,Ds4,___,___ ;
	FRQ         ___,___,___,___,___,As3,___,___ ;
	FRQ         Cn2,Fn3,An3,Cn4,Fn4,An3,Fn5,An4 ;
	FRQ         Cn2,Fn3,___,___,___,Cn4,En5,___ ;
	FRQ         Cn3,___,___,___,___,Fn4,Dn5,___ ;
	FRQ         ___,___,___,___,___,___,Cn5,___ ;
	FRQ         ___,Gn2,Bn3,Dn4,Fn4,Bn3,Bn4,___ ;
	FRQ         Cn2,Gn2,___,___,___,Dn4,An4,___ ;
	FRQ         En3,___,___,___,___,Fn4,Bn4,___ ;
	FRQ         Cn3,___,___,___,___,Dn4,Gn4,___ ;
	FRQ         Cn2,Cn3,Gn3,Cn4,En4,Gn3,___,___ ;
	FRQ         Cn2,Cn3,___,___,___,Cn4,___,___ ;
	FRQ         Cn3,___,___,___,___,En4,___,En4 ;
	FRQ         ___,___,___,___,___,___,___,___ ;
	FRQ         ___,Cn3,___,___,___,Gn3,En4,Dn4 ;
	FRQ         ___,Cn3,___,___,___,Cn4,___,Cn4 ;
	FRQ         Cn3,___,___,___,___,En4,Dn4,___ ;
	FRQ         ___,___,___,___,___,Cn4,Cn4,___ ;
	FRQ         Cn2,As2,Gn3,As3,Dn4,Gn3,___,As3 ;
	FRQ         ___,As2,___,___,___,As3,___,___ ;
	FRQ         Cn3,___,___,___,___,Dn4,As3,___ ;
	FRQ         ___,___,___,___,___,___,___,___ ;
	FRQ         ___,As2,___,___,___,Gn3,___,Cn4 ;
	FRQ         Cn2,As2,___,___,___,As3,___,___ ;
	FRQ         Cn3,___,___,___,___,Dn4,Cn4,Dn4 ;
	FRQ         Cn2,___,___,___,___,As3,___,___ ;
	FRQ         Cn2,Ds3,Gn3,As3,Ds4,Gn3,Dn4,Gn3 ;
	FRQ         ___,Ds3,___,___,___,As3,___,___ ;
	FRQ         Cn3,___,___,___,___,Ds4,Gn3,___ ;
	FRQ         ___,___,___,___,___,___,___,___ ;
	FRQ         ___,Ds3,___,___,___,Gn3,___,___ ;
	FRQ         ___,Ds3,___,___,___,As3,___,___ ;
	FRQ         Cn3,___,___,___,___,Ds4,___,___ ;
	FRQ         ___,___,___,___,___,As3,___,___ ;
	FRQ         Cn2,Fn3,An3,Cn4,Fn4,An3,Fn4,An3 ;
	FRQ         ___,Fn3,___,___,___,Cn4,En4,___ ;
	FRQ         Cn3,___,___,___,___,Fn4,Dn4,___ ;
	FRQ         ___,___,___,___,___,___,Cn4,___ ;
	FRQ         Cn2,Gn2,Bn3,Dn4,Fn4,Bn3,Bn3,___ ;
	FRQ         Cn3,Gn2,___,___,___,Dn4,An3,___ ;
	FRQ         Cn3,___,___,___,___,Fn4,Bn3,___ ;
	FRQ         Cn3,___,___,___,___,Dn4,Gn3,___ ;
	FRQ         Cn2,Cn3,Gn3,Cn4,En4,Gn3,___,___ ;
	FRQ         ___,Cn3,___,___,___,Cn4,___,___ ;
	FRQ         Cn3,___,___,___,___,En4,Cn5,En4 ;
	FRQ         ___,___,___,___,___,___,___,___ ;
	FRQ         ___,Cn3,___,___,___,Gn3,Gn5,Dn4 ;
	FRQ         ___,Cn3,___,___,___,Cn4,___,Cn4 ;
	FRQ         Cn3,___,___,___,___,En4,___,___ ;
	FRQ         Cn2,___,___,___,___,Cn4,___,___ ;
	FRQ         Cn2,As2,Gn3,As3,Dn4,Gn3,Cn5,Gn4 ;
	FRQ         ___,As2,___,___,___,As3,___,___ ;
	FRQ         Cn3,___,___,___,___,Dn4,___,___ ;
	FRQ         ___,___,___,___,___,___,___,___ ;
	FRQ         ___,As2,___,___,___,Gn3,Gn5,Cn5 ;
	FRQ         ___,As2,___,___,___,As3,___,___ ;
	FRQ         Cn3,___,___,___,___,Dn4,___,Dn5 ;
	FRQ         Cn2,___,___,___,___,As3,___,___ ;
	FRQ         Cn2,Ds3,Gn3,As3,Ds4,Gn3,___,Gn5 ;
	FRQ         ___,Ds3,___,___,___,As3,___,___ ;
	FRQ         Cn3,___,___,___,___,Ds4,Cn5,___ ;
	FRQ         ___,___,___,___,___,___,___,___ ;
	FRQ         ___,Ds3,___,___,___,Gn3,Gn5,___ ;
	FRQ         ___,Ds3,___,___,___,As3,___,___ ;
	FRQ         Cn3,___,___,___,___,Ds4,___,___ ;
	FRQ         Cn2,___,___,___,___,As3,___,___ ;
	GTM         002,___,___,___,___,___,___,___
	FRQ         Cn2,Fn3,An3,Cn4,Fn4,___,Gn5,Cn5 ;
	FRQ         ___,___,___,___,___,___,___,___ ;
	FRQ         Cn2,___,___,___,___,___,___,___ ;
	FRQ         ___,___,___,___,___,___,___,___ ;
	FRQ         Cn2,___,___,___,___,___,___,___ ;
	FRQ         ___,___,___,___,___,___,___,___ ;
	FRQ         Cn2,___,___,___,___,___,___,___ ;
	FRQ         ___,___,___,___,___,___,___,___ ;
	FRQ         Cn2,___,___,___,___,___,___,___ ;
	FRQ         ___,___,___,___,___,___,___,___ ;
	FRQ         Cn2,___,___,___,___,___,___,___ ;
	FRQ         ___,___,___,___,___,___,___,___ ;
	GTM         000,___,___,___,___,___,___,___
	FRQ         En3,___,___,___,___,Fn3,___,___ ;
	FRQ         En3,___,___,___,___,Cn3,___,___ ;
	FRQ         Cn3,___,___,___,___,An2,___,___ ;
	FRQ         Gn2,___,___,___,___,Fn2,___,___ ;
	SPEED       005
	FRQ         Cn3,Cn3,Cn4,Dn4,Gn4,___,___,___ ;
	FRQ         Gn2,___,___,___,___,___,___,___ ;
	FRQ         Cn2,___,___,___,___,___,___,___ ;
	FRQ         Q__,___,___,___,___,___,___,___ ;
	FRQ         ___,___,___,___,___,___,___,___ ;
	FRQ         ___,___,___,___,___,___,___,___ ;
	FRQ         ___,___,___,___,___,___,___,___ ;
	FRQ         ___,___,___,___,___,___,___,___ ;
	FRQ         Cn2,Cn3,Gn4,Cn4,Dn4,Gn4,___,___ ;
	FRQ         ___,___,___,___,___,___,___,___ ;
	FRQ         Cn3,___,___,___,___,Gn4,Dn5,Gn5 ;
	FRQ         ___,___,___,___,___,___,___,___ ;
	FRQ         ___,___,___,___,___,___,___,___ ;
	FRQ         ___,___,___,___,___,___,___,___ ;
	FRQ         ___,___,___,___,___,___,___,___ ;
	FRQ         ___,___,___,___,___,___,___,___ ;
	SPEED       010
	FRQ         Gn3,Cn3,Cn4,Dn4,Fn4,___,___,___ ;
	FRQ         ___,___,___,___,___,___,___,___ ;
	FRQ         Gn3,Cn3,Cn4,Dn4,Fn4,___,___,___ ;
	FRQ         En3,Dn3,Cn4,___,En4,___,___,___ ;
	FRQ         ___,___,___,___,___,___,___,___ ;
	FRQ         En3,En3,___,___,___,___,___,___ ;
	FRQ         Cn3,Cn3,Cn4,Dn4,Dn4,___,___,___ ;
	FRQ         ___,___,___,___,___,___,___,___ ;
	SPEED       005
	FRQ         Cn3,As2,Cn4,Dn4,Gn4,___,___,___ ;
	FRQ         Gn2,___,___,___,___,___,___,___ ;
	FRQ         Cn2,___,___,___,___,___,___,___ ;
	FRQ         Q__,___,___,___,___,___,___,___ ;
	FRQ         ___,___,___,___,___,___,___,___ ;
	FRQ         ___,___,___,___,___,___,___,___ ;
	FRQ         ___,___,___,___,___,___,___,___ ;
	FRQ         ___,___,___,___,___,___,___,___ ;
	FRQ         Cn2,As2,Gn4,Cn4,Dn4,Gn4,___,___ ;
	FRQ         ___,___,___,___,___,___,___,___ ;
	FRQ         Cn3,___,___,___,___,Gn4,Dn5,Gn5 ;
	FRQ         ___,___,___,___,___,___,___,___ ;
	FRQ         ___,___,___,___,___,___,___,___ ;
	FRQ         ___,___,___,___,___,___,___,___ ;
	FRQ         ___,___,___,___,___,___,___,___ ;
	FRQ         ___,___,___,___,___,___,___,___ ;
	SPEED       010
	FRQ         Gn3,As2,Cn4,Dn4,Fn4,___,___,___ ;
	FRQ         ___,As3,___,___,___,___,___,___ ;
	FRQ         Gn3,Gs2,Cn4,Dn4,Fn4,___,___,___ ;
	FRQ         En3,Gs3,Cn4,___,En4,___,___,___ ;
	FRQ         ___,Fs2,___,___,___,___,___,___ ;
	FRQ         En3,Fs3,___,___,___,___,___,___ ;
	FRQ         Cn3,As2,Cn4,Dn4,Dn4,___,___,___ ;
	FRQ         ___,As3,___,___,___,___,___,___ ;
	SPEED       005
	FRQ         Cn3,Cn3,Cn4,Dn4,Gn4,___,___,___ ;
	FRQ         Gn2,___,___,___,___,___,___,___ ;
	FRQ         Cn2,___,___,___,___,___,___,___ ;
	FRQ         Q__,___,___,___,___,___,___,___ ;
	FRQ         ___,___,___,___,___,___,___,___ ;
	FRQ         ___,___,___,___,___,___,___,___ ;
	FRQ         ___,___,___,___,___,___,___,___ ;
	FRQ         ___,___,___,___,___,___,___,___ ;
	FRQ         Cn2,Cn3,Gn4,Cn4,Dn4,Gn4,___,___ ;
	FRQ         ___,___,___,___,___,___,___,___ ;
	FRQ         Cn3,___,___,___,___,Gn4,Dn5,Gn5 ;
	FRQ         ___,___,___,___,___,___,___,___ ;
	FRQ         ___,___,___,___,___,___,___,___ ;
	FRQ         ___,___,___,___,___,___,___,___ ;
	FRQ         ___,___,___,___,___,___,___,___ ;
	FRQ         ___,___,___,___,___,___,___,___ ;
	SPEED       010
	FRQ         Gn3,Cn3,Cn4,Dn4,Fn4,___,___,___ ;
	FRQ         ___,___,___,___,___,___,___,___ ;
	FRQ         Gn3,Cn3,Cn4,Dn4,Fn4,___,___,___ ;
	FRQ         En3,Dn3,Cn4,___,En4,___,___,___ ;
	FRQ         ___,___,___,___,___,___,___,___ ;
	FRQ         En3,En3,___,___,___,___,___,___ ;
	FRQ         Cn2,Cn3,Cn4,Dn4,Dn4,___,___,___ ;
	FRQ         ___,___,___,___,___,___,___,___ ;
	SPEED       005
	FRQ         Cn3,As2,Cn4,Dn4,Gn4,___,___,___ ;
	FRQ         Gn2,___,___,___,___,___,___,___ ;
	FRQ         Cn2,___,___,___,___,___,___,___ ;
	FRQ         Q__,___,___,___,___,___,___,___ ;
	FRQ         ___,___,___,___,___,___,___,___ ;
	FRQ         ___,___,___,___,___,___,___,___ ;
	FRQ         ___,___,___,___,___,___,___,___ ;
	FRQ         ___,___,___,___,___,___,___,___ ;
	FRQ         Cn2,As2,Gn4,Cn4,Dn4,Gn4,___,___ ;
	FRQ         ___,___,___,___,___,___,___,___ ;
	FRQ         Cn3,___,___,___,___,Gn4,Dn5,Gn5 ;
	FRQ         ___,___,___,___,___,___,___,___ ;
	FRQ         ___,___,___,___,___,___,___,___ ;
	FRQ         ___,___,___,___,___,___,___,___ ;
	FRQ         ___,___,___,___,___,___,___,___ ;
	FRQ         ___,___,___,___,___,___,___,___ ;
	FRQ         Gn3,As2,Cn4,Dn4,Fn4,An5,An5,Fn5 ;
	FRQ         ___,___,___,___,___,___,___,___ ;
	FRQ         Gn3,As3,___,___,___,Gn5,Gn5,En5 ;
	FRQ         ___,___,___,___,___,___,___,___ ;
	FRQ         En3,Gs2,Cn4,Dn4,Fn4,Fn5,Fn5,Dn5 ;
	FRQ         ___,___,___,___,___,___,___,___ ;
	FRQ         En3,Gs3,Cn4,___,En4,En5,En5,Cn5 ;
	FRQ         ___,___,___,___,___,___,___,___ ;
	FRQ         Cn3,Fs2,___,___,___,Ds5,Dn5,As4 ;
	FRQ         ___,___,___,___,___,___,___,___ ;
	FRQ         Cn3,Fs3,___,___,___,Cn5,Cn5,Gn4 ;
	FRQ         ___,___,___,___,___,___,___,___ ;
	FRQ         En3,As2,Cn4,Dn4,Dn4,As4,As4,Fn4 ;
	FRQ         Cn3,___,___,___,___,___,___,___ ;
	FRQ         Gn2,As3,___,___,___,En4,Gn4,En4 ;
	FRQ         Cn2,___,___,___,___,___,___,___ ;
	SPEED       010
	JUMP        song00a_jmp000
.endproc
