	.include "song.inc"
	.segment "BANK0"
	.export area1
.proc area1
song002_start:
	CHANNEL		001,002,003,004,005,007,006,___
	TEMPO       001
	SPEED       010
	PIT         011,___,015,017,___,___,004,___
	PITRAT      135,135,144,147,___,___,100,___
	TRS         000,000,000,000,000,000,000,___
	TVOL        255
	PITDEP      120,120,120,120,___,___,180,___
	ENV         ___,___,___,___,___,010,___,___
	GTM         ___,___,___,___,___,___,255,___
	INS         008,012,008,008,005,___,001,___
	VOL         230,230,230,220,255,240,255,___
	LFO         ___,___,___,001,___,___,001,___
	PAN         ___,___,L__,__R,___,___,___,___
	DTN         ___,___,008,006,___,___,000,___
	FRQ         ___,An3,___,___,An2,___,___,___ ;
	FRQ         ___,___,___,___,An2,___,___,___ ;
	FRQ         ___,___,___,___,An2,___,___,___ ;
	FRQ         ___,___,___,___,An2,___,___,___ ;
	FRQ         ___,___,___,___,An2,___,___,___ ;
	FRQ         ___,___,___,___,An2,___,___,___ ;
	FRQ         ___,___,___,___,An2,___,___,___ ;
	FRQ         ___,___,___,___,An2,___,___,___ ;
	SPEED       005
	DEL         ___,___,___,___,___,___,___,___
	FRQ         ___,___,___,___,An2,___,Cn3,___ ;
	FRQ         ___,___,___,___,___,___,___,___ ;
	FRQ         ___,___,___,___,An2,___,___,___ ;
	FRQ         ___,___,___,___,___,___,___,___ ;

	PIT         ___,013,___,___,___,___,___,___
	INS         ___,008,___,___,___,___,___,___
	LFO         ___,001,___,___,___,___,___,___

	FRQ         As3,Fn4,As4,Fn4,An2,___,___,___ ;
	FRQ         ___,___,___,___,___,___,___,___ ;
	FRQ         An3,En4,An4,En4,An2,___,___,___ ;
	FRQ         ___,___,___,___,___,___,___,___ ;
	DEL         ___,___,___,___,___,___,___,___
	FRQ         Gs3,Ds4,Gs4,Ds4,Gs2,___,Cn3,___ ;
	DEL         ___,___,___,___,___,___,___,___
	FRQ         ___,___,___,___,___,___,Cn3,___ ;
	DEL         ___,___,___,___,___,___,___,___
	FRQ         Gn3,Dn4,Gn4,Dn4,Gn2,___,Cn3,___ ;
	DEL         ___,___,___,___,___,___,___,___
	FRQ         ___,___,___,___,___,___,Cn3,___ ;
	DEL         ___,___,___,___,___,___,___,___
	FRQ         Fs3,Cs4,Fs4,Cs4,Fs2,___,Cn3,___ ;
	DEL         ___,___,___,___,___,___,___,___
	FRQ         ___,___,___,___,___,___,Cn3,___ ;
	DEL         ___,___,___,___,___,___,___,___
	FRQ         Fn3,Cn4,Fn4,Cn4,Fn2,___,Gn2,___ ;
	DEL         ___,___,___,___,___,___,___,___
	FRQ         ___,___,___,___,___,___,Gn2,___ ;
	SPEED       010
song002_jmp000:
	INS         008,008,006,006,___,017,___,___
	VOL         223,215,230,230,___,240,___,___
	LFO         ___,001,___,255,___,___,___,___
	DTN         ___,008,006,004,___,___,___,___
	PAN         ___,___,L__,__R,___,___,___,___
	GTM         ___,___,___,___,___,255,003,___
	FRQ         Gn4,___,Cn4,En4,Cn3,Gn4,Cn2,___ ;
	FRQ         ___,___,___,___,Cn3,Cn5,___,___ ;
	GTM         ___,___,___,___,___,___,255,___
	DEL         ___,___,___,___,___,___,___,___
	FRQ         ___,Gn4,___,___,Cn3,En5,Cn3,___ ;
	GTM         ___,___,___,___,___,___,003,___
	FRQ         ___,___,___,___,Cn2,Cn5,___,___ ;
	FRQ         ___,___,___,___,Cn3,En5,Cn2,___ ;
	FRQ         ___,___,___,___,Cn3,Fn5,___,___ ;
	GTM         ___,___,___,___,___,___,255,___
	DEL         ___,___,___,___,___,___,___,___
	FRQ         ___,___,___,___,Cn3,En5,Cn3,___ ;
	GTM         ___,___,___,___,___,___,003,___
	FRQ         ___,___,___,___,Cn4,Cn5,___,___ ;
	FRQ         ___,___,___,___,Cn3,Gn4,Cn2,___ ;
	FRQ         ___,___,___,___,Cn3,Cn5,___,___ ;
	GTM         ___,___,___,___,___,___,255,___
	DEL         ___,___,___,___,___,___,___,___
	FRQ         Cn5,___,___,___,Cn2,En5,Cn3,___ ;
	GTM         ___,___,___,___,___,___,003,___
	FRQ         ___,___,___,___,Cn2,Cn5,___,___ ;
	FRQ         Dn5,Cn5,___,___,Cn3,En5,Cn2,___ ;
	GTM         ___,___,___,___,___,___,255,___
	FRQ         ___,___,___,___,Cn4,Fn5,Gn2,___ ;
	DEL         ___,___,___,___,___,___,___,___
	FRQ         En5,Dn5,___,___,Gn3,En5,Cn3,___ ;
	FRQ         ___,___,___,___,Cn3,Cn5,___,___ ;
	GTM         ___,___,___,___,___,___,003,___
	FRQ         Dn5,En5,As3,Dn4,As2,Gn4,Cn2,___ ;
	FRQ         ___,___,___,___,As3,Cn5,___,___ ;
	GTM         ___,___,___,___,___,___,255,___
	DEL         ___,___,___,___,___,___,___,___
	FRQ         ___,Dn5,___,___,Fn2,En5,Cn3,___ ;
	GTM         ___,___,___,___,___,___,003,___
	FRQ         ___,___,___,___,Fn2,Cn5,___,___ ;
	FRQ         ___,___,___,___,As2,En5,Cn2,___ ;
	FRQ         ___,___,___,___,As3,Fn5,___,___ ;
	GTM         ___,___,___,___,___,___,255,___
	DEL         ___,___,___,___,___,___,___,___
	FRQ         ___,___,___,___,As2,En5,Cn3,___ ;
	GTM         ___,___,___,___,___,___,003,___
	FRQ         ___,___,___,___,As3,Cn5,___,___ ;
	FRQ         ___,___,___,___,As2,Gn4,Cn2,___ ;
	FRQ         ___,___,___,___,As3,Cn5,___,___ ;
	GTM         ___,___,___,___,___,___,255,___
	DEL         ___,___,___,___,___,___,___,___
	FRQ         ___,___,___,___,Fn2,En5,Cn3,___ ;
	GTM         ___,___,___,___,___,___,003,___
	FRQ         ___,___,___,___,Fn2,Cn5,___,___ ;
	FRQ         ___,___,___,___,As2,En5,Cn2,___ ;
	GTM         ___,___,___,___,___,___,255,___
	DEL         ___,___,___,___,___,___,___,___
	FRQ         Fn5,___,___,___,An3,Fn5,Gn2,___ ;
	DEL         ___,___,___,___,___,___,___,___
	FRQ         En5,___,___,___,Gn3,En5,Cn3,___ ;
	FRQ         Fn5,Fn5,___,___,Fn3,Cn5,___,___ ;
	GTM         ___,___,___,___,___,___,003,___
	FRQ         Cn5,En5,Cn4,En4,An2,___,Cn2,___ ;
	FRQ         ___,Fn5,___,___,An2,An4,___,___ ;
	GTM         ___,___,___,___,___,___,255,___
	DEL         ___,___,___,___,___,___,___,___
	FRQ         ___,Cn5,___,___,An2,Cn5,Cn3,___ ;
	GTM         ___,___,___,___,___,___,003,___
	FRQ         ___,___,___,___,An3,En5,___,___ ;
	FRQ         ___,___,___,___,An2,Gn5,Cn2,___ ;
	FRQ         ___,___,___,___,An3,En5,___,___ ;
	GTM         ___,___,___,___,___,___,255,___
	DEL         ___,___,___,___,___,___,___,___
	FRQ         ___,___,___,___,An2,Cn5,Cn3,___ ;
	GTM         ___,___,___,___,___,___,003,___
	FRQ         ___,___,___,___,An2,An4,___,___ ;
	FRQ         ___,___,___,___,An2,___,Cn2,___ ;
	FRQ         ___,___,___,___,An3,An4,___,___ ;
	GTM         ___,___,___,___,___,___,255,___
	DEL         ___,___,___,___,___,___,___,___
	FRQ         ___,___,___,___,An2,Cn5,Cn3,___ ;
	GTM         ___,___,___,___,___,___,003,___
	FRQ         ___,___,___,___,An2,En5,___,___ ;
	FRQ         An4,___,___,___,An2,Gn5,Cn2,___ ;
	GTM         ___,___,___,___,___,___,255,___
	DEL         ___,___,___,___,___,___,___,___
	FRQ         Bn4,___,___,___,An3,En5,Gn2,___ ;
	DEL         ___,___,___,___,___,___,___,___
	FRQ         Cn5,An4,___,___,An2,Cn5,Cn3,___ ;
	FRQ         Dn5,Bn4,___,___,An2,An4,___,___ ;
	GTM         ___,___,___,___,___,___,003,___
	FRQ         Cn5,Cn5,Fn3,An4,Fn2,Fn4,Cn2,___ ;
	FRQ         ___,Dn5,___,___,Fn2,An4,___,___ ;
	GTM         ___,___,___,___,___,___,255,___
	DEL         ___,___,___,___,___,___,___,___
	FRQ         An4,Cn5,___,___,An2,En5,Cn3,___ ;
	GTM         ___,___,___,___,___,___,003,___
	FRQ         ___,___,___,___,Cn3,Dn5,___,___ ;
	FRQ         En4,An4,___,___,Dn3,___,Cn2,___ ;
	FRQ         ___,___,___,___,Dn3,Cn5,___,___ ;
	GTM         ___,___,___,___,___,___,255,___
	DEL         ___,___,___,___,___,___,___,___
	FRQ         ___,En4,___,___,Cn3,Bn4,Cn3,___ ;
	GTM         ___,___,___,___,___,___,003,___
	FRQ         ___,___,___,___,Bn2,Cn5,___,___ ;
	FRQ         Cn5,___,An3,Cn4,Gn2,Cn5,Cn2,___ ;
	FRQ         ___,___,___,___,Gn2,Bn4,___,___ ;
	GTM         ___,___,___,___,___,___,255,___
	DEL         ___,___,___,___,___,___,___,___
	FRQ         ___,Cn5,Gn3,Bn3,Bn2,Gn4,Cn3,___ ;
	FRQ         Bn4,___,___,___,Gn3,Cn5,___,___ ;
	VOL         ___,___,___,___,___,___,255,___
	FRQ         An4,___,___,___,Dn2,Bn4,En3,___ ;
	VOL         ___,___,___,___,___,___,248,___
	FRQ         ___,Bn4,___,___,Dn2,Gn4,En3,___ ;
	VOL         ___,___,___,___,___,___,255,___
	DEL         ___,___,___,___,___,___,___,___
	FRQ         ___,An4,Gn3,Bn3,En2,Cn5,Cn3,___ ;
	DEL         ___,___,___,___,___,___,___,___
	FRQ         Bn4,___,___,___,Fn2,Gn4,Gn2,___ ;
	GTM         ___,___,___,___,___,___,003,___
	FRQ         Gn4,___,Cn4,En4,Cn3,Gn4,Cn2,___ ;
	FRQ         ___,Bn4,___,___,Cn3,Cn5,___,___ ;
	GTM         ___,___,___,___,___,___,255,___
	DEL         ___,___,___,___,___,___,___,___
	FRQ         ___,Gn4,___,___,Cn3,En5,Cn3,___ ;
	GTM         ___,___,___,___,___,___,003,___
	FRQ         ___,___,___,___,Cn2,Cn5,___,___ ;
	FRQ         ___,___,___,___,Cn3,En5,Cn2,___ ;
	FRQ         ___,___,___,___,Cn3,Fn5,___,___ ;
	GTM         ___,___,___,___,___,___,255,___
	DEL         ___,___,___,___,___,___,___,___
	FRQ         ___,___,___,___,Cn3,En5,Cn3,___ ;
	GTM         ___,___,___,___,___,___,003,___
	FRQ         ___,___,___,___,Cn4,Cn5,___,___ ;
	FRQ         ___,___,___,___,Cn3,Gn4,Cn2,___ ;
	FRQ         ___,___,___,___,Cn3,Cn5,___,___ ;
	DEL         ___,___,___,___,___,___,___,___
	FRQ         Gn5,___,___,___,Cn2,En5,Cn3,___ ;
	FRQ         ___,___,___,___,Cn2,Cn5,___,___ ;
	FRQ         Fn5,Gn5,___,___,Cn3,En5,Cn2,___ ;
	GTM         ___,___,___,___,___,___,255,___
	DEL         ___,___,___,___,___,___,___,___
	FRQ         ___,___,___,___,Cn4,Fn5,Gn2,___ ;
	DEL         ___,___,___,___,___,___,___,___
	FRQ         En5,Fn5,___,___,Gn3,En5,Cn3,___ ;
	GTM         ___,___,___,___,___,___,003,___
	FRQ         ___,___,___,___,Cn3,Cn5,___,___ ;
	FRQ         Dn5,En5,As3,Dn4,As2,Gn4,Cn2,___ ;
	FRQ         ___,___,___,___,As3,Cn5,___,___ ;
	GTM         ___,___,___,___,___,___,255,___
	DEL         ___,___,___,___,___,___,___,___
	FRQ         ___,Dn5,___,___,Fn2,En5,Cn3,___ ;
	GTM         ___,___,___,___,___,___,003,___
	FRQ         ___,___,___,___,Fn2,Cn5,___,___ ;
	FRQ         ___,___,___,___,As2,En5,Cn2,___ ;
	FRQ         ___,___,___,___,As3,Fn5,___,___ ;
	GTM         ___,___,___,___,___,___,255,___
	DEL         ___,___,___,___,___,___,___,___
	FRQ         ___,___,___,___,As2,En5,Cn3,___ ;
	GTM         ___,___,___,___,___,___,003,___
	FRQ         ___,___,___,___,As3,Cn5,___,___ ;
	FRQ         Dn5,___,___,___,As2,Gn4,Cn2,___ ;
	FRQ         En5,___,___,___,As3,Cn5,___,___ ;
	GTM         ___,___,___,___,___,___,255,___
	DEL         ___,___,___,___,___,___,___,___
	FRQ         Fn5,Dn5,___,___,Fn2,En5,Cn3,___ ;
	GTM         ___,___,___,___,___,___,003,___
	FRQ         Gn5,En5,___,___,Fn2,Cn5,___,___ ;
	FRQ         En5,Fn5,___,___,As2,En5,Cn2,___ ;
	GTM         ___,___,___,___,___,___,255,___
	DEL         ___,___,___,___,___,___,___,___
	FRQ         Fn5,Gn5,___,___,An3,Fn5,Gn2,___ ;
	DEL         ___,___,___,___,___,___,___,___
	FRQ         Gn5,En5,___,___,Gn3,En5,Cn3,___ ;
	GTM         ___,___,___,___,___,___,003,___
	FRQ         An5,Fn5,___,___,Fn3,Cn5,___,___ ;
	FRQ         Cn6,Gn5,En4,An4,An2,___,Cn2,___ ;
	FRQ         ___,An5,___,___,An2,An4,___,___ ;
	GTM         ___,___,___,___,___,___,255,___
	DEL         ___,___,___,___,___,___,___,___
	FRQ         ___,Cn6,___,___,An2,Cn5,Cn3,___ ;
	FRQ         ___,___,___,___,An3,En5,___,___ ;
	GTM         ___,___,___,___,___,___,003,___
	FRQ         ___,___,___,___,An2,Gn5,Cn2,___ ;
	GTM         ___,___,___,___,___,___,255,___
	DEL         ___,___,___,___,___,___,___,___
	FRQ         ___,___,___,___,An3,En5,Gn2,___ ;
	DEL         ___,___,___,___,___,___,___,___
	FRQ         ___,___,___,___,An2,Cn5,Cn3,___ ;
	GTM         ___,___,___,___,___,___,003,___
	FRQ         ___,___,___,___,An2,An4,___,___ ;
	SPEED       010
	INS         ___,___,008,008,___,___,___,___
	VOL         ___,___,225,215,___,___,___,___
	LFO         ___,001,___,001,___,___,___,___
	PAN         ___,___,___,L__,___,___,___,___
	FRQ         ___,___,___,___,An2,___,Cn2,___ ;
	FRQ         ___,___,___,___,An3,An4,___,___ ;
	GTM         ___,___,___,___,___,___,255,___
	DEL         ___,___,___,___,___,___,___,___
	FRQ         ___,___,___,___,An2,Cn5,Cn3,___ ;
	GTM         ___,___,___,___,___,___,003,___
	FRQ         ___,___,___,___,An2,En5,___,___ ;
	FRQ         En5,___,___,___,An2,Gn5,Cn2,___ ;
	FRQ         Dn5,___,___,___,An3,En5,Cn2,___ ;
	GTM         ___,___,___,___,___,___,255,___
	DEL         ___,___,___,___,___,___,___,___
	FRQ         En5,En5,___,___,An2,Cn5,Cn3,___ ;
	GTM         ___,___,___,___,___,___,003,___
	FRQ         Fn5,Dn5,___,___,An2,An4,___,___ ;
	SPEED       001
	GTM         ___,___,___,___,___,___,255,___
	DEL         ___,___,___,___,___,___,___,___
	FRQ         An5,En5,Cn6,___,Fn2,Fn4,En3,___ ;
	DEL         ___,___,___,___,___,___,___,___
	FRQ         ___,___,___,___,___,___,En3,___ ;
	GTM         ___,___,___,___,___,___,003,___
	SPEED       008
	FRQ         ___,___,___,___,___,___,___,___ ;
	SPEED       010
	FRQ         ___,Fn5,___,___,Fn2,An4,Cn2,___ ;
	FRQ         Bn5,An5,Dn6,___,An2,En5,Cn2,___ ;
	SPEED       001
	GTM         ___,___,___,___,___,___,255,___
	DEL         ___,___,___,___,___,___,___,___
	FRQ         ___,___,___,Cn6,Cn3,Dn5,Cn3,___ ;
	DEL         ___,___,___,___,___,___,___,___
	FRQ         ___,___,___,___,___,___,Cn3,___ ;
	GTM         ___,___,___,___,___,___,003,___
	SPEED       008
	FRQ         ___,___,___,___,___,___,___,___ ;
	SPEED       010
	FRQ         Cn6,Bn5,En6,___,Dn3,___,Cn2,___ ;
	FRQ         ___,___,___,Dn6,Dn3,Cn5,Cn2,___ ;
	SPEED       001
	GTM         ___,___,___,___,___,___,255,___
	DEL         ___,___,___,___,___,___,___,___
	FRQ         Dn6,Cn6,Fn6,___,Cn3,Bn4,Gn2,___ ;
	DEL         ___,___,___,___,___,___,___,___
	FRQ         ___,___,___,___,___,___,Gn2,___ ;
	GTM         ___,___,___,___,___,___,003,___
	SPEED       008
	FRQ         ___,___,___,___,___,___,___,___ ;
	SPEED       010
	FRQ         ___,___,___,En6,Bn2,Cn5,Cn2,___ ;
	SPEED       001
	GTM         ___,___,___,___,___,___,255,___
	DEL         ___,___,___,___,___,___,___,___
	FRQ         Cn6,Dn6,En6,___,Gn2,Cn5,Cn3,___ ;
	DEL         ___,___,___,___,___,___,___,___
	FRQ         ___,___,___,___,___,___,Cn3,___ ;
	GTM         ___,___,___,___,___,___,003,___
	SPEED       008
	FRQ         ___,___,___,___,___,___,___,___ ;
	SPEED       010
	FRQ         ___,___,___,Fn6,Gn2,Bn4,Cn2,___ ;
	SPEED       001
	GTM         ___,___,___,___,___,___,255,___
	DEL         ___,___,___,___,___,___,___,___
	FRQ         Bn5,Cn6,Dn6,___,Bn2,Gn4,Cn3,___ ;
	DEL         ___,___,___,___,___,___,___,___
	FRQ         ___,___,___,___,___,___,Cn3,___ ;
	GTM         ___,___,___,___,___,___,003,___
	SPEED       008
	FRQ         ___,___,___,___,___,___,___,___ ;
	SPEED       010
	FRQ         ___,___,___,En6,Gn3,Cn5,Cn2,___ ;
	SPEED       001
	GTM         ___,___,___,___,___,___,255,___
	DEL         ___,___,___,___,___,___,___,___
	FRQ         An5,Bn5,Cn6,___,Dn2,Bn4,Cn3,___ ;
	DEL         ___,___,___,___,___,___,___,___
	FRQ         ___,___,___,___,___,___,Cn3,___ ;
	GTM         ___,___,___,___,___,___,003,___
	SPEED       008
	FRQ         ___,___,___,___,___,___,___,___ ;
	SPEED       010
	FRQ         ___,___,___,Dn6,Dn2,Gn4,Cn2,___ ;
	SPEED       001
	GTM         ___,___,___,___,___,___,255,___
	DEL         ___,___,___,___,___,___,___,___
	FRQ         Bn5,An5,Dn6,___,En2,Cn5,Cn3,___ ;
	DEL         ___,___,___,___,___,___,___,___
	FRQ         ___,___,___,___,___,___,Cn3,___ ;
	GTM         ___,___,___,___,___,___,003,___
	SPEED       008
	FRQ         ___,___,___,___,___,___,___,___ ;
	SPEED       010
	FRQ         ___,___,___,Cn6,Fn2,Gn4,Cn2,___ ;
	FRQ         An5,Bn5,En6,Dn6,An2,An5,Cn2,___ ;
	FRQ         ___,___,___,___,An2,___,___,___ ;
	FRQ         ___,An5,___,En6,An2,___,Cn2,___ ;
	FRQ         ___,___,___,___,An2,___,___,___ ;
	FRQ         ___,___,___,___,An2,___,Cn2,___ ;
	FRQ         ___,___,___,___,An2,___,___,___ ;
	FRQ         ___,___,___,___,An2,___,Cn2,___ ;
	FRQ         ___,___,___,___,An2,___,___,___ ;
	FRQ         ___,___,___,___,An2,___,Cn2,___ ;
	FRQ         ___,___,___,___,An2,___,___,___ ;
	FRQ         ___,___,___,___,An2,___,Cn2,___ ;
	FRQ         ___,___,___,___,An2,___,___,___ ;
	SPEED       001
	GTM         ___,___,___,___,___,___,255,___
	VOL         ___,___,___,___,___,___,248,___
	FRQ         ___,___,___,___,An2,___,Gn3,___ ;
	DEL         ___,___,___,___,___,___,___,___
	VOL         ___,___,___,___,___,___,255,___
	FRQ         ___,___,___,___,___,___,En3,___ ;
	GTM         ___,___,___,___,___,___,003,___
	SPEED       008
	FRQ         ___,___,___,___,___,___,___,___ ;
	SPEED       010
	FRQ         ___,___,___,___,An2,___,Cn2,___ ;
	SPEED       001
	GTM         ___,___,___,___,___,___,255,___
	VOL         ___,___,___,___,___,___,255,___
	FRQ         ___,___,___,___,An2,___,En3,___ ;
	VOL         ___,___,___,___,___,___,255,___
	DEL         ___,___,___,___,___,___,___,___
	FRQ         ___,___,___,___,___,___,Cn3,___ ;
	GTM         ___,___,___,___,___,___,003,___
	SPEED       008
	FRQ         ___,___,___,___,___,___,___,___ ;
	SPEED       010
	FRQ         ___,___,___,___,An2,___,Cn2,___ ;
	INS         009,009,009,009,___,___,___,___
	VOL         230,215,230,215,___,___,___,___
	LFO         ___,001,___,001,___,___,___,___
	PAN         ___,__R,___,L__,___,___,___,___
	FRQ         En5,___,Cn5,___,An2,En4,Cn2,___ ;
	FRQ         ___,___,___,___,An2,___,Cn2,___ ;
	GTM         ___,___,___,___,___,___,255,___
	DEL         ___,___,___,___,___,___,___,___
	FRQ         ___,En5,___,Cn5,An2,___,Cn3,___ ;
	GTM         ___,___,___,___,___,___,003,___
	FRQ         ___,___,___,___,An2,___,___,___ ;
	FRQ         Dn5,___,Bn4,___,An2,Dn4,Cn2,___ ;
	FRQ         ___,___,___,___,An2,___,___,___ ;
	GTM         ___,___,___,___,___,___,255,___
	DEL         ___,___,___,___,___,___,___,___
	FRQ         ___,Dn5,___,Bn4,An2,___,Cn3,___ ;
	GTM         ___,___,___,___,___,___,003,___
	FRQ         ___,___,___,___,An2,___,Cn2,___ ;
	FRQ         Cn5,___,An4,___,An2,Cn4,Cn2,___ ;
	FRQ         ___,___,___,___,An2,___,Cn2,___ ;
	GTM         ___,___,___,___,___,___,255,___
	DEL         ___,___,___,___,___,___,___,___
	FRQ         ___,Cn5,___,An4,An2,___,Cn3,___ ;
	GTM         ___,___,___,___,___,___,003,___
	FRQ         ___,___,___,___,An2,___,___,___ ;
	FRQ         Dn5,___,Bn4,___,An2,Dn4,Cn2,___ ;
	FRQ         ___,___,___,___,An2,___,___,___ ;
	GTM         ___,___,___,___,___,___,255,___
	DEL         ___,___,___,___,___,___,___,___
	FRQ         En5,Dn5,Cn5,Bn4,An2,En4,Cn3,___ ;
	GTM         ___,___,___,___,___,___,003,___
	FRQ         ___,___,___,___,An2,___,Cn2,___ ;
	FRQ         ___,En5,___,Cn5,An2,___,Cn2,___ ;
	FRQ         En4,___,An4,___,An2,En3,Cn2,___ ;
	GTM         ___,___,___,___,___,___,255,___
	DEL         ___,___,___,___,___,___,___,___
	FRQ         ___,___,___,___,An2,___,Cn3,___ ;
	GTM         ___,___,___,___,___,___,003,___
	FRQ         ___,En4,___,An4,An2,___,___,___ ;
	FRQ         ___,___,___,___,An2,___,Cn2,___ ;
	FRQ         ___,___,___,___,An2,___,___,___ ;
	GTM         ___,___,___,___,___,___,255,___
	DEL         ___,___,___,___,___,___,___,___
	FRQ         ___,___,___,___,An2,___,Cn3,___ ;
	GTM         ___,___,___,___,___,___,003,___
	FRQ         ___,___,___,___,An2,___,Cn2,___ ;
	FRQ         ___,___,___,___,An2,___,Cn2,___ ;
	FRQ         ___,___,___,___,An2,___,Cn2,___ ;
	GTM         ___,___,___,___,___,___,255,___
	DEL         ___,___,___,___,___,___,___,___
	FRQ         ___,___,___,___,An2,___,Cn3,___ ;
	GTM         ___,___,___,___,___,___,003,___
	FRQ         ___,___,___,___,An2,___,___,___ ;
	FRQ         ___,___,___,___,An2,___,Cn2,___ ;
	FRQ         ___,___,___,___,An2,___,Cn2,___ ;
	GTM         ___,___,___,___,___,___,255,___
	DEL         ___,___,___,___,___,___,___,___
	FRQ         ___,___,___,___,An2,___,Cn3,___ ;
	GTM         ___,___,___,___,___,___,003,___
	FRQ         ___,___,___,___,An2,___,Cn2,___ ;
	FRQ         ___,___,___,___,An2,___,Cn2,___ ;
	FRQ         En6,___,Cn6,___,An2,En5,Cn2,___ ;
	GTM         ___,___,___,___,___,___,255,___
	DEL         ___,___,___,___,___,___,___,___
	FRQ         Cn6,___,An5,___,An2,___,Cn3,___ ;
	GTM         ___,___,___,___,___,___,003,___
	FRQ         An5,En6,En5,Cn6,An2,___,___,___ ;
	FRQ         Dn6,Cn6,Bn5,An5,An2,Dn5,Cn2,___ ;
	FRQ         Bn5,An5,Gn5,En5,An2,___,___,___ ;
	GTM         ___,___,___,___,___,___,255,___
	DEL         ___,___,___,___,___,___,___,___
	FRQ         Gn5,Dn6,Dn5,Bn5,An2,___,Cn3,___ ;
	GTM         ___,___,___,___,___,___,003,___
	FRQ         Dn5,Bn5,Bn4,Gn5,An2,___,Cn2,___ ;
	FRQ         En5,Gn5,An4,Dn5,An2,En4,Cn2,___ ;
	FRQ         Q__,Dn5,Q__,Bn4,An2,___,Cn2,___ ;
	GTM         ___,___,___,___,___,___,255,___
	DEL         ___,___,___,___,___,___,___,___
	FRQ         Cn6,En5,An5,An4,An2,Cn5,Cn3,___ ;
	GTM         ___,___,___,___,___,___,003,___
	FRQ         An5,Q__,En5,Q__,An2,___,___,___ ;
	FRQ         En5,Cn6,Cn5,An5,An2,___,Cn2,___ ;
	FRQ         Bn5,An5,Gn5,En5,An3,Bn4,___,___ ;
	GTM         ___,___,___,___,___,___,255,___
	DEL         ___,___,___,___,___,___,___,___
	FRQ         Gn5,En5,Dn5,Cn5,An2,___,Cn3,___ ;
	GTM         ___,___,___,___,___,___,003,___
	FRQ         ___,Bn5,___,Gn5,An3,___,Cn2,___ ;
	FRQ         Dn5,Gn5,Bn4,Dn5,Gn2,Dn4,Cn2,___ ;
	FRQ         ___,___,___,___,Gn2,___,___,___ ;
	GTM         ___,___,___,___,___,___,255,___
	DEL         ___,___,___,___,___,___,___,___
	FRQ         ___,Dn5,___,Bn4,Gn2,___,Cn3,___ ;
	GTM         ___,___,___,___,___,___,003,___
	FRQ         ___,___,___,___,Gn2,___,___,___ ;
	FRQ         ___,___,___,___,Gn2,___,Cn2,___ ;
	FRQ         ___,___,___,___,Gn2,___,___,___ ;
	GTM         ___,___,___,___,___,___,255,___
	DEL         ___,___,___,___,___,___,___,___
	FRQ         ___,___,___,___,Gn2,___,Cn3,___ ;
	GTM         ___,___,___,___,___,___,003,___
	FRQ         ___,___,___,___,Gn2,___,Cn2,___ ;
	FRQ         ___,___,___,___,Gn2,___,Cn2,___ ;
	FRQ         ___,___,___,___,Gn2,___,Cn2,___ ;
	GTM         ___,___,___,___,___,___,255,___
	DEL         ___,___,___,___,___,___,___,___
	FRQ         ___,___,___,___,Gn2,___,Cn3,___ ;
	GTM         ___,___,___,___,___,___,003,___
	FRQ         ___,___,___,___,Gn2,___,___,___ ;
	FRQ         ___,___,___,___,Gn2,___,Cn2,___ ;
	FRQ         ___,___,___,___,Gn2,___,Cn2,___ ;
	GTM         ___,___,___,___,___,___,255,___
	DEL         ___,___,___,___,___,___,___,___
	FRQ         ___,___,___,___,Gn2,___,Cn3,___ ;
	GTM         ___,___,___,___,___,___,003,___
	FRQ         ___,___,___,___,Gn2,___,Cn2,___ ;
	FRQ         Cn5,___,Fn5,___,Fn2,Cn4,Cn2,___ ;
	FRQ         ___,___,___,___,Fn3,___,Cn2,___ ;
	GTM         ___,___,___,___,___,___,255,___
	DEL         ___,___,___,___,___,___,___,___
	FRQ         ___,Cn5,___,Fn5,Fn2,___,Cn3,___ ;
	GTM         ___,___,___,___,___,___,003,___
	FRQ         ___,___,___,___,Fn3,___,___,___ ;
	FRQ         ___,___,Cn6,___,Fn2,___,Cn2,___ ;
	FRQ         ___,___,___,___,Fn3,___,___,___ ;
	GTM         ___,___,___,___,___,___,255,___
	DEL         ___,___,___,___,___,___,___,___
	FRQ         ___,___,___,Cn6,Fn2,___,Cn3,___ ;
	GTM         ___,___,___,___,___,___,003,___
	FRQ         ___,___,___,___,Fn3,___,Cn2,___ ;
	FRQ         Gn5,___,En5,___,Gn2,Gn4,Cn2,___ ;
	FRQ         ___,___,___,___,Gn3,___,Cn2,___ ;
	GTM         ___,___,___,___,___,___,255,___
	DEL         ___,___,___,___,___,___,___,___
	FRQ         ___,Gn5,___,En5,Gn2,___,Cn3,___ ;
	GTM         ___,___,___,___,___,___,003,___
	FRQ         ___,___,___,___,Gn3,___,___,___ ;
	FRQ         Cn6,___,___,___,Gn2,Cn5,Cn2,___ ;
	FRQ         ___,___,___,___,Gn3,___,___,___ ;
	GTM         ___,___,___,___,___,___,255,___
	DEL         ___,___,___,___,___,___,___,___
	FRQ         ___,Cn6,___,___,Gn2,___,Cn3,___ ;
	GTM         ___,___,___,___,___,___,003,___
	FRQ         ___,___,___,___,Gn3,___,Cn2,___ ;
	FRQ         Gs5,___,Fn5,___,Gs2,Gs4,Cn2,___ ;
	FRQ         ___,___,___,___,Gs3,___,Cn2,___ ;
	GTM         ___,___,___,___,___,___,255,___
	DEL         ___,___,___,___,___,___,___,___
	FRQ         ___,Gs5,___,Fn5,Gs2,___,Cn3,___ ;
	GTM         ___,___,___,___,___,___,003,___
	FRQ         ___,___,___,___,Gs3,___,___,___ ;
	FRQ         Ds5,___,___,___,Gs2,Ds4,Cn2,___ ;
	FRQ         ___,___,___,___,Gs3,___,___,___ ;
	GTM         ___,___,___,___,___,___,255,___
	DEL         ___,___,___,___,___,___,___,___
	FRQ         Gs5,Ds5,___,___,Gs2,Gs4,Cn3,___ ;
	GTM         ___,___,___,___,___,___,003,___
	FRQ         ___,___,___,___,Gs3,___,Cn2,___ ;
	FRQ         As5,Gs5,Gn5,___,As2,As4,Cn2,___ ;
	FRQ         ___,___,___,___,As3,___,Cn2,___ ;
	GTM         ___,___,___,___,___,___,255,___
	DEL         ___,___,___,___,___,___,___,___
	FRQ         ___,As5,___,Gn5,As2,___,Cn3,___ ;
	GTM         ___,___,___,___,___,___,003,___
	FRQ         ___,___,___,___,As3,___,___,___ ;
	FRQ         ___,___,___,___,As2,___,Cn2,___ ;
	FRQ         ___,___,___,___,As3,___,Cn2,___ ;
	GTM         ___,___,___,___,___,___,255,___
	DEL         ___,___,___,___,___,___,___,___
	FRQ         ___,___,___,___,As2,___,Cn3,___ ;
	GTM         ___,___,___,___,___,___,003,___
	FRQ         ___,___,___,___,As3,___,Cn2,___ ;
	SPEED       001
	GTM         ___,___,___,___,___,___,255,___
	DEL         ___,___,___,___,___,___,___,___
	FRQ         Cn5,Cn6,Fn5,Fn5,Cn3,Cn5,Cn3,___ ;
	DEL         ___,___,___,___,___,___,___,___
	FRQ         ___,___,___,___,___,___,Cn3,___ ;
	SPEED       008
	FRQ         ___,___,___,___,___,___,___,___ ;
	SPEED       001
	DEL         ___,___,___,___,___,___,___,___
	FRQ         Cn5,___,Fn5,___,Cn3,Cn5,Cn3,___ ;
	DEL         ___,___,___,___,___,___,___,___
	FRQ         ___,___,___,___,___,___,Cn3,___ ;
	SPEED       008
	FRQ         ___,___,___,___,___,___,___,___ ;
	SPEED       010
	FRQ         Q__,Q__,Q__,Q__,___,___,___,___ ;
	FRQ         ___,___,___,___,___,___,___,___ ;
	FRQ         ___,___,___,___,___,___,___,___ ;
	SPEED       001
	DEL         ___,___,___,___,___,___,___,___
	FRQ         Cn5,___,Cn4,___,Cn2,Cn6,Gn3,___ ;
	DEL         ___,___,___,___,___,___,___,___
	FRQ         ___,___,___,___,___,___,En3,___ ;
	SPEED       008
	FRQ         ___,___,___,___,___,___,___,___ ;
	SPEED       001
	DEL         ___,___,___,___,___,___,___,___
	FRQ         Cn5,___,Cn4,___,Cn2,Cn6,En3,___ ;
	DEL         ___,___,___,___,___,___,___,___
	FRQ         ___,___,___,___,___,___,Cn3,___ ;
	SPEED       008
	FRQ         ___,___,___,___,___,___,___,___ ;
	SPEED       001
	DEL         ___,___,___,___,___,___,___,___
	FRQ         Cn5,___,Cn4,___,Cn2,Cn6,Cn3,___ ;
	DEL         ___,___,___,___,___,___,___,___
	FRQ         ___,___,___,___,___,___,Gn2,___ ;
	SPEED       008
	FRQ         ___,___,___,___,___,___,___,___ ;
	SPEED       001
	DEL         ___,___,___,___,___,___,___,___
	FRQ         Cn5,Cn6,En5,En5,Cn3,Cn5,Cn3,___ ;
	DEL         ___,___,___,___,___,___,___,___
	FRQ         ___,___,___,___,___,___,Cn3,___ ;
	SPEED       003
	FRQ         ___,___,___,___,___,___,___,___ ;
	SPEED       005
	FRQ         ___,___,___,___,___,___,___,___ ;
	SPEED       001
	DEL         ___,___,___,___,___,___,___,___
	FRQ         Cn5,___,En5,___,Cn3,Cn5,Cn3,___ ;
	DEL         ___,___,___,___,___,___,___,___
	FRQ         ___,___,___,___,___,___,Cn3,___ ;
	SPEED       003
	FRQ         ___,___,___,___,___,___,___,___ ;
	SPEED       005
	FRQ         ___,___,___,___,___,___,___,___ ;
	FRQ         Q__,Q__,Q__,Q__,___,___,___,___ ;
	FRQ         ___,___,___,___,___,___,___,___ ;
	FRQ         ___,___,___,___,___,___,___,___ ;
	FRQ         ___,___,___,___,___,___,___,___ ;
	FRQ         ___,___,___,___,___,Cn4,___,___ ;
	FRQ         ___,___,___,___,___,___,___,___ ;
	SPEED       001
	DEL         ___,___,___,___,___,___,___,___
	FRQ         Cn5,___,Cn2,___,Cn2,Cn5,En3,___ ;
	DEL         ___,___,___,___,___,___,___,___
	FRQ         ___,___,___,___,___,___,En3,___ ;
	SPEED       003
	FRQ         ___,___,___,___,___,___,___,___ ;
	SPEED       005
	FRQ         ___,___,___,___,___,Cn5,___,___ ;
	SPEED       001
	DEL         ___,___,___,___,___,___,___,___
	FRQ         Cn5,___,Cn2,___,Cn2,Cn5,Cn3,___ ;
	DEL         ___,___,___,___,___,___,___,___
	FRQ         ___,___,___,___,___,___,Cn3,___ ;
	SPEED       003
	FRQ         ___,___,___,___,___,___,___,___ ;
	SPEED       001
	DEL         ___,___,___,___,___,___,___,___
	FRQ         Cn5,___,Cn2,___,Cn2,Cn4,Cn3,___ ;
	DEL         ___,___,___,___,___,___,___,___
	FRQ         ___,___,___,___,___,___,Cn3,___ ;
	SPEED       003
	FRQ         ___,___,___,___,___,___,___,___ ;
	SPEED       001
	DEL         ___,___,___,___,___,___,___,___
	FRQ         Cn5,___,Cn2,___,Cn2,Cn5,Gn2,___ ;
	DEL         ___,___,___,___,___,___,___,___
	FRQ         ___,___,___,___,___,___,Gn2,___ ;
	SPEED       003
	FRQ         ___,___,___,___,___,___,___,___ ;
	SPEED       005
	GTM         ___,___,___,___,___,___,003,___
	FRQ         Q__,Q__,Q__,Q__,___,Cn6,___,___ ;
	SPEED       010
	INS         009,009,009,009,___,___,___,___
	VOL         225,225,225,225,___,___,___,___
	LFO         ___,255,255,255,___,___,___,___
	FRQ         Cn3,Gn4,Cn5,En5,Cn3,Gn4,Cn2,___ ;
	FRQ         ___,___,___,___,Cn3,Cn5,Cn2,___ ;
	GTM         ___,___,___,___,___,___,255,___
	DEL         ___,___,___,___,___,___,___,___
	FRQ         ___,___,___,___,Cn3,En5,Cn3,___ ;
	GTM         ___,___,___,___,___,___,003,___
	FRQ         Cn3,Gn4,Bn4,Dn5,Cn2,Cn5,___,___ ;
	FRQ         ___,___,___,___,Cn3,En5,Cn2,___ ;
	FRQ         ___,___,___,___,Cn3,Fn5,___,___ ;
	GTM         ___,___,___,___,___,___,255,___
	DEL         ___,___,___,___,___,___,___,___
	FRQ         Cn3,Gn4,Cn5,En5,Cn3,En5,Cn3,___ ;
	GTM         ___,___,___,___,___,___,003,___
	FRQ         ___,___,___,___,Cn4,Cn5,___,___ ;
	FRQ         ___,___,___,___,Cn3,Gn4,Cn2,___ ;
	FRQ         ___,___,___,___,Cn3,Cn5,___,___ ;
	GTM         ___,___,___,___,___,___,255,___
	DEL         ___,___,___,___,___,___,___,___
	FRQ         ___,___,___,___,Cn2,En5,Cn3,___ ;
	GTM         ___,___,___,___,___,___,003,___
	FRQ         ___,___,___,___,Cn2,Cn5,___,___ ;
	FRQ         ___,___,___,___,Cn3,En5,Cn2,___ ;
	FRQ         ___,___,___,___,Cn4,Fn5,Cn2,___ ;
	GTM         ___,___,___,___,___,___,255,___
	DEL         ___,___,___,___,___,___,___,___
	FRQ         ___,___,___,___,Gn3,En5,Cn3,___ ;
	GTM         ___,___,___,___,___,___,003,___
	FRQ         ___,___,___,___,Cn3,Cn5,___,___ ;
	FRQ         As3,As4,Dn5,Fn5,As2,Gn4,Cn2,___ ;
	FRQ         ___,___,___,___,As3,Cn5,Cn2,___ ;
	GTM         ___,___,___,___,___,___,255,___
	DEL         ___,___,___,___,___,___,___,___
	FRQ         ___,___,___,___,Fn2,En5,Cn3,___ ;
	GTM         ___,___,___,___,___,___,003,___
	FRQ         As3,As4,Cn5,En5,Fn2,Cn5,___,___ ;
	FRQ         ___,___,___,___,As2,En5,Cn2,___ ;
	FRQ         ___,___,___,___,As3,Fn5,___,___ ;
	GTM         ___,___,___,___,___,___,255,___
	DEL         ___,___,___,___,___,___,___,___
	FRQ         As3,As4,Dn5,Fn5,As2,En5,Cn3,___ ;
	GTM         ___,___,___,___,___,___,003,___
	FRQ         ___,___,___,___,As3,Cn5,___,___ ;
	FRQ         ___,___,___,___,As2,Gn4,Cn2,___ ;
	FRQ         ___,___,___,___,As3,Cn5,___,___ ;
	GTM         ___,___,___,___,___,___,255,___
	DEL         ___,___,___,___,___,___,___,___
	FRQ         ___,___,___,___,Fn2,En5,Cn3,___ ;
	GTM         ___,___,___,___,___,___,003,___
	FRQ         ___,___,___,___,Fn2,Cn5,___,___ ;
	FRQ         ___,___,___,___,As2,En5,Cn2,___ ;
	FRQ         ___,___,___,___,An3,Fn5,Cn2,___ ;
	GTM         ___,___,___,___,___,___,255,___
	DEL         ___,___,___,___,___,___,___,___
	FRQ         ___,___,___,___,Gn3,En5,Cn3,___ ;
	GTM         ___,___,___,___,___,___,003,___
	FRQ         ___,___,___,___,Fn3,Cn5,___,___ ;
	FRQ         An3,An4,Cn5,En5,An2,___,Cn2,___ ;
	FRQ         ___,___,___,___,An2,An4,Cn2,___ ;
	GTM         ___,___,___,___,___,___,255,___
	DEL         ___,___,___,___,___,___,___,___
	FRQ         ___,___,___,___,An2,Cn5,Cn3,___ ;
	GTM         ___,___,___,___,___,___,003,___
	FRQ         An3,An4,Bn4,Dn5,An3,En5,___,___ ;
	FRQ         ___,___,___,___,An2,Gn5,Cn2,___ ;
	FRQ         ___,___,___,___,An3,En5,___,___ ;
	GTM         ___,___,___,___,___,___,255,___
	DEL         ___,___,___,___,___,___,___,___
	FRQ         An3,An4,Cn5,En5,An2,Cn5,Cn3,___ ;
	GTM         ___,___,___,___,___,___,003,___
	FRQ         ___,___,___,___,An2,An4,___,___ ;
	FRQ         ___,___,___,___,An2,___,Cn2,___ ;
	FRQ         ___,___,___,___,An3,An4,___,___ ;
	GTM         ___,___,___,___,___,___,255,___
	DEL         ___,___,___,___,___,___,___,___
	FRQ         ___,___,___,___,An2,Cn5,Cn3,___ ;
	GTM         ___,___,___,___,___,___,003,___
	FRQ         ___,___,___,___,An2,En5,___,___ ;
	FRQ         ___,___,___,___,An2,Gn5,Cn2,___ ;
	FRQ         ___,___,___,___,An3,En5,Cn2,___ ;
	GTM         ___,___,___,___,___,___,255,___
	DEL         ___,___,___,___,___,___,___,___
	FRQ         ___,___,___,___,An2,Cn5,Cn3,___ ;
	GTM         ___,___,___,___,___,___,003,___
	FRQ         ___,___,___,___,An2,An4,___,___ ;
	FRQ         Fn3,An4,Cn5,En5,Fn2,Fn4,Cn2,___ ;
	FRQ         ___,___,___,___,Fn2,An4,Cn2,___ ;
	GTM         ___,___,___,___,___,___,255,___
	DEL         ___,___,___,___,___,___,___,___
	FRQ         ___,___,___,___,An2,En5,Cn3,___ ;
	GTM         ___,___,___,___,___,___,003,___
	FRQ         ___,___,___,___,Cn3,Dn5,___,___ ;
	FRQ         ___,___,___,___,Dn3,___,Cn2,___ ;
	FRQ         ___,___,___,___,Dn3,Cn5,___,___ ;
	GTM         ___,___,___,___,___,___,255,___
	DEL         ___,___,___,___,___,___,___,___
	FRQ         ___,___,___,___,Cn3,Bn4,Cn3,___ ;
	GTM         ___,___,___,___,___,___,003,___
	FRQ         ___,___,___,___,Bn2,Cn5,___,___ ;
	FRQ         Gn3,Gn4,Bn4,Dn5,Gn2,Cn5,Cn2,___ ;
	FRQ         ___,___,___,___,Gn2,Bn4,___,___ ;
	GTM         ___,___,___,___,___,___,255,___
	DEL         ___,___,___,___,___,___,___,___
	FRQ         ___,___,___,___,Bn2,Gn4,Cn3,___ ;
	GTM         ___,___,___,___,___,___,003,___
	FRQ         ___,___,___,___,Gn3,Cn5,___,___ ;
	FRQ         ___,___,___,___,Dn2,Bn4,Cn2,___ ;
	FRQ         ___,___,___,___,Dn2,Gn4,Cn2,___ ;
	GTM         ___,___,___,___,___,___,255,___
	DEL         ___,___,___,___,___,___,___,___
	FRQ         ___,___,___,___,En2,Cn5,Cn3,___ ;
	DEL         ___,___,___,___,___,___,___,___
	FRQ         ___,___,___,___,Fn2,Gn4,Gn2,___ ;
	GTM         ___,___,___,___,___,___,003,___
	INS         011,011,011,011,___,___,___,___
	VOL         235,235,235,235,___,___,___,___
	FRQ         Cn3,Gn3,___,___,Cn3,Gn4,Cn2,___ ;
	FRQ         ___,___,Cn4,___,Cn3,Cn5,Cn2,___ ;
	FRQ         ___,___,___,En4,Cn3,En5,Cn2,___ ;
	FRQ         Cn3,Gn3,___,___,Cn2,Cn5,___,___ ;
	FRQ         ___,___,Bn3,___,Cn3,En5,Cn2,___ ;
	FRQ         ___,___,___,Dn4,Cn3,Fn5,___,___ ;
	FRQ         Cn3,Gn3,Cn4,En4,Cn3,En5,Cn2,___ ;
	FRQ         ___,___,___,___,Cn4,Cn5,___,___ ;
	FRQ         ___,___,___,___,Cn3,Gn4,Cn2,___ ;
	FRQ         ___,___,___,___,Cn3,Cn5,___,___ ;
	FRQ         ___,___,___,___,Cn2,En5,Cn2,___ ;
	FRQ         ___,___,___,___,Cn2,Cn5,___,___ ;
	FRQ         ___,___,___,___,Cn3,En5,Cn2,___ ;
	FRQ         ___,___,___,___,Cn4,Fn5,Cn2,___ ;
	GTM         ___,___,___,___,___,___,255,___
	DEL         ___,___,___,___,___,___,___,___
	FRQ         ___,___,___,___,Gn3,En5,Cn3,___ ;
	GTM         ___,___,___,___,___,___,003,___
	FRQ         ___,___,___,___,Cn3,Cn5,___,___ ;
	FRQ         As3,As3,___,___,As2,Gn4,Cn2,___ ;
	FRQ         ___,___,Dn4,___,As3,Cn5,Cn2,___ ;
	FRQ         ___,___,___,Fn4,Fn2,En5,Cn2,___ ;
	FRQ         As3,As3,___,___,Fn2,Cn5,___,___ ;
	FRQ         ___,___,Cn4,___,As2,En5,Cn2,___ ;
	FRQ         ___,___,___,En4,As3,Fn5,___,___ ;
	FRQ         As3,___,___,Fn4,As2,En5,Cn2,___ ;
	FRQ         ___,___,Dn4,___,As3,Cn5,___,___ ;
	FRQ         ___,As3,___,___,As2,Gn4,Cn2,___ ;
	FRQ         ___,___,Dn4,___,As3,Cn5,___,___ ;
	FRQ         ___,As3,___,___,Fn2,En5,Cn2,___ ;
	FRQ         ___,___,Dn4,___,Fn2,Cn5,___,___ ;
	FRQ         ___,___,___,Fn4,As2,En5,Cn2,___ ;
	FRQ         ___,___,___,___,An3,Fn5,Cn2,___ ;
	GTM         ___,___,___,___,___,___,255,___
	DEL         ___,___,___,___,___,___,___,___
	FRQ         ___,___,___,___,Gn3,En5,Cn3,___ ;
	GTM         ___,___,___,___,___,___,003,___
	FRQ         ___,___,___,___,Fn3,Cn5,___,___ ;
	FRQ         An3,An3,___,___,An2,___,Cn2,___ ;
	FRQ         ___,___,Cn4,___,An2,An4,Cn2,___ ;
	FRQ         ___,___,___,En4,An2,Cn5,Cn2,___ ;
	FRQ         An3,An3,___,___,An3,En5,___,___ ;
	FRQ         ___,___,Bn3,___,An2,Gn5,Cn2,___ ;
	FRQ         ___,___,___,Dn4,An3,En5,___,___ ;
	FRQ         An3,An3,Cn4,En4,An2,Cn5,Cn2,___ ;
	FRQ         ___,___,___,___,An2,An4,___,___ ;
	FRQ         ___,___,___,___,An2,___,Cn2,___ ;
	FRQ         ___,___,___,___,An3,An4,___,___ ;
	FRQ         ___,___,___,___,An2,Cn5,Cn2,___ ;
	FRQ         ___,___,___,___,An2,En5,___,___ ;
	FRQ         ___,___,___,___,An2,Gn5,Cn2,___ ;
	FRQ         ___,___,___,___,An3,En5,Cn2,___ ;
	GTM         ___,___,___,___,___,___,255,___
	DEL         ___,___,___,___,___,___,___,___
	FRQ         ___,___,___,___,An2,Cn5,Cn3,___ ;
	GTM         ___,___,___,___,___,___,003,___
	FRQ         ___,___,___,___,An2,An4,___,___ ;
	FRQ         Fn3,An3,___,___,Fn2,Fn4,Cn2,___ ;
	FRQ         ___,___,Cn4,___,Fn2,An4,Cn2,___ ;
	FRQ         ___,___,___,En4,An2,En5,Cn2,___ ;
	FRQ         ___,___,Cn4,___,Cn3,Dn5,___,___ ;
	FRQ         ___,An3,___,___,Dn3,___,Cn2,___ ;
	FRQ         ___,___,___,En4,Dn3,Cn5,___,___ ;
	FRQ         ___,___,Cn4,___,Cn3,Bn4,Cn2,___ ;
	FRQ         ___,An3,___,___,Bn2,Cn5,___,___ ;
	FRQ         Gn3,Gn3,___,___,Gn2,Cn5,Cn2,___ ;
	FRQ         ___,___,Bn3,___,Gn2,Bn4,___,___ ;
	FRQ         ___,___,___,Dn4,Bn2,Gn4,Cn2,___ ;
	FRQ         ___,___,Bn3,___,Gn3,Cn5,___,___ ;
	FRQ         ___,Gn3,___,___,Dn2,Bn4,Cn2,___ ;
	GTM         ___,___,___,___,___,___,255,___
	VOL         ___,___,___,___,___,___,255,___
	FRQ         ___,___,___,Dn4,Dn2,Gn4,En3,___ ;
	VOL         ___,___,___,___,___,___,248,___
	FRQ         ___,___,Gn4,___,En2,Cn5,Cn3,___ ;
	VOL         ___,___,___,___,___,___,255,___
	DEL         ___,___,___,___,___,___,___,___
	FRQ         ___,Bn4,___,___,Fn2,Gn4,Gn2,___ ;
	GTM         ___,___,___,___,___,___,003,___
	INS         008,008,009,009,___,___,___,___
	VOL         225,217,230,230,___,___,___,___
	LFO         ___,001,___,255,___,___,___,___
	PAN         ___,___,L__,__R,___,___,___,___
	PIT         005,005,___,___,___,___,___,___
	PITRAT      240,240,___,___,___,___,___,___
	PITDEP      255,255,___,___,___,___,___,___
	FRQ         ___,___,Q__,Q__,Cn3,Gn4,Cn2,___ ;
	FRQ         An5,___,___,___,Cn3,Cn5,___,___ ;
	PIT         002,___,___,___,___,___,___,___
	PITRAT      000,___,___,___,___,___,___,___
	PITDEP      255,___,___,___,___,___,___,___
	GTM         ___,___,___,___,___,___,255,___
	DEL         ___,___,___,___,___,___,___,___
	FRQ         Gn5,An5,Cn5,En5,Cn3,En5,Cn3,___ ;
	GTM         ___,___,___,___,___,___,003,___
	PIT         ___,002,___,___,___,___,___,___
	PITRAT      ___,000,___,___,___,___,___,___
	PITDEP      ___,255,___,___,___,___,___,___
	FRQ         En5,Gn5,Q__,Q__,Cn2,Cn5,___,___ ;
	FRQ         Dn5,En5,___,___,Cn3,En5,Cn2,___ ;
	FRQ         En5,Dn5,Cn5,En5,Cn3,Fn5,___,___ ;
	GTM         ___,___,___,___,___,___,255,___
	DEL         ___,___,___,___,___,___,___,___
	FRQ         ___,En5,___,___,Cn3,En5,Cn3,___ ;
	GTM         ___,___,___,___,___,___,003,___
	FRQ         Cn5,___,Q__,Q__,Cn4,Cn5,___,___ ;
	FRQ         ___,Cn5,___,___,Cn3,Gn4,Cn2,___ ;
	FRQ         Dn5,___,___,___,Cn3,Cn5,___,___ ;
	GTM         ___,___,___,___,___,___,255,___
	DEL         ___,___,___,___,___,___,___,___
	FRQ         ___,Dn5,Cn5,En5,Cn2,En5,Cn3,___ ;
	GTM         ___,___,___,___,___,___,003,___
	FRQ         En5,___,Q__,Q__,Cn2,Cn5,___,___ ;
	FRQ         An4,En5,___,___,Cn3,En5,Cn2,___ ;
	FRQ         ___,An4,Cn5,En5,Cn4,Fn5,___,___ ;
	GTM         ___,___,___,___,___,___,255,___
	DEL         ___,___,___,___,___,___,___,___
	FRQ         Cn5,___,___,___,Gn3,En5,Cn3,___ ;
	GTM         ___,___,___,___,___,___,003,___
	FRQ         Dn5,Cn5,Q__,Q__,Cn3,Cn5,Cn2,___ ;
	FRQ         As4,Dn5,___,___,As2,Gn4,Cn2,___ ;
	FRQ         Dn5,As5,___,___,As3,Cn5,___,___ ;
	GTM         ___,___,___,___,___,___,255,___
	DEL         ___,___,___,___,___,___,___,___
	FRQ         An5,Dn5,Dn5,Fn5,Fn2,En5,Cn3,___ ;
	GTM         ___,___,___,___,___,___,003,___
	FRQ         Gn5,An5,Q__,Q__,Fn2,Cn5,___,___ ;
	FRQ         Cn5,Gn5,___,___,As2,En5,Cn2,___ ;
	FRQ         As5,Cs5,Dn5,Fn5,As3,Fn5,___,___ ;
	GTM         ___,___,___,___,___,___,255,___
	DEL         ___,___,___,___,___,___,___,___
	FRQ         An5,As5,___,___,As2,En5,Cn3,___ ;
	GTM         ___,___,___,___,___,___,003,___
	FRQ         En5,An5,Q__,Q__,As3,Cn5,___,___ ;
	PIT         006,___,___,___,___,___,___,___
	PITRAT      240,___,___,___,___,___,___,___
	PITDEP      255,___,___,___,___,___,___,___
	FRQ         Cn6,En5,___,___,As2,Gn4,Cn2,___ ;
	PIT         ___,006,___,___,___,___,___,___
	PITRAT      ___,240,___,___,___,___,___,___
	PITDEP      ___,255,___,___,___,___,___,___
	FRQ         ___,Cn6,___,___,As3,Cn5,___,___ ;
	GTM         ___,___,___,___,___,___,255,___
	DEL         ___,___,___,___,___,___,___,___
	FRQ         ___,___,Dn5,Fn5,Fn2,En5,Cn3,___ ;
	GTM         ___,___,___,___,___,___,003,___
	FRQ         ___,___,Q__,Q__,Fn2,Cn5,___,___ ;
	FRQ         ___,___,___,___,As2,En5,Cn2,___ ;
	FRQ         ___,___,Fn5,An5,An3,Fn5,___,___ ;
	PIT         002,___,___,___,___,___,___,___
	PITRAT      000,___,___,___,___,___,___,___
	PITDEP      255,___,___,___,___,___,___,___
	GTM         ___,___,___,___,___,___,255,___
	DEL         ___,___,___,___,___,___,___,___
	FRQ         Cn5,___,___,___,Gn3,En5,Cn3,___ ;
	GTM         ___,___,___,___,___,___,003,___
	PIT         ___,002,___,___,___,___,___,___
	PITRAT      ___,000,___,___,___,___,___,___
	PITDEP      ___,255,___,___,___,___,___,___
	FRQ         Dn5,Cn5,Q__,Q__,Fn3,Cn5,Cn2,___ ;
	FRQ         En5,Dn5,___,___,An2,___,Cn2,___ ;
	FRQ         ___,En5,___,___,An2,An4,___,___ ;
	GTM         ___,___,___,___,___,___,255,___
	DEL         ___,___,___,___,___,___,___,___
	FRQ         ___,___,Cn5,En5,An2,Cn5,Cn3,___ ;
	GTM         ___,___,___,___,___,___,003,___
	FRQ         Dn5,___,Q__,Q__,An3,En5,___,___ ;
	FRQ         ___,Dn5,___,___,An2,Gn5,Cn2,___ ;
	FRQ         An5,___,Cn5,En5,An3,En5,___,___ ;
	GTM         ___,___,___,___,___,___,255,___
	DEL         ___,___,___,___,___,___,___,___
	FRQ         ___,An5,___,___,An2,Cn5,Cn3,___ ;
	GTM         ___,___,___,___,___,___,003,___
	FRQ         Gn5,___,Q__,Q__,An2,An4,___,___ ;
	FRQ         ___,Gn5,___,___,An2,___,Cn2,___ ;
	FRQ         Gn5,___,___,___,An3,An4,___,___ ;
	GTM         ___,___,___,___,___,___,255,___
	DEL         ___,___,___,___,___,___,___,___
	FRQ         An5,Gn5,Cn5,En5,An2,Cn5,Cn3,___ ;
	GTM         ___,___,___,___,___,___,003,___
	FRQ         ___,An5,Q__,Q__,An2,En5,___,___ ;
	FRQ         Cn5,___,___,___,An2,Gn5,Cn2,___ ;
	FRQ         ___,Cn5,Cn5,En5,An3,En5,___,___ ;
	GTM         ___,___,___,___,___,___,255,___
	DEL         ___,___,___,___,___,___,___,___
	FRQ         ___,___,___,___,An2,Cn5,Cn3,___ ;
	GTM         ___,___,___,___,___,___,003,___
	FRQ         En5,___,Q__,Q__,An2,An4,Cn2,___ ;
	INS         ___,___,008,008,___,___,___,___
	VOL         ___,___,225,215,___,___,___,___
	FRQ         Dn5,En5,Fn5,Dn5,Fn2,Fn4,Cn2,___ ;
	FRQ         ___,Dn5,___,___,Fn2,An4,___,___ ;
	GTM         ___,___,___,___,___,___,255,___
	DEL         ___,___,___,___,___,___,___,___
	FRQ         ___,___,___,___,An2,En5,Cn3,___ ;
	GTM         ___,___,___,___,___,___,003,___
	FRQ         ___,___,An5,Fn5,Cn3,Dn5,___,___ ;
	FRQ         ___,___,___,___,Dn3,___,Cn2,___ ;
	FRQ         ___,___,___,___,Dn3,Cn5,___,___ ;
	GTM         ___,___,___,___,___,___,255,___
	DEL         ___,___,___,___,___,___,___,___
	FRQ         ___,___,En6,Cn6,Cn3,Bn4,Cn3,___ ;
	GTM         ___,___,___,___,___,___,003,___
	FRQ         ___,___,___,___,Bn2,Cn5,___,___ ;
	PIT         006,___,___,___,___,___,___,___
	PITRAT      240,___,___,___,___,___,___,___
	PITDEP      255,___,___,___,___,___,___,___
	FRQ         Dn6,___,Dn6,Bn5,Gn2,Cn5,Cn2,___ ;
	PIT         ___,006,___,___,___,___,___,___
	PITRAT      ___,240,___,___,___,___,___,___
	PITDEP      ___,255,___,___,___,___,___,___
	FRQ         ___,Dn6,___,___,Gn2,Bn4,___,___ ;
	GTM         ___,___,___,___,___,___,255,___
	DEL         ___,___,___,___,___,___,___,___
	FRQ         ___,___,___,___,Bn2,Gn4,Cn3,___ ;
	GTM         ___,___,___,___,___,___,003,___
	FRQ         ___,___,Cn6,An5,Gn3,Cn5,___,___ ;
	GTM         ___,___,___,___,___,___,255,___
	VOL         ___,___,___,___,___,___,248,___
	FRQ         ___,___,___,___,Dn2,Bn4,En3,___ ;
	VOL         ___,___,___,___,___,___,255,___
	FRQ         ___,___,___,___,Dn2,Gn4,En3,___ ;
	VOL         ___,___,___,___,___,___,255,___
	DEL         ___,___,___,___,___,___,___,___
	FRQ         ___,___,Dn6,Bn5,En2,Cn5,Cn3,___ ;
	DEL         ___,___,___,___,___,___,___,___
	FRQ         ___,___,___,___,Fn2,Gn4,Gn2,___ ;
	GTM         ___,___,___,___,___,___,003,___
	PIT         002,___,___,___,___,___,___,___
	PITRAT      000,___,___,___,___,___,___,___
	PITDEP      255,___,___,___,___,___,___,___
	PIT         ___,002,___,___,___,___,___,___
	PITRAT      ___,000,___,___,___,___,___,___
	PITDEP      ___,255,___,___,___,___,___,___
	FRQ         Cn5,___,___,___,Cn3,Gn4,Cn2,___ ;
	FRQ         ___,Cn5,___,___,Cn3,Cn5,___,___ ;
	INS         ___,___,009,009,___,___,___,___
	VOL         ___,___,230,230,___,___,___,___
	GTM         ___,___,___,___,___,___,255,___
	DEL         ___,___,___,___,___,___,___,___
	FRQ         ___,___,Cn5,En5,Cn3,En5,Cn3,___ ;
	GTM         ___,___,___,___,___,___,003,___
	FRQ         Gn5,___,Q__,Q__,Cn2,Cn5,___,___ ;
	FRQ         ___,Gn5,___,___,Cn3,En5,Cn2,___ ;
	FRQ         ___,___,Cn5,En5,Cn3,Fn5,___,___ ;
	GTM         ___,___,___,___,___,___,255,___
	DEL         ___,___,___,___,___,___,___,___
	FRQ         An5,___,___,___,Cn3,En5,Cn3,___ ;
	GTM         ___,___,___,___,___,___,003,___
	FRQ         ___,An5,Q__,Q__,Cn4,Cn5,Cn2,___ ;
	FRQ         ___,___,___,___,Cn3,Gn4,Cn2,___ ;
	FRQ         En5,___,___,___,Cn3,Cn5,___,___ ;
	GTM         ___,___,___,___,___,___,255,___
	DEL         ___,___,___,___,___,___,___,___
	FRQ         ___,En5,Cn5,En5,Cn2,En5,Cn3,___ ;
	GTM         ___,___,___,___,___,___,003,___
	FRQ         ___,___,Q__,Q__,Cn2,Cn5,___,___ ;
	FRQ         Gn5,___,___,___,Cn3,En5,Cn2,___ ;
	FRQ         Dn5,Gn5,Cn5,En5,Cn4,Fn5,___,___ ;
	GTM         ___,___,___,___,___,___,255,___
	DEL         ___,___,___,___,___,___,___,___
	FRQ         ___,Dn5,___,___,Gn3,En5,Cn3,___ ;
	GTM         ___,___,___,___,___,___,003,___
	FRQ         ___,___,Q__,Q__,Cn3,Cn5,___,___ ;
	FRQ         En5,___,___,___,As2,Gn4,Cn2,___ ;
	FRQ         ___,En5,___,___,As3,Cn5,___,___ ;
	GTM         ___,___,___,___,___,___,255,___
	DEL         ___,___,___,___,___,___,___,___
	FRQ         ___,___,Dn5,Fn5,Fn2,En5,Cn3,___ ;
	GTM         ___,___,___,___,___,___,003,___
	FRQ         Fn5,___,Q__,Q__,Fn2,Cn5,___,___ ;
	FRQ         ___,Fn5,___,___,As2,En5,Cn2,___ ;
	FRQ         ___,___,Fn5,An5,As3,Fn5,___,___ ;
	GTM         ___,___,___,___,___,___,255,___
	DEL         ___,___,___,___,___,___,___,___
	FRQ         En5,___,___,___,As2,En5,Cn3,___ ;
	GTM         ___,___,___,___,___,___,003,___
	FRQ         ___,En5,Q__,Q__,As3,Cn5,Gn2,___ ;
	FRQ         ___,___,___,___,As2,Gn4,Cn2,___ ;
	FRQ         Fn5,___,___,___,As3,Cn5,___,___ ;
	GTM         ___,___,___,___,___,___,255,___
	DEL         ___,___,___,___,___,___,___,___
	FRQ         ___,Fn5,Dn5,Fn5,Fn2,En5,Cn3,___ ;
	GTM         ___,___,___,___,___,___,003,___
	FRQ         ___,___,Q__,Q__,Fn2,Cn5,___,___ ;
	FRQ         En5,___,___,___,As2,En5,Cn2,___ ;
	FRQ         ___,En5,Dn5,Fn5,An3,Fn5,___,___ ;
	GTM         ___,___,___,___,___,___,255,___
	DEL         ___,___,___,___,___,___,___,___
	FRQ         Fn5,___,___,___,Gn3,En5,Cn3,___ ;
	GTM         ___,___,___,___,___,___,003,___
	FRQ         ___,Fn5,Q__,Q__,Fn3,Cn5,___,___ ;
	FRQ         En5,___,___,___,An2,___,Cn2,___ ;
	FRQ         Cn5,En5,___,___,An2,An4,___,___ ;
	GTM         ___,___,___,___,___,___,255,___
	DEL         ___,___,___,___,___,___,___,___
	FRQ         An4,Cn5,Cn5,En5,An2,Cn5,Cn3,___ ;
	GTM         ___,___,___,___,___,___,003,___
	FRQ         Gn5,An4,Q__,Q__,An3,En5,___,___ ;
	FRQ         Cn5,Gn5,___,___,An2,Gn5,Cn2,___ ;
	FRQ         An4,Cn5,Cn5,En5,An3,En5,___,___ ;
	GTM         ___,___,___,___,___,___,255,___
	DEL         ___,___,___,___,___,___,___,___
	FRQ         Gn5,An4,___,___,An2,Cn5,Cn3,___ ;
	DEL         ___,___,___,___,___,___,___,___
	FRQ         Cn5,Gn5,Q__,Q__,An2,An4,Gn2,___ ;
	GTM         ___,___,___,___,___,___,003,___
	FRQ         En5,Cn5,___,___,An2,___,Cn2,___ ;
	FRQ         Cn5,En5,___,___,An3,An4,___,___ ;
	GTM         ___,___,___,___,___,___,255,___
	DEL         ___,___,___,___,___,___,___,___
	FRQ         An4,Cn5,Cn5,En5,An2,Cn5,Cn3,___ ;
	GTM         ___,___,___,___,___,___,003,___
	FRQ         Gn5,An4,Q__,Q__,An2,En5,___,___ ;
	FRQ         Cn5,Gn5,___,___,An2,Gn5,Cn2,___ ;
	FRQ         An4,Cn5,Cn5,En5,An3,En5,___,___ ;
	GTM         ___,___,___,___,___,___,255,___
	DEL         ___,___,___,___,___,___,___,___
	FRQ         Gn5,An4,___,___,An2,Cn5,Cn3,___ ;
	GTM         ___,___,___,___,___,___,003,___
	FRQ         Dn5,Gn5,Q__,Q__,An2,An4,___,___ ;
	FRQ         Fn4,Dn5,An4,Cn5,Fn2,Fn4,Cn2,___ ;
	FRQ         Gn4,Fn5,___,___,Fn2,An4,___,___ ;
	GTM         ___,___,___,___,___,___,255,___
	DEL         ___,___,___,___,___,___,___,___
	FRQ         En5,Gn5,___,___,An2,En5,Cn3,___ ;
	GTM         ___,___,___,___,___,___,003,___
	FRQ         Dn5,Fn4,___,___,Cn3,Dn5,___,___ ;
	FRQ         ___,Dn4,___,___,Dn3,___,Cn2,___ ;
	FRQ         Cn5,___,___,___,Dn3,Cn5,___,___ ;
	GTM         ___,___,___,___,___,___,255,___
	DEL         ___,___,___,___,___,___,___,___
	FRQ         Bn4,Cn5,___,___,Cn3,Bn4,Cn3,___ ;
	DEL         ___,___,___,___,___,___,___,___
	FRQ         Cn5,Bn4,___,___,Bn2,Cn5,Gn2,___ ;
	GTM         ___,___,___,___,___,___,003,___
	FRQ         Dn5,Cn5,Bn4,Dn5,Gn2,Cn5,Cn2,___ ;
	FRQ         ___,Dn5,___,___,Gn2,Bn4,___,___ ;
	GTM         ___,___,___,___,___,___,255,___
	DEL         ___,___,___,___,___,___,___,___
	FRQ         ___,___,___,___,Bn2,Gn4,Cn3,___ ;
	GTM         ___,___,___,___,___,___,003,___
	FRQ         Bn4,___,___,___,Gn3,Cn5,___,___ ;
	GTM         ___,___,___,___,___,___,255,___
	DEL         ___,___,___,___,___,___,___,___
	FRQ         ___,Bn4,___,___,Dn2,Bn4,En3,___ ;
	DEL         ___,___,___,___,___,___,___,___
	FRQ         ___,___,___,___,Dn2,Gn4,Cn3,___ ;
	PIT         006,___,___,___,___,___,___,___
	PITRAT      240,___,___,___,___,___,___,___
	PITDEP      255,___,___,___,___,___,___,___
	DEL         ___,___,___,___,___,___,___,___
	FRQ         Gn5,___,___,___,En2,Cn5,Cn3,___ ;
	DEL         ___,___,___,___,___,___,___,___
	FRQ         ___,Gn5,___,___,Fn2,Gn4,Gn2,___ ;
	GTM         ___,___,___,___,___,___,003,___
	PIT         002,___,___,___,___,___,___,___
	PITRAT      000,___,___,___,___,___,___,___
	PITDEP      255,___,___,___,___,___,___,___
	INS         ___,___,011,011,___,___,___,___
	VOL         ___,___,240,240,___,___,___,___
	LFO         ___,___,___,001,___,___,___,___
	FRQ         En5,___,Cn4,En4,Cn3,Gn4,Cn2,___ ;
	FRQ         Dn5,En5,___,___,Cn3,Cn5,___,___ ;
	GTM         ___,___,___,___,___,___,255,___
	DEL         ___,___,___,___,___,___,___,___
	FRQ         Cn5,Dn5,___,___,Cn3,En5,Cn3,___ ;
	GTM         ___,___,___,___,___,___,003,___
	FRQ         Dn5,Cn5,Bn3,Dn4,Cn2,Cn5,___,___ ;
	FRQ         Q__,Dn5,___,___,Cn3,En5,Cn2,___ ;
	FRQ         An4,Q__,___,___,Cn3,Fn5,___,___ ;
	GTM         ___,___,___,___,___,___,255,___
	DEL         ___,___,___,___,___,___,___,___
	FRQ         Q__,An4,An3,Cn4,Cn3,En5,Cn3,___ ;
	GTM         ___,___,___,___,___,___,003,___
	PIT         005,005,___,___,___,___,___,___
	PITRAT      240,240,___,___,___,___,___,___
	PITDEP      255,255,___,___,___,___,___,___
	FRQ         Cn5,Q__,___,___,Cn4,Cn5,___,___ ;
	FRQ         ___,Cn5,___,___,Cn3,Gn4,Cn2,___ ;
	FRQ         ___,___,___,___,Cn3,Cn5,___,___ ;
	PIT         002,___,___,___,___,___,___,___
	PITRAT      000,___,___,___,___,___,___,___
	PITDEP      255,___,___,___,___,___,___,___
	GTM         ___,___,___,___,___,___,255,___
	DEL         ___,___,___,___,___,___,___,___
	FRQ         Gn3,___,___,___,Cn2,En5,Cn3,___ ;
	GTM         ___,___,___,___,___,___,003,___
	PIT         ___,002,___,___,___,___,___,___
	PITRAT      ___,000,___,___,___,___,___,___
	PITDEP      ___,255,___,___,___,___,___,___
	FRQ         An3,Gn3,___,___,Cn2,Cn5,___,___ ;
	FRQ         Dn4,An3,___,___,Cn3,En5,Cn2,___ ;
	FRQ         En4,Dn4,___,___,Cn4,Fn5,___,___ ;
	GTM         ___,___,___,___,___,___,255,___
	DEL         ___,___,___,___,___,___,___,___
	FRQ         Dn4,En4,___,___,Gn3,En5,Cn3,___ ;
	GTM         ___,___,___,___,___,___,003,___
	DEL         ___,___,___,___,___,___,___,___
	FRQ         Cn4,Dn4,___,___,Cn3,Cn5,Gn2,___ ;
	FRQ         En4,Cn4,An4,___,As2,Gn4,Cn2,___ ;
	FRQ         ___,En4,Gn4,An4,As3,Cn5,___,___ ;
	GTM         ___,___,___,___,___,___,255,___
	DEL         ___,___,___,___,___,___,___,___
	FRQ         ___,___,En4,Gn4,Fn2,En5,Cn3,___ ;
	GTM         ___,___,___,___,___,___,003,___
	FRQ         Dn4,___,Gn4,En4,Fn2,Cn5,___,___ ;
	FRQ         ___,Dn4,___,Gn4,As2,En5,Cn2,___ ;
	FRQ         ___,___,En4,___,As3,Fn5,___,___ ;
	GTM         ___,___,___,___,___,___,255,___
	DEL         ___,___,___,___,___,___,___,___
	FRQ         Cn4,___,Dn4,En4,As2,En5,Cn3,___ ;
	GTM         ___,___,___,___,___,___,003,___
	FRQ         ___,Cn4,___,Dn4,As3,Cn5,___,___ ;
	FRQ         Dn4,___,En4,___,As2,Gn4,Cn2,___ ;
	FRQ         ___,Dn4,Dn4,En4,As3,Cn5,___,___ ;
	GTM         ___,___,___,___,___,___,255,___
	DEL         ___,___,___,___,___,___,___,___
	FRQ         ___,___,Cn4,Dn4,Fn2,En5,Cn3,___ ;
	GTM         ___,___,___,___,___,___,003,___
	FRQ         Cn4,___,Dn4,Cn4,Fn2,Cn5,___,___ ;
	FRQ         ___,Cn4,___,Dn4,As2,En5,Cn2,___ ;
	FRQ         ___,___,Cn4,___,An3,Fn5,___,___ ;
	GTM         ___,___,___,___,___,___,255,___
	DEL         ___,___,___,___,___,___,___,___
	FRQ         Dn4,___,An3,Cn4,Gn3,En5,Cn3,___ ;
	GTM         ___,___,___,___,___,___,003,___
	FRQ         ___,Dn4,___,An3,Fn3,Cn5,Gn2,___ ;
	PIT         005,005,___,___,___,___,___,___
	PITRAT      240,240,___,___,___,___,___,___
	PITDEP      255,255,___,___,___,___,___,___
	FRQ         En5,___,An4,___,An2,___,Cn2,___ ;
	FRQ         ___,En5,___,An4,An2,An4,___,___ ;
	GTM         ___,___,___,___,___,___,255,___
	DEL         ___,___,___,___,___,___,___,___
	FRQ         ___,___,___,___,An2,Cn5,Cn3,___ ;
	GTM         ___,___,___,___,___,___,003,___
	FRQ         An5,___,___,___,An3,En5,___,___ ;
	FRQ         ___,An5,___,___,An2,Gn5,Cn2,___ ;
	FRQ         ___,___,___,___,An3,En5,___,___ ;
	PIT         002,___,___,___,___,___,___,___
	PITRAT      000,___,___,___,___,___,___,___
	PITDEP      255,___,___,___,___,___,___,___
	GTM         ___,___,___,___,___,___,255,___
	DEL         ___,___,___,___,___,___,___,___
	FRQ         Gn5,___,___,___,An2,Cn5,Cn3,___ ;
	GTM         ___,___,___,___,___,___,003,___
	PIT         ___,002,___,___,___,___,___,___
	PITRAT      ___,000,___,___,___,___,___,___
	PITDEP      ___,255,___,___,___,___,___,___
	FRQ         ___,Gn5,___,___,An2,An4,___,___ ;
	FRQ         En5,___,___,___,An2,___,Cn2,___ ;
	FRQ         ___,En5,___,___,An3,An4,___,___ ;
	GTM         ___,___,___,___,___,___,255,___
	DEL         ___,___,___,___,___,___,___,___
	FRQ         ___,___,___,___,An2,Cn5,Cn3,___ ;
	GTM         ___,___,___,___,___,___,003,___
	FRQ         Dn5,___,___,___,An2,En5,___,___ ;
	FRQ         ___,Dn5,___,___,An2,Gn5,Cn2,___ ;
	FRQ         ___,___,___,___,An3,En5,___,___ ;
	GTM         ___,___,___,___,___,___,255,___
	DEL         ___,___,___,___,___,___,___,___
	FRQ         En5,___,___,___,An2,Cn5,Cn3,___ ;
	GTM         ___,___,___,___,___,___,003,___
	DEL         ___,___,___,___,___,___,___,___
	FRQ         ___,En5,___,___,An2,An4,Gn2,___ ;
	FRQ         Fn5,___,Fn4,Dn4,Fn2,Fn4,Cn2,___ ;
	FRQ         En5,Fn5,En4,Dn4,Fn2,An4,___,___ ;
	DEL         ___,___,___,___,___,___,___,___
	FRQ         Fn5,En5,Fn4,Dn4,An2,En5,Cn3,___ ;
	FRQ         Fn5,Fn5,Fn4,Dn4,Cn3,Dn5,___,___ ;
	FRQ         ___,Fn5,___,___,Dn3,___,Cn2,___ ;
	FRQ         En5,___,En4,Dn4,Dn3,Cn5,___,___ ;
	DEL         ___,___,___,___,___,___,___,___
	FRQ         Fn5,En5,Fn4,Dn4,Cn3,Bn4,Cn3,___ ;
	FRQ         ___,Fn5,___,___,Bn2,Cn5,___,___ ;
	FRQ         Gn5,Gn5,Gn4,En4,Gn2,Cn5,Cn2,___ ;
	FRQ         Gn4,En4,Gn3,En3,Gn2,Bn4,___,___ ;
	GTM         ___,___,___,___,___,___,255,___
	DEL         ___,___,___,___,___,___,___,___
	FRQ         An4,Fn4,An3,Fn3,Bn2,Gn4,Cn3,___ ;
	DEL         ___,___,___,___,___,___,___,___
	FRQ         Bn4,Gn4,Bn3,Gn3,Gn3,Cn5,Cn3,___ ;
	VOL         ___,___,___,___,___,___,255,___
	FRQ         Cn5,An4,Cn3,An3,Dn2,Bn4,En3,___ ;
	VOL         ___,___,___,___,___,___,248,___
	FRQ         Dn5,Bn4,Dn3,Bn3,Dn2,Gn4,En3,___ ;
	VOL         ___,___,___,___,___,___,255,___
	DEL         ___,___,___,___,___,___,___,___
	FRQ         En5,Cn5,En4,Cn4,En2,Cn5,Cn3,___ ;
	DEL         ___,___,___,___,___,___,___,___
	FRQ         Fn5,Dn5,Fn4,Dn4,Fn2,Gn4,Gn2,___ ;
	GTM         ___,___,___,___,___,___,003,___
	INS         006,006,006,006,___,___,___,___
	VOL         245,230,230,230,___,___,___,___
	LFO         ___,255,___,255,___,___,___,___
	FRQ         Cn3,Gn3,Cn4,En4,Cn3,Gn4,Cn2,___ ;
	FRQ         ___,___,Cn4,___,Cn3,Cn5,Cn2,___ ;
	GTM         ___,___,___,___,___,___,255,___
	DEL         ___,___,___,___,___,___,___,___
	FRQ         ___,___,___,En4,Cn3,En5,Cn3,___ ;
	GTM         ___,___,___,___,___,___,003,___
	FRQ         ___,Gn4,___,___,Cn2,Cn5,___,___ ;
	FRQ         ___,___,Cn5,___,Cn3,En5,Cn2,___ ;
	FRQ         ___,___,___,En5,Cn3,Fn5,Cn2,___ ;
	GTM         ___,___,___,___,___,___,255,___
	DEL         ___,___,___,___,___,___,___,___
	FRQ         ___,Gn5,___,___,Cn3,En5,Cn3,___ ;
	GTM         ___,___,___,___,___,___,003,___
	FRQ         ___,___,Cn6,___,Cn4,Cn5,Cn2,___ ;
	FRQ         ___,___,___,En6,Cn3,Gn4,Cn2,___ ;
	FRQ         ___,___,Cn6,___,Cn3,Cn5,Cn2,___ ;
	GTM         ___,___,___,___,___,___,255,___
	DEL         ___,___,___,___,___,___,___,___
	FRQ         ___,Gn5,___,___,Cn2,En5,Cn3,___ ;
	GTM         ___,___,___,___,___,___,003,___
	FRQ         ___,___,___,En5,Cn2,Cn5,___,___ ;
	FRQ         ___,___,Cn5,___,Cn3,En5,Cn2,___ ;
	FRQ         ___,Gn4,___,___,Cn4,Fn5,Cn2,___ ;
	GTM         ___,___,___,___,___,___,255,___
	DEL         ___,___,___,___,___,___,___,___
	FRQ         ___,___,___,En4,Gn3,En5,Cn3,___ ;
	GTM         ___,___,___,___,___,___,003,___
	FRQ         ___,___,Cn4,___,Cn3,Cn5,___,___ ;
	FRQ         As2,As3,Dn4,An4,As2,Gn4,Cn2,___ ;
	FRQ         ___,___,Dn4,___,As3,Cn5,Cn2,___ ;
	GTM         ___,___,___,___,___,___,255,___
	DEL         ___,___,___,___,___,___,___,___
	FRQ         ___,___,___,An4,Fn2,En5,Cn3,___ ;
	GTM         ___,___,___,___,___,___,003,___
	FRQ         ___,As4,___,___,Fn2,Cn5,___,___ ;
	FRQ         ___,___,Dn5,___,As2,En5,Cn2,___ ;
	FRQ         ___,___,___,An5,As3,Fn5,Cn2,___ ;
	GTM         ___,___,___,___,___,___,255,___
	DEL         ___,___,___,___,___,___,___,___
	FRQ         ___,As5,___,___,As2,En5,Cn3,___ ;
	GTM         ___,___,___,___,___,___,003,___
	FRQ         ___,___,Dn6,___,As3,Cn5,Cn2,___ ;
	FRQ         ___,___,___,An6,As2,Gn4,Cn2,___ ;
	FRQ         ___,___,Dn6,___,As3,Cn5,Cn2,___ ;
	GTM         ___,___,___,___,___,___,255,___
	DEL         ___,___,___,___,___,___,___,___
	FRQ         ___,As5,___,___,Fn2,En5,Cn3,___ ;
	GTM         ___,___,___,___,___,___,003,___
	FRQ         ___,___,___,An5,Fn2,Cn5,___,___ ;
	FRQ         ___,___,Dn5,___,As2,En5,Cn2,___ ;
	FRQ         ___,As4,___,___,An3,Fn5,Cn2,___ ;
	GTM         ___,___,___,___,___,___,255,___
	DEL         ___,___,___,___,___,___,___,___
	FRQ         ___,___,___,An4,Gn3,En5,Cn3,___ ;
	GTM         ___,___,___,___,___,___,003,___
	FRQ         ___,___,Dn4,___,Fn3,Cn5,___,___ ;
	FRQ         An2,An3,Cn4,En4,An2,___,Cn2,___ ;
	FRQ         ___,___,Cn4,___,An2,An4,Cn2,___ ;
	GTM         ___,___,___,___,___,___,255,___
	DEL         ___,___,___,___,___,___,___,___
	FRQ         ___,___,___,En4,An2,Cn5,Cn3,___ ;
	GTM         ___,___,___,___,___,___,003,___
	FRQ         ___,An4,___,___,An3,En5,___,___ ;
	FRQ         ___,___,Cn5,___,An2,Gn5,Cn2,___ ;
	FRQ         ___,___,___,En5,An3,En5,Cn2,___ ;
	GTM         ___,___,___,___,___,___,255,___
	DEL         ___,___,___,___,___,___,___,___
	FRQ         ___,An5,___,___,An2,Cn5,Cn3,___ ;
	GTM         ___,___,___,___,___,___,003,___
	FRQ         ___,___,Cn6,___,An2,An4,Cn2,___ ;
	FRQ         ___,___,___,En6,An2,___,Cn2,___ ;
	FRQ         ___,___,Cn6,___,An3,An4,Cn2,___ ;
	GTM         ___,___,___,___,___,___,255,___
	DEL         ___,___,___,___,___,___,___,___
	FRQ         ___,An5,___,___,An2,Cn5,Cn3,___ ;
	GTM         ___,___,___,___,___,___,003,___
	FRQ         ___,___,___,En5,An2,En5,___,___ ;
	FRQ         ___,___,Cn5,___,An2,Gn5,Cn2,___ ;
	FRQ         ___,An4,___,___,An3,En5,Cn2,___ ;
	GTM         ___,___,___,___,___,___,255,___
	DEL         ___,___,___,___,___,___,___,___
	FRQ         ___,___,___,En4,An2,Cn5,Cn3,___ ;
	GTM         ___,___,___,___,___,___,003,___
	FRQ         ___,___,Cn4,___,An2,An4,___,___ ;
	FRQ         Fn2,An3,Cn4,En4,Fn2,Fn4,Cn2,___ ;
	FRQ         ___,Fn4,___,___,Fn2,An4,Cn2,___ ;
	GTM         ___,___,___,___,___,___,255,___
	DEL         ___,___,___,___,___,___,___,___
	FRQ         ___,___,An4,___,An2,En5,Cn3,___ ;
	GTM         ___,___,___,___,___,___,003,___
	FRQ         ___,___,___,Cn5,Cn3,Dn5,___,___ ;
	FRQ         ___,En5,___,___,Dn3,___,Cn2,___ ;
	FRQ         ___,___,Fn5,___,Dn3,Cn5,Cn2,___ ;
	GTM         ___,___,___,___,___,___,255,___
	DEL         ___,___,___,___,___,___,___,___
	FRQ         ___,___,___,An5,Cn3,Bn4,Cn3,___ ;
	GTM         ___,___,___,___,___,___,003,___
	FRQ         ___,Cn6,___,___,Bn2,Cn5,Cn2,___ ;
	FRQ         Gn2,Gn3,Bn3,Dn4,Gn2,Cn5,Cn2,___ ;
	FRQ         ___,Gn4,___,___,Gn2,Bn4,Cn2,___ ;
	GTM         ___,___,___,___,___,___,255,___
	DEL         ___,___,___,___,___,___,___,___
	FRQ         ___,___,Bn4,___,Bn2,Gn4,Cn3,___ ;
	GTM         ___,___,___,___,___,___,003,___
	FRQ         ___,___,___,Dn4,Gn3,Cn5,___,___ ;
	GTM         ___,___,___,___,___,___,255,___
	DEL         ___,___,___,___,___,___,___,___
	FRQ         ___,Gn5,___,___,Dn2,Bn4,Cn3,___ ;
	FRQ         ___,___,Bn5,___,Dn2,Gn4,Cn2,___ ;
	DEL         ___,___,___,___,___,___,___,___
	FRQ         ___,___,___,Dn5,En2,Cn5,Cn3,___ ;
	FRQ         ___,Gn6,___,___,Fn2,Gn4,Cn2,___ ;
	GTM         ___,___,___,___,___,___,003,___
	INS         008,008,008,008,___,___,___,___
	VOL         231,220,230,230,___,___,___,___
	LFO         ___,001,___,001,___,___,___,___
	FRQ         En5,En5,Q__,Q__,Cn3,Gn4,Cn2,___ ;
	PAN         ___,___,L__,___,___,___,___,___
	FRQ         ___,___,En5,Cn5,Cn3,Cn5,___,___ ;
	GTM         ___,___,___,___,___,___,255,___
	DEL         ___,___,___,___,___,___,___,___
	PAN         ___,___,_C_,___,___,___,___,___
	FRQ         ___,En5,Gn4,___,Cn3,En5,Cn3,___ ;
	GTM         ___,___,___,___,___,___,003,___
	FRQ         ___,___,Q__,Q__,Cn2,Cn5,___,___ ;
	PAN         ___,___,__R,___,___,___,___,___
	FRQ         ___,___,En5,Cn5,Cn3,En5,Cn2,___ ;
	PAN         ___,___,_C_,___,___,___,___,___
	FRQ         ___,___,Gn4,___,Cn3,Fn5,___,___ ;
	GTM         ___,___,___,___,___,___,255,___
	DEL         ___,___,___,___,___,___,___,___
	FRQ         ___,___,Q__,Q__,Cn3,En5,Cn3,___ ;
	GTM         ___,___,___,___,___,___,003,___
	PAN         ___,___,L__,___,___,___,___,___
	FRQ         ___,___,En5,Cn5,Cn4,Cn5,___,___ ;
	FRQ         ___,___,Q__,Q__,Cn3,Gn4,Cn2,___ ;
	PAN         ___,___,_C_,___,___,___,___,___
	FRQ         ___,___,En5,Cn5,Cn3,Cn5,___,___ ;
	GTM         ___,___,___,___,___,___,255,___
	DEL         ___,___,___,___,___,___,___,___
	PAN         ___,___,__R,___,___,___,___,___
	FRQ         ___,___,Gn4,___,Cn2,En5,Cn3,___ ;
	GTM         ___,___,___,___,___,___,003,___
	FRQ         ___,___,Q__,Q__,Cn2,Cn5,___,___ ;
	PAN         ___,___,_C_,___,___,___,___,___
	FRQ         ___,___,En5,Cn5,Cn3,En5,Cn2,___ ;
	PAN         ___,___,L__,___,___,___,___,___
	FRQ         ___,___,Gn4,___,Cn4,Fn5,___,___ ;
	GTM         ___,___,___,___,___,___,255,___
	VOL         ___,___,___,___,___,___,255,___
	FRQ         ___,___,Q__,Q__,Gn3,En5,Cn3,___ ;
	PAN         ___,___,_C_,___,___,___,___,___
	VOL         ___,___,___,___,___,___,248,___
	FRQ         ___,___,En5,Cn5,Cn3,Cn5,Cn3,___ ;
	GTM         ___,___,___,___,___,___,003,___
	VOL         ___,___,___,___,___,___,255,___
	FRQ         Dn5,___,Q__,Q__,As2,Gn4,Cn2,___ ;
	PAN         ___,___,__R,___,___,___,___,___
	FRQ         ___,___,Fn5,Dn5,As3,Cn5,___,___ ;
	GTM         ___,___,___,___,___,___,255,___
	DEL         ___,___,___,___,___,___,___,___
	PAN         ___,___,_C_,___,___,___,___,___
	FRQ         ___,Dn5,As4,___,Fn2,En5,Cn3,___ ;
	GTM         ___,___,___,___,___,___,003,___
	FRQ         ___,___,Q__,Q__,Fn2,Cn5,___,___ ;
	PAN         ___,___,L__,___,___,___,___,___
	FRQ         ___,___,Fn5,Dn5,As2,En5,Cn2,___ ;
	PAN         ___,___,_C_,___,___,___,___,___
	FRQ         ___,___,As4,___,As3,Fn5,___,___ ;
	GTM         ___,___,___,___,___,___,255,___
	DEL         ___,___,___,___,___,___,___,___
	FRQ         ___,___,Q__,Q__,As2,En5,Cn3,___ ;
	GTM         ___,___,___,___,___,___,003,___
	PAN         ___,___,__R,___,___,___,___,___
	FRQ         ___,___,Fn5,Dn5,As3,Cn5,___,___ ;
	FRQ         ___,___,Q__,Q__,As2,Gn4,Cn2,___ ;
	PAN         ___,___,_C_,___,___,___,___,___
	FRQ         ___,___,Fn5,Dn5,As3,Cn5,___,___ ;
	GTM         ___,___,___,___,___,___,255,___
	DEL         ___,___,___,___,___,___,___,___
	PAN         ___,___,L__,___,___,___,___,___
	FRQ         ___,___,As4,___,Fn2,En5,Cn3,___ ;
	GTM         ___,___,___,___,___,___,003,___
	FRQ         ___,___,Q__,Q__,Fn2,Cn5,___,___ ;
	PAN         ___,___,_C_,___,___,___,___,___
	FRQ         ___,___,Fn5,Dn5,As2,En5,Cn2,___ ;
	PAN         ___,___,__R,___,___,___,___,___
	FRQ         ___,___,As4,___,An3,Fn5,___,___ ;
	GTM         ___,___,___,___,___,___,255,___
	VOL         ___,___,___,___,___,___,255,___
	FRQ         ___,___,Q__,Q__,Gn3,En5,Cn3,___ ;
	PAN         ___,___,_C_,___,___,___,___,___
	VOL         ___,___,___,___,___,___,248,___
	FRQ         ___,___,Fn5,Dn5,Fn3,Cn5,Cn3,___ ;
	GTM         ___,___,___,___,___,___,003,___
	VOL         ___,___,___,___,___,___,255,___
	FRQ         Cn5,___,Q__,Q__,An2,___,Cn2,___ ;
	PAN         ___,___,L__,___,___,___,___,___
	FRQ         ___,___,En5,Cn5,An2,An4,___,___ ;
	GTM         ___,___,___,___,___,___,255,___
	DEL         ___,___,___,___,___,___,___,___
	PAN         ___,___,_C_,___,___,___,___,___
	FRQ         ___,Cn5,An4,___,An2,Cn5,Cn3,___ ;
	GTM         ___,___,___,___,___,___,003,___
	FRQ         ___,___,Q__,Q__,An3,En5,___,___ ;
	PAN         ___,___,__R,___,___,___,___,___
	FRQ         ___,___,En5,Cn5,An2,Gn5,Cn2,___ ;
	PAN         ___,___,_C_,___,___,___,___,___
	FRQ         ___,___,An4,___,An3,En5,___,___ ;
	GTM         ___,___,___,___,___,___,255,___
	DEL         ___,___,___,___,___,___,___,___
	FRQ         ___,___,Q__,Q__,An2,Cn5,Cn3,___ ;
	GTM         ___,___,___,___,___,___,003,___
	PAN         ___,___,L__,___,___,___,___,___
	FRQ         ___,___,En5,Cn5,An2,An4,___,___ ;
	FRQ         ___,___,Q__,Q__,An2,___,Cn2,___ ;
	PAN         ___,___,_C_,___,___,___,___,___
	FRQ         ___,___,En5,Cn5,An3,An4,___,___ ;
	GTM         ___,___,___,___,___,___,255,___
	DEL         ___,___,___,___,___,___,___,___
	PAN         ___,___,__R,___,___,___,___,___
	FRQ         ___,___,An4,___,An2,Cn5,Cn3,___ ;
	GTM         ___,___,___,___,___,___,003,___
	FRQ         ___,___,Q__,Q__,An2,En5,___,___ ;
	PAN         ___,___,_C_,___,___,___,___,___
	FRQ         ___,___,En5,Cn5,An2,Gn5,Cn2,___ ;
	PAN         ___,___,L__,___,___,___,___,___
	FRQ         ___,___,An4,___,An3,En5,___,___ ;
	GTM         ___,___,___,___,___,___,255,___
	VOL         ___,___,___,___,___,___,255,___
	FRQ         ___,___,Q__,Q__,An2,Cn5,Cn3,___ ;
	PAN         ___,___,_C_,___,___,___,___,___
	VOL         ___,___,___,___,___,___,248,___
	FRQ         ___,___,En5,Cn5,An2,An4,Cn3,___ ;
	GTM         ___,___,___,___,___,___,003,___
	INS         ___,___,008,008,___,___,___,___
	PAN         ___,L__,___,__R,___,___,___,___
	VOL         230,218,230,218,___,___,___,___
	VOL         ___,___,___,___,___,___,255,___
	FRQ         En5,___,Cn5,___,Fn2,Fn4,Cn2,___ ;
	FRQ         ___,___,___,___,Fn2,An4,___,___ ;
	GTM         ___,___,___,___,___,___,255,___
	DEL         ___,___,___,___,___,___,___,___
	FRQ         ___,En5,___,Cn5,An2,En5,Cn3,___ ;
	GTM         ___,___,___,___,___,___,003,___
	FRQ         Dn5,___,Bn4,___,Cn3,Dn5,___,___ ;
	FRQ         ___,___,___,___,Dn3,___,Cn2,___ ;
	FRQ         ___,Dn5,___,Bn4,Dn3,Cn5,___,___ ;
	GTM         ___,___,___,___,___,___,255,___
	DEL         ___,___,___,___,___,___,___,___
	FRQ         Cn5,___,An4,___,Cn3,Bn4,Gn2,___ ;
	GTM         ___,___,___,___,___,___,003,___
	FRQ         ___,___,___,___,Bn2,Cn5,___,___ ;
	FRQ         Dn5,Cn5,Bn4,An4,Gn2,Cn5,Cn2,___ ;
	FRQ         ___,___,___,___,Gn2,Bn4,___,___ ;
	GTM         ___,___,___,___,___,___,255,___
	DEL         ___,___,___,___,___,___,___,___
	FRQ         ___,Dn5,___,Bn4,Bn2,Gn4,Cn3,___ ;
	GTM         ___,___,___,___,___,___,003,___
	FRQ         Cn5,___,An4,___,Gn3,Cn5,___,___ ;
	FRQ         ___,___,___,___,Dn2,Bn4,Cn2,___ ;
	GTM         ___,___,___,___,___,___,255,___
	VOL         ___,___,___,___,___,___,255,___
	FRQ         ___,Cn5,___,An4,Dn2,Gn4,Cn3,___ ;
	VOL         ___,___,___,___,___,___,248,___
	FRQ         Dn5,___,Bn4,___,En2,Cn5,Cn3,___ ;
	DEL         ___,___,___,___,___,___,___,___
	VOL         ___,___,___,___,___,___,255,___
	FRQ         ___,___,___,___,Fn2,Gn4,Cn3,___ ;
	GTM         ___,___,___,___,___,___,003,___
	INS         028,028,028,028,___,___,___,___
	VOL         240,240,240,240,___,___,___,___
	LFO         ___,___,___,___,___,___,___,___
	PAN         L__,__R,_C_,_C_,___,___,___,___
	FRQ         Cn5,Gn5,___,___,Cn3,Gn4,Cn2,___ ;
	FRQ         ___,___,Cn4,Fn4,Cn3,Cn5,___,___ ;
	GTM         ___,___,___,___,___,___,255,___
	DEL         ___,___,___,___,___,___,___,___
	FRQ         Cn5,En5,___,___,Cn3,En5,Cn3,___ ;
	GTM         ___,___,___,___,___,___,003,___
	FRQ         ___,___,Cn4,Fn4,Cn2,Cn5,___,___ ;
	FRQ         Cn5,Gn5,___,___,Cn3,En5,Cn2,___ ;
	FRQ         ___,___,Cn4,Dn4,Cn3,Fn5,___,___ ;
	GTM         ___,___,___,___,___,___,255,___
	VOL         ___,___,___,___,___,___,248,___
	FRQ         Cn5,En5,___,___,Cn3,En5,Cn3,___ ;
	VOL         ___,___,___,___,___,___,255,___
	FRQ         ___,___,Cn4,Gn4,Cn4,Cn5,Cn3,___ ;
	GTM         ___,___,___,___,___,___,003,___
	VOL         ___,___,___,___,___,___,255,___
	FRQ         Cn5,Gn5,___,___,Cn3,Gn4,Cn2,___ ;
	FRQ         ___,___,Cn4,Gn4,Cn3,Cn5,___,___ ;
	GTM         ___,___,___,___,___,___,255,___
	DEL         ___,___,___,___,___,___,___,___
	FRQ         Cn5,En5,___,___,Cn2,En5,Cn3,___ ;
	GTM         ___,___,___,___,___,___,003,___
	FRQ         ___,___,Cn5,En5,Cn2,Cn5,___,___ ;
	FRQ         Cn5,Fn5,___,___,Cn3,En5,Cn2,___ ;
	FRQ         ___,___,Cn4,Fn4,Cn4,Fn5,___,___ ;
	GTM         ___,___,___,___,___,___,255,___
	DEL         ___,___,___,___,___,___,___,___
	FRQ         Cn5,Dn5,___,___,Gn3,En5,Cn3,___ ;
	GTM         ___,___,___,___,___,___,003,___
	FRQ         ___,___,Cn5,En5,Cn3,Cn5,___,___ ;
	FRQ         Dn5,Fn5,___,___,As2,Gn4,Cn2,___ ;
	FRQ         ___,___,Cn5,En5,As3,Cn5,___,___ ;
	GTM         ___,___,___,___,___,___,255,___
	DEL         ___,___,___,___,___,___,___,___
	FRQ         ___,Fn4,___,___,Fn2,En5,Cn3,___ ;
	GTM         ___,___,___,___,___,___,003,___
	FRQ         ___,___,Dn5,Fn5,Fn2,Cn5,___,___ ;
	FRQ         Cn5,En5,___,___,As2,En5,Cn2,___ ;
	FRQ         ___,___,An4,___,As3,Fn5,___,___ ;
	GTM         ___,___,___,___,___,___,255,___
	VOL         ___,___,___,___,___,___,255,___
	FRQ         ___,Dn4,An4,___,As2,En5,Cn3,___ ;
	VOL         ___,___,___,___,___,___,248,___
	FRQ         ___,En4,___,___,As3,Cn5,Cn3,___ ;
	GTM         ___,___,___,___,___,___,003,___
	VOL         ___,___,___,___,___,___,255,___
	FRQ         Cn4,En4,An4,___,As2,Gn4,Cn2,___ ;
	FRQ         ___,___,Dn4,Fn4,As3,Cn5,___,___ ;
	GTM         ___,___,___,___,___,___,255,___
	DEL         ___,___,___,___,___,___,___,___
	FRQ         En4,Gn4,___,___,Fn2,En5,Cn3,___ ;
	GTM         ___,___,___,___,___,___,003,___
	FRQ         ___,___,Fn4,An4,Fn2,Cn5,___,___ ;
	FRQ         Gn4,Bn4,___,___,As2,En5,Cn2,___ ;
	FRQ         ___,___,An4,Cn5,An3,Fn5,___,___ ;
	GTM         ___,___,___,___,___,___,255,___
	DEL         ___,___,___,___,___,___,___,___
	FRQ         Bn4,Dn5,___,___,Gn3,En5,Cn3,___ ;
	GTM         ___,___,___,___,___,___,003,___
	FRQ         ___,___,Cn5,En5,Fn3,Cn5,___,___ ;
	FRQ         Q__,Q__,___,___,An2,___,Cn2,___ ;
	FRQ         Cn5,En5,___,___,An2,An4,___,___ ;
	GTM         ___,___,___,___,___,___,255,___
	DEL         ___,___,___,___,___,___,___,___
	FRQ         ___,___,Gn4,___,An2,Cn5,Cn3,___ ;
	GTM         ___,___,___,___,___,___,003,___
	FRQ         ___,___,___,___,An3,En5,___,___ ;
	FRQ         Cn5,En5,___,___,An2,Gn5,Cn2,___ ;
	FRQ         ___,___,Gn5,___,An3,En5,___,___ ;
	GTM         ___,___,___,___,___,___,255,___
	VOL         ___,___,___,___,___,___,248,___
	FRQ         ___,___,___,___,An2,Cn5,Cn3,___ ;
	VOL         ___,___,___,___,___,___,255,___
	FRQ         Cn5,En5,___,___,An2,An4,Cn3,___ ;
	GTM         ___,___,___,___,___,___,003,___
	VOL         ___,___,___,___,___,___,255,___
	FRQ         ___,___,___,___,An2,___,Cn2,___ ;
	FRQ         Cn5,En5,___,___,An3,An4,___,___ ;
	GTM         ___,___,___,___,___,___,255,___
	DEL         ___,___,___,___,___,___,___,___
	FRQ         ___,___,Gn4,Gn4,An2,Cn5,Cn3,___ ;
	GTM         ___,___,___,___,___,___,003,___
	FRQ         ___,___,___,Gn5,An2,En5,___,___ ;
	FRQ         Cn5,En5,___,Gn5,An2,Gn5,Cn2,___ ;
	FRQ         ___,___,Gn4,___,An3,En5,___,___ ;
	GTM         ___,___,___,___,___,___,255,___
	DEL         ___,___,___,___,___,___,___,___
	FRQ         Cn5,En5,___,Gn5,An2,Cn5,Cn3,___ ;
	GTM         ___,___,___,___,___,___,003,___
	FRQ         ___,___,___,___,An2,An4,___,___ ;
	FRQ         Cn5,En5,___,___,Fn2,Fn4,Cn2,___ ;
	FRQ         ___,___,Fn4,Gn5,Fn2,An4,___,___ ;
	GTM         ___,___,___,___,___,___,255,___
	DEL         ___,___,___,___,___,___,___,___
	FRQ         ___,___,___,An4,An2,En5,Cn3,___ ;
	GTM         ___,___,___,___,___,___,003,___
	FRQ         Cn5,En5,___,___,Cn3,Dn5,___,___ ;
	FRQ         ___,___,Fn4,___,Dn3,___,Cn2,___ ;
	FRQ         ___,___,___,An4,Dn3,Cn5,___,___ ;
	GTM         ___,___,___,___,___,___,255,___
	DEL         ___,___,___,___,___,___,___,___
	FRQ         Cn5,En5,___,___,Cn3,Bn4,Gn2,___ ;
	DEL         ___,___,___,___,___,___,___,___
	FRQ         ___,___,Fn4,___,Bn2,Cn5,Cn3,___ ;
	GTM         ___,___,___,___,___,___,003,___
	FRQ         Gn4,Bn4,An4,Dn5,Gn2,Cn5,Cn2,___ ;
	FRQ         ___,___,Fn4,___,Gn2,Bn4,___,___ ;
	GTM         ___,___,___,___,___,___,255,___
	DEL         ___,___,___,___,___,___,___,___
	FRQ         ___,Bn4,___,___,Bn2,Gn4,Cn3,___ ;
	GTM         ___,___,___,___,___,___,003,___
	FRQ         ___,___,___,Dn5,Gn3,Cn5,___,___ ;
	FRQ         Fn5,___,Fn4,___,Dn2,Bn4,Cn2,___ ;
	GTM         ___,___,___,___,___,___,255,___
	VOL         ___,___,___,___,___,___,255,___
	FRQ         ___,___,Gn5,___,Dn2,Gn4,En3,___ ;
	VOL         ___,___,___,___,___,___,248,___
	FRQ         ___,Bn5,___,Dn5,En2,Cn5,Cn3,___ ;
	DEL         ___,___,___,___,___,___,___,___
	VOL         ___,___,___,___,___,___,255,___
	FRQ         ___,___,___,Bn5,Fn2,Gn4,Gn2,___ ;
	GTM         ___,___,___,___,___,___,003,___
	INS         009,009,009,009,___,___,___,___
	VOL         230,215,230,215,___,___,___,___
	LFO         ___,001,___,001,___,___,___,___
	PAN         ___,__R,___,L__,___,___,___,___
	FRQ         En5,___,Cn5,___,An2,En4,Cn2,___ ;
	FRQ         ___,___,___,___,An2,___,Cn2,___ ;
	GTM         ___,___,___,___,___,___,255,___
	DEL         ___,___,___,___,___,___,___,___
	FRQ         ___,En5,___,Cn5,An3,___,Cn3,___ ;
	GTM         ___,___,___,___,___,___,003,___
	FRQ         ___,___,___,___,An2,___,___,___ ;
	FRQ         Dn5,___,Bn4,___,An2,Dn4,Cn2,___ ;
	FRQ         ___,___,___,___,An3,___,___,___ ;
	GTM         ___,___,___,___,___,___,255,___
	DEL         ___,___,___,___,___,___,___,___
	FRQ         ___,Dn5,___,Bn4,En2,___,Cn3,___ ;
	GTM         ___,___,___,___,___,___,003,___
	FRQ         ___,___,___,___,Gn2,___,Cn2,___ ;
	FRQ         Cn5,___,An4,___,An2,Cn4,Cn2,___ ;
	FRQ         ___,___,___,___,An2,___,Cn2,___ ;
	GTM         ___,___,___,___,___,___,255,___
	DEL         ___,___,___,___,___,___,___,___
	FRQ         ___,Cn5,___,An4,___,___,Cn3,___ ;
	GTM         ___,___,___,___,___,___,003,___
	FRQ         ___,___,___,___,An3,___,___,___ ;
	FRQ         Dn5,___,Bn4,___,An2,Dn4,Cn2,___ ;
	FRQ         ___,___,___,___,An3,___,___,___ ;
	GTM         ___,___,___,___,___,___,255,___
	DEL         ___,___,___,___,___,___,___,___
	FRQ         En5,Dn5,Cn5,Bn4,An2,En4,Cn3,___ ;
	GTM         ___,___,___,___,___,___,003,___
	FRQ         ___,___,___,___,An3,___,Cn2,___ ;
	FRQ         ___,En5,___,Cn5,An2,___,Cn2,___ ;
	FRQ         En4,___,An4,___,An3,En3,Cn2,___ ;
	GTM         ___,___,___,___,___,___,255,___
	DEL         ___,___,___,___,___,___,___,___
	FRQ         ___,___,___,___,An2,___,Cn3,___ ;
	GTM         ___,___,___,___,___,___,003,___
	FRQ         ___,En4,___,An4,An2,___,___,___ ;
	FRQ         ___,___,___,___,An3,___,Cn2,___ ;
	FRQ         ___,___,___,___,An2,___,___,___ ;
	GTM         ___,___,___,___,___,___,255,___
	DEL         ___,___,___,___,___,___,___,___
	FRQ         ___,___,___,___,An2,___,Cn3,___ ;
	GTM         ___,___,___,___,___,___,003,___
	FRQ         ___,___,___,___,An3,___,Cn2,___ ;
	FRQ         ___,___,___,___,An2,___,Cn2,___ ;
	FRQ         ___,___,___,___,An2,___,Cn2,___ ;
	GTM         ___,___,___,___,___,___,255,___
	DEL         ___,___,___,___,___,___,___,___
	FRQ         ___,___,___,___,En2,___,Cn3,___ ;
	GTM         ___,___,___,___,___,___,003,___
	FRQ         ___,___,___,___,Gn2,___,___,___ ;
	FRQ         ___,___,___,___,An2,___,Cn2,___ ;
	FRQ         ___,___,___,___,An2,___,Cn2,___ ;
	GTM         ___,___,___,___,___,___,255,___
	DEL         ___,___,___,___,___,___,___,___
	FRQ         ___,___,___,___,An2,___,Cn3,___ ;
	GTM         ___,___,___,___,___,___,003,___
	FRQ         ___,___,___,___,An3,___,Cn2,___ ;
	FRQ         ___,___,___,___,An2,___,Cn2,___ ;
	FRQ         En6,___,Cn6,___,An2,En5,Cn2,___ ;
	GTM         ___,___,___,___,___,___,255,___
	DEL         ___,___,___,___,___,___,___,___
	FRQ         Cn6,___,An5,___,An3,___,Cn3,___ ;
	GTM         ___,___,___,___,___,___,003,___
	FRQ         An5,En6,En5,Cn6,An2,___,___,___ ;
	FRQ         Dn6,Cn6,Bn5,An5,An2,Dn5,Cn2,___ ;
	FRQ         Bn5,An5,Gn5,En5,An2,___,___,___ ;
	GTM         ___,___,___,___,___,___,255,___
	DEL         ___,___,___,___,___,___,___,___
	FRQ         Gn5,Dn6,Dn5,Bn5,An2,___,Cn3,___ ;
	GTM         ___,___,___,___,___,___,003,___
	FRQ         Dn5,Bn5,Bn4,Gn5,An2,___,Cn2,___ ;
	FRQ         En5,Gn5,An4,Dn5,An2,En4,Cn2,___ ;
	FRQ         Q__,Dn5,Q__,Bn4,An2,___,Cn2,___ ;
	GTM         ___,___,___,___,___,___,255,___
	DEL         ___,___,___,___,___,___,___,___
	FRQ         Cn6,En5,An5,An4,An2,Cn5,Cn3,___ ;
	GTM         ___,___,___,___,___,___,003,___
	FRQ         An5,Q__,En5,Q__,An2,___,___,___ ;
	FRQ         En5,Cn6,Cn5,An5,An2,___,Cn2,___ ;
	FRQ         Bn5,An5,Gn5,En5,An3,Bn4,___,___ ;
	GTM         ___,___,___,___,___,___,255,___
	DEL         ___,___,___,___,___,___,___,___
	FRQ         Gn5,En5,Dn5,Cn5,An2,___,Cn3,___ ;
	GTM         ___,___,___,___,___,___,003,___
	FRQ         ___,Bn5,___,Gn5,An3,___,Cn2,___ ;
	FRQ         Dn5,Gn5,Bn4,Dn5,Gn2,Dn4,Cn2,___ ;
	FRQ         ___,___,___,___,Gn2,___,___,___ ;
	GTM         ___,___,___,___,___,___,255,___
	DEL         ___,___,___,___,___,___,___,___
	FRQ         ___,Dn5,___,Bn4,Gn3,___,Cn3,___ ;
	GTM         ___,___,___,___,___,___,003,___
	FRQ         ___,___,___,___,Gn2,___,___,___ ;
	FRQ         ___,___,___,___,Gn2,___,Cn2,___ ;
	FRQ         ___,___,___,___,Gn3,___,___,___ ;
	GTM         ___,___,___,___,___,___,255,___
	DEL         ___,___,___,___,___,___,___,___
	FRQ         ___,___,___,___,Gn2,___,Cn3,___ ;
	GTM         ___,___,___,___,___,___,003,___
	FRQ         ___,___,___,___,Gn2,___,Cn2,___ ;
	FRQ         ___,___,___,___,Gn2,___,Cn2,___ ;
	FRQ         ___,___,___,___,Gn3,___,Cn2,___ ;
	GTM         ___,___,___,___,___,___,255,___
	DEL         ___,___,___,___,___,___,___,___
	FRQ         ___,___,___,___,Gn2,___,Cn3,___ ;
	GTM         ___,___,___,___,___,___,003,___
	FRQ         ___,___,___,___,Gn2,___,___,___ ;
	FRQ         ___,___,___,___,Gn2,___,Cn2,___ ;
	FRQ         ___,___,___,___,Gn2,___,Cn2,___ ;
	GTM         ___,___,___,___,___,___,255,___
	DEL         ___,___,___,___,___,___,___,___
	FRQ         ___,___,___,___,Fs2,___,Cn3,___ ;
	GTM         ___,___,___,___,___,___,003,___
	FRQ         ___,___,___,___,Gn2,___,Cn2,___ ;
	FRQ         Cn5,___,Fn5,___,Fn2,Cn4,Cn2,___ ;
	FRQ         ___,___,___,___,Fn3,___,Cn2,___ ;
	GTM         ___,___,___,___,___,___,255,___
	DEL         ___,___,___,___,___,___,___,___
	FRQ         ___,Cn5,___,Fn5,En3,___,Cn3,___ ;
	GTM         ___,___,___,___,___,___,003,___
	FRQ         ___,___,___,___,Fn3,___,___,___ ;
	FRQ         ___,___,Cn6,___,Fn2,___,Cn2,___ ;
	FRQ         ___,___,___,___,Fn3,___,___,___ ;
	GTM         ___,___,___,___,___,___,255,___
	DEL         ___,___,___,___,___,___,___,___
	FRQ         ___,___,___,Cn6,En3,___,Cn3,___ ;
	GTM         ___,___,___,___,___,___,003,___
	FRQ         ___,___,___,___,Fn3,___,Cn2,___ ;
	FRQ         Gn5,___,En5,___,Gn2,Gn4,Cn2,___ ;
	FRQ         ___,___,___,___,Gn3,___,Cn2,___ ;
	GTM         ___,___,___,___,___,___,255,___
	DEL         ___,___,___,___,___,___,___,___
	FRQ         ___,Gn5,___,En5,Fs3,___,Cn3,___ ;
	GTM         ___,___,___,___,___,___,003,___
	FRQ         ___,___,___,___,Gn3,___,___,___ ;
	FRQ         Cn6,___,___,___,Gn2,Cn5,Cn2,___ ;
	FRQ         ___,___,___,___,Gn3,___,___,___ ;
	GTM         ___,___,___,___,___,___,255,___
	DEL         ___,___,___,___,___,___,___,___
	FRQ         ___,Cn6,___,___,Fs3,___,Cn3,___ ;
	GTM         ___,___,___,___,___,___,003,___
	FRQ         ___,___,___,___,Gn3,___,Cn2,___ ;
	FRQ         Gs5,___,Fn5,___,Gs2,Gs4,Cn2,___ ;
	FRQ         ___,___,___,___,Gs3,___,Cn2,___ ;
	GTM         ___,___,___,___,___,___,255,___
	DEL         ___,___,___,___,___,___,___,___
	FRQ         ___,Gs5,___,Fn5,Gn3,___,Cn3,___ ;
	GTM         ___,___,___,___,___,___,003,___
	FRQ         ___,___,___,___,Gs3,___,___,___ ;
	FRQ         Ds5,___,___,___,Gs2,Ds4,Cn2,___ ;
	FRQ         ___,___,___,___,Gn3,___,___,___ ;
	GTM         ___,___,___,___,___,___,255,___
	DEL         ___,___,___,___,___,___,___,___
	FRQ         Gs5,Ds5,___,___,Gs3,Gs4,Cn3,___ ;
	GTM         ___,___,___,___,___,___,003,___
	FRQ         ___,___,___,___,Gs3,___,Cn2,___ ;
	FRQ         As5,Gs5,Gn5,___,As2,As4,Cn2,___ ;
	FRQ         ___,___,___,___,As3,___,Cn2,___ ;
	GTM         ___,___,___,___,___,___,255,___
	DEL         ___,___,___,___,___,___,___,___
	FRQ         ___,As5,___,Gn5,An3,___,Cn3,___ ;
	GTM         ___,___,___,___,___,___,003,___
	FRQ         ___,___,___,___,As3,___,___,___ ;
	FRQ         ___,___,___,___,As2,___,Cn2,___ ;
	FRQ         ___,___,___,___,An3,___,Cn2,___ ;
	GTM         ___,___,___,___,___,___,255,___
	DEL         ___,___,___,___,___,___,___,___
	FRQ         ___,___,___,___,As3,___,Cn3,___ ;
	GTM         ___,___,___,___,___,___,003,___
	FRQ         ___,___,___,___,As3,___,Cn2,___ ;
	SPEED       001
	GTM         ___,___,___,___,___,___,255,___
	DEL         ___,___,___,___,___,___,___,___
	FRQ         Cn5,Cn6,Fn5,Fn5,Cn3,Cn5,Cn3,___ ;
	DEL         ___,___,___,___,___,___,___,___
	FRQ         ___,___,___,___,___,___,Cn3,___ ;
	SPEED       008
	FRQ         ___,___,___,___,___,___,___,___ ;
	SPEED       001
	DEL         ___,___,___,___,___,___,___,___
	FRQ         Cn5,___,Fn5,___,Cn3,Cn5,Cn3,___ ;
	DEL         ___,___,___,___,___,___,___,___
	FRQ         ___,___,___,___,___,___,Cn3,___ ;
	SPEED       008
	FRQ         ___,___,___,___,___,___,___,___ ;
	SPEED       010
	FRQ         Q__,Q__,Q__,Q__,___,___,___,___ ;
	FRQ         ___,___,___,___,___,___,___,___ ;
	FRQ         ___,___,___,___,___,___,___,___ ;
	SPEED       001
	DEL         ___,___,___,___,___,___,___,___
	FRQ         Cn5,___,Cn4,___,Cn2,Cn6,Gn3,___ ;
	DEL         ___,___,___,___,___,___,___,___
	FRQ         ___,___,___,___,___,___,En3,___ ;
	SPEED       008
	FRQ         ___,___,___,___,___,___,___,___ ;
	SPEED       001
	DEL         ___,___,___,___,___,___,___,___
	FRQ         Cn5,___,Cn4,___,Cn2,Cn6,En3,___ ;
	DEL         ___,___,___,___,___,___,___,___
	FRQ         ___,___,___,___,___,___,Cn3,___ ;
	SPEED       008
	FRQ         ___,___,___,___,___,___,___,___ ;
	SPEED       001
	DEL         ___,___,___,___,___,___,___,___
	FRQ         Cn5,___,Cn4,___,Cn2,Cn6,Cn3,___ ;
	DEL         ___,___,___,___,___,___,___,___
	FRQ         ___,___,___,___,___,___,Gn2,___ ;
	SPEED       008
	FRQ         ___,___,___,___,___,___,___,___ ;
	SPEED       001
	DEL         ___,___,___,___,___,___,___,___
	FRQ         Cn5,Cn6,En5,En5,Cn3,Cn5,Cn3,___ ;
	DEL         ___,___,___,___,___,___,___,___
	FRQ         ___,___,___,___,___,___,Cn3,___ ;
	SPEED       003
	FRQ         ___,___,___,___,___,___,___,___ ;
	SPEED       005
	FRQ         ___,___,___,___,___,___,___,___ ;
	SPEED       001
	DEL         ___,___,___,___,___,___,___,___
	FRQ         Cn5,___,En5,___,Cn3,Cn5,Cn3,___ ;
	DEL         ___,___,___,___,___,___,___,___
	FRQ         ___,___,___,___,___,___,Cn3,___ ;
	SPEED       003
	FRQ         ___,___,___,___,___,___,___,___ ;
	SPEED       005
	FRQ         ___,___,___,___,___,___,___,___ ;
	FRQ         Q__,Q__,Q__,Q__,___,___,___,___ ;
	FRQ         ___,___,___,___,___,___,___,___ ;
	FRQ         ___,___,___,___,___,___,___,___ ;
	FRQ         ___,___,___,___,___,___,___,___ ;
	FRQ         ___,___,___,___,___,Cn4,___,___ ;
	FRQ         ___,___,___,___,___,___,___,___ ;
	SPEED       001
	DEL         ___,___,___,___,___,___,___,___
	FRQ         Cn5,___,Cn2,___,Cn2,Cn5,En3,___ ;
	DEL         ___,___,___,___,___,___,___,___
	FRQ         ___,___,___,___,___,___,En3,___ ;
	SPEED       003
	FRQ         ___,___,___,___,___,___,___,___ ;
	SPEED       005
	FRQ         ___,___,___,___,___,Cn5,___,___ ;
	SPEED       001
	DEL         ___,___,___,___,___,___,___,___
	FRQ         Cn5,___,Cn2,___,Cn2,Cn5,Cn3,___ ;
	DEL         ___,___,___,___,___,___,___,___
	FRQ         ___,___,___,___,___,___,Cn3,___ ;
	SPEED       003
	FRQ         ___,___,___,___,___,___,___,___ ;
	SPEED       001
	DEL         ___,___,___,___,___,___,___,___
	FRQ         Cn5,___,Cn2,___,Cn2,Cn4,Cn3,___ ;
	DEL         ___,___,___,___,___,___,___,___
	FRQ         ___,___,___,___,___,___,Cn3,___ ;
	SPEED       003
	FRQ         ___,___,___,___,___,___,___,___ ;
	SPEED       001
	DEL         ___,___,___,___,___,___,___,___
	FRQ         Cn5,___,Cn2,___,Cn2,Cn5,Gn2,___ ;
	DEL         ___,___,___,___,___,___,___,___
	FRQ         ___,___,___,___,___,___,Gn2,___ ;
	SPEED       003
	FRQ         ___,___,___,___,___,___,___,___ ;
	SPEED       005
	GTM         ___,___,___,___,___,___,003,___
	FRQ         Q__,Q__,Q__,Q__,___,Cn6,___,___ ;
	SPEED       010
	JUMP        song002_jmp000
.endproc
