	.include "song.inc"
	.segment "BANK0"
	.export area2
.proc area2
song004_start:
;	CHANNEL		___,___,003,___,007,___,008,___
	CHANNEL		001,002,003,004,007,005,009,006
	ENV			012,012,012,012,011,___,009,___
	TRS			___,___,___,___,___,___,040,___
	TEMPO       001
	TVOL        250
	SPEED       006
	PIT         ___,___,___,___,___,___,___,004
	PITRAT      ___,___,___,___,___,___,___,100
	PITDEP      ___,___,___,___,___,___,___,180
	GTM         ___,___,___,___,___,___,002,003
song004_jmp001:
	INS         022,022,022,022,017,005,038,001
	VOL         255,255,255,255,245,255,240,255
	LFO         ___,___,001,001,___,___,___,___
song004_rept000:
	PAN         __R,__R,___,___,___,___,___,___
	FRQ         En5,An5,En5,An5,___,An3,Cn7,___ ;
	PAN         _C_,_C_,___,___,___,___,___,___
	FRQ         En3,An3,Q__,Q__,___,An2,___,___ ;
	PAN         L__,L__,___,___,___,___,___,___
	FRQ         En3,An3,___,___,___,An2,___,___ ;
	PAN         __R,__R,___,___,___,___,___,___
	FRQ         En5,An5,___,___,___,An3,___,___ ;
	PAN         _C_,_C_,___,___,___,___,___,___
	FRQ         En3,An3,___,___,An4,An2,Cn7,Cn2 ;
	PAN         L__,L__,___,___,___,___,___,___
	FRQ         En3,An3,___,___,___,An2,___,___ ;
	PAN         __R,__R,___,___,___,___,___,___
	FRQ         En5,An5,En5,An5,___,An3,___,___ ;
	PAN         _C_,_C_,___,___,___,___,___,___
	FRQ         En3,An3,Q__,Q__,___,An2,___,___ ;
	REPT        002, song004_rept000
	LOOP        001, song004_loop000
	SPEED       003
	GTM         ___,___,___,___,___,___,___,255
	PAN         L__,L__,___,___,___,___,___,___
	FRQ         En5,An5,En5,An5,___,An3,Cn7,Cn3 ;
	FRQ         ___,___,___,___,___,___,___,Cn3 ;
	SPEED       006
	PAN         __R,__R,___,___,___,___,___,___
	FRQ         En3,An3,___,___,___,An2,___,An2 ;
	PAN         _C_,_C_,___,___,___,___,___,___
	FRQ         En3,An3,___,___,___,An2,___,An2 ;
	PAN         L__,L__,___,___,___,___,___,___
	FRQ         En5,An5,En5,An5,___,An3,___,An2 ;
	SPEED       003
	PAN         __R,__R,___,___,___,___,___,___
	FRQ         En3,An3,___,___,An5,An2,Cn7,En2 ;
	FRQ         ___,___,___,___,An5,___,___,En2 ;
	SPEED       006
	PAN         _C_,_C_,___,___,___,___,___,___
	FRQ         En3,An3,___,___,An5,An2,___,En2 ;
	GTM         ___,___,___,___,___,___,___,003
	PAN         L__,L__,___,___,___,___,___,___
	FRQ         En5,An5,En5,An5,An5,An3,___,Cn2 ;
	PAN         __R,__R,___,___,___,___,___,___
	FRQ         En3,An3,En3,An3,An5,An2,___,Cn2 ;
	JUMP        song004_rept000
song004_loop000:
	GTM         ___,___,___,___,___,___,___,255
	PAN         L__,L__,___,___,___,___,___,___
	FRQ         En5,An5,En5,An5,___,An3,Cn7,Cn3 ;
	PAN         __R,__R,___,___,___,___,___,___
	FRQ         En3,An3,En3,An3,___,An2,___,Cn3 ;
	PAN         _C_,_C_,___,___,___,___,___,___
	FRQ         En3,An3,En3,An3,___,An2,___,An2 ;
	PAN         L__,L__,___,___,___,___,___,___
	FRQ         En5,An5,En5,An5,___,An3,___,An2 ;
	PAN         __R,__R,___,___,___,___,___,___
	FRQ         En3,An3,En3,An3,___,An2,Cn7,En2 ;
	PAN         _C_,_C_,___,___,___,___,___,___
	FRQ         En3,An3,En3,An3,___,An2,___,Cn2 ;
	PAN         L__,L__,___,___,___,___,___,___
	FRQ         En5,An5,En5,An5,___,An3,___,Cn3 ;
	PAN         __R,__R,___,___,___,___,___,___
	FRQ         En3,An3,En3,An3,___,An2,___,Cn2 ;
	GTM         ___,___,___,___,___,___,___,003
song004_rept001:
	PAN         _C_,_C_,___,___,___,___,___,___
	FRQ         En5,An5,En5,An5,___,An3,Cn7,___ ;
	PAN         L__,L__,___,___,___,___,___,___
	FRQ         En3,An3,Q__,Q__,___,An2,___,___ ;
	PAN         __R,__R,___,___,___,___,___,___
	FRQ         En3,An3,___,___,___,An2,___,___ ;
	PAN         _C_,_C_,___,___,___,___,___,___
	FRQ         En5,An5,___,___,___,An3,___,___ ;
	PAN         L__,L__,___,___,___,___,___,___
	FRQ         En3,An3,___,___,An4,An2,Cn7,Cn2 ;
	PAN         __R,__R,___,___,___,___,___,___
	FRQ         En3,An3,___,___,___,An2,___,___ ;
	PAN         _C_,_C_,___,___,___,___,___,___
	FRQ         En5,An5,En5,An5,___,An3,___,___ ;
	PAN         L__,L__,___,___,___,___,___,___
	FRQ         En3,An3,Q__,Q__,___,An2,___,___ ;
	REPT        002, song004_rept001
	LOOP        001, song004_loop001
	PAN         __R,__R,___,___,___,___,___,___
	FRQ         En5,An5,En5,An5,___,An3,Cn7,___ ;
	PAN         _C_,_C_,___,___,___,___,___,___
	FRQ         En3,An3,Q__,Q__,___,An2,___,___ ;
	PAN         L__,L__,___,___,___,___,___,___
	FRQ         En6,An6,En6,An6,___,An2,Cn7,Cn2 ;
	PAN         __R,__R,___,___,___,___,___,___
	FRQ         En5,An5,Q__,Q__,___,An3,___,___ ;
	PAN         _C_,_C_,___,___,___,___,___,___
	FRQ         En3,An3,___,___,An4,An2,Cn7,Cn2 ;
	PAN         L__,L__,___,___,___,___,___,___
	FRQ         En6,An6,En6,An6,___,An2,___,___ ;
	PAN         __R,__R,___,___,___,___,___,___
	FRQ         En5,An5,En5,An5,___,An3,Cn7,Cn2 ;
	PAN         _C_,_C_,___,___,___,___,___,___
	FRQ         En3,An3,Q__,Q__,___,An2,___,___ ;
	JUMP        song004_rept001
song004_loop001:
	INS         ___,___,___,___,022,___,___,___
	PIT         034,034,___,___,034,___,___,___
	PITRAT      001,001,___,___,001,___,___,___
	PITDEP      255,255,___,___,255,___,___,___
	DEL         ___,005,___,___,008,___,___,___
	VOL         255,255,255,255,255,___,___,___
	PAN         _C_,_C_,___,___,___,___,___,___
	FRQ         En5,An5,En5,An5,En5,An3,Cn7,Cn3 ;
	TRS         ___,___,-01,-01,___,-01,___,___
	FRQ         ___,___,En3,An3,___,An2,___,Cn3 ;
	TRS         ___,___,-02,-02,___,-02,___,___
	FRQ         ___,___,En3,An3,___,An2,___,An2 ;
	TRS         ___,___,-03,-03,___,-03,___,___
	FRQ         ___,___,En5,An5,___,An3,___,An2 ;
	TRS         ___,___,-04,-04,___,-04,___,___
	SPEED       003
	FRQ         ___,___,En3,An3,___,An2,Cn7,En2 ;
	FRQ         ___,___,___,___,___,___,___,Cn2 ;
	SPEED       006
	TRS         ___,___,-05,-05,___,-05,___,___
	FRQ         ___,___,En3,An3,___,An2,___,Cn2 ;
	TRS         ___,___,-06,-06,___,-06,___,___
	FRQ         ___,___,En5,An5,___,An3,___,Cn3 ;
	TRS         ___,___,-07,-07,___,000,___,___
	FRQ         ___,___,En3,An3,___,An2,___,Cn2 ;
	TRS         ___,___,000,000,___,000,___,___
	CHANNEL		007,___,___,___,001,___,___,___
	LINK		003,___,___,___,___,___,___,___
	LINKVOL		003,___,___,___,___,___,___,___
song004_rept002:
	PIT         255,255,___,___,255,___,___,___
	PITRAT      000,000,___,___,000,___,___,___
	PITDEP      000,000,___,___,000,___,___,___
	INS         039,039,039,039,039,___,___,___
	VOL         223,253,255,254,254,___,___,___
	LFO         ___,___,255,___,___,___,___,___
	DTN         006,002,000,006,016,___,___,___
	PAN         L__,__R,_C_,__R,L__,___,___,___
	FRQ         En4,An4,Cn5,En4,An4,An2,Cn8,Cn2 ;
	FRQ         ___,___,___,___,___,An2,___,___ ;
	FRQ         ___,___,___,___,___,An2,___,___ ;
	FRQ         ___,___,___,___,___,An2,Cn8,Cn2 ;
	FRQ         ___,___,___,___,___,En3,Cn8,Cn2 ;
	FRQ         ___,___,___,___,___,Dn3,___,___ ;
	FRQ         ___,___,___,___,___,Gn2,Cn8,___ ;
	FRQ         ___,___,___,___,___,An2,Cn8,Cn2 ;
	FRQ         ___,___,___,___,___,An2,Cn8,Cn2 ;
	FRQ         ___,___,___,___,___,An2,Cn8,___ ;
	FRQ         ___,___,___,___,___,An2,Cn8,___ ;
	FRQ         ___,___,___,___,___,An2,___,Cn2 ;
	FRQ         ___,___,___,___,___,En3,Cn8,Cn2 ;
	FRQ         ___,___,___,___,___,Dn3,___,___ ;
	FRQ         ___,___,___,___,___,Gn2,Cn8,___ ;
	FRQ         ___,___,___,___,___,An2,Cn8,Cn2 ;
	FRQ         En4,Gn4,Bn4,En4,Gn4,An2,Cn8,Cn2 ;
	FRQ         ___,___,___,___,___,An2,___,___ ;
	FRQ         ___,___,___,___,___,An2,___,___ ;
	FRQ         ___,___,___,___,___,An2,Cn8,Cn2 ;
	FRQ         ___,___,___,___,___,En3,Cn8,Cn2 ;
	FRQ         ___,___,___,___,___,Dn3,___,___ ;
	FRQ         ___,___,___,___,___,Gn2,Cn8,___ ;
	FRQ         ___,___,___,___,___,An2,Cn8,Cn2 ;
	FRQ         ___,___,___,___,___,An2,Cn8,Cn2 ;
	FRQ         ___,___,___,___,___,An2,Cn8,___ ;
	FRQ         ___,___,___,___,___,An2,Cn8,___ ;
	FRQ         ___,___,___,___,___,An2,___,Cn2 ;
	FRQ         ___,___,___,___,___,En3,Cn8,Cn2 ;
	FRQ         ___,___,___,___,___,Dn3,___,___ ;
	FRQ         ___,___,___,___,___,Gn2,Cn8,___ ;
	FRQ         ___,___,___,___,___,An2,Cn8,Cn2 ;
	FRQ         Cn4,Fn4,An4,Cn4,Fn4,Fn2,Cn8,Cn2 ;
	FRQ         ___,___,___,___,___,Fn2,___,___ ;
	FRQ         ___,___,___,___,___,Fn2,___,___ ;
	FRQ         ___,___,___,___,___,Fn2,Cn8,Cn2 ;
	FRQ         ___,___,___,___,___,Fn2,Cn8,Cn2 ;
	FRQ         ___,___,___,___,___,An2,___,___ ;
	FRQ         ___,___,___,___,___,Fn2,Cn8,___ ;
	FRQ         ___,___,___,___,___,Fn2,Cn8,Cn2 ;
	FRQ         ___,___,___,___,___,Fn2,Cn8,Cn2 ;
	FRQ         ___,___,___,___,___,Fn2,Cn8,___ ;
	FRQ         ___,___,___,___,___,Fn2,Cn8,___ ;
	FRQ         ___,___,___,___,___,Fn2,___,Cn2 ;
	FRQ         ___,___,___,___,___,Fn2,Cn8,Cn2 ;
	FRQ         ___,___,___,___,___,An2,___,___ ;
	FRQ         ___,___,___,___,___,Fn2,Cn8,___ ;
	FRQ         ___,___,___,___,___,Cn3,Cn8,Cn2 ;
	FRQ         ___,___,___,___,___,Fn2,Cn8,Cn2 ;
	FRQ         ___,___,___,___,___,Fn2,___,___ ;
	FRQ         ___,___,___,___,___,Fn2,___,___ ;
	FRQ         ___,___,___,___,___,Fn2,Cn8,Cn2 ;
	FRQ         ___,___,___,___,___,Fn2,Cn8,Cn2 ;
	FRQ         ___,___,___,___,___,Fn2,___,___ ;
	FRQ         ___,___,___,___,___,Fn2,Cn8,___ ;
	FRQ         ___,___,___,___,___,Fn2,Cn8,Cn2 ;
	GTM         ___,___,___,___,___,___,___,255
	INS         ___,___,___,008,008,___,___,___
	VOL         ___,___,___,220,220,___,___,___
	LFO         ___,___,___,255,001,___,___,___
	FRQ         Cn4,Cn4,En4,En4,En5,En2,Cn8,Cn3 ;
	FRQ         Cn5,Cn5,En5,En5,En6,En3,Cn8,An2 ;
	FRQ         Bn4,Bn4,Dn5,Dn5,Dn6,Dn3,Cn8,En2 ;
	FRQ         An4,An4,Cn5,Cn5,Cn6,Cn3,Cn8,Cn2 ;
	FRQ         Gn4,Gn4,Bn4,Bn4,Bn5,Bn2,Cn8,En3 ;
	FRQ         An4,An4,Cn5,Cn5,Cn6,Cn3,Cn8,Gn2 ;
	FRQ         En4,En4,Gn4,Gn4,Gn5,Gn2,Cn8,Cn3 ;
	FRQ         En4,En4,An4,An4,An5,An2,Cn8,Gn2 ;
	GTM         ___,___,___,___,___,___,___,003
	REPT        001, song004_rept002
	VOL         ___,___,___,230,223,___,___,___
	PAN         _C_,__R,L__,___,___,___,___,___
	VOL         225,253,253,___,___,___,___,___
	FRQ         Fn4,Dn4,An3,Fn5,Q__,Fn3,Cn8,Cn2 ;
	FRQ         ___,___,___,Dn5,Fn5,Dn3,___,___ ;
	FRQ         ___,___,___,An4,Dn5,An2,___,Cn2 ;
	FRQ         Gn4,En4,Bn3,Gn5,An4,Gn3,Cn8,Cn2 ;
	FRQ         ___,___,___,___,Gn5,___,Cn8,___ ;
	FRQ         ___,___,___,En5,___,En3,___,Cn2 ;
	FRQ         ___,___,___,Bn4,En5,Bn2,Cn8,Cn2 ;
	FRQ         ___,___,___,___,Bn4,___,Cn8,___ ;
	FRQ         An4,Fn4,Cn4,An5,___,An3,Cn8,Cn3 ;
	FRQ         ___,___,___,Fn5,An5,Fn3,Cn8,Cn3 ;
	FRQ         ___,___,___,Cn5,Fn5,Cn3,Cn8,En2 ;
	FRQ         Bn4,Gn4,Dn4,Bn5,Cn5,Bn3,___,Cn2 ;
	FRQ         ___,___,___,___,Bn5,___,Cn8,___ ;
	FRQ         ___,___,___,Gn5,___,Gn3,___,Cn2 ;
	FRQ         ___,___,___,Dn5,Gn5,Dn3,Cn8,Cn2 ;
	FRQ         ___,___,___,Bn5,Dn5,Bn3,Cn8,___ ;
	SPEED       006
	LINK		000,___,___,___,___,___,___,___
	INS         ___,___,___,022,___,___,___,___
	VOL         ___,___,___,255,___,___,___,___
	LFO         ___,___,___,001,___,___,___,___
	VOL         225,255,255,___,___,___,___,___
	PAN         __R,__R,_C_,___,___,___,___,___
	FRQ         En5,An5,En5,An5,___,An3,Cn7,___ ;
	PAN         _C_,_C_,___,___,___,___,___,___
	FRQ         En3,An3,Q__,Q__,___,An2,___,___ ;
	PAN         L__,L__,___,___,___,___,___,___
	FRQ         En3,An3,___,___,___,An2,___,___ ;
	PAN         __R,__R,___,___,___,___,___,___
	FRQ         En5,An5,___,___,___,An3,___,___ ;
	PAN         _C_,_C_,___,___,___,___,___,___
	FRQ         En3,An3,___,___,An4,An2,Cn7,Cn2 ;
	PAN         L__,L__,___,___,___,___,___,___
	FRQ         En3,An3,___,___,___,An2,___,___ ;
	PAN         __R,__R,___,___,___,___,___,___
	FRQ         En5,An5,En5,An5,___,An3,___,___ ;
	PAN         _C_,_C_,___,___,___,___,___,___
	FRQ         En3,An3,Q__,Q__,___,An2,___,___ ;
	PAN         L__,L__,___,___,___,___,___,___
	FRQ         En5,An5,En5,An5,___,An3,Cn7,___ ;
	PAN         __R,__R,___,___,___,___,___,___
	FRQ         En3,An3,Q__,Q__,___,An2,___,___ ;
	PAN         _C_,_C_,___,___,___,___,___,___
	FRQ         En3,An3,___,___,___,An2,___,___ ;
	PAN         L__,L__,___,___,___,___,___,___
	FRQ         En5,An5,___,___,___,An3,___,___ ;
	PAN         __R,__R,___,___,___,___,___,___
	FRQ         En3,An3,___,___,An4,An2,Cn7,Cn2 ;
	PAN         _C_,_C_,___,___,___,___,___,___
	FRQ         En3,An3,___,___,___,An2,___,___ ;
	PAN         L__,L__,___,___,___,___,___,___
	FRQ         En5,An5,En5,An5,___,An3,___,___ ;
	PAN         __R,__R,___,___,___,___,___,___
	FRQ         En3,An3,Q__,Q__,___,An2,___,___ ;
	SPEED       012
	LINK		003,___,___,___,___,___,___,___
	INS         ___,___,___,008,___,___,___,___
	VOL         ___,___,___,240,___,___,___,___
	LFO         ___,___,___,255,___,___,___,___
	PAN         _C_,_C_,_C_,___,___,___,___,___
	VOL         240,253,255,___,___,___,___,___
	FRQ         En4,An4,Cn5,___,___,An2,Cn8,Cn2 ;
	FRQ         ___,___,___,___,___,Q__,___,Q__ ;
	FRQ         ___,___,___,___,___,___,Cn8,___ ;
	FRQ         ___,___,___,___,___,___,___,___ ;
	SPEED       003
	FRQ         ___,___,___,___,___,___,Cn8,___ ;
	FRQ         ___,___,___,___,___,An2,___,Cn2 ;
	FRQ         ___,___,___,___,___,An2,___,Cn2 ;
	FRQ         ___,___,___,___,___,An2,___,Cn2 ;
	FRQ         ___,___,___,___,___,Q__,Cn8,___ ;
	FRQ         ___,___,___,___,___,An2,___,Cn2 ;
	FRQ         ___,___,___,___,___,Q__,___,___ ;
	FRQ         ___,___,___,___,___,An2,___,Cn2 ;
	FRQ         ___,___,___,___,___,Q__,Cn8,___ ;
	FRQ         ___,___,___,___,___,An3,Cn8,Cn2 ;
	FRQ         ___,___,___,___,___,An3,Cn8,Cn2 ;
	FRQ         ___,___,___,___,___,An3,Cn8,Cn2 ;
	FRQ         ___,___,___,___,___,An2,Cn8,Cn2 ;
	FRQ         ___,___,___,___,___,___,___,___ ;
	FRQ         ___,___,___,___,___,An2,Cn8,An2 ;
	FRQ         ___,___,___,___,___,___,___,___ ;
	SPEED       006
	PIT         ___,___,___,013,015,___,___,___
	PITRAT      ___,___,___,140,140,___,___,___
	PITDEP      ___,___,___,120,120,___,___,___
	INS         ___,___,___,008,008,___,___,___
	VOL         ___,___,___,235,225,___,___,___
	LFO         ___,___,___,255,001,___,___,___
song004_jmp000:
;	PAN         L__,_C_,_C_,___,___,___,___,___
	FRQ         En4,An4,Cn5,Cn5,___,An2,Cn9,Cn2 ;
	FRQ         ___,___,___,___,___,An2,___,___ ;
	FRQ         ___,___,___,___,___,An2,___,___ ;
	FRQ         ___,___,___,___,Cn5,An2,Cn9,Cn2 ;
	FRQ         ___,___,___,___,___,En3,Cn9,Cn2 ;
	FRQ         ___,___,___,___,___,Dn3,___,___ ;
	FRQ         ___,___,___,___,___,Gn2,Cn9,___ ;
	FRQ         ___,___,___,___,___,An2,Cn9,Cn2 ;
	FRQ         ___,___,___,Bn4,___,An2,Cn9,Cn2 ;
	FRQ         ___,___,___,___,___,An2,Cn9,___ ;
	FRQ         ___,___,___,___,Bn4,An2,Cn9,___ ;
	FRQ         ___,___,___,___,___,An2,___,Cn2 ;
	FRQ         ___,___,___,___,___,En3,Cn9,Cn2 ;
	FRQ         ___,___,___,___,___,Dn3,___,___ ;
	FRQ         ___,___,___,___,___,Gn2,Cn9,___ ;
	FRQ         ___,___,___,___,___,An2,Cn9,Cn2 ;
	FRQ         En4,Gn4,Bn4,En4,___,An2,Cn9,Cn2 ;
	FRQ         ___,___,___,___,En4,An2,___,___ ;
	FRQ         ___,___,___,___,___,An2,___,___ ;
	FRQ         ___,___,___,___,___,An2,Cn9,Cn2 ;
	FRQ         ___,___,___,___,___,En3,Cn9,Cn2 ;
	FRQ         ___,___,___,___,___,Dn3,___,___ ;
	FRQ         ___,___,___,___,___,Gn2,Cn9,___ ;
	FRQ         ___,___,___,___,___,An2,Cn9,Cn2 ;
	FRQ         ___,___,___,___,___,An2,Cn9,Cn2 ;
	FRQ         ___,___,___,___,___,An2,Cn9,___ ;
	FRQ         ___,___,___,___,___,An2,Cn9,___ ;
	FRQ         ___,___,___,___,___,An2,___,Cn2 ;
	FRQ         ___,___,___,___,___,En3,Cn9,Cn2 ;
	FRQ         ___,___,___,___,___,Dn3,___,___ ;
	FRQ         ___,___,___,Bn4,___,Gn2,Cn9,___ ;
	FRQ         ___,___,___,Cn5,Bn4,An2,Cn9,Cn2 ;
	FRQ         Cn4,Fn4,An4,An4,Cn5,Fn2,Cn9,Cn2 ;
	FRQ         ___,___,___,___,An4,Fn2,___,___ ;
	FRQ         ___,___,___,___,___,Fn2,___,___ ;
	FRQ         ___,___,___,___,___,Fn2,Cn9,Cn2 ;
	FRQ         ___,___,___,___,___,Fn2,Cn9,Cn2 ;
	FRQ         ___,___,___,___,___,An2,___,___ ;
	FRQ         ___,___,___,___,___,Fn2,Cn9,___ ;
	FRQ         ___,___,___,___,___,Fn2,Cn9,Cn2 ;
	FRQ         ___,___,___,___,___,Fn2,Cn9,Cn2 ;
	FRQ         ___,___,___,___,___,Fn2,Cn9,___ ;
	FRQ         ___,___,___,___,___,Fn2,Cn9,___ ;
	FRQ         ___,___,___,___,___,Fn2,___,Cn2 ;
	FRQ         ___,___,___,___,___,Fn2,Cn9,Cn2 ;
	FRQ         ___,___,___,___,___,An2,___,___ ;
	FRQ         ___,___,___,___,___,Fn2,Cn9,___ ;
	FRQ         ___,___,___,___,___,Cn3,Cn9,Cn2 ;
	LOOP        $01, song004_loop002
	FRQ         ___,___,___,En5,En5,Fn2,Cn9,Cn2 ;
	FRQ         ___,___,___,___,___,Fn2,___,___ ;
	FRQ         ___,___,___,Dn5,___,Fn2,___,___ ;
	FRQ         ___,___,___,Cn5,___,Fn2,Cn9,Cn2 ;
	FRQ         ___,___,___,Dn5,Dn5,Fn2,Cn9,Cn2 ;
	FRQ         ___,___,___,___,___,Fn2,___,___ ;
	FRQ         ___,___,___,Cn5,___,Fn2,Cn9,___ ;
	FRQ         ___,___,___,Bn4,___,Fn2,Cn9,Cn2 ;
	GTM         ___,___,___,___,___,___,___,255
	FRQ         ___,___,___,Cn5,Cn5,En2,Cn9,Cn3 ;
	FRQ         ___,___,___,___,___,En3,Cn9,An2 ;
	FRQ         ___,___,___,Bn4,___,Dn3,Cn9,En2 ;
	FRQ         ___,___,___,An4,___,Cn3,Cn9,Cn2 ;
	FRQ         ___,___,___,Bn4,Bn4,Bn2,Cn9,En3 ;
	FRQ         ___,___,___,Gn4,___,Cn3,Cn9,Gn2 ;
	FRQ         ___,___,___,En4,___,Gn2,Cn9,Cn3 ;
	FRQ         ___,___,___,Gn4,___,An2,Cn9,Gn2 ;
	GTM         ___,___,___,___,___,___,___,003
	JUMP        song004_jmp000
song004_loop002:
	FRQ         ___,___,___,___,___,Fn2,Cn9,Cn2 ;
	FRQ         ___,___,___,___,___,Fn2,___,___ ;
	FRQ         ___,___,___,___,___,Fn2,___,___ ;
	FRQ         ___,___,___,___,___,Fn2,Cn9,Cn2 ;
	FRQ         ___,___,___,Bn4,___,Fn2,Cn9,Cn2 ;
	FRQ         ___,___,___,___,Bn4,Fn2,___,___ ;
	FRQ         ___,___,___,___,___,Fn2,Cn9,___ ;
	FRQ         ___,___,___,___,___,Fn2,Cn9,Cn2 ;
	GTM         ___,___,___,___,___,___,___,255
	FRQ         ___,___,___,Cn5,___,En2,Cn9,Cn3 ;
	FRQ         ___,___,___,___,Cn5,En3,Cn9,An2 ;
	FRQ         ___,___,___,___,___,Dn3,Cn9,En2 ;
	FRQ         ___,___,___,___,___,Cn3,Cn9,Cn2 ;
	FRQ         ___,___,___,Dn5,___,Bn2,Cn9,En3 ;
	FRQ         ___,___,___,___,Dn5,Cn3,Cn9,Gn2 ;
	FRQ         ___,___,___,___,___,Gn2,Cn9,Cn3 ;
	FRQ         ___,___,___,___,___,An2,Cn9,Gn2 ;
	GTM         ___,___,___,___,___,___,___,003
	FRQ         En4,An4,Cn5,Cn5,En5,An2,Cn9,Cn2 ;
	FRQ         ___,___,___,___,___,An2,___,___ ;
	FRQ         ___,___,___,___,___,An2,___,___ ;
	FRQ         ___,___,___,___,___,An2,Cn9,Cn2 ;
	FRQ         ___,___,___,___,___,En3,Cn9,Cn2 ;
	FRQ         ___,___,___,___,___,Dn3,___,___ ;
	FRQ         ___,___,___,___,___,Gn2,Cn9,___ ;
	FRQ         ___,___,___,___,___,An2,Cn9,Cn2 ;
	FRQ         ___,___,___,Cn6,En6,An2,Cn9,Cn2 ;
	FRQ         ___,___,___,___,___,An2,Cn9,___ ;
	FRQ         ___,___,___,___,___,An2,Cn9,___ ;
	FRQ         ___,___,___,___,___,An2,___,Cn2 ;
	FRQ         ___,___,___,___,___,En3,Cn9,Cn2 ;
	FRQ         ___,___,___,___,___,Dn3,___,___ ;
	FRQ         ___,___,___,___,___,Gn2,Cn9,___ ;
	FRQ         ___,___,___,___,___,An2,Cn9,Cn2 ;
	FRQ         En4,Gn4,Bn4,Bn4,Dn5,An2,Cn9,Cn2 ;
	FRQ         ___,___,___,___,___,An2,___,___ ;
	FRQ         ___,___,___,___,___,An2,___,___ ;
	FRQ         ___,___,___,___,___,An2,Cn9,Cn2 ;
	FRQ         ___,___,___,___,___,En3,Cn9,Cn2 ;
	FRQ         ___,___,___,___,___,Dn3,___,___ ;
	FRQ         ___,___,___,___,___,Gn2,Cn9,___ ;
	FRQ         ___,___,___,___,___,An2,Cn9,Cn2 ;
	FRQ         ___,___,___,Gn5,___,An2,Cn9,Cn2 ;
	FRQ         ___,___,___,___,___,An2,Cn9,___ ;
	FRQ         ___,___,___,___,___,An2,Cn9,___ ;
	FRQ         ___,___,___,___,___,An2,___,Cn2 ;
	FRQ         ___,___,___,___,___,En3,Cn9,Cn2 ;
	FRQ         ___,___,___,___,___,Dn3,___,___ ;
	FRQ         ___,___,___,___,___,Gn2,Cn9,___ ;
	FRQ         ___,___,___,___,___,An2,Cn9,Cn2 ;
	FRQ         Cn4,Fn4,An4,Cn5,En5,Fn2,Cn9,Cn2 ;
	FRQ         ___,___,___,___,___,Fn2,___,___ ;
	FRQ         ___,___,___,___,___,Fn2,___,___ ;
	FRQ         ___,___,___,___,___,Fn2,Cn9,Cn2 ;
	FRQ         ___,___,___,___,___,Fn2,Cn9,Cn2 ;
	FRQ         ___,___,___,___,___,An2,___,___ ;
	FRQ         ___,___,___,___,___,Fn2,Cn9,___ ;
	FRQ         ___,___,___,___,___,Fn2,Cn9,Cn2 ;
	FRQ         ___,___,___,Bn4,Dn5,Fn2,Cn9,Cn2 ;
	FRQ         ___,___,___,___,___,Fn2,Cn9,___ ;
	FRQ         ___,___,___,___,___,Fn2,Cn9,___ ;
	FRQ         ___,___,___,___,___,Fn2,___,Cn2 ;
	FRQ         ___,___,___,___,___,Fn2,Cn9,Cn2 ;
	FRQ         ___,___,___,___,___,An2,___,___ ;
	FRQ         ___,___,___,___,___,Fn2,Cn9,___ ;
	FRQ         ___,___,___,___,___,Cn3,Cn9,Cn2 ;
	FRQ         ___,___,___,An4,Cn5,Fn2,Cn9,Cn2 ;
	FRQ         ___,___,___,___,___,Fn2,___,___ ;
	FRQ         ___,___,___,___,___,Fn2,___,___ ;
	FRQ         ___,___,___,___,___,Fn2,Cn9,Cn2 ;
	FRQ         ___,___,___,___,___,Fn2,Cn9,Cn2 ;
	FRQ         ___,___,___,___,___,Fn2,___,___ ;
	FRQ         ___,___,___,___,___,Fn2,Cn9,___ ;
	FRQ         ___,___,___,___,___,Fn2,Cn9,Cn2 ;
	GTM         ___,___,___,___,___,___,___,255
	FRQ         ___,___,___,Bn4,Dn5,En2,Cn9,Cn3 ;
	FRQ         ___,___,___,___,___,En3,Cn9,An2 ;
	FRQ         ___,___,___,___,___,Dn3,Cn9,En2 ;
	FRQ         ___,___,___,___,___,Cn3,Cn9,Cn2 ;
	FRQ         ___,___,___,___,___,Bn2,Cn9,En3 ;
	FRQ         ___,___,___,___,___,Cn3,Cn9,Gn2 ;
	FRQ         ___,___,___,___,___,Gn2,Cn9,Cn3 ;
	FRQ         ___,___,___,Dn6,___,An2,Cn9,Gn2 ;
	GTM         ___,___,___,___,___,___,___,003
	PIT         ___,___,___,036,___,___,___,___
	PITRAT      ___,___,___,012,___,___,___,___
	PITDEP      ___,___,___,255,___,___,___,___
	FRQ         En4,An4,Cn5,En6,___,An2,Cn9,Cn2 ;
	FRQ         ___,___,___,___,___,An2,___,___ ;
	FRQ         ___,___,___,___,___,An2,___,___ ;
	FRQ         ___,___,___,___,Dn6,An2,Cn9,Cn2 ;
	PIT         ___,___,___,___,036,___,___,___
	PITRAT      ___,___,___,___,012,___,___,___
	PITDEP      ___,___,___,___,255,___,___,___
	FRQ         ___,___,___,___,En6,En3,Cn9,Cn2 ;
	FRQ         ___,___,___,___,___,Dn3,___,___ ;
	FRQ         ___,___,___,___,___,Gn2,Cn9,___ ;
	FRQ         ___,___,___,___,___,An2,Cn9,Cn2 ;
	FRQ         ___,___,___,___,___,An2,Cn9,Cn2 ;
	FRQ         ___,___,___,___,___,An2,Cn9,___ ;
	FRQ         ___,___,___,___,___,An2,Cn9,___ ;
	FRQ         ___,___,___,___,___,An2,___,Cn2 ;
	FRQ         ___,___,___,___,___,En3,Cn9,Cn2 ;
	FRQ         ___,___,___,___,___,Dn3,___,___ ;
	FRQ         ___,___,___,___,___,Gn2,Cn9,___ ;
	FRQ         ___,___,___,___,___,An2,Cn9,Cn2 ;
	FRQ         En4,Gn4,Bn4,___,___,An2,Cn9,Cn2 ;
	FRQ         ___,___,___,___,___,An2,___,___ ;
	FRQ         ___,___,___,___,___,An2,___,___ ;
	FRQ         ___,___,___,___,___,An2,Cn9,Cn2 ;
	FRQ         ___,___,___,___,___,En3,Cn9,Cn2 ;
	FRQ         ___,___,___,___,___,Dn3,___,___ ;
	FRQ         ___,___,___,___,___,Gn2,Cn9,___ ;
	FRQ         ___,___,___,___,___,An2,Cn9,Cn2 ;
	FRQ         ___,___,___,___,___,An2,Cn9,Cn2 ;
	FRQ         ___,___,___,___,___,An2,Cn9,___ ;
	FRQ         ___,___,___,___,___,An2,Cn9,___ ;
	FRQ         ___,___,___,___,___,An2,___,Cn2 ;
	FRQ         ___,___,___,___,___,En3,Cn9,Cn2 ;
	FRQ         ___,___,___,___,___,Dn3,___,___ ;
	FRQ         ___,___,___,___,___,Gn2,Cn9,___ ;
	FRQ         ___,___,___,___,___,An2,Cn9,Cn2 ;
	PIT         ___,___,___,013,015,___,___,___
	PITRAT      ___,___,___,140,140,___,___,___
	PITDEP      ___,___,___,120,120,___,___,___
	FRQ         Cn4,Fn4,An4,___,___,Fn2,Cn9,Cn2 ;
	FRQ         ___,___,___,___,___,Fn2,___,___ ;
	FRQ         ___,___,___,___,___,Fn2,___,___ ;
	FRQ         ___,___,___,___,___,Fn2,Cn9,Cn2 ;
	FRQ         ___,___,___,___,___,Fn2,Cn9,Cn2 ;
	FRQ         ___,___,___,___,___,An2,___,___ ;
	FRQ         ___,___,___,___,___,Fn2,Cn9,___ ;
	FRQ         ___,___,___,___,___,Fn2,Cn9,Cn2 ;
	FRQ         ___,___,___,An5,___,Fn2,Cn9,Cn2 ;
	FRQ         ___,___,___,___,___,Fn2,Cn9,___ ;
	FRQ         ___,___,___,Q__,___,Fn2,Cn9,___ ;
	FRQ         ___,___,___,Bn5,___,Fn2,___,Cn2 ;
	FRQ         ___,___,___,___,An5,Fn2,Cn9,Cn2 ;
	FRQ         ___,___,___,Q__,___,An2,___,___ ;
	FRQ         ___,___,___,Cn6,Q__,Fn2,Cn9,___ ;
	FRQ         ___,___,___,___,Bn5,Cn3,Cn9,Cn2 ;
	FRQ         ___,___,___,Cn6,___,Fn2,Cn9,Cn2 ;
	FRQ         ___,___,___,Dn6,Q__,Fn2,___,___ ;
	FRQ         ___,___,___,___,Cn6,Fn2,___,___ ;
	FRQ         ___,___,___,___,___,Fn2,Cn9,Cn2 ;
	FRQ         ___,___,___,___,Cn6,Fn2,Cn9,Cn2 ;
	FRQ         ___,___,___,___,Dn6,Fn2,___,___ ;
	FRQ         ___,___,___,___,___,Fn2,Cn9,___ ;
	FRQ         ___,___,___,___,___,Fn2,Cn9,Cn2 ;
	GTM         ___,___,___,___,___,___,___,255
	FRQ         ___,___,___,___,___,En2,Cn9,Cn3 ;
	FRQ         ___,___,___,___,___,En3,Cn9,An2 ;
	FRQ         ___,___,___,___,___,Dn3,Cn9,En2 ;
	FRQ         ___,___,___,___,___,Cn3,Cn9,Cn2 ;
	FRQ         ___,___,___,___,___,Bn2,Cn9,En3 ;
	FRQ         ___,___,___,___,___,Cn3,Cn9,Gn2 ;
	FRQ         ___,___,___,Cn6,___,Gn2,Cn9,Cn3 ;
	FRQ         ___,___,___,Bn5,___,An2,Cn9,Gn2 ;
	GTM         ___,___,___,___,___,___,___,003
	FRQ         En4,An4,Cn5,Cn6,___,An2,Cn9,Cn2 ;
	FRQ         ___,___,___,___,___,An2,___,___ ;
	FRQ         ___,___,___,___,Cn6,An2,___,___ ;
	FRQ         ___,___,___,___,Bn5,An2,Cn9,Cn2 ;
	FRQ         ___,___,___,___,Cn6,En3,Cn9,Cn2 ;
	FRQ         ___,___,___,___,___,Dn3,___,___ ;
	FRQ         ___,___,___,___,___,Gn2,Cn9,___ ;
	FRQ         ___,___,___,___,___,An2,Cn9,Cn2 ;
	FRQ         ___,___,___,___,___,An2,Cn9,Cn2 ;
	FRQ         ___,___,___,___,___,An2,Cn9,___ ;
	FRQ         ___,___,___,___,___,An2,Cn9,___ ;
	FRQ         ___,___,___,___,___,An2,___,Cn2 ;
	FRQ         ___,___,___,___,___,En3,Cn9,Cn2 ;
	FRQ         ___,___,___,___,___,Dn3,___,___ ;
	FRQ         ___,___,___,___,___,Gn2,Cn9,___ ;
	FRQ         ___,___,___,___,___,An2,Cn9,Cn2 ;
	FRQ         En4,Gn4,Bn4,___,___,An2,Cn9,Cn2 ;
	FRQ         ___,___,___,___,___,An2,___,___ ;
	FRQ         ___,___,___,___,___,An2,___,___ ;
	FRQ         ___,___,___,___,___,An2,Cn9,Cn2 ;
	FRQ         ___,___,___,___,___,En3,Cn9,Cn2 ;
	FRQ         ___,___,___,___,___,Dn3,___,___ ;
	FRQ         ___,___,___,___,___,Gn2,Cn9,___ ;
	FRQ         ___,___,___,___,___,An2,Cn9,Cn2 ;
	FRQ         ___,___,___,___,___,An2,Cn9,Cn2 ;
	FRQ         ___,___,___,___,___,An2,Cn9,___ ;
	FRQ         ___,___,___,___,___,An2,Cn9,___ ;
	FRQ         ___,___,___,___,___,An2,___,Cn2 ;
	FRQ         ___,___,___,___,___,En3,Cn9,Cn2 ;
	FRQ         ___,___,___,___,___,Dn3,___,___ ;
	FRQ         ___,___,___,___,___,Gn2,Cn9,___ ;
	FRQ         ___,___,___,___,___,An2,Cn9,Cn2 ;
	FRQ         Cn4,Fn4,An4,___,___,Fn2,Cn9,Cn2 ;
	FRQ         ___,___,___,___,___,Fn2,___,___ ;
	FRQ         ___,___,___,___,___,Fn2,___,___ ;
	FRQ         ___,___,___,___,___,Fn2,Cn9,Cn2 ;
	FRQ         ___,___,___,___,___,Fn2,Cn9,Cn2 ;
	FRQ         ___,___,___,___,___,An2,___,___ ;
	FRQ         ___,___,___,___,___,Fn2,Cn9,___ ;
	FRQ         ___,___,___,___,___,Fn2,Cn9,Cn2 ;
	FRQ         ___,___,___,___,___,Fn2,Cn9,Cn2 ;
	FRQ         ___,___,___,___,___,Fn2,Cn9,___ ;
	FRQ         ___,___,___,___,___,Fn2,Cn9,___ ;
	FRQ         ___,___,___,___,___,Fn2,___,Cn2 ;
	FRQ         ___,___,___,___,___,Fn2,Cn9,Cn2 ;
	FRQ         ___,___,___,___,___,An2,___,___ ;
	FRQ         ___,___,___,___,___,Fn2,Cn9,___ ;
	FRQ         ___,___,___,___,___,Cn3,Cn9,Cn2 ;
	FRQ         ___,___,___,Dn6,___,Fn2,Cn9,Cn2 ;
	FRQ         ___,___,___,Q__,___,Fn2,___,___ ;
	FRQ         ___,___,___,___,___,Fn2,___,___ ;
	FRQ         ___,___,___,En6,___,Fn2,Cn9,Cn2 ;
	FRQ         ___,___,___,Q__,Dn6,Fn2,Cn9,Cn2 ;
	FRQ         ___,___,___,___,Q__,Fn2,___,___ ;
	FRQ         ___,___,___,Cn6,___,Fn2,Cn9,___ ;
	FRQ         ___,___,___,Q__,En6,Fn2,Cn9,Cn2 ;
	GTM         ___,___,___,___,___,___,___,255
	FRQ         ___,___,___,___,Q__,En2,Cn9,Cn3 ;
	FRQ         ___,___,___,En6,___,En3,Cn9,An2 ;
	FRQ         ___,___,___,___,Cn6,Dn3,Cn9,En2 ;
	FRQ         ___,___,___,Q__,Q__,Cn3,Cn9,Cn2 ;
	FRQ         ___,___,___,Bn5,___,Bn2,Cn9,En3 ;
	FRQ         ___,___,___,___,En6,Cn3,Cn9,Gn2 ;
	FRQ         ___,___,___,Q__,___,Gn2,Cn9,Cn3 ;
	FRQ         ___,___,___,En6,Q__,An2,Cn9,Gn2 ;
	GTM         ___,___,___,___,___,___,___,003
	PIT         ___,___,___,037,___,___,___,___
	PITRAT      ___,___,___,012,___,___,___,___
	PITDEP      ___,___,___,255,___,___,___,___
	FRQ         En4,An4,Cn5,Bn5,Bn6,An2,Cn9,Cn2 ;
	FRQ         ___,___,___,___,___,An2,___,___ ;
	FRQ         ___,___,___,___,Q__,An2,___,___ ;
	FRQ         ___,___,___,___,En6,An2,Cn9,Cn2 ;
	PIT         ___,___,___,___,037,___,___,___
	PITRAT      ___,___,___,___,012,___,___,___
	PITDEP      ___,___,___,___,255,___,___,___
	FRQ         ___,___,___,___,Bn5,En3,Cn9,Cn2 ;
	FRQ         ___,___,___,___,___,Dn3,___,___ ;
	FRQ         ___,___,___,___,___,Gn2,Cn9,___ ;
	FRQ         ___,___,___,___,___,An2,Cn9,Cn2 ;
	FRQ         ___,___,___,___,___,An2,Cn9,Cn2 ;
	FRQ         ___,___,___,___,___,An2,Cn9,___ ;
	FRQ         ___,___,___,___,___,An2,Cn9,___ ;
	FRQ         ___,___,___,___,___,An2,___,Cn2 ;
	FRQ         ___,___,___,___,___,En3,Cn9,Cn2 ;
	FRQ         ___,___,___,___,___,Dn3,___,___ ;
	FRQ         ___,___,___,___,___,Gn2,Cn9,___ ;
	FRQ         ___,___,___,___,___,An2,Cn9,Cn2 ;
	FRQ         En4,Gn4,Bn4,___,___,An2,Cn9,Cn2 ;
	FRQ         ___,___,___,___,___,An2,___,___ ;
	FRQ         ___,___,___,___,___,An2,___,___ ;
	FRQ         ___,___,___,___,___,An2,Cn9,Cn2 ;
	FRQ         ___,___,___,___,___,En3,Cn9,Cn2 ;
	FRQ         ___,___,___,___,___,Dn3,___,___ ;
	FRQ         ___,___,___,___,___,Gn2,Cn9,___ ;
	FRQ         ___,___,___,___,___,An2,Cn9,Cn2 ;
	FRQ         ___,___,___,___,___,An2,Cn9,Cn2 ;
	FRQ         ___,___,___,___,___,An2,Cn9,___ ;
	FRQ         ___,___,___,___,___,An2,Cn9,___ ;
	FRQ         ___,___,___,___,___,An2,___,Cn2 ;
	FRQ         ___,___,___,___,___,En3,Cn9,Cn2 ;
	FRQ         ___,___,___,___,___,Dn3,___,___ ;
	FRQ         ___,___,___,___,___,Gn2,Cn9,___ ;
	FRQ         ___,___,___,___,___,An2,Cn9,Cn2 ;
	FRQ         Cn4,Fn4,An4,___,___,Fn2,Cn9,Cn2 ;
	FRQ         ___,___,___,___,___,Fn2,___,___ ;
	FRQ         ___,___,___,___,___,Fn2,___,___ ;
	FRQ         ___,___,___,___,___,Fn2,Cn9,Cn2 ;
	FRQ         ___,___,___,___,___,Fn2,Cn9,Cn2 ;
	FRQ         ___,___,___,___,___,An2,___,___ ;
	FRQ         ___,___,___,___,___,Fn2,Cn9,___ ;
	FRQ         ___,___,___,___,___,Fn2,Cn9,Cn2 ;
	FRQ         ___,___,___,___,___,Fn2,Cn9,Cn2 ;
	FRQ         ___,___,___,___,___,Fn2,Cn9,___ ;
	FRQ         ___,___,___,___,___,Fn2,Cn9,___ ;
	FRQ         ___,___,___,___,___,Fn2,___,Cn2 ;
	FRQ         ___,___,___,___,___,Fn2,Cn9,Cn2 ;
	FRQ         ___,___,___,___,___,An2,___,___ ;
	FRQ         ___,___,___,___,___,Fn2,Cn9,___ ;
	FRQ         ___,___,___,___,___,Cn3,Cn9,Cn2 ;
	FRQ         ___,___,___,An5,___,Fn2,Cn9,Cn2 ;
	FRQ         ___,___,___,Bn5,___,Fn2,___,___ ;
	FRQ         ___,___,___,Cn6,___,Fn2,___,___ ;
	PIT         ___,___,___,038,___,___,___,___
	PITRAT      ___,___,___,010,___,___,___,___
	PITDEP      ___,___,___,255,___,___,___,___
	FRQ         ___,___,___,Dn6,___,Fn2,Cn9,Cn2 ;
	FRQ         ___,___,___,___,An5,Fn2,Cn9,Cn2 ;
	FRQ         ___,___,___,___,Bn5,Fn2,___,___ ;
	FRQ         ___,___,___,___,Cn6,Fn2,Cn9,___ ;
	PIT         ___,___,___,___,038,___,___,___
	PITRAT      ___,___,___,___,010,___,___,___
	PITDEP      ___,___,___,___,255,___,___,___
	FRQ         ___,___,___,___,Dn6,Fn2,Cn9,Cn2 ;
	GTM         ___,___,___,___,___,___,___,255
	FRQ         ___,___,___,___,___,En2,Cn9,Cn3 ;
	FRQ         ___,___,___,___,___,En3,Cn9,An2 ;
	FRQ         ___,___,___,___,___,Dn3,Cn9,En2 ;
	FRQ         ___,___,___,___,___,Cn3,Cn9,Cn2 ;
	FRQ         ___,___,___,___,___,Bn2,Cn9,En3 ;
	FRQ         ___,___,___,___,___,Cn3,Cn9,Gn2 ;
	FRQ         ___,___,___,___,___,Gn2,Cn9,Cn3 ;
	FRQ         ___,___,___,___,___,An2,Cn9,Gn2 ;
	GTM         ___,___,___,___,___,___,___,003
	FRQ         En4,An4,Cn5,En5,___,An2,Cn9,Cn2 ;
	FRQ         ___,___,___,___,___,An2,___,___ ;
	FRQ         ___,___,___,___,___,An2,___,___ ;
	FRQ         ___,___,___,___,___,An2,Cn9,Cn2 ;
	FRQ         ___,___,___,___,En5,En3,Cn9,Cn2 ;
	FRQ         ___,___,___,___,___,Dn3,___,___ ;
	FRQ         ___,___,___,___,___,Gn2,Cn9,___ ;
	FRQ         ___,___,___,___,___,An2,Cn9,Cn2 ;
	FRQ         ___,___,___,___,___,An2,Cn9,Cn2 ;
	FRQ         ___,___,___,___,___,An2,Cn9,___ ;
	FRQ         ___,___,___,___,___,An2,Cn9,___ ;
	FRQ         ___,___,___,___,___,An2,___,Cn2 ;
	PIT         ___,___,___,013,015,___,___,___
	PITRAT      ___,___,___,140,140,___,___,___
	PITDEP      ___,___,___,120,120,___,___,___
	FRQ         ___,___,___,Dn5,___,En3,Cn9,Cn2 ;
	FRQ         ___,___,___,Cn5,___,Dn3,___,___ ;
	FRQ         ___,___,___,Bn4,___,Gn2,Cn9,___ ;
	FRQ         ___,___,___,An4,___,An2,Cn9,Cn2 ;
	FRQ         En4,Gn4,Bn4,En4,Dn5,An2,Cn9,Cn2 ;
	FRQ         ___,___,___,___,Cn5,An2,___,___ ;
	FRQ         ___,___,___,___,Bn4,An2,___,___ ;
	FRQ         ___,___,___,___,An4,An2,Cn9,Cn2 ;
	FRQ         ___,___,___,___,En4,En3,Cn9,Cn2 ;
	FRQ         ___,___,___,___,___,Dn3,___,___ ;
	FRQ         ___,___,___,___,___,Gn2,Cn9,___ ;
	FRQ         ___,___,___,___,___,An2,Cn9,Cn2 ;
	FRQ         ___,___,___,___,___,An2,Cn9,Cn2 ;
	FRQ         ___,___,___,___,___,An2,Cn9,___ ;
	FRQ         ___,___,___,___,___,An2,Cn9,___ ;
	FRQ         ___,___,___,___,___,An2,___,Cn2 ;
	FRQ         ___,___,___,___,___,En3,Cn9,Cn2 ;
	FRQ         ___,___,___,___,___,Dn3,___,___ ;
	FRQ         ___,___,___,___,___,Gn2,Cn9,___ ;
	FRQ         ___,___,___,___,___,An2,Cn9,Cn2 ;
	PIT         ___,___,___,035,035,___,___,___
	PITRAT      ___,___,___,004,004,___,___,___
	PITDEP      ___,___,___,255,255,___,___,___
	FRQ         Cn4,Fn4,An4,En6,___,Fn2,Cn9,Cn2 ;
	FRQ         ___,___,___,___,___,Fn2,___,___ ;
	FRQ         ___,___,___,___,___,Fn2,___,___ ;
	FRQ         ___,___,___,___,___,Fn2,Cn9,Cn2 ;
	FRQ         ___,___,___,___,En6,Fn2,Cn9,Cn2 ;
	FRQ         ___,___,___,___,___,An2,___,___ ;
	FRQ         ___,___,___,___,___,Fn2,Cn9,___ ;
	FRQ         ___,___,___,___,___,Fn2,Cn9,Cn2 ;
	FRQ         ___,___,___,___,___,Fn2,Cn9,Cn2 ;
	FRQ         ___,___,___,___,___,Fn2,Cn9,___ ;
	FRQ         ___,___,___,___,___,Fn2,Cn9,___ ;
	FRQ         ___,___,___,___,___,Fn2,___,Cn2 ;
	FRQ         ___,___,___,___,___,Fn2,Cn9,Cn2 ;
	FRQ         ___,___,___,___,___,An2,___,___ ;
	FRQ         ___,___,___,___,___,Fn2,Cn9,___ ;
	FRQ         ___,___,___,___,___,Cn3,Cn9,Cn2 ;
	FRQ         ___,___,___,___,___,Fn2,Cn9,Cn2 ;
	FRQ         ___,___,___,___,___,Fn2,___,___ ;
	FRQ         ___,___,___,___,___,Fn2,___,___ ;
	FRQ         ___,___,___,___,___,Fn2,Cn9,Cn2 ;
	FRQ         ___,___,___,___,___,Fn2,Cn9,Cn2 ;
	FRQ         ___,___,___,___,___,Fn2,___,___ ;
	FRQ         ___,___,___,___,___,Fn2,Cn9,___ ;
	FRQ         ___,___,___,___,___,Fn2,Cn9,Cn2 ;
	GTM         ___,___,___,___,___,___,___,255
	FRQ         ___,___,___,___,___,En2,Cn9,Cn3 ;
	FRQ         ___,___,___,___,___,En3,Cn9,An2 ;
	FRQ         ___,___,___,___,___,Dn3,Cn9,En2 ;
	FRQ         ___,___,___,___,___,Cn3,Cn9,Cn2 ;
	FRQ         ___,___,___,___,___,Bn2,Cn9,En3 ;
	FRQ         ___,___,___,___,___,Cn3,Cn9,Gn2 ;
	FRQ         ___,___,___,___,___,Gn2,Cn9,Cn3 ;
	FRQ         ___,___,___,___,___,An2,Cn9,Gn2 ;
	GTM         ___,___,___,___,___,___,___,003
	PIT         ___,___,___,013,015,___,___,___
	PITRAT      ___,___,___,140,140,___,___,___
	PITDEP      ___,___,___,120,120,___,___,___
	GTM         ___,___,___,___,___,___,___,255
	FRQ         En4,An4,Cn5,An4,Cn5,An2,Cn9,Cn2 ;
	FRQ         En4,An4,Cn5,An4,Cn5,An2,Cn9,Cn2 ;
	FRQ         Q__,Q__,Q__,Q__,Q__,Q__,___,___ ;
	FRQ         En4,An4,Cn5,An4,Cn5,An2,Cn9,Cn2 ;
	FRQ         En4,An4,Cn5,An4,Cn5,An2,Cn9,Cn2 ;
	FRQ         Q__,Q__,Q__,Q__,Q__,Q__,___,___ ;
	FRQ         En4,An4,Cn5,An4,Cn5,An2,Cn9,Cn3 ;
	FRQ         En4,An4,Cn5,An4,Cn5,An2,Cn9,Cn3 ;
	FRQ         En4,An4,Cn5,An4,Cn5,An2,Cn9,Gn2 ;
	FRQ         Q__,Q__,Q__,Q__,Q__,Q__,___,___ ;
	FRQ         En4,An4,Cn5,An4,Cn5,An2,Cn9,Gn2 ;
	FRQ         En4,An4,Cn5,An4,Cn5,An2,Cn9,Gn2 ;
	FRQ         En4,An4,Cn5,An4,Cn5,An2,Cn9,Cn2 ;
	FRQ         Q__,Q__,Q__,Q__,Q__,Q__,___,___ ;
	FRQ         En4,An4,Cn5,An4,Cn5,An2,Cn9,Cn3 ;
	FRQ         En4,An4,Cn5,An4,Cn5,An2,Cn9,Cn3 ;
	FRQ         En4,Gn4,Bn4,Gn4,Bn4,Gn2,Cn9,Cn2 ;
	FRQ         ___,___,___,___,___,Gn2,___,___ ;
	FRQ         Q__,Q__,Q__,Q__,Q__,Q__,___,___ ;
	FRQ         En4,Gn4,Bn4,Gn4,Bn4,Gn2,Cn9,Cn2 ;
	FRQ         En4,Gn4,Bn4,Gn4,Bn4,Gn2,Cn9,Gn2 ;
	FRQ         En4,Gn4,Bn4,Gn4,Bn4,Gn2,Cn9,Gn2 ;
	FRQ         Q__,Q__,Q__,Q__,Q__,Q__,___,___ ;
	FRQ         En4,Gn4,Bn4,Gn4,Bn4,Gn2,Cn9,Cn2 ;
	FRQ         En4,Gn4,Bn4,Gn4,Bn4,Gn2,Cn9,Cn2 ;
	FRQ         Q__,Q__,Q__,Q__,Q__,Q__,___,___ ;
	FRQ         En4,Gn4,Bn4,Gn4,Bn4,Gn2,Cn9,En3 ;
	FRQ         En4,Gn4,Bn4,Gn4,Bn4,Gn2,Cn9,En3 ;
	FRQ         Q__,Q__,Q__,Q__,Q__,Q__,___,Cn3 ;
	FRQ         En4,Gn4,Bn4,Gn4,Bn4,Gn2,Cn9,Gn2 ;
	FRQ         En4,Gn4,Bn4,Gn4,Bn4,Gn2,Cn9,Gn2 ;
	FRQ         En4,Gn4,Bn4,Gn4,Bn4,Gn2,Cn9,Cn2 ;
	GTM         ___,___,___,___,___,___,___,003
	FRQ         Cn4,Fn4,An4,Fn4,An4,Fn2,Cn9,Cn2 ;
	FRQ         ___,___,___,___,___,___,___,___ ;
	FRQ         Q__,Q__,Q__,Q__,Q__,Q__,___,___ ;
	FRQ         Cn4,Fn4,An4,Fn4,An4,Fn2,Cn9,Cn2 ;
	FRQ         Cn4,Fn4,An4,Fn4,An4,Fn2,Cn9,Gn3 ;
	FRQ         ___,___,___,___,___,___,___,___ ;
	GTM         ___,___,___,___,___,___,___,255
	FRQ         Cn4,Fn4,An4,Fn4,An4,Fn2,Cn9,En3 ;
	FRQ         Cn4,Fn4,An4,Fn4,An4,Fn2,Cn9,Cn3 ;
	FRQ         Cn4,Fn4,An4,Fn4,An4,Fn2,Cn9,Gn3 ;
	FRQ         Q__,Q__,Q__,Q__,Q__,Q__,___,Gn3 ;
	FRQ         ___,___,___,___,___,___,___,En3 ;
	FRQ         Cn4,Fn4,An4,Fn4,An4,Fn4,Cn9,En3 ;
	FRQ         Cn4,Fn4,An4,Fn4,An4,Fn4,Cn9,En3 ;
	FRQ         ___,___,___,___,___,___,___,Cn3 ;
	FRQ         Cn4,Fn4,An4,Fn4,An4,Fn2,Cn9,Cn2 ;
	FRQ         Cn4,Fn4,An4,Fn4,An4,Cn3,Cn9,Cn2 ;
	GTM         ___,___,___,___,___,___,___,003
	FRQ         ___,___,___,___,___,Fn2,Cn9,Cn2 ;
	FRQ         ___,___,___,___,___,Fn2,___,___ ;
	FRQ         Cn4,Fn4,An4,Fn4,An4,Fn2,___,___ ;
	FRQ         Cn4,Fn4,An4,Fn4,An4,Fn2,Cn9,Cn2 ;
	FRQ         Cn4,Fn4,An4,Fn4,An4,Fn2,Cn9,Cn2 ;
	FRQ         Cn4,Fn4,An4,Fn4,An4,Fn2,___,___ ;
	FRQ         Q__,Q__,Q__,Q__,Q__,Fn2,Cn9,___ ;
	FRQ         ___,___,___,___,___,Fn2,Cn9,Cn2 ;
	GTM         ___,___,___,___,___,___,___,255
	FRQ         ___,___,___,En3,En4,En2,Cn9,Cn3 ;
	FRQ         ___,___,___,En4,En5,En3,Cn9,An2 ;
	FRQ         ___,___,___,Fn4,Fn5,Dn3,Cn9,En2 ;
	FRQ         ___,___,___,Cn4,Cn5,Cn3,Cn9,Cn2 ;
	FRQ         ___,___,___,Bn3,Bn4,Bn2,Cn9,En3 ;
	FRQ         ___,___,___,Cn4,Cn5,Cn3,Cn9,Gn2 ;
	FRQ         Q__,Q__,Q__,Gn4,Gn5,Gn2,Cn9,Gn2 ;
	FRQ         ___,___,___,An4,An5,An2,Cn9,Cn3 ;
	GTM         ___,___,___,___,___,___,___,003
	FRQ         En4,An4,Cn5,En6,___,An2,Cn8,Cn2 ;
	FRQ         ___,___,___,Cn6,___,An2,___,___ ;
	FRQ         ___,___,___,An5,___,An2,___,___ ;
	FRQ         ___,___,___,En6,___,An2,Cn8,Cn2 ;
	FRQ         ___,___,___,Cn6,En6,En3,Cn8,Cn2 ;
	FRQ         ___,___,___,An5,Cn6,Dn3,___,___ ;
	FRQ         ___,___,___,En6,An5,Gn2,Cn8,___ ;
	FRQ         ___,___,___,Cn6,En6,An2,Cn8,Cn2 ;
	FRQ         ___,___,___,An5,Cn6,An2,Cn8,Cn2 ;
	FRQ         ___,___,___,En6,An5,An2,Cn8,___ ;
	FRQ         ___,___,___,Cn6,En6,An2,Cn8,___ ;
	FRQ         ___,___,___,An5,Cn6,An2,___,Cn2 ;
	FRQ         ___,___,___,En6,An5,En3,Cn8,Cn2 ;
	FRQ         ___,___,___,Cn6,En6,Dn3,___,___ ;
	FRQ         ___,___,___,An5,Cn6,Gn2,Cn8,___ ;
	FRQ         ___,___,___,Cn6,An5,An2,Cn8,Cn2 ;
	FRQ         En4,Gn4,Bn4,Gn6,En6,An2,Cn8,Cn2 ;
	FRQ         ___,___,___,Cn6,Cn6,An2,___,___ ;
	FRQ         ___,___,___,An5,An5,An2,___,___ ;
	FRQ         ___,___,___,Gn6,Cn6,An2,Cn8,Cn2 ;
	FRQ         ___,___,___,Cn6,Gn6,En3,Cn8,Cn2 ;
	FRQ         ___,___,___,An5,Cn6,Dn3,___,___ ;
	FRQ         ___,___,___,Gn6,An5,Gn2,Cn8,___ ;
	FRQ         ___,___,___,Cn6,Gn6,An2,Cn8,Cn2 ;
	FRQ         ___,___,___,An5,Cn6,An2,Cn8,Cn2 ;
	FRQ         ___,___,___,Gn6,An5,An2,Cn8,___ ;
	FRQ         ___,___,___,Cn6,Gn6,An2,Cn8,___ ;
	FRQ         ___,___,___,An5,Cn6,An2,___,Cn2 ;
	FRQ         ___,___,___,Gn6,An5,En3,Cn8,Cn2 ;
	FRQ         ___,___,___,Cn6,Gn6,Dn3,___,___ ;
	FRQ         ___,___,___,An5,Cn6,Gn2,Cn8,___ ;
	FRQ         ___,___,___,Cn6,An5,An2,Cn8,Cn2 ;
	FRQ         Cn4,Fn4,An4,Gn6,Gn6,Fn2,Cn8,Cn2 ;
	FRQ         ___,___,___,Fn6,Cn6,Fn2,___,___ ;
	FRQ         ___,___,___,En6,An5,Fn2,___,___ ;
	FRQ         ___,___,___,Dn6,Cn6,Fn2,Cn8,Cn2 ;
	FRQ         ___,___,___,An5,Gn6,Fn2,Cn8,Cn2 ;
	FRQ         ___,___,___,Bn5,Fn6,An2,___,___ ;
	FRQ         ___,___,___,Cn6,En6,Fn2,Cn8,___ ;
	FRQ         ___,___,___,Dn6,Dn6,Fn2,Cn8,Cn2 ;
	FRQ         ___,___,___,Gn6,An5,Fn2,Cn8,Cn2 ;
	FRQ         ___,___,___,Fn6,Bn5,Fn2,Cn8,___ ;
	FRQ         ___,___,___,En6,Cn6,Fn2,Cn8,___ ;
	FRQ         ___,___,___,Dn6,Dn6,Fn2,___,Cn2 ;
	FRQ         ___,___,___,Bn5,Gn6,Fn2,Cn8,Cn2 ;
	FRQ         ___,___,___,Cn6,Fn6,An2,___,___ ;
	FRQ         ___,___,___,Dn6,En6,Fn2,Cn8,___ ;
	FRQ         ___,___,___,En6,Dn6,Cn3,Cn8,Cn2 ;
	FRQ         ___,___,___,En6,Bn5,Fn2,Cn8,Cn2 ;
	FRQ         ___,___,___,Dn6,Cn6,Fn2,___,___ ;
	FRQ         ___,___,___,Cn6,Dn6,Fn2,___,___ ;
	FRQ         ___,___,___,Bn5,En6,Fn2,Cn8,Cn2 ;
	FRQ         ___,___,___,En5,En6,Fn2,Cn8,Cn2 ;
	FRQ         ___,___,___,Dn5,Dn6,Fn2,___,___ ;
	FRQ         ___,___,___,Cn5,Cn6,Fn2,Cn8,___ ;
	FRQ         ___,___,___,Bn4,Bn5,Fn2,Cn8,Cn2 ;
	GTM         ___,___,___,___,___,___,___,255
	FRQ         ___,___,___,En4,En5,En2,Cn8,Cn2 ;
	FRQ         ___,___,___,Dn4,Dn5,En3,Cn8,Cn3 ;
	FRQ         ___,___,___,Cn4,Cn5,Dn3,Cn8,Cn3 ;
	FRQ         ___,___,___,Bn3,Bn4,Cn3,Cn8,Cn3 ;
	FRQ         ___,___,___,An5,En4,An2,Cn8,Cn2 ;
	FRQ         ___,___,___,Bn5,Dn4,An3,Cn8,Cn3 ;
	FRQ         ___,___,___,Cn6,Cn4,An2,Cn8,Cn3 ;
	FRQ         ___,___,___,Dn6,Bn3,An3,Cn8,Cn3 ;
	GTM         ___,___,___,___,___,___,___,003
	FRQ         En4,An4,Cn5,An5,An5,An2,Cn8,Cn2 ;
	FRQ         ___,___,___,Bn5,Bn5,An2,___,___ ;
	FRQ         ___,___,___,Cn6,Cn6,An2,___,___ ;
	FRQ         ___,___,___,An5,Dn6,An2,Cn8,Cn2 ;
	FRQ         ___,___,___,Bn5,An5,En3,Cn8,Cn2 ;
	FRQ         ___,___,___,Cn6,Bn5,Dn3,___,___ ;
	FRQ         ___,___,___,Dn6,Cn6,Gn2,Cn8,___ ;
	FRQ         ___,___,___,Bn5,An5,An2,Cn8,Cn2 ;
	FRQ         ___,___,___,Cn6,Bn5,An2,Cn8,Cn2 ;
	FRQ         ___,___,___,Dn6,Cn6,An2,Cn8,___ ;
	FRQ         ___,___,___,En6,Dn6,An2,Cn8,___ ;
	FRQ         ___,___,___,Cn6,Bn5,An2,___,Cn2 ;
	FRQ         ___,___,___,Dn6,Cn6,En3,Cn8,Cn2 ;
	FRQ         ___,___,___,En6,Dn6,Dn3,___,___ ;
	FRQ         ___,___,___,Fn6,En6,Gn2,Cn8,___ ;
	FRQ         ___,___,___,Dn6,Cn6,An2,Cn8,Cn2 ;
	FRQ         En4,Gn4,Bn4,An6,Dn6,An2,Cn8,Cn2 ;
	FRQ         ___,___,___,Gn6,En6,An2,___,___ ;
	FRQ         ___,___,___,Fn6,Fn6,An2,___,___ ;
	FRQ         ___,___,___,En6,Dn6,An2,Cn8,Cn2 ;
	FRQ         ___,___,___,Gn6,An6,En3,Cn8,Cn2 ;
	FRQ         ___,___,___,Fn6,Gn6,Dn3,___,___ ;
	FRQ         ___,___,___,En6,Fn6,Gn2,Cn8,___ ;
	FRQ         ___,___,___,Dn6,En6,An2,Cn8,Cn2 ;
	FRQ         ___,___,___,Fn6,Fn6,An2,Cn8,Cn2 ;
	FRQ         ___,___,___,En6,En6,An2,Cn8,___ ;
	FRQ         ___,___,___,Dn6,Dn6,An2,Cn8,___ ;
	FRQ         ___,___,___,Cn6,Cn6,An2,___,Cn2 ;
	FRQ         ___,___,___,En6,Fn6,En3,Cn8,Cn2 ;
	FRQ         ___,___,___,Dn6,En6,Dn3,___,___ ;
	FRQ         ___,___,___,Cn6,Dn6,Gn2,Cn8,___ ;
	FRQ         ___,___,___,Bn5,Cn6,An2,Cn8,Cn2 ;
	SPEED       003
	FRQ         Cn4,Fn4,An4,Dn6,En6,Fn2,Cn8,Cn2 ;
	FRQ         ___,___,___,En6,___,___,___,___ ;
	FRQ         ___,___,___,Dn6,Dn6,Fn2,___,___ ;
	FRQ         ___,___,___,Q__,___,___,___,___ ;
	FRQ         ___,___,___,Cn6,Cn6,Fn2,___,___ ;
	FRQ         ___,___,___,Q__,___,___,___,___ ;
	FRQ         ___,___,___,En6,Bn5,Fn2,Cn8,Cn2 ;
	FRQ         ___,___,___,Dn6,___,___,___,___ ;
	FRQ         ___,___,___,Cn6,Dn6,Fn2,Cn8,Cn2 ;
	FRQ         ___,___,___,Bn5,En6,___,___,___ ;
	FRQ         ___,___,___,An5,Dn6,An2,___,___ ;
	FRQ         ___,___,___,Q__,Q__,___,___,___ ;
	FRQ         ___,___,___,Bn5,Cn6,Fn2,Cn8,___ ;
	FRQ         ___,___,___,Q__,Q__,___,___,___ ;
	FRQ         ___,___,___,Cn6,En6,Fn2,Cn8,Cn2 ;
	FRQ         ___,___,___,Q__,Dn6,___,___,___ ;
	FRQ         ___,___,___,Dn6,Cn6,Fn2,Cn8,Cn2 ;
	FRQ         ___,___,___,Q__,Bn5,___,___,___ ;
	FRQ         ___,___,___,___,An5,Fn2,Cn8,___ ;
	FRQ         ___,___,___,En6,Q__,___,___,___ ;
	FRQ         ___,___,___,Q__,Bn5,Fn2,Cn8,___ ;
	FRQ         ___,___,___,___,Q__,___,___,___ ;
	FRQ         ___,___,___,Fn6,Cn6,Fn2,___,Cn2 ;
	FRQ         ___,___,___,Q__,Q__,___,___,___ ;
	FRQ         ___,___,___,An6,Dn6,Fn2,Cn8,Cn2 ;
	FRQ         ___,___,___,___,Q__,___,___,___ ;
	FRQ         ___,___,___,___,___,An2,___,___ ;
	FRQ         ___,___,___,___,En6,___,___,___ ;
	FRQ         ___,___,___,___,Q__,Fn2,Cn8,___ ;
	FRQ         ___,___,___,___,___,___,___,___ ;
	FRQ         ___,___,___,___,Fn6,Cn3,Cn8,Cn2 ;
	FRQ         ___,___,___,___,Q__,___,___,___ ;
	SPEED       006
	FRQ         ___,___,___,Gn6,An6,Fn2,Cn8,Cn2 ;
	FRQ         ___,___,___,En6,___,Fn2,___,___ ;
	FRQ         ___,___,___,Dn6,___,Fn2,___,___ ;
	FRQ         ___,___,___,Cn6,___,Fn2,Cn8,Cn2 ;
	FRQ         ___,___,___,Q__,Gn6,Fn2,Cn8,Cn2 ;
	FRQ         ___,___,___,___,En6,Fn2,___,___ ;
	FRQ         ___,___,___,En6,Dn6,Fn2,Cn8,___ ;
	GTM         ___,___,___,___,___,___,___,255
	FRQ         ___,___,___,Dn6,Cn6,Fn2,Cn8,___ ;
	FRQ         ___,___,___,Cn6,Q__,En2,Cn8,Cn2 ;
	FRQ         En3,En3,Cn3,An5,___,En2,Cn8,Gn3 ;
	FRQ         ___,___,___,Q__,En6,___,___,___ ;
	FRQ         Q__,Q__,Q__,___,Dn6,Q__,Q__,Q__ ;
	FRQ         Bn2,Bn2,Gn3,Cn6,Cn6,Bn2,Cn8,En3 ;
	FRQ         ___,___,___,An5,An6,___,___,___ ;
	FRQ         Q__,Q__,Q__,Gn5,Q__,Q__,Q__,Q__ ;
	FRQ         En4,En4,Cn4,En5,___,En3,Cn8,Gn2 ;
	GTM         ___,___,___,___,___,___,___,003
	FRQ         En4,An4,Cn5,En6,Cn6,An2,Cn8,Cn2 ;
	FRQ         ___,___,___,Gn6,An5,An2,___,___ ;
	FRQ         ___,___,___,An6,Gn5,An2,___,___ ;
	FRQ         ___,___,___,Cn7,En5,An2,Cn8,Cn2 ;
	FRQ         ___,___,___,An6,En6,En3,Cn8,Cn2 ;
	FRQ         ___,___,___,Gn6,Gn6,Dn3,___,___ ;
	FRQ         ___,___,___,En6,An6,Gn2,Cn8,___ ;
	FRQ         ___,___,___,Gn6,Cn7,An2,Cn8,Cn2 ;
	FRQ         ___,___,___,An6,An6,An2,Cn8,Cn2 ;
	FRQ         ___,___,___,Cn7,Gn6,An2,Cn8,___ ;
	FRQ         ___,___,___,An6,En6,An2,Cn8,___ ;
	FRQ         ___,___,___,Gn6,Gn6,An2,___,Cn2 ;
	FRQ         ___,___,___,En6,An6,En3,Cn8,Cn2 ;
	FRQ         ___,___,___,Gn6,Cn7,Dn3,___,___ ;
	FRQ         ___,___,___,An6,An6,Gn2,Cn8,___ ;
	FRQ         ___,___,___,Cn7,Gn6,An2,Cn8,Cn2 ;
	FRQ         En4,Gn4,Bn4,An6,En6,An2,Cn8,Cn2 ;
	FRQ         ___,___,___,Gn6,Gn6,An2,___,___ ;
	FRQ         ___,___,___,En6,An6,An2,___,___ ;
	FRQ         ___,___,___,Gn6,Cn7,An2,Cn8,Cn2 ;
	FRQ         ___,___,___,An6,An6,En3,Cn8,Cn2 ;
	FRQ         ___,___,___,Cn7,Gn6,Dn3,___,___ ;
	FRQ         ___,___,___,An6,En6,Gn2,Cn8,___ ;
	FRQ         ___,___,___,Gn6,Gn6,An2,Cn8,Cn2 ;
	FRQ         ___,___,___,En6,An6,An2,Cn8,Cn2 ;
	FRQ         ___,___,___,Gn6,Cn7,An2,Cn8,___ ;
	FRQ         ___,___,___,An6,An6,An2,Cn8,___ ;
	FRQ         ___,___,___,Cn7,Gn6,An2,___,Cn2 ;
	FRQ         ___,___,___,Dn7,En6,En3,Cn8,Cn2 ;
	FRQ         ___,___,___,En7,An6,Dn3,___,___ ;
	FRQ         ___,___,___,An7,Cn7,Gn2,Cn8,___ ;
	PIT         ___,___,___,039,___,___,___,___
	PITRAT      ___,___,___,020,___,___,___,___
	PITDEP      ___,___,___,255,___,___,___,___
	FRQ         ___,___,___,Gn7,Dn7,An2,Cn8,Cn2 ;
	FRQ         Cn4,Fn4,An4,___,En7,Fn2,Cn8,Cn2 ;
	FRQ         ___,___,___,___,An7,Fn2,___,___ ;
	PIT         ___,___,___,___,039,___,___,___
	PITRAT      ___,___,___,___,020,___,___,___
	PITDEP      ___,___,___,___,255,___,___,___
	FRQ         ___,___,___,___,Gn7,Fn2,___,___ ;
	FRQ         ___,___,___,___,___,Fn2,Cn8,Cn2 ;
	FRQ         ___,___,___,___,___,Fn2,Cn8,Cn2 ;
	FRQ         ___,___,___,___,___,An2,___,___ ;
	FRQ         ___,___,___,___,___,Fn2,Cn8,___ ;
	FRQ         ___,___,___,___,___,Fn2,Cn8,Cn2 ;
	FRQ         ___,___,___,___,___,Fn2,Cn8,Cn2 ;
	FRQ         ___,___,___,___,___,Fn2,Cn8,___ ;
	FRQ         ___,___,___,___,___,Fn2,Cn8,___ ;
	FRQ         ___,___,___,___,___,Fn2,___,Cn2 ;
	FRQ         ___,___,___,___,___,Fn2,Cn8,Cn2 ;
	FRQ         ___,___,___,___,___,An2,___,___ ;
	PIT         ___,___,___,013,015,___,___,___
	PITRAT      ___,___,___,140,140,___,___,___
	PITDEP      ___,___,___,120,120,___,___,___
	FRQ         ___,___,___,En7,___,Fn2,Cn8,___ ;
	FRQ         ___,___,___,Dn7,___,Cn3,Cn8,Cn2 ;
	FRQ         ___,___,___,En7,___,Fn2,Cn8,Cn2 ;
	FRQ         ___,___,___,___,___,Fn2,___,___ ;
	FRQ         ___,___,___,___,En7,Fn2,___,___ ;
	FRQ         ___,___,___,___,Dn7,Fn2,Cn8,Cn2 ;
	FRQ         ___,___,___,___,En7,Fn2,Cn8,Cn2 ;
	FRQ         ___,___,___,___,___,Fn2,___,___ ;
	FRQ         ___,___,___,Cn7,___,Fn2,Cn8,___ ;
	FRQ         ___,___,___,Bn6,___,Fn2,Cn8,Cn2 ;
	FRQ         ___,___,___,Cn7,___,En2,Cn8,Cn2 ;
	FRQ         ___,___,___,___,___,En3,Cn8,___ ;
	FRQ         ___,___,___,En6,Cn7,Dn3,Cn8,___ ;
	FRQ         ___,___,___,Dn6,Bn6,Cn3,Cn8,Cn2 ;
	PIT         ___,___,___,036,___,___,___,___
	PITRAT      ___,___,___,020,___,___,___,___
	GTM         ___,___,___,___,___,___,___,255
	PITDEP      ___,___,___,255,___,___,___,___
	FRQ         ___,___,___,En6,Cn7,Bn2,Cn8,En3 ;
	FRQ         ___,___,___,___,___,Cn3,Cn8,En3 ;
	FRQ         ___,___,___,___,En6,Gn2,Cn8,En3 ;
	FRQ         ___,___,___,___,Dn6,An2,Cn8,___ ;
	GTM         ___,___,___,___,___,___,___,003
	PIT         ___,___,___,___,036,___,___,___
	PITRAT      ___,___,___,___,020,___,___,___
	PITDEP      ___,___,___,___,255,___,___,___
	FRQ         En4,An4,Cn5,___,En6,An2,Cn8,Cn2 ;
	FRQ         ___,___,___,___,___,An2,___,___ ;
	FRQ         ___,___,___,___,___,An2,___,___ ;
	FRQ         ___,___,___,___,___,An2,Cn8,Cn2 ;
	FRQ         ___,___,___,___,___,En3,Cn8,Cn2 ;
	FRQ         ___,___,___,___,___,Dn3,___,___ ;
	FRQ         ___,___,___,___,___,Gn2,Cn8,___ ;
	FRQ         ___,___,___,___,___,An2,Cn8,Cn2 ;
	FRQ         ___,___,___,___,___,An2,Cn8,Cn2 ;
	FRQ         ___,___,___,___,___,An2,Cn8,___ ;
	FRQ         ___,___,___,___,___,An2,Cn8,___ ;
	FRQ         ___,___,___,___,___,An2,___,Cn2 ;
	FRQ         ___,___,___,___,___,En3,Cn8,Cn2 ;
	FRQ         ___,___,___,___,___,Dn3,___,___ ;
	FRQ         ___,___,___,___,___,Gn2,Cn8,___ ;
	FRQ         ___,___,___,___,___,An2,Cn8,Cn2 ;
	PIT         ___,___,___,013,015,___,___,___
	PITRAT      ___,___,___,140,140,___,___,___
	PITDEP      ___,___,___,120,120,___,___,___
	FRQ         En4,Gn4,Bn4,___,___,An2,Cn8,Cn2 ;
	FRQ         ___,___,___,___,___,An2,___,___ ;
	FRQ         ___,___,___,___,___,An2,___,___ ;
	FRQ         ___,___,___,___,___,An2,Cn8,Cn2 ;
	FRQ         ___,___,___,___,___,En3,Cn8,Cn2 ;
	FRQ         ___,___,___,___,___,Dn3,___,___ ;
	FRQ         ___,___,___,___,___,Gn2,Cn8,___ ;
	FRQ         ___,___,___,___,___,An2,Cn8,Cn2 ;
	FRQ         ___,___,___,___,___,An2,Cn8,Cn2 ;
	FRQ         ___,___,___,___,___,An2,Cn8,___ ;
	FRQ         ___,___,___,___,___,An2,Cn8,___ ;
	FRQ         ___,___,___,___,___,An2,___,Cn2 ;
	FRQ         ___,___,___,___,___,En3,Cn8,Cn2 ;
	FRQ         ___,___,___,___,___,Dn3,___,___ ;
	FRQ         ___,___,___,___,___,Gn2,Cn8,___ ;
	FRQ         ___,___,___,___,___,An2,Cn8,Cn2 ;
	FRQ         Cn4,Fn4,An4,___,___,Fn2,Cn8,Cn2 ;
	FRQ         ___,___,___,___,___,Fn2,___,___ ;
	FRQ         ___,___,___,___,___,Fn2,___,___ ;
	FRQ         ___,___,___,___,___,Fn2,Cn8,Cn2 ;
	FRQ         ___,___,___,___,___,Fn2,Cn8,Cn2 ;
	FRQ         ___,___,___,___,___,An2,___,___ ;
	FRQ         ___,___,___,___,___,Fn2,Cn8,___ ;
	FRQ         ___,___,___,___,___,Fn2,Cn8,Cn2 ;
	FRQ         ___,___,___,___,___,Fn2,Cn8,Cn2 ;
	FRQ         ___,___,___,___,___,Fn2,Cn8,___ ;
	FRQ         ___,___,___,___,___,Fn2,Cn8,___ ;
	FRQ         ___,___,___,___,___,Fn2,___,Cn2 ;
	FRQ         ___,___,___,___,___,Fn2,Cn8,Cn2 ;
	FRQ         ___,___,___,___,___,An2,___,___ ;
	FRQ         ___,___,___,___,___,Fn2,Cn8,___ ;
	FRQ         ___,___,___,___,___,Cn3,Cn8,Cn2 ;
	FRQ         ___,___,___,En6,___,Fn2,Cn8,Cn2 ;
	FRQ         ___,___,___,___,___,Fn2,___,___ ;
	FRQ         ___,___,___,Q__,___,Fn2,___,___ ;
	FRQ         ___,___,___,Dn6,___,Fn2,Cn8,Cn2 ;
	FRQ         ___,___,___,___,En6,Fn2,Cn8,Cn2 ;
	FRQ         ___,___,___,Q__,___,Fn2,___,___ ;
	FRQ         ___,___,___,Cn6,Q__,Fn2,Cn8,___ ;
	FRQ         ___,___,___,___,Dn6,Fn2,Cn8,Cn2 ;
	GTM         ___,___,___,___,___,___,___,255
	FRQ         ___,___,___,Q__,___,En2,Cn8,Cn2 ;
	FRQ         ___,___,___,Bn5,Q__,En3,Cn8,Cn3 ;
	FRQ         ___,___,___,___,Cn6,Dn3,Cn8,Cn3 ;
	FRQ         ___,___,___,Q__,___,Cn3,Cn8,Cn2 ;
	FRQ         ___,___,___,Cn6,Q__,Bn2,Cn8,Cn3 ;
	FRQ         ___,___,___,___,Bn5,Cn3,Cn8,___ ;
	FRQ         ___,___,___,Q__,___,Gn2,Cn8,Cn3 ;
	PIT         ___,___,___,038,___,___,___,___
	PITRAT      ___,___,___,020,___,___,___,___
	GTM         ___,___,___,___,___,___,___,003
	PITDEP      ___,___,___,255,___,___,___,___
	FRQ         ___,___,___,Dn6,Q__,An2,Cn8,___ ;
	FRQ         En4,An4,Cn5,___,Cn6,An2,Cn8,Cn2 ;
	FRQ         ___,___,___,___,___,An2,___,___ ;
	FRQ         ___,___,___,___,Q__,An2,___,___ ;
	PIT         ___,___,___,___,038,___,___,___
	PITRAT      ___,___,___,___,020,___,___,___
	PITDEP      ___,___,___,___,255,___,___,___
	FRQ         ___,___,___,___,Dn6,An2,Cn8,Cn2 ;
	FRQ         ___,___,___,___,___,En3,Cn8,Cn2 ;
	FRQ         ___,___,___,___,___,Dn3,___,___ ;
	FRQ         ___,___,___,___,___,Gn2,Cn8,___ ;
	FRQ         ___,___,___,___,___,An2,Cn8,Cn2 ;
	FRQ         ___,___,___,___,___,An2,Cn8,Cn2 ;
	FRQ         ___,___,___,___,___,An2,Cn8,___ ;
	FRQ         ___,___,___,___,___,An2,Cn8,___ ;
	FRQ         ___,___,___,___,___,An2,___,Cn2 ;
	FRQ         ___,___,___,___,___,En3,Cn8,Cn2 ;
	FRQ         ___,___,___,___,___,Dn3,___,___ ;
	FRQ         ___,___,___,___,___,Gn2,Cn8,___ ;
	FRQ         ___,___,___,___,___,An2,Cn8,Cn2 ;
	FRQ         En4,Gn4,Bn4,___,___,An2,Cn8,Cn2 ;
	FRQ         ___,___,___,___,___,An2,___,___ ;
	FRQ         ___,___,___,___,___,An2,___,___ ;
	FRQ         ___,___,___,___,___,An2,Cn8,Cn2 ;
	FRQ         ___,___,___,___,___,En3,Cn8,Cn2 ;
	FRQ         ___,___,___,___,___,Dn3,___,___ ;
	FRQ         ___,___,___,___,___,Gn2,Cn8,___ ;
	FRQ         ___,___,___,___,___,An2,Cn8,Cn2 ;
	FRQ         ___,___,___,___,___,An2,Cn8,Cn2 ;
	FRQ         ___,___,___,___,___,An2,Cn8,___ ;
	FRQ         ___,___,___,___,___,An2,Cn8,___ ;
	FRQ         ___,___,___,___,___,An2,___,Cn2 ;
	FRQ         ___,___,___,___,___,En3,Cn8,Cn2 ;
	FRQ         ___,___,___,___,___,Dn3,___,___ ;
	FRQ         ___,___,___,___,___,Gn2,Cn8,___ ;
	FRQ         ___,___,___,___,___,An2,Cn8,Cn2 ;
	FRQ         Cn4,Fn4,An4,___,___,Fn2,Cn8,Cn2 ;
	FRQ         ___,___,___,___,___,Fn2,___,___ ;
	FRQ         ___,___,___,___,___,Fn2,___,___ ;
	FRQ         ___,___,___,___,___,Fn2,Cn8,Cn2 ;
	FRQ         ___,___,___,___,___,Fn2,Cn8,Cn2 ;
	FRQ         ___,___,___,___,___,An2,___,___ ;
	FRQ         ___,___,___,___,___,Fn2,Cn8,___ ;
	FRQ         ___,___,___,___,___,Fn2,Cn8,Cn2 ;
	FRQ         ___,___,___,___,___,Fn2,Cn8,Cn2 ;
	FRQ         ___,___,___,___,___,Fn2,Cn8,___ ;
	FRQ         ___,___,___,___,___,Fn2,Cn8,___ ;
	FRQ         ___,___,___,___,___,Fn2,___,Cn2 ;
	FRQ         ___,___,___,___,___,Fn2,Cn8,Cn2 ;
	FRQ         ___,___,___,___,___,An2,___,___ ;
	FRQ         ___,___,___,___,___,Fn2,Cn8,___ ;
	FRQ         ___,___,___,___,___,Cn3,Cn8,Cn2 ;
	FRQ         ___,___,___,___,___,Fn2,Cn8,Cn2 ;
	FRQ         ___,___,___,___,___,Fn2,___,___ ;
	FRQ         ___,___,___,___,___,Fn2,___,___ ;
	FRQ         ___,___,___,___,___,Fn2,Cn8,Cn2 ;
	FRQ         ___,___,___,___,___,Fn2,Cn8,Cn2 ;
	FRQ         ___,___,___,___,___,Fn2,___,___ ;
	FRQ         ___,___,___,___,___,Fn2,Cn8,___ ;
	FRQ         ___,___,___,___,___,Fn2,Cn8,Cn2 ;
	GTM         ___,___,___,___,___,___,___,255
	FRQ         ___,___,___,___,___,En2,Cn8,Gn3 ;
	FRQ         ___,___,___,___,___,En3,Cn8,En3 ;
	FRQ         ___,___,___,___,___,Dn3,Cn8,Cn3 ;
	FRQ         ___,___,___,___,___,Cn3,Cn8,Gn2 ;
	FRQ         ___,___,___,___,___,Bn2,Cn8,Cn3 ;
	FRQ         ___,___,___,___,___,Cn3,Cn8,Gn2 ;
	FRQ         ___,___,___,___,___,Gn2,Cn8,Cn2 ;
	FRQ         ___,___,___,___,___,An2,Cn8,Cn2 ;
	GTM         ___,___,___,___,___,___,___,003
	PIT         ___,___,___,013,015,___,___,___
	PITRAT      ___,___,___,140,140,___,___,___
	PITDEP      ___,___,___,120,120,___,___,___
	FRQ         En4,An4,Cn5,An4,___,An2,Cn8,Cn2 ;
	FRQ         ___,___,___,Gn4,___,An2,___,___ ;
	FRQ         ___,___,___,En4,___,An2,___,___ ;
	FRQ         ___,___,___,Dn4,An4,An2,Cn8,Cn2 ;
	FRQ         ___,___,___,An3,Gn4,En3,Cn8,Cn2 ;
	FRQ         ___,___,___,___,En4,Dn3,___,___ ;
	FRQ         ___,___,___,___,Dn4,Gn2,Cn8,___ ;
	FRQ         ___,___,___,___,An3,An2,Cn8,Cn2 ;
	FRQ         ___,___,___,___,___,An2,Cn8,Cn2 ;
	FRQ         ___,___,___,___,___,An2,Cn8,___ ;
	FRQ         ___,___,___,___,___,An2,Cn8,___ ;
	FRQ         ___,___,___,___,___,An2,___,Cn2 ;
	FRQ         ___,___,___,Bn3,___,En3,Cn8,Cn2 ;
	FRQ         ___,___,___,___,___,Dn3,___,___ ;
	FRQ         ___,___,___,___,___,Gn2,Cn8,___ ;
	FRQ         ___,___,___,___,___,An2,Cn8,Cn2 ;
	FRQ         En4,Gn4,Bn4,Cn4,Bn3,An2,Cn8,Cn2 ;
	FRQ         ___,___,___,___,___,An2,___,___ ;
	FRQ         ___,___,___,___,___,An2,___,___ ;
	FRQ         ___,___,___,Bn3,___,An2,Cn8,Cn2 ;
	FRQ         ___,___,___,___,Cn4,En3,Cn8,Cn2 ;
	FRQ         ___,___,___,___,___,Dn3,___,___ ;
	FRQ         ___,___,___,Cn4,___,Gn2,Cn8,___ ;
	FRQ         ___,___,___,___,Bn3,An2,Cn8,Cn2 ;
	FRQ         ___,___,___,___,___,An2,Cn8,Cn2 ;
	FRQ         ___,___,___,Dn4,___,An2,Cn8,___ ;
	FRQ         ___,___,___,___,Cn4,An2,Cn8,___ ;
	FRQ         ___,___,___,___,___,An2,___,Cn2 ;
	FRQ         ___,___,___,Cn4,___,En3,Cn8,Cn2 ;
	FRQ         ___,___,___,___,Dn4,Dn3,___,___ ;
	FRQ         ___,___,___,___,___,Gn2,Cn8,___ ;
	FRQ         ___,___,___,Dn4,___,An2,Cn8,Cn2 ;
	FRQ         Cn4,Fn4,An4,___,Cn4,Fn2,Cn8,Cn2 ;
	FRQ         ___,___,___,___,___,Fn2,___,___ ;
	FRQ         ___,___,___,En4,___,Fn2,___,___ ;
	FRQ         ___,___,___,___,Dn4,Fn2,Cn8,Cn2 ;
	FRQ         ___,___,___,___,___,Fn2,Cn8,Cn2 ;
	FRQ         ___,___,___,___,___,An2,___,___ ;
	FRQ         ___,___,___,___,En4,Fn2,Cn8,___ ;
	FRQ         ___,___,___,___,___,Fn2,Cn8,Cn2 ;
	FRQ         ___,___,___,___,___,Fn2,Cn8,Cn2 ;
	FRQ         ___,___,___,___,___,Fn2,Cn8,___ ;
	FRQ         ___,___,___,___,___,Fn2,Cn8,___ ;
	FRQ         ___,___,___,___,___,Fn2,___,Cn2 ;
	FRQ         ___,___,___,___,___,Fn2,Cn8,Cn2 ;
	FRQ         ___,___,___,___,___,An2,___,___ ;
	FRQ         ___,___,___,___,___,Fn2,Cn8,___ ;
	FRQ         ___,___,___,___,___,Cn3,Cn8,Cn2 ;
	GTM         ___,___,___,___,___,___,___,255
	FRQ         ___,___,___,___,___,En2,___,Cn2 ;
	FRQ         ___,___,___,Bn4,___,Bn2,Cn9,Gn3 ;
	FRQ         ___,___,___,En5,___,En3,Cn9,Gn3 ;
	FRQ         ___,___,___,Fn4,___,Fn2,___,Cn2 ;
	FRQ         ___,___,___,Cn5,___,Cn3,Cn9,En3 ;
	FRQ         ___,___,___,Fn5,Bn4,Fn3,Cn9,En3 ;
	FRQ         ___,___,___,Gn4,En5,Gn2,___,Cn2 ;
	FRQ         ___,___,___,Dn5,Fn4,Dn3,Cn9,Cn3 ;
	FRQ         ___,___,___,Gn5,Cn5,Gn3,Cn9,Cn3 ;
	FRQ         ___,___,___,An4,Fn5,An2,___,Cn2 ;
	FRQ         ___,___,___,En5,Gn4,En3,Cn9,Gn2 ;
	FRQ         ___,___,___,An5,Dn5,An3,Cn9,Gn2 ;
	FRQ         ___,___,___,Cn5,Gn5,Cn3,___,En3 ;
	FRQ         ___,___,___,Gn5,An4,Gn4,Cn9,Cn3 ;
	FRQ         ___,___,___,Cn6,En5,Cn4,Cn9,Gn2 ;
	FRQ         ___,___,___,En5,An5,___,___,___ ;
	GTM         ___,___,___,___,___,___,___,003
	FRQ         En4,An4,Cn5,An5,Cn5,An2,Cn8,Cn2 ;
	FRQ         ___,___,___,En6,Gn6,An2,___,___ ;
	FRQ         ___,___,___,Dn6,Cn6,An2,___,___ ;
	FRQ         ___,___,___,Cn6,En5,An2,Cn8,Cn2 ;
	FRQ         ___,___,___,___,An5,En3,Cn8,Cn2 ;
	FRQ         ___,___,___,___,En6,Dn3,___,___ ;
	FRQ         ___,___,___,An5,Dn6,Gn2,Cn8,___ ;
	FRQ         ___,___,___,Gn5,Cn6,An2,Cn8,Cn2 ;
	FRQ         ___,___,___,Fn5,___,An2,Cn8,Cn3 ;
	FRQ         ___,___,___,En5,___,An2,Cn8,Cn3 ;
	FRQ         ___,___,___,___,An5,An2,Cn8,___ ;
	FRQ         ___,___,___,___,Gn5,An2,___,Cn2 ;
	FRQ         ___,___,___,An6,Fn5,En3,Cn8,Cn2 ;
	FRQ         ___,___,___,Gn6,En5,Dn3,___,___ ;
	FRQ         ___,___,___,Fn6,___,Gn2,Cn8,___ ;
	FRQ         ___,___,___,En6,___,An2,Cn8,Cn2 ;
	FRQ         En4,Gn4,Bn4,An5,An6,An2,Cn8,Cn2 ;
	FRQ         ___,___,___,An6,Gn6,An2,___,___ ;
	FRQ         ___,___,___,An5,Fn6,An2,___,___ ;
	FRQ         ___,___,___,Gn6,En6,An2,Cn8,Cn2 ;
	FRQ         ___,___,___,An5,An5,En3,Cn8,Cn2 ;
	FRQ         ___,___,___,En6,An6,Dn3,___,___ ;
	FRQ         ___,___,___,An5,An5,Gn2,Cn8,___ ;
	FRQ         ___,___,___,Dn6,Gn6,An2,Cn8,Cn2 ;
	FRQ         ___,___,___,An5,An5,An2,Cn8,Cn2 ;
	FRQ         ___,___,___,Cn6,En6,An2,Cn8,___ ;
	FRQ         ___,___,___,An5,An5,An2,Cn8,___ ;
	FRQ         ___,___,___,Bn5,Dn6,An2,___,Cn2 ;
	FRQ         ___,___,___,An5,An5,En3,Cn8,Cn2 ;
	FRQ         ___,___,___,Bn5,Cn6,Dn3,___,___ ;
	FRQ         ___,___,___,Cn6,An5,Gn2,Cn8,___ ;
	FRQ         ___,___,___,___,Bn5,An2,Cn8,Cn2 ;
	FRQ         Cn4,Fn4,An4,En6,An5,Fn2,Cn8,Cn2 ;
	FRQ         ___,___,___,Bn5,Bn5,Fn2,___,___ ;
	FRQ         ___,___,___,An5,Cn6,Fn2,___,___ ;
	FRQ         ___,___,___,Q__,___,Fn2,Cn8,Cn2 ;
	GTM         ___,___,___,___,000,___,___,___
	FRQ         ___,___,___,___,En6,Fn2,Cn8,Cn2 ;
	FRQ         ___,___,___,___,Bn5,An2,___,___ ;
	FRQ         ___,___,___,En6,An5,Fn2,Cn8,___ ;
	FRQ         ___,___,___,Bn5,Q__,Fn2,Cn8,Cn2 ;
	FRQ         ___,___,___,An5,___,Fn2,Cn8,Cn2 ;
	FRQ         ___,___,___,Q__,___,Fn2,Cn8,___ ;
	FRQ         ___,___,___,___,En6,Fn2,Cn8,___ ;
	FRQ         ___,___,___,___,Bn5,Fn2,___,Cn2 ;
	FRQ         ___,___,___,En6,An5,Fn2,Cn8,Cn2 ;
	FRQ         ___,___,___,Bn5,Q__,An2,___,___ ;
	FRQ         ___,___,___,An5,___,Fn2,Cn8,___ ;
	FRQ         ___,___,___,En5,___,Cn3,Cn8,Cn2 ;
	PAN         ___,___,___,__R,L__,___,___,___
	VOL         ___,___,___,225,230,___,___,___
	FRQ         ___,___,___,Q__,En6,Fn2,Cn8,Cn2 ;
	FRQ         ___,___,___,___,Bn5,Fn2,___,___ ;
	FRQ         ___,___,___,___,An5,Fn2,___,___ ;
	FRQ         ___,___,___,___,En5,Fn2,Cn8,Cn2 ;
	FRQ         ___,___,___,___,Q__,Fn2,Cn8,Cn2 ;
	FRQ         ___,___,___,En6,___,Fn2,___,___ ;
	FRQ         ___,___,___,Bn5,___,Fn2,Cn8,___ ;
	GTM         ___,___,___,___,___,___,___,255
	SPEED       003
	VOL         ___,___,___,___,220,___,___,___
	FRQ         ___,___,___,An5,___,Fn2,Cn8,Cn3 ;
	FRQ         ___,___,___,___,___,___,___,Cn3 ;
	SPEED       006
	FRQ         ___,___,___,En5,___,En2,Cn8,Cn2 ;
	FRQ         ___,___,___,___,En6,En3,Cn8,Cn2 ;
	SPEED       003
	FRQ         ___,___,___,Q__,Bn5,Dn3,Cn8,Cn3 ;
	FRQ         ___,___,___,___,___,___,___,Cn3 ;
	VOL         ___,___,___,235,___,___,___,___
	PAN         ___,___,___,_C_,___,___,___,___
	SPEED       006
	FRQ         ___,___,___,___,An5,Cn3,Cn8,Cn2 ;
	FRQ         ___,___,___,___,En5,Bn2,Cn8,Cn2 ;
	SPEED       003
	FRQ         ___,___,___,___,Q__,Cn3,Cn8,Cn3 ;
	FRQ         ___,___,___,___,___,___,___,Cn3 ;
	SPEED       006
	FRQ         ___,___,___,___,___,Gn2,Cn8,Cn2 ;
	FRQ         ___,___,___,___,___,An2,Cn8,Cn2 ;
	VOL         ___,___,___,___,225,___,___,___
	PAN         ___,___,___,___,_C_,___,___,___
	PIT         ___,___,___,038,038,___,___,___
	PITRAT      ___,___,___,015,015,___,___,___
	GTM         ___,___,___,___,___,___,___,003
	PITDEP      ___,___,___,255,255,___,___,___
	FRQ         En4,An4,Cn5,Cn6,___,An2,Cn9,Cn2 ;
	FRQ         En4,An4,Cn5,___,___,An2,Cn9,Cn2 ;
	FRQ         Q__,Q__,Q__,___,___,An2,___,___ ;
	FRQ         En4,An4,Cn5,___,___,An2,Cn9,Cn2 ;
	FRQ         En4,An4,Cn5,___,Cn6,En3,Cn9,Cn2 ;
	FRQ         Q__,Q__,Q__,___,___,Dn3,___,___ ;
	FRQ         En4,An4,Cn5,___,___,Gn2,Cn9,Cn2 ;
	FRQ         En4,An4,Cn5,___,___,An2,Cn9,Cn2 ;
	FRQ         Q__,Q__,Q__,___,___,An2,___,___ ;
	FRQ         En4,An4,Cn5,___,___,An2,Cn9,Cn2 ;
	FRQ         En4,An4,Cn5,___,___,An2,Cn9,Cn2 ;
	FRQ         Q__,Q__,Q__,___,___,An2,___,___ ;
	FRQ         En4,An4,Cn5,___,___,En3,Cn9,Cn2 ;
	GTM         ___,___,___,___,___,___,___,255
	FRQ         En4,An4,Cn5,___,___,Dn3,Cn9,Cn3 ;
	FRQ         ___,___,___,___,___,Gn2,Cn9,Cn3 ;
	FRQ         ___,___,___,___,___,An2,Cn9,Cn3 ;
	GTM         ___,___,___,___,___,___,___,003
	FRQ         En4,Gn4,Bn4,Dn6,___,An2,Cn9,Cn2 ;
	FRQ         En4,Gn4,Bn4,___,___,An2,Cn9,Cn2 ;
	FRQ         Q__,Q__,Q__,___,___,An2,___,___ ;
	FRQ         En4,Gn4,Bn4,___,___,An2,Cn9,Cn2 ;
	FRQ         En4,Gn4,Bn4,___,Dn6,En3,Cn9,Cn2 ;
	FRQ         Q__,Q__,Q__,___,___,Dn3,___,___ ;
	FRQ         En4,Gn4,Bn4,___,___,Gn2,Cn9,Cn2 ;
	FRQ         En4,Gn4,Bn4,___,___,An2,Cn9,Cn2 ;
	FRQ         Q__,Q__,Q__,___,___,An2,___,___ ;
	FRQ         En4,Gn4,Bn4,___,___,An2,Cn9,Cn2 ;
	FRQ         En4,Gn4,Bn4,___,___,An2,Cn9,Cn2 ;
	FRQ         Q__,Q__,Q__,___,___,An2,___,___ ;
	FRQ         En4,Gn4,Bn4,___,___,En3,Cn9,En3 ;
	GTM         ___,___,___,___,___,___,___,255
	FRQ         En4,Gn4,Bn4,___,___,Dn3,Cn9,Cn3 ;
	FRQ         ___,___,___,___,___,Gn2,Cn9,Cn3 ;
	FRQ         ___,___,___,___,___,An2,Cn9,Cn3 ;
	GTM         ___,___,___,___,___,___,___,003
	FRQ         Cn4,Fn4,An4,En6,___,Fn2,Cn9,Cn2 ;
	FRQ         Cn4,Fn4,An4,___,___,Fn2,Cn9,Cn2 ;
	FRQ         Q__,Q__,Q__,___,___,Fn2,___,___ ;
	FRQ         Cn4,Fn4,An4,___,___,Fn2,Cn9,Cn2 ;
	FRQ         Cn4,Fn4,An4,___,En6,Fn2,Cn9,Cn2 ;
	FRQ         Q__,Q__,Q__,___,___,An2,___,___ ;
	FRQ         Cn4,Fn4,An4,___,___,Fn2,Cn9,Cn2 ;
	FRQ         Cn4,Fn4,An4,___,___,Fn2,Cn9,Cn2 ;
	FRQ         Q__,Q__,Q__,___,___,Fn2,___,___ ;
	FRQ         Cn4,Fn4,An4,___,___,Fn2,Cn9,Cn2 ;
	FRQ         Cn4,Fn4,An4,___,___,Fn2,Cn9,Cn2 ;
	FRQ         Q__,Q__,Q__,___,___,Fn2,___,___ ;
	FRQ         Cn4,Fn4,An4,___,___,Fn2,Cn9,Gn2 ;
	FRQ         Cn4,Fn4,An4,___,___,An2,Cn9,Cn2 ;
	FRQ         ___,___,___,___,___,Fn2,Cn9,Cn2 ;
	FRQ         ___,___,___,___,___,Cn3,Cn9,Cn2 ;
	PIT         ___,___,___,013,015,___,___,___
	PITRAT      ___,___,___,140,140,___,___,___
	PITDEP      ___,___,___,120,120,___,___,___
	FRQ         Cn4,Fn4,An4,___,___,Fn2,Cn9,Cn2 ;
	FRQ         Cn4,Fn4,An4,___,___,Fn2,Cn9,Cn2 ;
	FRQ         Q__,Q__,Q__,___,___,Fn2,___,___ ;
	FRQ         Cn4,Fn4,An4,___,___,Fn2,Cn9,Cn2 ;
	FRQ         Cn4,Fn4,An4,___,___,Fn2,Cn9,Cn2 ;
	FRQ         Q__,Q__,Q__,___,___,Fn2,___,___ ;
	FRQ         Cn4,Fn4,An4,___,___,Fn2,Cn9,Cn2 ;
	FRQ         Cn4,Fn4,An4,___,___,Fn2,Cn9,Cn2 ;
	FRQ         Cn5,Cn6,En5,En5,___,En2,___,Cn2 ;
	GTM         ___,___,___,___,___,___,___,255
	FRQ         Cn5,Cn6,En6,En6,___,En3,___,Cn3 ;
	FRQ         Bn4,Bn5,Dn6,Dn6,___,Dn3,___,Cn3 ;
	FRQ         An4,An5,Cn6,Cn6,___,Cn3,___,Cn3 ;
	FRQ         Gn4,Gn5,Bn5,Bn5,En5,Bn2,___,Cn3 ;
	FRQ         An4,An5,Cn6,Cn6,En6,Cn3,___,Cn3 ;
	FRQ         Dn4,Dn5,Gn5,Gn5,Dn6,Gn2,___,Cn3 ;
	FRQ         En4,En5,An5,An5,Cn6,An2,___,Cn3 ;
	GTM         ___,___,___,___,___,___,___,003
	FRQ         En4,An4,Cn5,An5,Bn5,An2,Cn9,Cn2 ;
	FRQ         ___,___,___,Bn5,Cn6,An2,___,___ ;
	FRQ         ___,___,___,Cn6,Gn5,An2,___,___ ;
	FRQ         ___,___,___,Dn6,An5,An2,Cn9,Cn2 ;
	FRQ         ___,___,___,Cn6,An5,En3,Cn9,Cn2 ;
	FRQ         ___,___,___,Dn6,Bn6,Dn3,___,___ ;
	FRQ         ___,___,___,En6,Cn6,Gn2,Cn9,___ ;
	FRQ         ___,___,___,Fn6,Dn6,An2,Cn9,Cn2 ;
	FRQ         ___,___,___,An6,Cn6,An2,Cn9,Cn2 ;
	FRQ         ___,___,___,___,Dn6,An2,Cn9,___ ;
	FRQ         ___,___,___,___,En6,An2,Cn9,___ ;
	FRQ         ___,___,___,___,Fn6,An2,___,Cn2 ;
	FRQ         ___,___,___,___,An6,En3,Cn9,Cn2 ;
	FRQ         ___,___,___,___,___,Dn3,___,___ ;
	FRQ         ___,___,___,___,___,Gn2,Cn9,___ ;
	FRQ         ___,___,___,___,___,An2,Cn9,Cn2 ;
	FRQ         En4,Gn4,Bn4,___,___,An2,Cn9,Cn2 ;
	FRQ         ___,___,___,___,___,An2,___,___ ;
	FRQ         ___,___,___,___,___,An2,___,___ ;
	FRQ         ___,___,___,___,___,An2,Cn9,Cn2 ;
	FRQ         ___,___,___,___,___,En3,Cn9,Cn2 ;
	FRQ         ___,___,___,___,___,Dn3,___,___ ;
	FRQ         ___,___,___,___,___,Gn2,Cn9,___ ;
	FRQ         ___,___,___,___,___,An2,Cn9,Cn2 ;
	FRQ         ___,___,___,___,___,An2,Cn9,Cn2 ;
	FRQ         ___,___,___,___,___,An2,Cn9,___ ;
	FRQ         ___,___,___,___,___,An2,Cn9,___ ;
	FRQ         ___,___,___,___,___,An2,___,Cn2 ;
	FRQ         ___,___,___,___,___,En3,Cn9,Cn2 ;
	FRQ         ___,___,___,___,___,Dn3,___,___ ;
	FRQ         ___,___,___,___,___,Gn2,Cn9,___ ;
	FRQ         ___,___,___,___,___,An2,Cn9,Cn2 ;
	FRQ         Cn4,Fn4,An4,___,___,Fn2,Cn9,Cn2 ;
	FRQ         ___,___,___,___,___,Fn2,___,___ ;
	FRQ         ___,___,___,___,___,Fn2,___,___ ;
	FRQ         ___,___,___,___,___,Fn2,Cn9,Cn2 ;
	FRQ         ___,___,___,___,___,Fn2,Cn9,Cn2 ;
	FRQ         ___,___,___,___,___,An2,___,___ ;
	FRQ         ___,___,___,___,___,Fn2,Cn9,___ ;
	FRQ         ___,___,___,___,___,Fn2,Cn9,Cn2 ;
	FRQ         ___,___,___,___,___,Fn2,Cn9,Cn2 ;
	FRQ         ___,___,___,___,___,Fn2,Cn9,___ ;
	FRQ         ___,___,___,___,___,Fn2,Cn9,___ ;
	FRQ         ___,___,___,___,___,Fn2,___,Cn2 ;
	FRQ         ___,___,___,___,___,Fn2,Cn9,Cn2 ;
	FRQ         ___,___,___,___,___,An2,___,___ ;
	FRQ         ___,___,___,___,___,Fn2,Cn9,___ ;
	FRQ         ___,___,___,___,___,Cn3,Cn9,Cn2 ;
	FRQ         ___,___,___,___,___,Fn2,Cn9,Cn2 ;
	FRQ         ___,___,___,___,___,Fn2,___,___ ;
	FRQ         ___,___,___,___,___,Fn2,___,___ ;
	FRQ         ___,___,___,___,___,Fn2,Cn9,Cn2 ;
	FRQ         ___,___,___,___,___,Fn2,Cn9,Cn2 ;
	FRQ         ___,___,___,___,___,Fn2,___,___ ;
	FRQ         ___,___,___,___,___,Fn2,Cn9,___ ;
	GTM         ___,___,___,___,___,___,___,255
	FRQ         ___,___,___,___,___,Fn2,Cn9,Cn2 ;
	FRQ         ___,___,___,___,___,En2,Cn9,Cn3 ;
	FRQ         ___,___,___,___,___,En3,Cn9,An2 ;
	FRQ         ___,___,___,___,___,Dn3,Cn9,En2 ;
	FRQ         ___,___,___,___,___,Cn3,Cn9,Cn2 ;
	FRQ         ___,___,___,___,___,Bn2,Cn9,En3 ;
	FRQ         ___,___,___,___,___,Cn3,Cn9,Gn2 ;
	FRQ         ___,___,___,___,___,Gn2,Cn9,Cn3 ;
	FRQ         ___,___,___,___,___,An2,Cn9,Gn2 ;
	GTM         ___,___,___,___,___,___,___,003
	VOL         ___,___,___,230,220,___,___,___
	FRQ         Fn4,Dn4,An3,Fn5,Q__,Fn3,Cn8,Cn2 ;
	FRQ         ___,___,___,Dn5,Fn5,Dn3,___,___ ;
	FRQ         ___,___,___,An4,Dn5,An2,___,Cn2 ;
	FRQ         Gn4,En4,Bn3,Gn5,An4,Gn3,Cn8,Cn2 ;
	FRQ         ___,___,___,___,Gn5,___,Cn8,___ ;
	FRQ         ___,___,___,En5,___,En3,___,Cn2 ;
	FRQ         ___,___,___,Bn4,En5,Bn2,Cn8,Cn2 ;
	FRQ         ___,___,___,___,Bn4,___,Cn8,___ ;
	FRQ         An4,Fn4,Cn4,An5,___,An3,Cn8,Cn3 ;
	FRQ         ___,___,___,Fn5,An5,Fn3,Cn8,Cn3 ;
	FRQ         ___,___,___,Cn5,Fn5,Cn3,Cn8,En2 ;
	FRQ         Bn4,Gn4,Dn4,Bn5,Cn5,Bn3,___,Cn2 ;
	FRQ         ___,___,___,___,Bn5,___,Cn8,___ ;
	FRQ         ___,___,___,Gn5,___,Gn3,___,Cn2 ;
	FRQ         ___,___,___,Dn5,Gn5,Dn3,Cn8,Cn2 ;
	FRQ         ___,___,___,Bn5,Dn5,Bn3,Cn8,___ ;
	SPEED       006
	LINK		000,___,___,___,___,___,___,___
	INS         ___,___,___,022,___,___,___,___
	VOL         ___,___,___,255,___,___,___,___
	LFO         ___,___,___,001,___,___,___,___
	PAN         __R,__R,___,___,___,___,___,___
	FRQ         En5,An5,En5,An5,___,An3,Cn7,___ ;
	PAN         _C_,_C_,___,___,___,___,___,___
	FRQ         En3,An3,Q__,Q__,___,An2,___,___ ;
	PAN         L__,L__,___,___,___,___,___,___
	FRQ         En3,An3,___,___,___,An2,___,___ ;
	PAN         __R,__R,___,___,___,___,___,___
	FRQ         En5,An5,___,___,___,An3,___,___ ;
	PAN         _C_,_C_,___,___,___,___,___,___
	FRQ         En3,An3,___,___,An4,An2,Cn7,Cn2 ;
	PAN         L__,L__,___,___,___,___,___,___
	FRQ         En3,An3,___,___,___,An2,___,___ ;
	PAN         __R,__R,___,___,___,___,___,___
	FRQ         En5,An5,En5,An5,___,An3,___,___ ;
	PAN         _C_,_C_,___,___,___,___,___,___
	FRQ         En3,An3,Q__,Q__,___,An2,___,___ ;
	PAN         L__,L__,___,___,___,___,___,___
	FRQ         En5,An5,En5,An5,___,An3,Cn7,___ ;
	PAN         __R,__R,___,___,___,___,___,___
	FRQ         En3,An3,Q__,Q__,___,An2,___,___ ;
	PAN         _C_,_C_,___,___,___,___,___,___
	FRQ         En3,An3,___,___,___,An2,___,___ ;
	PAN         L__,L__,___,___,___,___,___,___
	FRQ         En5,An5,___,___,___,An3,___,___ ;
	PAN         __R,__R,___,___,___,___,___,___
	FRQ         En3,An3,___,___,An4,An2,Cn7,Cn2 ;
	PAN         _C_,_C_,___,___,___,___,___,___
	FRQ         En3,An3,___,___,___,An2,___,___ ;
	PAN         L__,L__,___,___,___,___,___,___
	FRQ         En5,An5,En5,An5,___,An3,___,___ ;
	PAN         __R,__R,___,___,___,___,___,___
	FRQ         En3,An3,Q__,Q__,___,An2,___,___ ;
	SPEED       012
	LINK		003,___,___,___,___,___,___,___
	INS         ___,___,___,008,___,___,___,___
	VOL         ___,___,___,240,___,___,___,___
	LFO         ___,___,___,255,___,___,___,___
	PAN         _C_,L__,__R,___,___,___,___,___
	FRQ         Cn5,An4,En4,___,___,An2,Cn8,Cn2 ;
	FRQ         ___,___,___,___,___,Q__,___,Q__ ;
	FRQ         ___,___,___,___,___,___,Cn8,___ ;
	FRQ         ___,___,___,___,___,___,___,___ ;
	SPEED       003
	FRQ         ___,___,___,___,___,___,Cn8,___ ;
	FRQ         ___,___,___,___,___,An2,___,Cn2 ;
	FRQ         ___,___,___,___,___,An2,___,Cn2 ;
	FRQ         ___,___,___,___,___,An2,___,Cn2 ;
	FRQ         ___,___,___,___,___,Q__,Cn8,___ ;
	FRQ         ___,___,___,___,___,An2,___,Cn2 ;
	FRQ         ___,___,___,___,___,Q__,___,___ ;
	FRQ         ___,___,___,___,___,An2,___,Cn2 ;
	FRQ         ___,___,___,___,___,Q__,Cn8,___ ;
	FRQ         ___,___,___,___,___,An3,Cn8,Cn2 ;
	FRQ         ___,___,___,___,___,An3,Cn8,Cn2 ;
	FRQ         ___,___,___,___,___,An3,Cn8,Cn2 ;
	FRQ         ___,___,___,___,___,An2,Cn8,Cn2 ;
	FRQ         ___,___,___,___,___,___,___,___ ;
	FRQ         ___,___,___,___,___,An2,Cn8,An2 ;
	FRQ         ___,___,___,___,___,___,___,___ ;
	SPEED       006
	CHANNEL		001,___,___,___,007,___,___,___
	JUMP        song004_jmp001
.endproc
