	.include "song.inc"
	.segment "BANK0"
	.export boss2
.proc boss2
song019_start:
	INIT        %11111111
	TEMPO       001
	SPEED       005
	PIT         ___,___,011,013,015,___,004,004
	PITRAT      ___,___,140,137,135,___,095,095
	TRS         000,000,000,000,000,000,000,000
	TVOL        255
	PITDEP      ___,___,120,120,120,___,140,180
	GTM         002,002,___,___,___,___,255,255
	INS         000,000,000,000,000,000,000,000
	VOL         000,000,000,000,000,000,000,000
	INS         028,023,021,021,005,003,001,001
	VOL         245,240,240,240,255,255,255,255
	LFO         ___,___,___,___,___,___,___,___
	PAN         L__,__R,___,___,_C_,_C_,L__,__R
	SPEED       001
	DEL         ___,___,___,___,___,___,001,___
	FRQ         ___,___,___,___,___,___,Cn3,Cn3 ;
	DEL         ___,___,___,___,___,___,001,___
	FRQ         ___,___,___,___,___,___,Cn3,Cn3 ;
	SPEED       008
	FRQ         ___,___,___,___,___,___,___,___ ;
	SPEED       001
	FRQ         ___,___,___,___,___,___,Cn2,Cn2 ;
	FRQ         ___,___,___,___,___,___,Cn2,Cn2 ;
	SPEED       008
	FRQ         ___,___,___,___,___,___,___,___ ;
	SPEED       001
	FRQ         ___,___,___,___,___,___,Cn2,Cn2 ;
	FRQ         ___,___,___,___,___,___,Cn2,Cn2 ;
	SPEED       008
	FRQ         ___,___,___,___,___,___,___,___ ;
	SPEED       001
	DEL         ___,___,___,___,___,___,001,___
	FRQ         ___,___,___,___,___,___,Gn3,Gn3 ;
	DEL         ___,___,___,___,___,___,001,___
	FRQ         ___,___,___,___,___,___,Gn3,Gn3 ;
	SPEED       003
	FRQ         ___,___,___,___,___,___,___,___ ;
	SPEED       001
	DEL         ___,___,___,___,___,___,001,___
	FRQ         ___,___,___,___,___,___,Gn3,Gn3 ;
	DEL         ___,___,___,___,___,___,001,___
	FRQ         ___,___,___,___,___,___,Gn3,Gn3 ;
	SPEED       003
	FRQ         ___,___,___,___,___,___,___,___ ;
	SPEED       001
	DEL         ___,___,___,___,___,___,001,___
	FRQ         ___,___,___,___,___,___,En3,En3 ;
	DEL         ___,___,___,___,___,___,001,___
	FRQ         ___,___,___,___,___,___,En3,En3 ;
	SPEED       008
	FRQ         ___,___,___,___,___,___,___,___ ;
	SPEED       001
	DEL         ___,___,___,___,___,___,001,___
	FRQ         ___,___,___,___,___,___,Cn3,Cn3 ;
	DEL         ___,___,___,___,___,___,001,___
	FRQ         ___,___,___,___,___,___,Cn3,Cn3 ;
	SPEED       008
	FRQ         ___,___,___,___,___,___,___,___ ;
	SPEED       001
	DEL         ___,___,___,___,___,___,001,___
	FRQ         ___,___,___,___,___,___,Cn3,Cn3 ;
	DEL         ___,___,___,___,___,___,001,___
	FRQ         ___,___,___,___,___,___,Cn3,Cn3 ;
	SPEED       003
	FRQ         ___,___,___,___,___,___,___,___ ;
	SPEED       001
	DEL         ___,___,___,___,___,___,001,___
	FRQ         ___,___,___,___,___,___,Gn2,Gn2 ;
	DEL         ___,___,___,___,___,___,001,___
	FRQ         ___,___,___,___,___,___,Gn2,Gn2 ;
	SPEED       003
	FRQ         ___,___,___,___,___,___,___,___ ;
	SPEED       001
	FRQ         ___,___,___,___,___,___,Cn2,Cn2 ;
	FRQ         ___,___,___,___,___,___,Cn2,Cn2 ;
	SPEED       008
	FRQ         ___,___,___,___,___,___,___,___ ;
	SPEED       005
song019_rept000:
	FRQ         An4,___,An4,Cn5,Dn2,Dn3,Cn2,Cn2 ;
	FRQ         ___,___,___,___,___,___,___,___ ;
	FRQ         Cn5,Dn6,___,___,An2,An3,___,___ ;
	FRQ         ___,___,___,___,___,___,___,___ ;
	DEL         ___,___,___,___,___,___,___,001
	FRQ         An4,___,___,___,Dn3,Dn4,Cn3,Cn3 ;
	FRQ         ___,___,___,___,___,___,___,___ ;
	FRQ         En5,___,___,___,An2,An3,___,___ ;
	FRQ         ___,___,___,___,___,___,___,___ ;
	FRQ         Cn5,Dn6,___,___,Dn2,Dn3,Cn2,Cn2 ;
	FRQ         ___,___,___,___,___,___,___,___ ;
	FRQ         An4,___,___,___,An2,An3,Gn2,Gn2 ;
	FRQ         ___,___,___,___,___,___,___,___ ;
	DEL         ___,___,___,___,___,___,___,001
	FRQ         En5,___,___,___,Dn3,Dn4,Cn3,Cn3 ;
	FRQ         ___,___,___,___,___,___,___,___ ;
	FRQ         Cn5,Dn6,___,___,An2,An3,___,___ ;
	FRQ         ___,___,___,___,___,___,___,___ ;
	FRQ         Dn5,___,Gn4,Bn4,Dn2,Dn3,Cn2,Cn2 ;
	FRQ         ___,___,___,___,___,___,___,___ ;
	FRQ         Bn4,___,___,___,An2,An3,___,___ ;
	FRQ         ___,___,___,___,___,___,___,___ ;
	DEL         ___,___,___,___,___,___,___,001
	FRQ         Gn4,Dn6,___,___,Dn3,Dn4,Cn3,Cn3 ;
	FRQ         ___,___,___,___,___,___,___,___ ;
	FRQ         Dn5,___,___,___,An2,An3,___,___ ;
	FRQ         ___,___,___,___,___,___,___,___ ;
	FRQ         Bn4,___,___,___,Dn2,Dn3,Cn2,Cn2 ;
	FRQ         ___,___,___,___,___,___,___,___ ;
	FRQ         Gn4,Dn6,___,___,An2,An3,Gn2,Gn2 ;
	FRQ         ___,___,___,___,___,___,___,___ ;
	DEL         ___,___,___,___,___,___,___,001
	FRQ         Dn4,___,___,___,Dn3,Dn4,Cn3,Cn3 ;
	FRQ         ___,___,___,___,___,___,___,___ ;
	FRQ         Bn4,Dn6,___,___,An2,An3,___,___ ;
	FRQ         ___,___,___,___,___,___,___,___ ;
	FRQ         Fn4,___,Fn4,An4,Dn2,Dn3,Cn2,Cn2 ;
	FRQ         ___,___,___,___,___,___,___,___ ;
	FRQ         An4,Dn6,___,___,An2,An3,___,___ ;
	FRQ         ___,___,___,___,___,___,___,___ ;
	DEL         ___,___,___,___,___,___,___,001
	FRQ         Cn5,___,___,___,Dn3,Dn4,Cn3,Cn3 ;
	FRQ         ___,___,___,___,___,___,___,___ ;
	FRQ         An4,___,___,___,An2,An3,___,___ ;
	FRQ         ___,___,___,___,___,___,___,___ ;
	FRQ         Fn4,Dn6,En4,Gn4,Dn2,Dn3,Cn2,Cn2 ;
	FRQ         ___,___,___,___,___,___,___,___ ;
	FRQ         Cn5,___,___,___,An2,An3,Gn2,Gn2 ;
	FRQ         ___,___,___,___,___,___,___,___ ;
	DEL         ___,___,___,___,___,___,___,001
	FRQ         An4,___,Gn4,Bn4,Dn3,Dn4,Cn3,Cn3 ;
	FRQ         ___,___,___,___,___,___,___,___ ;
	FRQ         Cn5,Dn6,___,___,An2,An3,___,___ ;
	FRQ         ___,___,___,___,___,___,___,___ ;
	FRQ         Fn4,___,Fn4,An4,Dn3,An3,Cn2,Cn2 ;
	FRQ         ___,___,___,___,___,___,___,___ ;
	FRQ         An4,___,___,___,An3,Dn4,___,___ ;
	FRQ         ___,___,___,___,___,___,___,___ ;
	DEL         ___,___,___,___,___,___,___,001
	FRQ         En5,Dn6,___,___,Dn4,An4,Cn3,Cn3 ;
	FRQ         ___,___,___,___,___,___,___,___ ;
	FRQ         Fn4,___,___,___,An3,Dn4,___,___ ;
	FRQ         ___,___,___,___,___,___,___,___ ;
	FRQ         An4,Dn6,___,___,Dn3,An3,Cn2,Cn2 ;
	FRQ         ___,___,___,___,___,___,___,___ ;
	FRQ         En5,An6,___,___,An3,Dn4,Gn2,Gn2 ;
	FRQ         ___,___,___,___,___,___,___,___ ;
	DEL         ___,___,___,___,___,___,___,001
	FRQ         Fn4,Dn7,___,___,Dn4,An4,Cn3,Cn3 ;
	FRQ         ___,___,___,___,___,___,___,___ ;
	FRQ         An4,___,___,___,An3,Dn4,Gn2,Gn2 ;
	FRQ         ___,___,___,___,___,___,___,___ ;
	REPT        $01, song019_rept000
song019_rept001:
	FRQ         An4,___,En5,Cn5,Dn2,Dn3,Cn2,Cn2 ;
	FRQ         ___,___,___,___,___,___,___,___ ;
	FRQ         Cn5,Dn6,Fn5,___,An2,An3,___,___ ;
	FRQ         ___,___,___,___,___,___,___,___ ;
	DEL         ___,___,___,___,___,___,___,001
	FRQ         An4,___,En5,___,Dn3,Dn4,Cn3,Cn3 ;
	FRQ         ___,___,___,___,___,___,___,___ ;
	FRQ         En5,___,Fn5,___,An2,An3,___,___ ;
	FRQ         ___,___,___,___,___,___,___,___ ;
	FRQ         Cn5,Dn6,___,___,Dn2,Dn3,Cn2,Cn2 ;
	FRQ         ___,___,___,___,___,___,___,___ ;
	FRQ         An4,___,___,___,An2,An3,Gn2,Gn2 ;
	FRQ         ___,___,___,___,___,___,___,___ ;
	DEL         ___,___,___,___,___,___,___,001
	FRQ         En5,___,___,___,Dn3,Dn4,Cn3,Cn3 ;
	FRQ         ___,___,___,___,___,___,___,___ ;
	FRQ         Cn5,Dn6,___,___,An2,An3,___,___ ;
	FRQ         ___,___,___,___,___,___,___,___ ;
	FRQ         Dn5,___,Dn5,Bn4,Dn2,Dn3,Cn2,Cn2 ;
	FRQ         ___,___,___,___,___,___,___,___ ;
	FRQ         Bn4,___,En5,___,An2,An3,___,___ ;
	FRQ         ___,___,___,___,___,___,___,___ ;
	DEL         ___,___,___,___,___,___,___,001
	FRQ         Gn4,Dn6,Dn5,___,Dn3,Dn4,Cn3,Cn3 ;
	FRQ         ___,___,___,___,___,___,___,___ ;
	FRQ         Dn5,___,En5,___,An2,An3,___,___ ;
	FRQ         ___,___,___,___,___,___,___,___ ;
	FRQ         Bn4,___,___,___,Dn2,Dn3,Cn2,Cn2 ;
	FRQ         ___,___,___,___,___,___,___,___ ;
	FRQ         Gn4,Dn6,___,___,An2,An3,Gn2,Gn2 ;
	FRQ         ___,___,___,___,___,___,___,___ ;
	DEL         ___,___,___,___,___,___,___,001
	FRQ         Dn4,___,___,___,Dn3,Dn4,Cn3,Cn3 ;
	FRQ         ___,___,___,___,___,___,___,___ ;
	FRQ         Bn4,Dn6,___,___,An2,An3,___,___ ;
	FRQ         ___,___,___,___,___,___,___,___ ;
	FRQ         Fn4,___,An4,Cn5,Dn2,Dn3,Cn2,Cn2 ;
	FRQ         ___,___,___,___,___,___,___,___ ;
	FRQ         An4,Dn6,___,___,An2,An3,___,___ ;
	FRQ         ___,___,___,___,___,___,___,___ ;
	DEL         ___,___,___,___,___,___,___,001
	FRQ         Cn5,___,___,___,Dn3,Dn4,Cn3,Cn3 ;
	FRQ         ___,___,___,___,___,___,___,___ ;
	FRQ         An4,___,Bn4,Dn5,An2,An3,___,___ ;
	FRQ         ___,___,___,___,___,___,___,___ ;
	FRQ         Fn4,Dn6,___,___,Dn2,Dn3,Cn2,Cn2 ;
	FRQ         ___,___,___,___,___,___,___,___ ;
	FRQ         Cn5,___,___,___,An2,An3,Gn2,Gn2 ;
	FRQ         ___,___,___,___,___,___,___,___ ;
	DEL         ___,___,___,___,___,___,___,001
	FRQ         An4,___,Cn5,En5,Dn3,Dn4,Cn3,Cn3 ;
	FRQ         ___,___,___,___,___,___,___,___ ;
	FRQ         Cn5,Dn6,___,___,An2,An3,___,___ ;
	FRQ         ___,___,___,___,___,___,___,___ ;
	FRQ         Fn4,___,An4,Cn5,Dn3,An3,Cn2,Cn2 ;
	FRQ         ___,___,___,___,___,___,___,___ ;
	FRQ         An4,___,___,___,An3,Dn4,___,___ ;
	FRQ         ___,___,___,___,___,___,___,___ ;
	DEL         ___,___,___,___,___,___,___,001
	FRQ         En5,Dn6,___,___,Dn4,An4,Cn3,Cn3 ;
	FRQ         ___,___,___,___,___,___,___,___ ;
	FRQ         Fn4,___,Bn4,Dn5,An3,Dn4,___,___ ;
	FRQ         ___,___,___,___,___,___,___,___ ;
	FRQ         An4,Dn6,___,___,Dn3,An3,Cn2,Cn2 ;
	FRQ         ___,___,___,___,___,___,___,___ ;
	FRQ         En5,An6,___,___,An3,Dn4,Gn2,Gn2 ;
	FRQ         ___,___,___,___,___,___,___,___ ;
	DEL         ___,___,___,___,___,___,___,001
	FRQ         Fn4,Dn7,Cn5,En5,Dn4,An4,Cn3,Cn3 ;
	FRQ         ___,___,___,___,___,___,___,___ ;
	DEL         ___,___,___,___,___,___,___,001
	FRQ         An4,___,___,___,An3,Dn4,Cn3,Cn3 ;
	FRQ         ___,___,___,___,___,___,___,___ ;
	REPT        $01, song019_rept001
	PAN         ___,___,___,___,_C_,___,___,___
	FRQ         Q__,Q__,Q__,Q__,Q__,Q__,Gn3,___ ;
	FRQ         ___,___,___,___,___,___,En3,___ ;
	FRQ         ___,___,___,___,___,___,___,Cn2 ;
	FRQ         ___,___,___,___,___,___,___,___ ;
	FRQ         ___,___,___,___,___,___,Gn2,Gn2 ;
	FRQ         ___,___,___,___,___,___,___,___ ;
	FRQ         ___,___,___,___,___,___,En3,___ ;
	FRQ         ___,___,___,___,___,___,Cn3,___ ;
	FRQ         ___,___,___,___,___,___,___,Cn2 ;
	FRQ         ___,___,___,___,___,___,___,___ ;
	FRQ         ___,___,___,___,___,___,Gn2,Gn2 ;
	FRQ         ___,___,___,___,___,___,___,___ ;
	FRQ         ___,___,___,___,Dn3,___,Cn3,___ ;
	FRQ         ___,___,___,___,Dn3,___,___,Gn2 ;
	FRQ         ___,___,___,___,Dn4,___,Gn2,___ ;
	FRQ         ___,___,___,___,___,___,___,Cn2 ;
	JUMP        song019_rept000
.endproc
