	.include "song.inc"
	.segment "BANK0"
	.export boss3
.proc boss3
song01a_start:
	INIT        %11111111
	TEMPO       001
	TVOL        250
	SPEED       010
	PIT         027,027,027,027,027,027,___,004
	PITRAT      120,120,120,120,120,120,___,100
	PITDEP      255,255,255,255,250,255,___,180
	GTM         ___,___,___,___,___,___,011,255
	INS         016,016,016,016,016,016,003,001
	VOL         245,245,245,245,245,245,255,255
	LFO         ___,___,001,001,___,___,___,___
	PAN         ___,___,___,___,__R,L__,___,___
	DEL         ___,002,006,004,012,008,___,___
	FRQ         An3,An4,Cn4,En4,Cn5,En5,___,___ ;
	FRQ         ___,___,___,___,___,___,___,___ ;
	FRQ         ___,___,___,___,___,___,___,___ ;
	FRQ         ___,___,___,___,___,___,___,___ ;
	FRQ         ___,___,___,___,___,___,___,Cn2 ;
	FRQ         ___,___,___,___,___,___,___,___ ;
	FRQ         ___,___,___,___,___,___,___,Cn2 ;
	FRQ         ___,___,___,___,___,___,___,___ ;
	FRQ         ___,___,___,___,___,___,___,Cn2 ;
	FRQ         ___,___,___,___,___,___,___,___ ;
	FRQ         ___,___,___,___,___,___,___,Cn2 ;
	FRQ         ___,___,___,___,___,___,___,___ ;
	PIT         019,015,017,011,013,015,___,___
	PITDEP      100,100,100,120,120,120,___,180
	PITRAT      140,140,140,145,145,145,___,100
	INS         086,086,086,086,086,086,003,001
	VOL         220,220,220,220,230,230,255,255
	PAN         L__,_C_,__R,_C_,___,___,___,___
	LFO         ___,___,___,001,001,001,___,___
song01a_jmp000:
	PAN         L__,_C_,__R,_C_,___,___,___,___
	FRQ         Cn4,En4,Gn4,Cn4,En4,Gn4,An2,Cn2 ;
	FRQ         ___,___,___,___,___,___,An3,Cn2 ;
	FRQ         ___,___,___,___,___,___,An2,Cn3 ;
	FRQ         ___,___,___,___,___,___,En3,___ ;
	FRQ         ___,___,___,___,___,___,An2,Cn2 ;
	FRQ         ___,___,___,___,___,___,Gn3,Cn2 ;
	FRQ         ___,___,___,___,___,___,An2,Cn3 ;
	FRQ         ___,___,___,___,___,___,An3,___ ;
	FRQ         En4,Gn4,Bn4,___,Gn4,Bn4,An2,Cn3 ;
	FRQ         ___,___,___,___,___,___,An3,Cn2 ;
	FRQ         ___,___,___,___,___,___,An2,Cn2 ;
	FRQ         Cn4,En4,Gn4,___,En4,Gn4,En3,Cn3 ;
	FRQ         ___,___,___,___,___,___,An2,Cn2 ;
	FRQ         ___,___,___,___,___,___,Gn3,Cn2 ;
	FRQ         En4,Gn4,Bn4,___,Gn4,Bn4,An2,Cn3 ;
	FRQ         ___,___,___,___,___,___,An3,Cn2 ;
	FRQ         Gn3,Bn3,Dn4,Gn3,Bn3,Dn4,An2,Cn2 ;
	FRQ         ___,___,___,___,___,___,An3,Cn2 ;
	FRQ         ___,___,___,___,___,___,An2,Cn3 ;
	FRQ         ___,___,___,___,___,___,En3,___ ;
	FRQ         ___,___,___,___,___,___,An2,Cn2 ;
	FRQ         ___,___,___,___,___,___,Gn3,Cn2 ;
	FRQ         ___,___,___,___,___,___,An2,Cn3 ;
	FRQ         ___,___,___,___,___,___,An3,___ ;
	FRQ         ___,___,___,Gn4,Bn4,Dn5,An2,Cn2 ;
	FRQ         ___,___,___,___,___,___,An3,___ ;
	FRQ         ___,___,___,___,___,___,An2,Cn3 ;
	FRQ         ___,___,___,___,An4,Cn5,En3,Cn2 ;
	FRQ         ___,___,___,___,___,___,An2,Cn2 ;
	FRQ         ___,___,___,___,___,___,Gn3,Cn3 ;
	FRQ         ___,___,___,___,Bn4,Dn5,An2,Cn3 ;
	FRQ         ___,___,___,___,___,___,An3,Cn3 ;
	FRQ         Cn4,En4,Gn4,Cn4,En5,Gn5,An2,Cn2 ;
	FRQ         ___,___,___,___,Fn5,An5,An3,Cn2 ;
	FRQ         ___,___,___,___,Gn5,Bn5,An2,Cn3 ;
	FRQ         ___,___,___,___,An5,Cn5,En3,___ ;
	FRQ         ___,___,___,___,___,___,An2,Cn2 ;
	FRQ         ___,___,___,___,___,___,Gn3,Cn2 ;
	FRQ         ___,___,___,___,___,___,An2,Cn3 ;
	FRQ         ___,___,___,___,___,___,An3,___ ;
	SPEED       003
	FRQ         En4,Gn4,Bn4,___,Cn5,En5,An2,Gn3 ;
	FRQ         ___,___,___,___,___,___,___,___ ;
	SPEED       004
	FRQ         ___,___,___,___,___,___,___,Gn3 ;
	SPEED       003
	FRQ         ___,___,___,___,___,___,An3,___ ;
	FRQ         ___,___,___,___,___,___,___,Gn3 ;
	SPEED       004
	FRQ         ___,___,___,___,___,___,___,___ ;
	SPEED       003
	FRQ         ___,___,___,___,___,___,An2,En3 ;
	FRQ         ___,___,___,___,___,___,___,___ ;
	SPEED       004
	FRQ         ___,___,___,___,___,___,___,En3 ;
	SPEED       003
	FRQ         Cn4,En4,Gn4,___,Bn4,Dn5,En3,___ ;
	FRQ         ___,___,___,___,___,___,___,En3 ;
	SPEED       004
	FRQ         ___,___,___,___,___,___,___,___ ;
	SPEED       003
	FRQ         ___,___,___,___,___,___,An2,Cn3 ;
	FRQ         ___,___,___,___,___,___,___,___ ;
	SPEED       004
	FRQ         ___,___,___,___,___,___,___,Cn3 ;
	SPEED       003
	FRQ         ___,___,___,___,___,___,Gn3,___ ;
	FRQ         ___,___,___,___,___,___,___,Cn3 ;
	SPEED       004
	FRQ         ___,___,___,___,___,___,___,Cn3 ;
	SPEED       003
	FRQ         En4,Gn4,Bn4,___,Cn5,En5,An2,Gn3 ;
	FRQ         ___,___,___,___,___,___,___,En3 ;
	SPEED       004
	FRQ         ___,___,___,___,___,___,___,Cn3 ;
	SPEED       003
	FRQ         ___,___,___,___,___,___,An3,Cn3 ;
	FRQ         ___,___,___,___,___,___,___,___ ;
	SPEED       004
	FRQ         ___,___,___,___,___,___,___,___ ;
	SPEED       010
	FRQ         Gn3,Bn3,Dn4,Gn3,Bn3,Dn4,An2,Cn2 ;
	FRQ         ___,___,___,___,___,___,An3,Cn2 ;
	FRQ         ___,___,___,___,___,___,An2,Cn3 ;
	FRQ         ___,___,___,___,___,___,En3,___ ;
	FRQ         ___,___,___,___,___,___,An2,Cn2 ;
	FRQ         ___,___,___,___,___,___,Gn3,Cn2 ;
	FRQ         ___,___,___,___,___,___,An2,Cn3 ;
	FRQ         ___,___,___,___,___,___,An3,___ ;
	LOOP        $01, song01a_loop000
	FRQ         ___,___,___,Gn4,Bn4,Dn5,An2,Cn3 ;
	FRQ         ___,___,___,___,___,___,An3,Cn2 ;
	FRQ         ___,___,___,___,___,___,An2,Cn3 ;
	FRQ         ___,___,___,___,An4,Cn5,En3,Cn2 ;
	FRQ         ___,___,___,___,___,___,An2,Cn3 ;
	FRQ         ___,___,___,___,___,___,Gn3,Cn2 ;
	FRQ         ___,___,___,___,Bn4,Dn5,An2,Cn3 ;
	FRQ         ___,___,___,___,___,___,An3,Cn2 ;
	JUMP        song01a_jmp000
song01a_loop000:
	SPEED       005
	FRQ         An2,An2,___,Gn4,Bn4,Dn5,An2,En3 ;
	FRQ         ___,___,___,___,___,___,___,En3 ;
	FRQ         An3,An3,___,___,___,___,An3,En3 ;
	FRQ         ___,___,___,___,___,___,___,___ ;
	FRQ         An2,An2,___,___,___,___,An2,Cn3 ;
	FRQ         ___,___,___,___,___,___,___,Cn3 ;
	FRQ         En3,En3,___,___,An4,Cn5,En3,Cn3 ;
	FRQ         ___,___,___,___,___,___,___,___ ;
	FRQ         An2,An2,___,___,___,___,An2,Gn3 ;
	FRQ         ___,___,___,___,___,___,___,Gn3 ;
	FRQ         Gn3,Gn3,___,___,___,___,Gn3,En3 ;
	FRQ         ___,___,___,___,___,___,___,En3 ;
	FRQ         An2,An2,___,___,Bn4,Dn5,An2,Cn3 ;
	FRQ         ___,___,___,___,___,___,___,Cn3 ;
	FRQ         An3,An3,___,___,___,___,An3,Gn2 ;
	FRQ         ___,___,___,___,___,___,___,___ ;
	SPEED       010
	INS         ___,___,___,055,007,___,___,___
	VOL         ___,___,___,255,240,___,___,___
song01a_jmp001:
	PAN         ___,___,___,___,___,_C_,___,___
	FRQ         Fn3,Gn3,Cn4,Q__,Q__,Cn4,Fn2,Cn2 ;
	FRQ         ___,___,___,___,An3,___,Fn2,Cn2 ;
	FRQ         Q__,Q__,Q__,Cn4,An4,___,___,___ ;
	FRQ         Fn3,Bn3,Cn4,___,___,___,Fn2,Cn2 ;
	FRQ         ___,___,___,___,___,___,Fn2,Cn2 ;
	FRQ         Q__,Q__,Q__,___,An3,___,___,___ ;
	FRQ         Fn3,An3,Cn4,___,An4,___,Fn2,Cn3 ;
	FRQ         ___,___,___,___,___,___,___,___ ;
	FRQ         Fn3,Gn3,Cn4,___,___,___,Fn2,Cn2 ;
	FRQ         ___,___,___,___,An3,___,Fn3,Cn2 ;
	FRQ         Q__,Q__,Q__,Cn4,An4,___,___,___ ;
	FRQ         Fn3,Bn3,Cn4,___,___,___,Fn2,Cn2 ;
	FRQ         ___,___,___,___,___,___,Fn2,Cn2 ;
	FRQ         Q__,Q__,Q__,___,An3,Dn4,___,Cn3 ;
	FRQ         Fn3,An3,Cn4,___,An4,Cn4,Fn2,Cn3 ;
	FRQ         ___,___,___,___,___,Dn4,___,Cn3 ;
	FRQ         Gn3,An3,Dn4,___,___,Bn3,Gn2,Cn2 ;
	FRQ         ___,___,___,___,An3,___,Gn2,Cn2 ;
	FRQ         Q__,Q__,Q__,Cn4,An4,___,___,___ ;
	FRQ         Gn3,Cn4,Dn4,___,___,___,Gn2,Cn3 ;
	FRQ         ___,___,___,___,___,___,Gn2,Cn2 ;
	FRQ         Q__,Q__,Q__,___,An3,___,___,___ ;
	FRQ         Gn3,Bn3,Dn4,___,An4,___,Gn2,Cn3 ;
	FRQ         ___,___,___,___,___,___,___,Cn2 ;
	LOOP        $01, song01a_loop001
	FRQ         Gn3,An3,Dn4,___,___,___,Gn2,Cn3 ;
	FRQ         ___,___,___,___,An3,___,Gn3,Cn2 ;
	FRQ         Q__,Q__,Q__,Cn4,An4,___,___,___ ;
	FRQ         Gn3,Cn4,Dn4,___,___,___,Gn2,Cn3 ;
	FRQ         ___,___,___,___,___,___,Gn2,Cn2 ;
	FRQ         Q__,Q__,Q__,___,An3,Cn4,___,___ ;
	FRQ         Gn3,Bn4,Dn4,___,An4,Dn4,Gn2,Cn3 ;
	FRQ         ___,___,___,___,___,En4,___,___ ;
	JUMP        song01a_jmp001
song01a_loop001:
	SPEED       005
	FRQ         Gn3,An3,Dn4,___,___,___,Gn2,Cn3 ;
	FRQ         ___,___,___,___,___,___,___,Cn3 ;
	FRQ         ___,___,___,___,An3,___,Gn3,Cn2 ;
	FRQ         ___,___,___,___,___,___,___,___ ;
	FRQ         Q__,Q__,Q__,Cn4,An4,___,Gn4,Cn2 ;
	FRQ         ___,___,___,___,___,___,___,___ ;
	FRQ         Gn3,Cn4,Dn4,___,___,___,Gn2,Cn3 ;
	FRQ         ___,___,___,___,___,___,___,Cn3 ;
	FRQ         ___,___,___,___,___,___,Gn2,Cn2 ;
	FRQ         ___,___,___,___,___,___,___,___ ;
	FRQ         Q__,Q__,Q__,___,An3,Cn4,Gn4,Cn2 ;
	FRQ         ___,___,___,___,___,___,___,___ ;
	FRQ         Gn3,Bn4,Dn4,___,An4,Dn4,Gn2,En3 ;
	FRQ         ___,___,___,___,___,___,___,En3 ;
	FRQ         ___,___,___,___,___,En4,Gn2,Gn2 ;
	FRQ         ___,___,___,___,___,___,___,Gn2 ;
	SPEED       010
	INS         ___,___,___,086,086,___,___,___
	VOL         ___,___,___,230,230,___,___,___
	JUMP        song01a_jmp000
.endproc
