	.include "song.inc"
	.segment "BANK0"
	.export boss1
.proc boss1
song00f_start:
	INIT        %11111111
	TEMPO       001
	TVOL        250
	SPEED       006
	PIT         019,015,017,011,013,015,___,004
	PITDEP      100,100,100,120,120,120,___,180
	PITRAT      140,140,140,145,145,145,___,100
	INS         086,086,086,086,086,086,004,001
	VOL         228,228,228,228,228,228,255,255
	LFO         ___,___,___,001,001,001,___,___
	DTN         ___,004,008,018,022,036,___,___
	PAN         L__,_C_,L__,_C_,__R,__R,___,___
	FRQ         ___,___,___,___,___,___,___,Cn3 ;
	FRQ         ___,___,___,___,___,___,___,Cn2 ;
song00f_rept000:
	FRQ         Dn2,An2,Dn3,Dn2,An2,Dn3,Dn2,Cn2 ;
	FRQ         ___,___,___,___,___,___,___,___ ;
	FRQ         Dn2,An2,Dn3,Dn2,An2,Dn3,Dn2,Cn2 ;
	FRQ         Dn2,An2,Dn3,Dn2,An2,Dn3,Dn2,Cn2 ;
	FRQ         Dn2,An3,Dn3,Dn2,An3,Dn3,Dn3,Cn3 ;
	FRQ         ___,___,___,___,___,___,___,Cn2 ;
	FRQ         ___,___,___,___,___,___,___,___ ;
	FRQ         ___,___,___,___,___,___,___,Cn2 ;
	FRQ         Dn2,An2,Dn3,Dn2,An2,Dn3,Dn2,Cn2 ;
	FRQ         ___,___,___,___,___,___,___,___ ;
	FRQ         Dn2,An2,Dn3,Dn2,An2,Dn3,Dn2,Cn2 ;
	FRQ         Dn2,An2,Dn3,Dn2,An2,Dn3,Dn2,Cn2 ;
	FRQ         Dn2,Gn3,Cn3,Dn2,Gn3,Cn3,Cn3,Cn3 ;
	FRQ         ___,___,___,___,___,___,Q__,Cn2 ;
	FRQ         ___,___,___,___,___,___,___,Cn2 ;
	FRQ         ___,___,___,___,___,___,___,___ ;
	FRQ         Dn2,An2,Dn3,Dn2,An2,Dn3,Dn2,Cn2 ;
	FRQ         ___,___,___,___,___,___,___,___ ;
	FRQ         Dn2,An2,Dn3,Dn2,An2,Dn3,Dn2,Cn2 ;
	FRQ         Dn2,An2,Dn3,Dn2,An2,Dn3,Dn2,Cn2 ;
	FRQ         Dn2,Fs3,Bn2,Dn2,Fs3,Bn2,Bn2,Cn3 ;
	FRQ         ___,___,___,___,___,___,___,Cn2 ;
	FRQ         ___,___,___,___,___,___,___,___ ;
	FRQ         ___,___,___,___,___,___,___,___ ;
	FRQ         En2,Cn4,Fn4,En2,Cn4,Fn4,Fn2,En3 ;
	FRQ         ___,___,___,___,___,___,Fn3,En3 ;
	FRQ         ___,___,___,___,___,___,En3,En3 ;
	FRQ         ___,___,___,___,___,___,___,___ ;
	FRQ         Cn2,Gn4,Cn4,Cn2,Gn3,Cn4,Cn2,Cn3 ;
	FRQ         ___,___,___,___,___,___,Cn3,Cn3 ;
	FRQ         ___,___,___,___,___,___,An2,Gn2 ;
	FRQ         ___,___,___,___,___,___,___,Cn2 ;
	REPT        $02, song00f_rept000
	FRQ         Dn2,An2,Dn3,Dn2,An2,Dn3,Dn2,Cn2 ;
	FRQ         ___,___,___,___,___,___,___,___ ;
	FRQ         Dn2,An2,Dn3,Dn2,An2,Dn3,Dn2,Cn2 ;
	FRQ         Dn2,An2,Dn3,Dn2,An2,Dn3,Dn2,Cn2 ;
	FRQ         Dn2,An3,Dn3,Dn2,An4,Dn4,Dn3,Cn3 ;
	FRQ         ___,___,___,___,___,___,___,Cn2 ;
	FRQ         ___,___,___,___,___,___,___,___ ;
	FRQ         ___,___,___,___,___,___,___,Cn2 ;
	FRQ         Dn2,An2,Dn3,Dn2,An2,Dn3,Dn2,Cn2 ;
	FRQ         ___,___,___,___,___,___,___,___ ;
	FRQ         Dn2,An2,Dn3,Dn2,An2,Dn3,Dn2,Cn2 ;
	FRQ         Dn2,An2,Dn3,Dn2,An2,Dn3,Dn2,Cn2 ;
	FRQ         Gn4,Dn2,Cn4,Dn2,Gn3,Cn3,Cn3,Cn3 ;
	FRQ         ___,___,___,___,___,___,Q__,Cn2 ;
	FRQ         ___,___,___,___,___,___,___,Cn2 ;
	FRQ         ___,___,___,___,___,___,___,___ ;
	FRQ         Dn2,An2,Dn3,Dn2,An2,Dn3,Dn2,Cn2 ;
	FRQ         ___,___,___,___,___,___,___,___ ;
	FRQ         Dn2,An2,Dn3,Dn2,An2,Dn3,Dn2,Cn2 ;
	FRQ         Dn2,An2,Dn3,Dn2,An2,Dn3,Dn2,Cn2 ;
	PAN         ___,___,_C_,__R,_C_,_C_,___,___
	DTN         ___,000,000,___,000,000,___,___
	FRQ         Dn2,Fs3,Bn2,Dn2,Fs4,Bn3,Bn2,Cn3 ;
	FRQ         ___,___,___,___,___,___,___,Cn2 ;
	FRQ         ___,___,___,___,___,___,___,___ ;
	FRQ         ___,___,___,___,___,___,___,___ ;
	DTN         ___,004,008,018,022,036,___,___
	PAN         L__,_C_,L__,_C_,__R,__R,___,___
	FRQ         Fn2,Fn3,Cn4,Fn2,Fn3,Cn4,Fn2,En3 ;
	FRQ         Fn3,Fn4,___,Fn3,Fn4,___,Fn3,En3 ;
	FRQ         En3,En4,___,En3,En4,___,En3,En3 ;
	FRQ         ___,___,___,___,___,___,___,___ ;
	FRQ         Cn2,Cn3,Gn4,Cn2,Cn3,Gn4,Cn2,Cn3 ;
	FRQ         Cn3,Cn4,___,Cn3,Cn4,___,Cn3,Cn3 ;
	FRQ         An2,An3,___,An2,An3,___,An2,Gn2 ;
	FRQ         ___,___,___,___,___,___,___,Cn2 ;
	FRQ         Dn2,An2,Dn3,Dn2,An2,Dn3,Dn2,Cn2 ;
	FRQ         Dn2,An2,Dn3,Dn2,An2,Dn3,Dn2,Cn2 ;
	FRQ         Dn2,An2,Dn3,Dn2,An2,Dn3,Dn2,Cn2 ;
	FRQ         Dn2,An2,Dn3,Dn2,An2,Dn3,Dn2,Cn2 ;
	FRQ         Dn2,An3,Dn3,Dn2,An3,Dn3,Dn3,Cn3 ;
	FRQ         ___,___,___,___,___,___,___,Cn2 ;
	FRQ         ___,___,___,___,___,___,___,___ ;
	FRQ         ___,___,___,___,___,___,___,Cn2 ;
	FRQ         Dn2,An2,Dn3,Dn2,An2,Dn3,Dn2,Cn2 ;
	FRQ         ___,___,___,___,___,___,___,___ ;
	FRQ         Dn2,An2,Dn3,Dn2,An2,Dn3,Dn2,Cn2 ;
	FRQ         Dn2,An2,Dn3,Dn2,An2,Dn3,Dn2,Cn2 ;
	FRQ         Dn2,An3,Dn3,Dn2,An3,Dn3,Dn3,Cn3 ;
	FRQ         ___,___,___,___,___,___,___,___ ;
	FRQ         Dn2,An2,Dn3,Dn2,An2,Dn3,Dn2,Cn2 ;
	FRQ         Dn2,An3,Dn3,Dn2,An3,Dn3,Dn3,Cn2 ;
	FRQ         Dn2,An2,Dn3,Dn2,An2,Dn3,Dn2,Cn2 ;
	FRQ         Dn2,An2,Dn3,Dn2,An2,Dn3,Dn2,Cn2 ;
	FRQ         Dn2,An2,Dn3,Dn2,An2,Dn3,Dn2,Cn2 ;
	FRQ         Dn2,An2,Dn3,Dn2,An2,Dn3,Dn2,Cn2 ;
	FRQ         Dn2,An3,Dn3,Dn2,An3,Dn3,Dn3,Cn3 ;
	FRQ         ___,___,___,___,___,___,___,Cn2 ;
	FRQ         ___,___,___,___,___,___,___,___ ;
	FRQ         ___,___,___,___,___,___,___,Cn2 ;
	FRQ         Dn2,An2,Dn3,Dn2,An2,Dn3,Dn2,Cn2 ;
	FRQ         ___,___,___,___,___,___,___,___ ;
	FRQ         Dn2,An2,Dn3,Dn2,An2,Dn3,Dn2,Cn2 ;
	FRQ         Dn2,An2,Dn3,Dn2,An2,Dn3,Dn2,Cn2 ;
	FRQ         Dn2,An3,Dn3,Dn2,An3,Dn3,Dn3,Cn3 ;
	FRQ         ___,___,___,___,___,___,___,___ ;
	FRQ         Dn2,An2,Dn3,Dn2,An2,Dn3,Dn2,Cn2 ;
	FRQ         Dn2,An3,Dn3,Dn2,An3,Dn3,Dn3,Cn2 ;
	FRQ         Dn2,An2,Dn3,Dn2,An2,Dn3,Dn2,Cn2 ;
	FRQ         ___,___,___,___,___,___,___,Cn2 ;
	FRQ         Dn2,An2,Dn3,Dn2,An2,Dn3,Dn2,Cn2 ;
	FRQ         Dn2,An2,Dn3,Dn2,An2,Dn3,Dn2,Cn2 ;
	FRQ         Dn2,An3,Dn4,Dn2,An3,Dn4,Dn3,Cn3 ;
	FRQ         ___,___,___,___,___,___,___,___ ;
	FRQ         ___,___,___,___,___,___,___,___ ;
	FRQ         ___,___,___,___,___,___,___,___ ;
	FRQ         ___,___,___,___,___,___,___,Cn2 ;
	FRQ         ___,___,___,___,___,___,___,___ ;
	FRQ         ___,___,___,___,___,___,___,___ ;
	FRQ         ___,___,___,___,___,___,___,___ ;
	FRQ         ___,___,___,___,___,___,___,Cn2 ;
	FRQ         ___,___,___,___,___,___,___,___ ;
	FRQ         ___,___,___,___,___,___,___,___ ;
	FRQ         ___,___,___,___,___,___,___,___ ;
	FRQ         ___,___,___,___,___,___,___,Cn2 ;
	FRQ         ___,___,___,___,___,___,___,___ ;
	FRQ         ___,___,___,___,___,___,___,___ ;
	FRQ         ___,___,___,___,___,___,___,___ ;
	FRQ         ___,___,___,___,___,___,___,Cn2 ;
	FRQ         ___,___,___,___,___,___,___,___ ;
	FRQ         ___,___,___,___,___,___,___,___ ;
	FRQ         ___,___,___,___,___,___,___,___ ;
	SPEED       003
	FRQ         ___,___,___,___,___,___,___,Gn3 ;
	FRQ         ___,___,___,___,___,___,___,Gn3 ;
	FRQ         ___,___,___,___,___,___,___,___ ;
	FRQ         ___,___,___,___,___,___,___,En3 ;
	FRQ         ___,___,___,___,___,___,___,___ ;
	FRQ         ___,___,___,___,___,___,___,___ ;
	FRQ         ___,___,___,___,___,___,___,Gn2 ;
	FRQ         ___,___,___,___,___,___,___,___ ;
	FRQ         ___,___,___,___,___,___,___,En3 ;
	FRQ         ___,___,___,___,___,___,___,En3 ;
	FRQ         ___,___,___,___,___,___,___,___ ;
	FRQ         ___,___,___,___,___,___,___,Cn3 ;
	FRQ         ___,___,___,___,___,___,___,___ ;
	FRQ         ___,___,___,___,___,___,___,___ ;
	FRQ         ___,___,___,___,___,___,___,Cn2 ;
	FRQ         ___,___,___,___,___,___,___,Cn2 ;
	SPEED       006
	JUMP        song00f_rept000
.endproc
