	.include "song.inc"
	.segment "BANK0"
	.export continue
.proc continue
song018_start:
	INIT        %11111111
	TVOL        255
	TEMPO       001
	SPEED       012
	PIT         013,015,017,019,___,___,___,___
	PITRAT      180,177,175,173,___,___,___,___
	TRS         ___,___,___,___,___,___,___,___
	PITDEP      170,170,170,170,___,___,___,___
	ENV         ___,___,___,___,___,___,___,___
	GTM         ___,___,___,___,___,___,___,___
	INS         020,020,020,020,020,055,063,047
	VOL         245,245,245,245,255,255,240,234
	DTN         ___,___,___,___,___,032,004,___
	LFO         ___,___,___,___,___,___,001,___
	PAN         L__,___,___,__R,___,___,___,_C_
song018_jmp000:
	INS         ___,___,___,___,___,___,063,___
	VOL         ___,___,___,___,___,___,240,___
	LFO         ___,___,___,___,___,___,001,___
	FRQ         Fn3,An3,Cn4,En4,Fn2,Q__,Fn2,___ ;
	FRQ         ___,___,___,___,___,___,___,___ ;
	FRQ         ___,___,___,___,Fn2,___,___,___ ;
	FRQ         ___,___,___,___,___,___,___,___ ;
	FRQ         ___,___,___,___,Q__,Cn7,Cn3,___ ;
	PAN         ___,___,___,___,___,__R,___,___
	FRQ         ___,___,___,___,___,___,___,___ ;
	PAN         ___,___,___,___,___,L__,___,___
	FRQ         ___,___,___,___,Fn2,___,___,___ ;
	PAN         ___,___,___,___,___,_C_,___,___
	FRQ         ___,___,___,___,___,___,___,___ ;
	FRQ         En3,Gn3,Bn3,Dn4,En2,___,Bn2,___ ;
	FRQ         ___,___,___,___,___,___,___,___ ;
	FRQ         ___,___,___,___,En2,___,___,___ ;
	FRQ         ___,___,___,___,___,___,___,___ ;
	FRQ         ___,___,___,___,Q__,Cn7,Cn3,___ ;
	PAN         ___,___,___,___,___,__R,___,___
	FRQ         ___,___,___,___,___,___,___,___ ;
	PAN         ___,___,___,___,___,L__,___,___
	FRQ         ___,___,___,___,En2,___,Dn3,___ ;
	PAN         ___,___,___,___,___,_C_,___,___
	FRQ         ___,___,___,___,___,___,___,___ ;
	FRQ         Ds3,Gn3,As3,Dn4,Ds2,___,As2,___ ;
	FRQ         ___,___,___,___,___,___,___,___ ;
	FRQ         ___,___,___,___,Ds2,___,___,___ ;
	FRQ         ___,___,___,___,___,___,___,___ ;
	FRQ         ___,___,___,___,Q__,Cn7,Cn3,___ ;
	PAN         ___,___,___,___,___,__R,___,___
	FRQ         ___,___,___,___,___,___,___,___ ;
	PAN         ___,___,___,___,___,L__,___,___
	FRQ         ___,___,___,___,Ds2,___,Dn3,___ ;
	PAN         ___,___,___,___,___,_C_,___,___
	FRQ         ___,___,___,___,___,___,___,___ ;
	FRQ         Dn3,Fn3,An3,Cn4,Dn2,___,Cn3,___ ;
	VOL         ___,___,___,___,___,___,250,___
	INS         ___,___,___,___,___,___,055,___
	LFO         ___,___,___,___,___,___,000,___
	PAN         ___,___,___,___,___,___,_C_,_C_
	FRQ         ___,___,___,___,___,___,An6,An6 ;
	PAN         ___,___,___,___,___,___,_C_,__R
	FRQ         ___,___,___,___,Dn2,___,An6,An6 ;
	PAN         ___,___,___,___,___,___,_C_,_C_
	FRQ         ___,___,___,___,___,___,An6,An6 ;
	PAN         ___,___,___,___,___,___,_C_,L__
	FRQ         ___,___,___,___,Q__,Cn7,An6,An6 ;
	PAN         ___,___,___,___,___,__R,_C_,_C_
	FRQ         ___,___,___,___,___,___,An6,An6 ;
	PAN         ___,___,___,___,___,L__,_C_,__R
	FRQ         ___,___,___,___,Ds2,___,An6,An6 ;
	PAN         ___,___,___,___,___,_C_,_C_,_C_
	FRQ         ___,___,___,___,___,Q__,An6,An6 ;
	JUMP        song018_jmp000
.endproc
