	.include "song.inc"
	.segment "BANK0"
	.export departure
.proc departure
;	CHANNEL		000,000,000,000,008,009,000,000
	CHANNEL		001,002,003,004,008,007,005,006
	TEMPO       001
	TVOL        250
	SPEED       012
	PIT         011,013,015,017,___,___,___,004
	PITRAT      140,144,135,138,___,___,___,100
	TRS         002,002,002,002,002,002,002,002
	PITDEP      120,120,120,120,___,___,___,180
	ENV         ___,___,___,___,010,011,___,___
	GTM         ___,___,___,___,___,___,___,003
	INS         040,040,040,011,___,___,005,001
	VOL         245,245,245,225,225,225,255,255
	LFO         ___,___,___,___,___,___,___,___
	DTN         ___,___,___,___,___,050,___,___
	PAN         L__,__R,_C_,___,___,___,___,___
	DTN         006,018,000,___,___,___,___,___
	SPEED       006
	GTM         ___,___,___,___,___,___,___,003
	FRQ         ___,___,___,___,___,___,___,Cn2 ;
	GTM         ___,___,___,___,___,___,___,255
	FRQ         ___,___,___,___,___,___,___,Cn3 ;
	FRQ         ___,___,___,___,___,___,___,Cn3 ;
	FRQ         ___,___,___,___,___,___,___,Cn3 ;
	FRQ         ___,___,___,___,___,___,___,Cn3 ;
	FRQ         ___,___,___,___,___,___,___,___ ;
	FRQ         ___,___,___,___,___,___,___,Cn3 ;
	FRQ         ___,___,___,___,___,___,___,___ ;
song001_jmp000:
	GTM         ___,___,___,___,___,___,___,003
	DEL         ___,___,___,___,___,001,___,___
	FRQ         Gn3,Cn4,En4,Cn6,Cn5,Cn5,Cn3,Cn2 ;
	DEL         ___,___,___,___,___,001,___,___
	FRQ         ___,___,___,___,Cn4,Cn4,___,___ ;
	DEL         ___,___,___,___,___,001,___,___
	FRQ         ___,___,___,___,Cn4,Cn4,Q__,___ ;
	DEL         ___,___,___,___,___,001,___,___
	FRQ         ___,___,___,___,Cn5,Cn5,___,___ ;
	DEL         ___,___,___,___,___,001,___,___
	FRQ         ___,___,___,Cn6,Cn4,Cn4,Cn3,Cn2 ;
	DEL         ___,___,___,___,___,001,___,___
	FRQ         ___,___,___,___,Cn4,Cn4,___,___ ;
	DEL         ___,___,___,___,___,001,___,___
	FRQ         ___,___,___,___,Cn4,Cn4,Q__,___ ;
	DEL         ___,___,___,___,___,001,___,___
	FRQ         ___,___,___,___,Cn5,Cn5,___,___ ;
	DEL         ___,___,___,___,___,001,___,___
	FRQ         ___,___,___,Cn6,Cn4,Cn4,Cn3,Cn2 ;
	DEL         ___,___,___,___,___,001,___,___
	FRQ         ___,___,___,___,Cn5,Cn5,___,___ ;
	DEL         ___,___,___,___,___,001,___,___
	FRQ         ___,___,___,___,Cn5,Cn5,Q__,___ ;
	DEL         ___,___,___,___,___,001,___,___
	FRQ         ___,___,___,___,Cn4,Cn4,___,___ ;
	DEL         ___,___,___,___,___,001,___,___
	FRQ         Gn3,Cn4,En4,Cn6,Cn5,Cn5,Cn3,Cn2 ;
	DEL         ___,___,___,___,___,001,___,___
	FRQ         ___,___,___,___,Cn5,Cn5,___,___ ;
	DEL         ___,___,___,___,___,001,___,___
	FRQ         Fn3,As3,Dn4,___,Cn4,Cn4,Q__,___ ;
	DEL         ___,___,___,___,___,001,___,___
	FRQ         ___,___,___,___,Cn5,Cn5,___,___ ;
	DEL         ___,___,___,___,___,001,___,___
	FRQ         ___,___,___,Cn6,Cn5,Cn5,Cn3,Cn2 ;
	DEL         ___,___,___,___,___,001,___,___
	FRQ         ___,___,___,___,Cn4,Cn4,___,___ ;
	DEL         ___,___,___,___,___,001,___,___
	FRQ         ___,___,___,___,Cn4,Cn4,Q__,___ ;
	DEL         ___,___,___,___,___,001,___,___
	FRQ         ___,___,___,___,Cn4,Cn4,___,___ ;
	DEL         ___,___,___,___,___,001,___,___
	FRQ         ___,___,___,Cn6,Cn4,Cn4,Cn3,Cn2 ;
	DEL         ___,___,___,___,___,001,___,___
	FRQ         ___,___,___,___,Cn5,Cn5,___,___ ;
	DEL         ___,___,___,___,___,001,___,___
	FRQ         ___,___,___,___,Cn5,Cn5,Q__,___ ;
	DEL         ___,___,___,___,___,001,___,___
	FRQ         ___,___,___,___,Cn5,Cn5,___,___ ;
	DEL         ___,___,___,___,___,001,___,___
	FRQ         ___,___,___,Cn6,Cn4,Cn4,Cn3,Cn2 ;
	DEL         ___,___,___,___,___,001,___,___
	FRQ         ___,___,___,___,Cn4,Cn4,Cn3,___ ;
	DEL         ___,___,___,___,___,001,___,___
	FRQ         ___,___,___,___,Cn5,Cn5,___,Cn2 ;
	GTM         ___,___,___,___,___,___,035,255
	DEL         ___,___,___,___,___,001,___,___
	FRQ         ___,___,___,___,Cn5,Cn5,___,___ ;
	DEL         ___,___,___,___,___,001,___,___
	FRQ         ___,___,___,Cn6,Cn4,Cn4,Cn3,Gn2 ;
	DEL         ___,___,___,___,___,001,___,___
	FRQ         ___,___,___,___,Cn4,Cn4,___,___ ;
	GTM         ___,___,___,___,___,___,035,003
	DEL         ___,___,___,___,___,001,___,___
	FRQ         ___,___,___,___,Cn5,Cn5,___,___ ;
	DEL         ___,___,___,___,___,001,___,___
	FRQ         ___,___,___,___,Cn5,Cn5,___,___ ;
	GTM         ___,___,___,___,___,___,___,003
	DEL         ___,___,___,___,___,001,___,___
	FRQ         ___,___,___,Cn6,Cn5,Cn5,Cn3,Cn2 ;
	DEL         ___,___,___,___,___,001,___,___
	FRQ         ___,___,___,___,Cn4,Cn4,___,___ ;
	DEL         ___,___,___,___,___,001,___,___
	FRQ         ___,___,___,___,Cn4,Cn4,Q__,___ ;
	DEL         ___,___,___,___,___,001,___,___
	FRQ         ___,___,___,___,Cn5,Cn5,___,___ ;
	DEL         ___,___,___,___,___,001,___,___
	FRQ         ___,___,___,Cn6,Cn4,Cn4,Cn3,Cn2 ;
	DEL         ___,___,___,___,___,001,___,___
	FRQ         ___,___,___,___,Cn4,Cn4,___,___ ;
	DEL         ___,___,___,___,___,001,___,___
	FRQ         ___,___,___,___,Cn4,Cn4,Q__,___ ;
	DEL         ___,___,___,___,___,001,___,___
	FRQ         ___,___,___,___,Cn5,Cn5,___,___ ;
	DEL         ___,___,___,___,___,001,___,___
	FRQ         ___,___,___,Cn6,Cn4,Cn4,Cn3,Cn2 ;
	DEL         ___,___,___,___,___,001,___,___
	FRQ         ___,___,___,___,Cn5,Cn5,___,___ ;
	DEL         ___,___,___,___,___,001,___,___
	FRQ         ___,___,___,___,Cn5,Cn5,Q__,___ ;
	DEL         ___,___,___,___,___,001,___,___
	FRQ         ___,___,___,___,Cn4,Cn4,___,___ ;
	DEL         ___,___,___,___,___,001,___,___
	FRQ         ___,___,___,Cn6,Cn5,Cn5,Cn3,Cn2 ;
	DEL         ___,___,___,___,___,001,___,___
	FRQ         ___,___,___,___,Cn5,Cn5,___,___ ;
	DEL         ___,___,___,___,___,001,___,___
	FRQ         ___,___,___,___,Cn4,Cn4,Q__,___ ;
	DEL         ___,___,___,___,___,001,___,___
	FRQ         ___,___,___,___,Cn5,Cn5,___,___ ;
	DEL         ___,___,___,___,___,001,___,___
	FRQ         ___,___,___,Cn6,Cn5,Cn5,Cn3,Cn2 ;
	DEL         ___,___,___,___,___,001,___,___
	FRQ         ___,___,___,___,Cn4,Cn4,___,___ ;
	DEL         ___,___,___,___,___,001,___,___
	FRQ         ___,___,___,___,Cn4,Cn4,Q__,___ ;
	DEL         ___,___,___,___,___,001,___,___
	FRQ         ___,___,___,___,Cn4,Cn4,___,___ ;
	DEL         ___,___,___,___,___,001,___,___
	FRQ         ___,___,___,Cn6,Cn4,Cn4,Cn3,Cn2 ;
	DEL         ___,___,___,___,___,001,___,___
	FRQ         ___,___,___,___,Cn5,Cn5,___,___ ;
	DEL         ___,___,___,___,___,001,___,___
	FRQ         ___,___,___,___,Cn5,Cn5,Q__,___ ;
	DEL         ___,___,___,___,___,001,___,___
	FRQ         ___,___,___,___,Cn5,Cn5,___,___ ;
	DEL         ___,___,___,___,___,001,___,___
	FRQ         ___,___,___,Cn6,Cn3,Cn3,Cn3,Cn2 ;
	DEL         ___,___,___,___,___,001,___,___
	FRQ         ___,___,___,___,Cn4,Cn4,___,___ ;
	DEL         ___,___,___,___,___,001,___,___
	FRQ         ___,___,___,___,Cn5,Cn5,Q__,Cn2 ;
	GTM         ___,___,___,___,___,___,___,255
	DEL         ___,___,___,___,___,001,___,___
	FRQ         ___,___,___,___,Cn6,Cn6,___,___ ;
	DEL         ___,___,___,___,___,001,___,___
	FRQ         ___,___,___,Cn6,Cn3,Cn3,Cn3,Gn2 ;
	DEL         ___,___,___,___,___,001,___,___
	FRQ         ___,___,___,___,Cn4,Cn4,___,___ ;
	GTM         ___,___,___,___,___,___,255,003
	DEL         ___,___,___,___,___,001,___,___
	FRQ         ___,___,___,___,Cn5,Cn5,___,___ ;
	DEL         ___,___,___,___,___,001,___,___
	FRQ         ___,___,___,___,Cn6,Cn6,___,___ ;
	GTM         ___,___,___,___,___,___,___,003
	DEL         ___,___,___,___,___,001,___,___
	FRQ         Fn3,As3,Dn4,Cn6,Cn5,Cn5,Cn3,Cn2 ;
	DEL         ___,___,___,___,___,001,___,___
	FRQ         ___,___,___,___,Cn4,Cn4,___,___ ;
	DEL         ___,___,___,___,___,001,___,___
	FRQ         ___,___,___,___,Cn4,Cn4,Q__,___ ;
	DEL         ___,___,___,___,___,001,___,___
	FRQ         ___,___,___,___,Cn5,Cn5,___,___ ;
	DEL         ___,___,___,___,___,001,___,___
	FRQ         ___,___,___,Cn6,Cn4,Cn4,Cn3,Cn2 ;
	DEL         ___,___,___,___,___,001,___,___
	FRQ         ___,___,___,___,Cn4,Cn4,___,___ ;
	DEL         ___,___,___,___,___,001,___,___
	FRQ         ___,___,___,___,Cn4,Cn4,Q__,___ ;
	DEL         ___,___,___,___,___,001,___,___
	FRQ         ___,___,___,___,Cn5,Cn5,___,___ ;
	DEL         ___,___,___,___,___,001,___,___
	FRQ         ___,___,___,Cn6,Cn4,Cn4,Cn3,Cn2 ;
	DEL         ___,___,___,___,___,001,___,___
	FRQ         ___,___,___,___,Cn5,Cn5,___,___ ;
	DEL         ___,___,___,___,___,001,___,___
	FRQ         ___,___,___,___,Cn5,Cn5,Q__,___ ;
	DEL         ___,___,___,___,___,001,___,___
	FRQ         ___,___,___,___,Cn4,Cn4,___,___ ;
	DEL         ___,___,___,___,___,001,___,___
	FRQ         Fn3,As3,Dn4,Cn6,Cn5,Cn5,Cn3,Cn2 ;
	DEL         ___,___,___,___,___,001,___,___
	FRQ         ___,___,___,___,Cn5,Cn5,___,___ ;
	DEL         ___,___,___,___,___,001,___,___
	FRQ         En3,Gn3,Cn4,___,Cn4,Cn4,Q__,___ ;
	DEL         ___,___,___,___,___,001,___,___
	FRQ         ___,___,___,___,Cn5,Cn5,___,___ ;
	DEL         ___,___,___,___,___,001,___,___
	FRQ         ___,___,___,Cn6,Cn5,Cn5,Cn3,Cn2 ;
	DEL         ___,___,___,___,___,001,___,___
	FRQ         ___,___,___,___,Cn4,Cn4,___,___ ;
	DEL         ___,___,___,___,___,001,___,___
	FRQ         ___,___,___,___,Cn4,Cn4,Q__,___ ;
	DEL         ___,___,___,___,___,001,___,___
	FRQ         ___,___,___,___,Cn4,Cn4,___,___ ;
	DEL         ___,___,___,___,___,001,___,___
	FRQ         ___,___,___,Cn6,Cn4,Cn4,Cn3,Cn2 ;
	DEL         ___,___,___,___,___,001,___,___
	FRQ         ___,___,___,___,Cn5,Cn5,___,___ ;
	DEL         ___,___,___,___,___,001,___,___
	FRQ         ___,___,___,___,Cn5,Cn5,Q__,___ ;
	DEL         ___,___,___,___,___,001,___,___
	FRQ         ___,___,___,___,Cn5,Cn5,___,___ ;
	DEL         ___,___,___,___,___,001,___,___
	FRQ         ___,___,___,Cn6,Cn4,Cn4,Cn3,Cn2 ;
	DEL         ___,___,___,___,___,001,___,___
	FRQ         ___,___,___,___,Cn4,Cn4,Cn3,___ ;
	DEL         ___,___,___,___,___,001,___,___
	FRQ         ___,___,___,___,Cn5,Cn5,___,Cn2 ;
	GTM         ___,___,___,___,___,___,035,255
	DEL         ___,___,___,___,___,001,___,___
	FRQ         ___,___,___,___,Cn5,Cn5,___,___ ;
	DEL         ___,___,___,___,___,001,___,___
	FRQ         ___,___,___,Cn6,Cn4,Cn4,Cn3,Gn2 ;
	DEL         ___,___,___,___,___,001,___,___
	FRQ         ___,___,___,___,Cn4,Cn4,___,___ ;
	GTM         ___,___,___,___,___,___,035,003
	DEL         ___,___,___,___,___,001,___,___
	FRQ         ___,___,___,___,Cn5,Cn5,___,___ ;
	DEL         ___,___,___,___,___,001,___,___
	FRQ         ___,___,___,___,Cn5,Cn5,___,___ ;
	GTM         ___,___,___,___,___,___,___,003
	DEL         ___,___,___,___,___,001,___,___
	FRQ         ___,___,___,Cn6,Cn5,Cn5,Cn3,Cn2 ;
	DEL         ___,___,___,___,___,001,___,___
	FRQ         ___,___,___,___,Cn4,Cn4,___,___ ;
	DEL         ___,___,___,___,___,001,___,___
	FRQ         ___,___,___,___,Cn4,Cn3,Q__,___ ;
	DEL         ___,___,___,___,___,001,___,___
	FRQ         ___,___,___,___,Cn5,Cn5,___,___ ;
	DEL         ___,___,___,___,___,001,___,___
	FRQ         ___,___,___,Cn6,Cn4,Cn4,Cn3,Cn2 ;
	DEL         ___,___,___,___,___,001,___,___
	FRQ         ___,___,___,___,Cn4,Cn4,___,___ ;
	DEL         ___,___,___,___,___,001,___,___
	FRQ         ___,___,___,___,Cn4,Cn4,Q__,___ ;
	DEL         ___,___,___,___,___,001,___,___
	FRQ         ___,___,___,___,Cn5,Cn5,___,___ ;
	DEL         ___,___,___,___,___,001,___,___
	FRQ         ___,___,___,Cn6,Cn4,Cn4,Cn3,Cn2 ;
	DEL         ___,___,___,___,___,001,___,___
	FRQ         ___,___,___,___,Cn5,Cn5,___,___ ;
	DEL         ___,___,___,___,___,001,___,___
	FRQ         ___,___,___,___,Cn5,Cn5,Q__,___ ;
	DEL         ___,___,___,___,___,001,___,___
	FRQ         ___,___,___,___,Cn4,Cn4,___,___ ;
	DEL         ___,___,___,___,___,001,___,___
	FRQ         ___,___,___,Cn6,Cn5,Cn5,Cn3,Cn2 ;
	DEL         ___,___,___,___,___,001,___,___
	FRQ         ___,___,___,___,Cn5,Cn5,___,___ ;
	DEL         ___,___,___,___,___,001,___,___
	FRQ         ___,___,___,___,Cn4,Cn4,Q__,___ ;
	DEL         ___,___,___,___,___,001,___,___
	FRQ         ___,___,___,___,Cn5,Cn5,___,___ ;
	DEL         ___,___,___,___,___,001,___,___
	FRQ         ___,___,___,Cn6,Cn5,Cn5,Cn3,Cn2 ;
	DEL         ___,___,___,___,___,001,___,___
	FRQ         ___,___,___,___,Cn4,Cn4,___,___ ;
	DEL         ___,___,___,___,___,001,___,___
	FRQ         ___,___,___,___,Cn4,Cn4,Q__,___ ;
	DEL         ___,___,___,___,___,001,___,___
	FRQ         ___,___,___,___,Cn4,Cn4,___,___ ;
	DEL         ___,___,___,___,___,001,___,___
	FRQ         ___,___,___,Cn6,Cn4,Cn4,Cn3,Cn2 ;
	DEL         ___,___,___,___,___,001,___,___
	FRQ         ___,___,___,___,Cn5,Cn5,___,___ ;
	DEL         ___,___,___,___,___,001,___,___
	FRQ         ___,___,___,___,Cn5,Cn5,Q__,___ ;
	DEL         ___,___,___,___,___,001,___,___
	FRQ         ___,___,___,___,Cn5,Cn5,___,___ ;
	DEL         ___,___,___,___,___,001,___,___
	FRQ         ___,___,___,Cn6,Cn3,Cn3,Cn3,Cn2 ;
	DEL         ___,___,___,___,___,001,___,___
	FRQ         ___,___,___,___,Cn4,Cn4,___,___ ;
	DEL         ___,___,___,___,___,001,___,___
	FRQ         ___,___,___,___,Cn5,Cn5,Q__,Cn2 ;
	GTM         ___,___,___,___,___,___,___,255
	DEL         ___,___,___,___,___,001,___,___
	FRQ         ___,___,___,___,Cn6,Cn6,___,___ ;
	DEL         ___,___,___,___,___,001,___,___
	FRQ         ___,___,___,Cn6,Cn3,Cn3,Cn3,Gn2 ;
	DEL         ___,___,___,___,___,001,___,___
	FRQ         ___,___,___,___,Cn4,Cn4,___,___ ;
	GTM         ___,___,___,___,___,___,255,003
	DEL         ___,___,___,___,___,001,___,___
	FRQ         ___,___,___,___,Cn5,Cn5,___,___ ;
	DEL         ___,___,___,___,___,001,___,___
	FRQ         ___,___,___,___,Cn6,Cn6,___,___ ;
	GTM         ___,___,___,___,___,___,___,003
	DEL         ___,___,___,___,___,001,___,___
	FRQ         Gn3,Cn4,En4,Cn6,Cn5,Cn5,Cn3,Cn2 ;
	DEL         ___,___,___,___,___,001,___,___
	FRQ         ___,___,___,___,Cn4,Cn4,___,___ ;
	DEL         ___,___,___,___,___,001,___,___
	FRQ         ___,___,___,___,Cn4,Cn4,Q__,___ ;
	DEL         ___,___,___,___,___,001,___,___
	FRQ         ___,___,___,___,Cn5,Cn5,___,___ ;
	DEL         ___,___,___,___,___,001,___,___
	FRQ         ___,___,___,Cn6,Cn4,Cn4,Cn3,Cn2 ;
	DEL         ___,___,___,___,___,001,___,___
	FRQ         ___,___,___,___,Cn4,Cn4,___,___ ;
	DEL         ___,___,___,___,___,001,___,___
	FRQ         ___,___,___,___,Cn4,Cn4,Q__,___ ;
	DEL         ___,___,___,___,___,001,___,___
	FRQ         ___,___,___,___,Cn5,Cn5,___,___ ;
	DEL         ___,___,___,___,___,001,___,___
	FRQ         Gn3,___,___,Cn6,Cn4,Cn4,Cn3,Cn2 ;
	DEL         ___,___,___,___,___,001,___,___
	FRQ         ___,___,___,___,Cn5,Cn5,___,___ ;
	DEL         ___,___,___,___,___,001,___,___
	FRQ         ___,___,Cn4,___,Cn5,Cn5,Q__,___ ;
	DEL         ___,___,___,___,___,001,___,___
	FRQ         ___,___,___,___,Cn4,Cn4,___,___ ;
	DEL         ___,___,___,___,___,001,___,___
	FRQ         ___,En4,___,Cn6,Cn5,Cn5,Cn3,Cn2 ;
	DEL         ___,___,___,___,___,001,___,___
	FRQ         ___,___,___,___,Cn5,Cn5,___,___ ;
	DEL         ___,___,___,___,___,001,___,___
	FRQ         Fn3,As3,Dn4,___,Cn4,Cn4,Q__,___ ;
	DEL         ___,___,___,___,___,001,___,___
	FRQ         ___,___,___,___,Cn5,Cn5,___,___ ;
	DEL         ___,___,___,___,___,001,___,___
	FRQ         ___,___,___,Cn6,Cn5,Cn5,Cn3,Cn2 ;
	DEL         ___,___,___,___,___,001,___,___
	FRQ         ___,___,___,___,Cn4,Cn4,___,___ ;
	DEL         ___,___,___,___,___,001,___,___
	FRQ         ___,___,___,___,Cn4,Cn4,Q__,___ ;
	DEL         ___,___,___,___,___,001,___,___
	FRQ         ___,___,___,___,Cn4,Cn4,___,___ ;
	DEL         ___,___,___,___,___,001,___,___
	FRQ         ___,___,___,Cn6,Cn4,Cn4,Cn3,Cn2 ;
	DEL         ___,___,___,___,___,001,___,___
	FRQ         ___,___,___,___,Cn5,Cn5,___,___ ;
	DEL         ___,___,___,___,___,001,___,___
	FRQ         ___,___,___,___,Cn5,Cn5,Q__,___ ;
	DEL         ___,___,___,___,___,001,___,___
	FRQ         ___,___,___,___,Cn5,Cn5,___,___ ;
	DEL         ___,___,___,___,___,001,___,___
	FRQ         ___,___,___,Cn6,Cn4,Cn4,Cn3,Cn2 ;
	DEL         ___,___,___,___,___,001,___,___
	FRQ         ___,___,___,___,Cn4,Cn4,Cn3,___ ;
	DEL         ___,___,___,___,___,001,___,___
	FRQ         ___,___,___,___,Cn5,Cn5,___,Cn2 ;
	GTM         ___,___,___,___,___,___,035,255
	DEL         ___,___,___,___,___,001,___,___
	FRQ         ___,___,___,___,Cn5,Cn5,___,___ ;
	DEL         ___,___,___,___,___,001,___,___
	FRQ         ___,___,___,Cn6,Cn4,Cn4,Cn3,Gn2 ;
	DEL         ___,___,___,___,___,001,___,___
	FRQ         ___,___,___,___,Cn4,Cn4,___,___ ;
	GTM         ___,___,___,___,___,___,035,003
	DEL         ___,___,___,___,___,001,___,___
	FRQ         ___,___,___,___,Cn5,Cn5,___,___ ;
	DEL         ___,___,___,___,___,001,___,___
	FRQ         ___,___,___,___,Cn5,Cn5,___,___ ;
	GTM         ___,___,___,___,___,___,___,003
	DEL         ___,___,___,___,___,001,___,___
	FRQ         ___,___,___,Cn6,Cn5,Cn5,Cn3,Cn2 ;
	DEL         ___,___,___,___,___,001,___,___
	FRQ         ___,___,___,___,Cn4,Cn4,___,___ ;
	DEL         ___,___,___,___,___,001,___,___
	FRQ         ___,___,___,___,Cn4,Cn4,Q__,___ ;
	DEL         ___,___,___,___,___,001,___,___
	FRQ         ___,___,___,___,Cn5,Cn5,___,___ ;
	DEL         ___,___,___,___,___,001,___,___
	FRQ         ___,___,___,Cn6,Cn4,Cn4,Cn3,Cn2 ;
	DEL         ___,___,___,___,___,001,___,___
	FRQ         ___,___,___,___,Cn4,Cn4,___,___ ;
	DEL         ___,___,___,___,___,001,___,___
	FRQ         ___,___,___,___,Cn4,Cn4,Q__,___ ;
	DEL         ___,___,___,___,___,001,___,___
	FRQ         ___,___,___,___,Cn5,Cn5,___,___ ;
	DEL         ___,___,___,___,___,001,___,___
	FRQ         ___,___,___,Cn6,Cn4,Cn4,Cn3,Cn2 ;
	DEL         ___,___,___,___,___,001,___,___
	FRQ         ___,___,___,___,Cn5,Cn5,___,___ ;
	DEL         ___,___,___,___,___,001,___,___
	FRQ         ___,___,___,___,Cn5,Cn5,Q__,___ ;
	DEL         ___,___,___,___,___,001,___,___
	FRQ         ___,___,___,___,Cn4,Cn4,___,___ ;
	DEL         ___,___,___,___,___,001,___,___
	FRQ         ___,___,___,Cn6,Cn5,Cn5,Cn3,Cn2 ;
	DEL         ___,___,___,___,___,001,___,___
	FRQ         ___,___,___,___,Cn5,Cn5,___,___ ;
	DEL         ___,___,___,___,___,001,___,___
	FRQ         ___,___,___,___,Cn4,Cn4,Q__,___ ;
	DEL         ___,___,___,___,___,001,___,___
	FRQ         ___,___,___,___,Cn5,Cn5,___,___ ;
	DEL         ___,___,___,___,___,001,___,___
	FRQ         ___,___,___,Cn6,Cn5,Cn5,Cn3,Cn2 ;
	DEL         ___,___,___,___,___,001,___,___
	FRQ         ___,___,___,___,Cn4,Cn4,___,___ ;
	DEL         ___,___,___,___,___,001,___,___
	FRQ         ___,___,___,___,Cn4,Cn4,Q__,___ ;
	DEL         ___,___,___,___,___,001,___,___
	FRQ         ___,___,___,___,Cn4,Cn4,___,___ ;
	DEL         ___,___,___,___,___,001,___,___
	FRQ         ___,___,___,Cn6,Cn4,Cn4,Cn3,Cn2 ;
	DEL         ___,___,___,___,___,001,___,___
	FRQ         ___,___,___,___,Cn5,Cn5,___,___ ;
	DEL         ___,___,___,___,___,001,___,___
	FRQ         ___,___,___,___,Cn5,Cn5,Q__,___ ;
	DEL         ___,___,___,___,___,001,___,___
	FRQ         ___,___,___,___,Cn5,Cn5,___,___ ;
	DEL         ___,___,___,___,___,001,___,___
	FRQ         ___,___,___,Cn6,Cn3,Cn3,Cn3,Cn2 ;
	DEL         ___,___,___,___,___,001,___,___
	FRQ         ___,___,___,___,Cn4,Cn4,___,___ ;
	DEL         ___,___,___,___,___,001,___,___
	FRQ         ___,___,___,___,Cn5,Cn5,Q__,Cn2 ;
	GTM         ___,___,___,___,___,___,___,255
	DEL         ___,___,___,___,___,001,___,___
	FRQ         ___,___,___,___,Cn6,Cn6,___,___ ;
	DEL         ___,___,___,___,___,001,___,___
	FRQ         ___,___,___,Cn6,Cn3,Cn3,Cn3,Gn2 ;
	DEL         ___,___,___,___,___,001,___,___
	FRQ         ___,___,___,___,Cn4,Cn4,___,___ ;
	GTM         ___,___,___,___,___,___,255,003
	DEL         ___,___,___,___,___,001,___,___
	FRQ         ___,___,___,___,Cn5,Cn5,___,___ ;
	DEL         ___,___,___,___,___,001,___,___
	FRQ         ___,___,___,___,Cn6,Cn6,___,___ ;
	GTM         ___,___,___,___,___,___,___,003
	DEL         ___,___,___,___,___,001,___,___
	FRQ         Fn3,As3,Dn4,Cn6,Cn5,Cn5,Cn3,Cn2 ;
	DEL         ___,___,___,___,___,001,___,___
	FRQ         ___,___,___,___,Cn4,Cn4,___,___ ;
	DEL         ___,___,___,___,___,001,___,___
	FRQ         ___,___,___,___,Cn4,Cn4,Q__,___ ;
	DEL         ___,___,___,___,___,001,___,___
	FRQ         ___,___,___,___,Cn5,Cn5,___,___ ;
	DEL         ___,___,___,___,___,001,___,___
	FRQ         ___,___,___,Cn6,Cn4,Cn4,Cn3,Cn2 ;
	DEL         ___,___,___,___,___,001,___,___
	FRQ         ___,___,___,___,Cn4,Cn4,___,___ ;
	DEL         ___,___,___,___,___,001,___,___
	FRQ         ___,___,___,___,Cn4,Cn4,Q__,___ ;
	DEL         ___,___,___,___,___,001,___,___
	FRQ         ___,___,___,___,Cn5,Cn5,___,___ ;
	DEL         ___,___,___,___,___,001,___,___
	FRQ         ___,Fn3,___,Cn6,Cn4,Cn4,Cn3,Cn2 ;
	DEL         ___,___,___,___,___,001,___,___
	FRQ         ___,___,___,___,Cn5,Cn5,___,___ ;
	DEL         ___,___,___,___,___,001,___,___
	FRQ         ___,___,As3,___,Cn5,Cn5,Q__,___ ;
	DEL         ___,___,___,___,___,001,___,___
	FRQ         ___,___,___,___,Cn4,Cn4,___,___ ;
	DEL         ___,___,___,___,___,001,___,___
	FRQ         Dn4,___,___,Cn6,Cn5,Cn5,Cn3,Cn2 ;
	DEL         ___,___,___,___,___,001,___,___
	FRQ         ___,___,___,___,Cn5,Cn5,___,___ ;
	DEL         ___,___,___,___,___,001,___,___
	FRQ         En3,Gn3,Cn4,___,Cn4,Cn4,Q__,___ ;
	DEL         ___,___,___,___,___,001,___,___
	FRQ         ___,___,___,___,Cn5,Cn5,___,___ ;
	DEL         ___,___,___,___,___,001,___,___
	FRQ         ___,___,___,Cn6,Cn5,Cn5,Cn3,Cn2 ;
	DEL         ___,___,___,___,___,001,___,___
	FRQ         ___,___,___,___,Cn4,Cn4,___,___ ;
	DEL         ___,___,___,___,___,001,___,___
	FRQ         ___,___,___,___,Cn4,Cn4,Q__,___ ;
	DEL         ___,___,___,___,___,001,___,___
	FRQ         ___,___,___,___,Cn4,Cn4,___,___ ;
	DEL         ___,___,___,___,___,001,___,___
	FRQ         ___,___,___,Cn6,Cn4,Cn4,Cn3,Cn2 ;
	DEL         ___,___,___,___,___,001,___,___
	FRQ         ___,___,___,___,Cn5,Cn5,___,___ ;
	DEL         ___,___,___,___,___,001,___,___
	FRQ         ___,___,___,___,Cn5,Cn5,Q__,___ ;
	DEL         ___,___,___,___,___,001,___,___
	FRQ         ___,___,___,___,Cn5,Cn5,___,___ ;
	DEL         ___,___,___,___,___,001,___,___
	FRQ         ___,___,___,Cn6,Cn4,Cn4,Cn3,Cn2 ;
	DEL         ___,___,___,___,___,001,___,___
	FRQ         ___,___,___,___,Cn4,Cn4,Cn3,___ ;
	DEL         ___,___,___,___,___,001,___,___
	FRQ         ___,___,___,___,Cn5,Cn5,___,Cn2 ;
	GTM         ___,___,___,___,___,___,035,255
	DEL         ___,___,___,___,___,001,___,___
	FRQ         ___,___,___,___,Cn5,Cn5,___,___ ;
	DEL         ___,___,___,___,___,001,___,___
	FRQ         ___,___,___,Cn6,Cn4,Cn4,Cn3,Gn2 ;
	DEL         ___,___,___,___,___,001,___,___
	FRQ         ___,___,___,___,Cn4,Cn4,___,___ ;
	GTM         ___,___,___,___,___,___,035,003
	DEL         ___,___,___,___,___,001,___,___
	FRQ         ___,___,___,___,Cn5,Cn5,___,___ ;
	DEL         ___,___,___,___,___,001,___,___
	FRQ         ___,___,___,___,Cn5,Cn5,___,___ ;
	GTM         ___,___,___,___,___,___,___,003
	DEL         ___,___,___,___,___,001,___,___
	FRQ         ___,___,___,Cn6,Cn5,Cn5,Cn3,Cn2 ;
	DEL         ___,___,___,___,___,001,___,___
	FRQ         ___,___,___,___,Cn4,Cn4,___,___ ;
	DEL         ___,___,___,___,___,001,___,___
	FRQ         ___,___,___,___,Cn4,Cn4,Q__,___ ;
	DEL         ___,___,___,___,___,001,___,___
	FRQ         ___,___,___,___,Cn5,Cn5,___,___ ;
	DEL         ___,___,___,___,___,001,___,___
	FRQ         ___,___,___,Cn6,Cn4,Cn4,Cn3,Cn2 ;
	DEL         ___,___,___,___,___,001,___,___
	FRQ         ___,___,___,___,Cn4,Cn4,___,___ ;
	DEL         ___,___,___,___,___,001,___,___
	FRQ         ___,___,___,___,Cn4,Cn4,Q__,___ ;
	DEL         ___,___,___,___,___,001,___,___
	FRQ         ___,___,___,___,Cn5,Cn5,___,___ ;
	DEL         ___,___,___,___,___,001,___,___
	FRQ         ___,___,___,Cn6,Cn4,Cn4,Cn3,Cn2 ;
	DEL         ___,___,___,___,___,001,___,___
	FRQ         ___,___,___,___,Cn5,Cn5,___,___ ;
	DEL         ___,___,___,___,___,001,___,___
	FRQ         ___,___,___,___,Cn5,Cn5,Q__,___ ;
	DEL         ___,___,___,___,___,001,___,___
	FRQ         ___,___,___,___,Cn4,Cn4,___,___ ;
	DEL         ___,___,___,___,___,001,___,___
	FRQ         ___,___,___,Cn6,Cn5,Cn5,Cn3,Cn2 ;
	DEL         ___,___,___,___,___,001,___,___
	FRQ         ___,___,___,___,Cn5,Cn5,___,___ ;
	DEL         ___,___,___,___,___,001,___,___
	FRQ         ___,___,___,___,Cn4,Cn4,Q__,___ ;
	DEL         ___,___,___,___,___,001,___,___
	FRQ         ___,___,___,___,Cn5,Cn5,___,___ ;
	DEL         ___,___,___,___,___,001,___,___
	FRQ         ___,___,___,Cn6,Cn5,Cn5,Cn3,Cn2 ;
	DEL         ___,___,___,___,___,001,___,___
	FRQ         ___,___,___,___,Cn4,Cn4,___,___ ;
	DEL         ___,___,___,___,___,001,___,___
	FRQ         ___,___,___,___,Cn4,Cn4,Q__,___ ;
	DEL         ___,___,___,___,___,001,___,___
	FRQ         ___,___,___,___,Cn4,Cn4,___,___ ;
	DEL         ___,___,___,___,___,001,___,___
	FRQ         ___,___,___,Cn6,Cn4,Cn4,Cn3,Cn2 ;
	DEL         ___,___,___,___,___,001,___,___
	FRQ         ___,___,___,___,Cn5,Cn5,___,___ ;
	DEL         ___,___,___,___,___,001,___,___
	FRQ         ___,___,___,___,Cn5,Cn5,Q__,___ ;
	DEL         ___,___,___,___,___,001,___,___
	FRQ         ___,___,___,___,Cn5,Cn5,___,___ ;
	DEL         ___,___,___,___,___,001,___,___
	FRQ         Cn4,Cn4,En3,Cn6,Cn3,Cn3,Cn3,Cn2 ;
	GTM         ___,___,___,___,___,___,___,255
	DEL         ___,___,___,___,___,001,___,___
	FRQ         Dn4,Dn4,Fn3,___,Cn4,Cn4,___,Cn3 ;
	DEL         ___,___,___,___,___,001,___,___
	FRQ         En4,En4,Gn3,___,Cn5,Cn5,Q__,Cn3 ;
	DEL         ___,___,___,___,___,001,___,___
	FRQ         Fn4,Fn4,An3,___,Cn6,Cn6,___,Cn3 ;
	DEL         ___,___,___,___,___,001,___,___
	FRQ         Dn4,Dn4,Fn3,Cn6,Cn3,Cn3,Cn3,Cn3 ;
	DEL         ___,___,___,___,___,001,___,___
	FRQ         En4,En4,Gn3,___,Cn4,Cn4,___,Cn3 ;
	DEL         ___,___,___,___,___,001,___,___
	FRQ         Fn4,Fn4,An3,___,Cn5,Cn5,___,Gn2 ;
	DEL         ___,___,___,___,___,001,___,___
	FRQ         Gn4,Gn4,Bn3,___,Cn6,Cn6,___,___ ;
	JUMP        song001_jmp000
.endproc
