	.include "song.inc"
	.segment "BANK0"
	.export ending
.proc ending
song07f_start:
	INIT        %11111111
	TEMPO       001
	SPEED       012
	PIT         011,013,015,017,019,___,___,004
	PITRAT      146,144,142,140,138,___,___,100
	TVOL        255
	TRS         ___,___,___,___,___,___,___,___
	PITDEP      120,120,120,120,120,___,___,180
	ENV         ___,___,___,___,___,___,___,___
	INS         019,019,019,019,019,005,089,001
	VOL         245,245,245,250,250,255,230,255
	LFO         ___,___,___,___,___,___,___,___
	PAN         L__,L__,___,__R,__R,___,___,___
	PCM         $80
	FRQ         Cn4,Dn4,En4,Gn4,Cn2,Cn3,Cn7,Cn2 ;
	FRQ         ___,___,___,___,___,___,___,___ ;
	FRQ         ___,___,___,___,___,___,Cn7,___ ;
	FRQ         ___,___,___,___,___,___,___,___ ;
	FRQ         ___,___,___,___,___,Cn3,Cn7,Cn2 ;
	FRQ         ___,___,___,___,___,___,___,___ ;
	FRQ         ___,___,___,___,___,___,Cn7,___ ;
	FRQ         ___,___,___,___,___,___,Cn7,___ ;
	FRQ         ___,___,___,___,___,Cn3,Cn7,Cn2 ;
	FRQ         ___,___,___,___,___,___,___,___ ;
	FRQ         ___,___,___,___,___,___,Cn7,___ ;
	SPEED       003
	GTM         ___,___,___,___,___,___,___,255
	FRQ         ___,___,___,___,___,___,Cn7,___ ;
	FRQ         ___,___,___,___,___,___,___,___ ;
	FRQ         ___,___,___,___,___,___,___,Gn3 ;
	FRQ         ___,___,___,___,___,___,___,Gn3 ;
	SPEED       006
	FRQ         ___,___,___,___,___,Cn3,Cn7,En3 ;
	FRQ         ___,___,___,___,___,___,___,En3 ;
	SPEED       012
	FRQ         ___,___,___,___,___,___,Cn7,Cn3 ;
	FRQ         ___,___,___,___,___,___,Cn7,Cn3 ;
	SPEED       003
	FRQ         ___,___,___,___,___,___,Cn7,Fn2 ;
	FRQ         ___,___,___,___,___,___,___,Dn2 ;
	FRQ         ___,___,___,___,___,___,___,Cn2 ;
	FRQ         ___,___,___,___,___,___,___,___ ;
	SPEED       012
	PIT         ___,___,___,___,___,___,019,___
	PITDEP      ___,___,___,___,___,___,120,___
	PITRAT      ___,___,___,___,___,___,138,___
	INS         019,019,019,018,018,___,018,___
	VOL         245,245,235,250,248,___,248,___
	LFO         ___,001,001,___,___,___,___,___
	DTN         ___,___,___,___,___,___,040,___
	PAN         __R,L__,___,_C_,L__,___,__R,___
	DEL         ___,___,___,___,___,___,001,___
	PCM         $81
	FRQ         Gn3,Cn4,En4,Cn4,En4,Cn3,En4,Cn2 ;
	FRQ         ___,___,___,___,___,___,___,___ ;
	GTM         ___,___,___,___,___,001,___,___
	VOL         ___,___,___,___,___,230,___,___
	INS         ___,___,___,___,___,089,___,___
	FRQ         ___,___,___,___,___,Cn7,___,___ ;
	GTM         ___,___,___,___,___,255,___,___
	VOL         ___,___,___,___,___,255,___,___
	INS         ___,___,___,___,___,005,___,___
	FRQ         ___,___,___,___,___,___,___,___ ;
	FRQ         ___,___,___,___,___,Cn3,___,Cn2 ;
	FRQ         ___,___,___,___,___,___,___,___ ;
	GTM         ___,___,___,___,___,001,___,___
	VOL         ___,___,___,___,___,230,___,___
	INS         ___,___,___,___,___,089,___,___
	FRQ         ___,___,___,___,___,Cn7,___,___ ;
	GTM         ___,___,___,___,___,255,___,___
	VOL         ___,___,___,___,___,255,___,___
	INS         ___,___,___,___,___,005,___,___
	FRQ         ___,___,___,___,___,___,___,___ ;
	DEL         ___,___,___,___,___,___,001,___
	FRQ         Gn3,Bn3,Dn4,Bn3,Dn4,Bn2,Dn4,Cn2 ;
	FRQ         ___,___,___,___,___,___,___,___ ;
	GTM         ___,___,___,___,___,001,___,___
	VOL         ___,___,___,___,___,230,___,___
	INS         ___,___,___,___,___,089,___,___
	FRQ         ___,___,___,___,___,Cn7,___,___ ;
	GTM         ___,___,___,___,___,255,___,___
	VOL         ___,___,___,___,___,255,___,___
	INS         ___,___,___,___,___,005,___,___
	DEL         ___,___,___,___,___,___,001,___
	FRQ         Gn3,Cn4,En4,Cn4,En4,___,En4,___ ;
	FRQ         ___,___,___,___,___,Bn2,___,Cn2 ;
	FRQ         ___,___,___,___,___,___,___,___ ;
	GTM         ___,___,___,___,___,001,___,___
	VOL         ___,___,___,___,___,230,___,___
	INS         ___,___,___,___,___,089,___,___
	DEL         ___,___,___,___,___,___,001,___
	FRQ         Gn3,Bn3,Dn4,Bn3,Dn4,Cn7,Dn4,___ ;
	FRQ         ___,___,___,___,___,Cn7,___,___ ;
	GTM         ___,___,___,___,___,255,___,___
	VOL         ___,___,___,___,___,255,___,___
	INS         ___,___,___,___,___,005,___,___
	DEL         ___,___,___,___,___,___,001,___
	FRQ         Fn3,As3,Dn4,As3,Dn4,As2,Dn4,Cn2 ;
	FRQ         ___,___,___,___,___,___,___,___ ;
	GTM         ___,___,___,___,___,001,___,___
	VOL         ___,___,___,___,___,230,___,___
	INS         ___,___,___,___,___,089,___,___
	FRQ         ___,___,___,___,___,Cn7,___,___ ;
	GTM         ___,___,___,___,___,255,___,___
	VOL         ___,___,___,___,___,255,___,___
	INS         ___,___,___,___,___,005,___,___
	FRQ         ___,___,___,___,___,___,___,___ ;
	DEL         ___,___,___,___,___,___,001,___
	FRQ         Dn4,Fn4,An4,Fn4,An4,As2,An4,Cn2 ;
	FRQ         ___,___,___,___,___,___,___,___ ;
	GTM         ___,___,___,___,___,001,___,___
	VOL         ___,___,___,___,___,230,___,___
	INS         ___,___,___,___,___,089,___,___
	FRQ         ___,___,___,___,___,Cn7,___,___ ;
	GTM         ___,___,___,___,___,255,___,___
	FRQ         ___,___,___,___,___,___,___,___ ;
	VOL         ___,___,___,___,___,255,___,___
	INS         ___,___,___,___,___,005,___,___
	DEL         ___,___,___,___,___,___,001,___
	FRQ         Cn4,En4,Gn4,En4,Gn4,As2,Gn4,Cn2 ;
	FRQ         ___,___,___,___,___,___,___,___ ;
	GTM         ___,___,___,___,___,001,___,___
	VOL         ___,___,___,___,___,230,___,___
	INS         ___,___,___,___,___,089,___,___
	FRQ         ___,___,___,___,___,Cn7,___,___ ;
	GTM         ___,___,___,___,___,255,___,___
	FRQ         ___,___,___,___,___,___,___,Cn2 ;
	VOL         ___,___,___,___,___,255,___,___
	INS         ___,___,___,___,___,005,___,___
	DEL         ___,___,___,___,___,___,001,___
	FRQ         ___,___,___,___,Gn4,As2,Gn4,Cn3 ;
	GTM         ___,___,___,___,___,001,___,___
	VOL         ___,___,___,___,___,230,___,___
	INS         ___,___,___,___,___,089,___,___
	DEL         ___,___,___,___,___,___,001,___
	FRQ         ___,___,___,___,An4,Cn7,An4,___ ;
	DEL         ___,___,___,___,___,___,001,___
	FRQ         ___,___,___,___,As4,Cn7,As4,___ ;
	GTM         ___,___,___,___,___,255,___,___
	VOL         ___,___,___,___,___,255,___,___
	INS         ___,___,___,___,___,005,___,___
	FRQ         ___,___,___,___,___,___,___,___ ;
	DEL         ___,___,___,___,___,___,001,___
	PCM         $82
	FRQ         En4,Gn4,Cn5,Gn4,Cn5,An2,Cn5,Cn2 ;
	FRQ         ___,___,___,___,___,___,___,___ ;
	GTM         ___,___,___,___,___,001,___,___
	VOL         ___,___,___,___,___,230,___,___
	INS         ___,___,___,___,___,089,___,___
	FRQ         ___,___,___,___,___,Cn7,___,___ ;
	GTM         ___,___,___,___,___,255,___,___
	VOL         ___,___,___,___,___,255,___,___
	INS         ___,___,___,___,___,005,___,___
	FRQ         ___,___,___,___,___,___,___,___ ;
	FRQ         ___,___,___,___,___,An2,___,Cn3 ;
	FRQ         ___,___,___,___,___,___,___,___ ;
	GTM         ___,___,___,___,___,001,___,___
	VOL         ___,___,___,___,___,230,___,___
	INS         ___,___,___,___,___,089,___,___
	FRQ         ___,___,___,___,___,Cn7,___,___ ;
	GTM         ___,___,___,___,___,255,___,___
	VOL         ___,___,___,___,___,255,___,___
	INS         ___,___,___,___,___,005,___,___
	FRQ         ___,___,___,___,___,___,___,___ ;
	DEL         ___,___,___,___,___,___,001,___
	FRQ         En4,Gn4,___,En4,Gn4,An2,Gn4,Cn2 ;
	FRQ         ___,___,___,___,___,___,___,___ ;
	GTM         ___,___,___,___,___,001,___,___
	VOL         ___,___,___,___,___,230,___,___
	INS         ___,___,___,___,___,089,___,___
	FRQ         ___,___,___,___,___,Cn7,___,___ ;
	GTM         ___,___,___,___,___,255,___,___
	VOL         ___,___,___,___,___,255,___,___
	INS         ___,___,___,___,___,005,___,___
	DEL         ___,___,___,___,___,___,001,___
	FRQ         En4,An4,___,Fn4,An4,___,An4,___ ;
	FRQ         ___,___,___,___,___,An2,___,Cn3 ;
	FRQ         ___,___,___,___,___,___,___,___ ;
	GTM         ___,___,___,___,___,001,___,___
	VOL         ___,___,___,___,___,230,___,___
	INS         ___,___,___,___,___,089,___,___
	DEL         ___,___,___,___,___,___,001,___
	FRQ         En4,Gn4,___,En4,Gn4,Cn7,Gn4,___ ;
	GTM         ___,___,___,___,___,255,___,___
	VOL         ___,___,___,___,___,255,___,___
	INS         ___,___,___,___,___,005,___,___
	FRQ         ___,___,___,___,___,___,___,___ ;
	DEL         ___,___,___,___,___,___,001,___
	FRQ         Dn4,Fn4,As4,Gn4,As4,Gn2,As4,Cn2 ;
	FRQ         ___,___,___,___,___,___,___,___ ;
	FRQ         ___,___,___,___,___,___,___,___ ;
	FRQ         ___,___,___,___,___,___,___,___ ;
	DEL         ___,___,___,___,___,___,001,___
	FRQ         Dn4,Fn4,An4,Fn4,An4,An2,An4,Gn2 ;
	FRQ         ___,___,___,___,___,___,___,Gn2 ;
	GTM         ___,___,___,___,___,001,___,___
	VOL         ___,___,___,___,___,230,___,___
	INS         ___,___,___,___,___,089,___,___
	FRQ         ___,___,___,___,___,Cn7,___,___ ;
	GTM         ___,___,___,___,___,255,___,___
	VOL         ___,___,___,___,___,255,___,___
	INS         ___,___,___,___,___,005,___,___
	FRQ         ___,___,___,___,___,___,___,___ ;
	DEL         ___,___,___,___,___,___,001,___
	FRQ         Cn4,Dn4,Fn4,Dn4,Fn4,As2,Fn4,Cn2 ;
	FRQ         ___,___,___,___,___,___,___,Cn3 ;
	GTM         ___,___,___,___,___,001,___,___
	VOL         ___,___,___,___,___,230,___,___
	INS         ___,___,___,___,___,089,___,___
	FRQ         ___,___,___,___,___,Cn7,___,Cn3 ;
	GTM         ___,___,___,___,___,255,___,___
	VOL         ___,___,___,___,___,255,___,___
	INS         ___,___,___,___,___,005,___,___
	FRQ         ___,___,___,___,___,___,___,___ ;
	DEL         ___,___,___,___,___,___,001,___
	FRQ         Cn4,En4,Gn4,En4,Gn4,Cn3,Gn4,Cn2 ;
	FRQ         ___,___,___,___,___,___,___,Cn3 ;
	GTM         ___,___,___,___,___,001,___,___
	VOL         ___,___,___,___,___,230,___,___
	INS         ___,___,___,___,___,089,___,___
	FRQ         ___,___,___,___,___,Cn7,___,Cn3 ;
	GTM         ___,___,___,___,___,255,___,___
	VOL         ___,___,___,___,___,255,___,___
	INS         ___,___,___,___,___,005,___,___
	FRQ         ___,___,___,___,___,___,___,Cn3 ;
	DEL         ___,___,___,___,___,___,001,___
	PCM         $83
	FRQ         Fn3,As3,Dn4,As3,Dn4,As2,Dn4,Cn2 ;
	FRQ         ___,___,___,___,___,___,___,___ ;
	GTM         ___,___,___,___,___,001,___,___
	VOL         ___,___,___,___,___,230,___,___
	INS         ___,___,___,___,___,089,___,___
	FRQ         ___,___,___,___,___,Cn7,___,___ ;
	FRQ         ___,___,___,___,___,Cn7,___,Cn2 ;
	GTM         ___,___,___,___,___,255,___,___
	VOL         ___,___,___,___,___,255,___,___
	INS         ___,___,___,___,___,005,___,___
	FRQ         ___,___,___,___,___,As2,___,Cn3 ;
	FRQ         ___,___,___,___,___,___,___,___ ;
	GTM         ___,___,___,___,___,001,___,___
	VOL         ___,___,___,___,___,230,___,___
	INS         ___,___,___,___,___,089,___,___
	FRQ         ___,___,___,___,___,Cn7,___,___ ;
	GTM         ___,___,___,___,___,255,___,___
	VOL         ___,___,___,___,___,255,___,___
	INS         ___,___,___,___,___,005,___,___
	FRQ         ___,___,___,___,___,As2,___,___ ;
	FRQ         ___,___,___,___,___,As2,___,Cn2 ;
	FRQ         ___,___,___,___,___,___,___,___ ;
	GTM         ___,___,___,___,___,001,___,___
	VOL         ___,___,___,___,___,230,___,___
	INS         ___,___,___,___,___,089,___,___
	FRQ         ___,___,___,___,___,Cn7,___,___ ;
	FRQ         ___,___,___,___,___,Cn7,___,___ ;
	GTM         ___,___,___,___,___,255,___,___
	VOL         ___,___,___,___,___,255,___,___
	INS         ___,___,___,___,___,005,___,___
	DEL         ___,___,___,___,___,___,001,___
	FRQ         ___,Fn4,An4,Fn4,An4,As2,An4,Cn2 ;
	DEL         ___,___,___,___,___,___,001,___
	FRQ         ___,En4,Gn4,En4,Gn4,___,Gn4,___ ;
	GTM         ___,___,___,___,___,001,___,___
	VOL         ___,___,___,___,___,230,___,___
	INS         ___,___,___,___,___,089,___,___
	FRQ         ___,___,___,___,___,Cn7,___,___ ;
	GTM         ___,___,___,___,___,255,___,___
	VOL         ___,___,___,___,___,255,___,___
	INS         ___,___,___,___,___,005,___,___
	FRQ         ___,___,___,___,___,As2,___,___ ;
	DEL         ___,___,___,___,___,___,001,___
	PCM         $84
	FRQ         Gn3,Cn4,En4,Cn4,En4,An2,En4,Cn2 ;
	FRQ         ___,___,___,___,___,___,___,___ ;
	GTM         ___,___,___,___,___,001,___,___
	VOL         ___,___,___,___,___,230,___,___
	INS         ___,___,___,___,___,089,___,___
	FRQ         ___,___,___,___,___,Cn7,___,___ ;
	FRQ         ___,___,___,___,___,Cn7,___,Cn2 ;
	GTM         ___,___,___,___,___,255,___,___
	VOL         ___,___,___,___,___,255,___,___
	INS         ___,___,___,___,___,005,___,___
	FRQ         ___,___,___,___,___,An2,___,Cn3 ;
	FRQ         ___,___,___,___,___,___,___,___ ;
	GTM         ___,___,___,___,___,001,___,___
	VOL         ___,___,___,___,___,230,___,___
	INS         ___,___,___,___,___,089,___,___
	FRQ         ___,___,___,___,___,Cn7,___,___ ;
	GTM         ___,___,___,___,___,255,___,___
	VOL         ___,___,___,___,___,255,___,___
	INS         ___,___,___,___,___,005,___,___
	FRQ         ___,___,___,___,___,An2,___,___ ;
	FRQ         ___,___,___,___,___,An2,___,Cn2 ;
	FRQ         ___,___,___,___,___,___,___,___ ;
	GTM         ___,___,___,___,___,001,___,___
	VOL         ___,___,___,___,___,230,___,___
	INS         ___,___,___,___,___,089,___,___
	FRQ         ___,___,___,___,___,Cn7,___,___ ;
	FRQ         ___,___,___,___,___,Cn7,___,___ ;
	GTM         ___,___,___,___,___,255,___,___
	VOL         ___,___,___,___,___,255,___,___
	INS         ___,___,___,___,___,005,___,___
	FRQ         ___,Gn4,Cn5,___,___,An2,___,Cn2 ;
	FRQ         ___,Gn4,Cn5,___,___,___,___,___ ;
	GTM         ___,___,___,___,___,001,___,___
	VOL         ___,___,___,___,___,230,___,___
	INS         ___,___,___,___,___,089,___,___
	FRQ         ___,Q__,Q__,___,___,Cn7,___,___ ;
	GTM         ___,___,___,___,___,255,___,___
	VOL         ___,___,___,___,___,255,___,___
	INS         ___,___,___,___,___,005,___,___
	FRQ         ___,___,___,___,___,An2,___,___ ;
	DEL         ___,___,___,___,___,___,001,___
	PCM         $83
	FRQ         Fn3,As3,Dn4,As3,Dn4,As2,Dn4,Cn2 ;
	FRQ         ___,___,___,___,___,___,___,___ ;
	GTM         ___,___,___,___,___,001,___,___
	VOL         ___,___,___,___,___,230,___,___
	INS         ___,___,___,___,___,089,___,___
	FRQ         ___,___,___,___,___,Cn7,___,___ ;
	FRQ         ___,___,___,___,___,Cn7,___,Cn2 ;
	GTM         ___,___,___,___,___,255,___,___
	VOL         ___,___,___,___,___,255,___,___
	INS         ___,___,___,___,___,005,___,___
	FRQ         ___,___,___,___,___,As2,___,Cn3 ;
	FRQ         ___,___,___,___,___,___,___,___ ;
	GTM         ___,___,___,___,___,001,___,___
	VOL         ___,___,___,___,___,230,___,___
	INS         ___,___,___,___,___,089,___,___
	FRQ         ___,___,___,___,___,Cn7,___,___ ;
	GTM         ___,___,___,___,___,255,___,___
	VOL         ___,___,___,___,___,255,___,___
	INS         ___,___,___,___,___,005,___,___
	FRQ         ___,___,___,___,___,As2,___,___ ;
	FRQ         ___,___,___,___,___,As2,___,Cn2 ;
	FRQ         ___,___,___,___,___,___,___,___ ;
	GTM         ___,___,___,___,___,001,___,___
	VOL         ___,___,___,___,___,230,___,___
	INS         ___,___,___,___,___,089,___,___
	FRQ         ___,___,___,___,___,Cn7,___,___ ;
	FRQ         ___,___,___,___,___,Cn7,___,___ ;
	GTM         ___,___,___,___,___,255,___,___
	VOL         ___,___,___,___,___,255,___,___
	INS         ___,___,___,___,___,005,___,___
	DEL         ___,___,___,___,___,___,001,___
	FRQ         ___,Dn4,Fn4,Dn4,Fn4,As2,Fn4,Cn2 ;
	DEL         ___,___,___,___,___,___,001,___
	FRQ         ___,En4,Gn4,En4,Gn4,___,Gn4,___ ;
	GTM         ___,___,___,___,___,001,___,___
	VOL         ___,___,___,___,___,230,___,___
	INS         ___,___,___,___,___,089,___,___
	FRQ         ___,___,___,___,___,Cn7,___,___ ;
	GTM         ___,___,___,___,___,255,___,___
	VOL         ___,___,___,___,___,255,___,___
	INS         ___,___,___,___,___,005,___,___
	FRQ         ___,___,___,___,___,As2,___,___ ;
	DEL         ___,___,___,___,___,___,001,___
	PCM         $84
	FRQ         Gn3,Cn4,En4,Cn4,En4,An2,En4,Cn2 ;
	FRQ         ___,___,___,___,___,___,___,___ ;
	GTM         ___,___,___,___,___,001,___,___
	VOL         ___,___,___,___,___,230,___,___
	INS         ___,___,___,___,___,089,___,___
	FRQ         ___,___,___,___,___,Cn7,___,___ ;
	FRQ         ___,___,___,___,___,Cn7,___,Cn2 ;
	GTM         ___,___,___,___,___,255,___,___
	VOL         ___,___,___,___,___,255,___,___
	INS         ___,___,___,___,___,005,___,___
	FRQ         ___,___,___,___,___,An2,___,Cn3 ;
	FRQ         ___,___,___,___,___,___,___,___ ;
	GTM         ___,___,___,___,___,001,___,___
	VOL         ___,___,___,___,___,230,___,___
	INS         ___,___,___,___,___,089,___,___
	FRQ         ___,___,___,___,___,Cn7,___,___ ;
	GTM         ___,___,___,___,___,255,___,___
	VOL         ___,___,___,___,___,255,___,___
	INS         ___,___,___,___,___,005,___,___
	FRQ         ___,___,___,___,___,An2,___,___ ;
	FRQ         ___,___,___,___,___,An2,___,Cn2 ;
	FRQ         ___,___,___,___,___,___,___,___ ;
	GTM         ___,___,___,___,___,001,___,___
	VOL         ___,___,___,___,___,230,___,___
	INS         ___,___,___,___,___,089,___,___
	FRQ         ___,___,___,___,___,Cn7,___,___ ;
	FRQ         ___,___,___,___,___,Cn7,___,___ ;
	GTM         ___,___,___,___,___,255,___,___
	VOL         ___,___,___,___,___,255,___,___
	INS         ___,___,___,___,___,005,___,___
	FRQ         ___,Gn4,Cn5,___,___,An2,___,Cn2 ;
	FRQ         ___,Gn4,Cn5,___,___,___,___,___ ;
	GTM         ___,___,___,___,___,001,___,___
	VOL         ___,___,___,___,___,230,___,___
	INS         ___,___,___,___,___,089,___,___
	FRQ         ___,Q__,Q__,___,___,Cn7,___,___ ;
	GTM         ___,___,___,___,___,255,___,___
	VOL         ___,___,___,___,___,255,___,___
	INS         ___,___,___,___,___,005,___,___
	FRQ         ___,Gn4,Cn5,___,___,An2,___,___ ;
	DEL         ___,___,___,___,___,___,001,___
	PCM         $83
	FRQ         Fn3,As3,Dn4,As3,Dn4,As2,Dn4,Cn2 ;
	FRQ         ___,___,___,___,___,___,___,___ ;
	GTM         ___,___,___,___,___,001,___,___
	VOL         ___,___,___,___,___,230,___,___
	INS         ___,___,___,___,___,089,___,___
	FRQ         ___,___,___,___,___,Cn7,___,___ ;
	FRQ         ___,___,___,___,___,Cn7,___,Cn2 ;
	GTM         ___,___,___,___,___,255,___,___
	VOL         ___,___,___,___,___,255,___,___
	INS         ___,___,___,___,___,005,___,___
	FRQ         ___,___,___,___,___,As2,___,Cn3 ;
	FRQ         ___,___,___,___,___,___,___,Cn3 ;
	GTM         ___,___,___,___,___,001,___,___
	VOL         ___,___,___,___,___,230,___,___
	INS         ___,___,___,___,___,089,___,___
	FRQ         ___,___,___,___,___,Cn7,___,___ ;
	GTM         ___,___,___,___,___,255,___,___
	VOL         ___,___,___,___,___,255,___,___
	INS         ___,___,___,___,___,005,___,___
	FRQ         ___,___,___,___,___,As2,___,___ ;
	FRQ         ___,___,___,___,___,As2,___,Cn2 ;
	FRQ         ___,___,___,___,___,___,___,___ ;
	GTM         ___,___,___,___,___,001,___,___
	VOL         ___,___,___,___,___,230,___,___
	INS         ___,___,___,___,___,089,___,___
	FRQ         ___,___,___,___,___,Cn7,___,___ ;
	GTM         ___,___,___,___,___,255,___,___
	VOL         ___,___,___,___,___,255,___,___
	INS         ___,___,___,___,___,005,___,___
	FRQ         ___,___,___,___,___,___,___,___ ;
	DEL         ___,___,___,___,___,___,001,___
	FRQ         ___,Fn4,An4,Fn4,An4,As2,An4,Cn2 ;
	DEL         ___,___,___,___,___,___,001,___
	FRQ         ___,En4,Gn4,En4,Gn4,___,Gn4,___ ;
	GTM         ___,___,___,___,___,001,___,___
	VOL         ___,___,___,___,___,230,___,___
	INS         ___,___,___,___,___,089,___,___
	FRQ         ___,___,___,___,___,Cn7,___,___ ;
	GTM         ___,___,___,___,___,255,___,___
	VOL         ___,___,___,___,___,255,___,___
	INS         ___,___,___,___,___,005,___,___
	FRQ         ___,___,___,___,___,As2,___,___ ;
	DEL         ___,___,___,___,___,___,001,___
	PCM         $84
	FRQ         Gn3,Cn4,En4,Cn4,En4,An2,En4,Cn2 ;
	FRQ         ___,___,___,___,___,___,___,___ ;
	GTM         ___,___,___,___,___,001,___,___
	VOL         ___,___,___,___,___,230,___,___
	INS         ___,___,___,___,___,089,___,___
	FRQ         ___,___,___,___,___,Cn7,___,___ ;
	FRQ         ___,___,___,___,___,Cn7,___,Cn2 ;
	GTM         ___,___,___,___,___,255,___,___
	VOL         ___,___,___,___,___,255,___,___
	INS         ___,___,___,___,___,005,___,___
	FRQ         ___,___,___,___,___,An2,___,Cn3 ;
	FRQ         ___,___,___,___,___,___,___,___ ;
	GTM         ___,___,___,___,___,001,___,___
	VOL         ___,___,___,___,___,230,___,___
	INS         ___,___,___,___,___,089,___,___
	FRQ         ___,___,___,___,___,Cn7,___,___ ;
	GTM         ___,___,___,___,___,255,___,___
	VOL         ___,___,___,___,___,255,___,___
	INS         ___,___,___,___,___,005,___,___
	FRQ         ___,___,___,___,___,An2,___,___ ;
	FRQ         ___,___,___,___,___,An2,___,Cn2 ;
	FRQ         ___,___,___,___,___,___,___,___ ;
	GTM         ___,___,___,___,___,001,___,___
	VOL         ___,___,___,___,___,230,___,___
	INS         ___,___,___,___,___,089,___,___
	FRQ         ___,___,___,___,___,Cn7,___,___ ;
	FRQ         ___,___,___,___,___,Cn7,___,___ ;
	GTM         ___,___,___,___,___,255,___,___
	VOL         ___,___,___,___,___,255,___,___
	INS         ___,___,___,___,___,005,___,___
	FRQ         ___,Gn4,Cn5,___,___,An2,___,Cn2 ;
	FRQ         ___,Gn4,Cn5,___,___,___,___,___ ;
	GTM         ___,___,___,___,___,001,___,___
	VOL         ___,___,___,___,___,230,___,___
	INS         ___,___,___,___,___,089,___,___
	FRQ         ___,Q__,Q__,___,___,Cn7,___,___ ;
	GTM         ___,___,___,___,___,255,___,___
	VOL         ___,___,___,___,___,255,___,___
	INS         ___,___,___,___,___,005,___,___
	FRQ         ___,___,___,___,___,An2,___,___ ;
	DEL         ___,___,___,___,___,___,001,___
	PCM         $83
	FRQ         Fn3,As3,Dn4,As3,Dn4,As2,Dn4,Cn2 ;
	FRQ         ___,___,___,___,___,___,___,___ ;
	GTM         ___,___,___,___,___,001,___,___
	VOL         ___,___,___,___,___,230,___,___
	INS         ___,___,___,___,___,089,___,___
	FRQ         ___,___,___,___,___,Cn7,___,___ ;
	FRQ         ___,___,___,___,___,Cn7,___,Cn2 ;
	GTM         ___,___,___,___,___,255,___,___
	VOL         ___,___,___,___,___,255,___,___
	INS         ___,___,___,___,___,005,___,___
	FRQ         ___,___,___,___,___,As2,___,Cn3 ;
	FRQ         ___,___,___,___,___,___,___,___ ;
	GTM         ___,___,___,___,___,001,___,___
	VOL         ___,___,___,___,___,230,___,___
	INS         ___,___,___,___,___,089,___,___
	FRQ         ___,___,___,___,___,Cn7,___,___ ;
	GTM         ___,___,___,___,___,255,___,___
	VOL         ___,___,___,___,___,255,___,___
	INS         ___,___,___,___,___,005,___,___
	FRQ         ___,___,___,___,___,As2,___,___ ;
	FRQ         ___,___,___,___,___,As2,___,Cn2 ;
	FRQ         ___,___,___,___,___,___,___,___ ;
	GTM         ___,___,___,___,___,001,___,___
	VOL         ___,___,___,___,___,230,___,___
	INS         ___,___,___,___,___,089,___,___
	FRQ         ___,___,___,___,___,Cn7,___,___ ;
	FRQ         ___,___,___,___,___,Cn7,___,___ ;
	GTM         ___,___,___,___,___,255,___,___
	VOL         ___,___,___,___,___,255,___,___
	INS         ___,___,___,___,___,005,___,___
	DEL         ___,___,___,___,___,___,001,___
	FRQ         ___,Dn4,Fn4,Dn4,Fn4,As2,Fn4,Cn2 ;
	DEL         ___,___,___,___,___,___,001,___
	FRQ         ___,En4,Gn4,En4,Gn4,___,Gn4,___ ;
	GTM         ___,___,___,___,___,001,___,___
	VOL         ___,___,___,___,___,230,___,___
	INS         ___,___,___,___,___,089,___,___
	FRQ         ___,___,___,___,___,Cn7,___,___ ;
	GTM         ___,___,___,___,___,255,___,___
	VOL         ___,___,___,___,___,255,___,___
	INS         ___,___,___,___,___,005,___,___
	FRQ         ___,___,___,___,___,As2,___,___ ;
	DEL         ___,___,___,___,___,___,001,___
	PCM         $85
	FRQ         Cn4,Fn4,Gn4,Fn4,Gn4,Cn3,Gn4,Cn2 ;
	FRQ         ___,___,___,___,___,___,___,___ ;
	GTM         ___,___,___,___,___,001,___,___
	VOL         ___,___,___,___,___,230,___,___
	INS         ___,___,___,___,___,089,___,___
	FRQ         ___,___,___,___,___,Cn7,___,___ ;
	FRQ         ___,___,___,___,___,Cn7,___,___ ;
	GTM         ___,___,___,___,___,255,___,___
	VOL         ___,___,___,___,___,255,___,___
	INS         ___,___,___,___,___,005,___,___
	FRQ         ___,___,___,___,___,Cn3,___,Cn3 ;
	FRQ         ___,___,___,___,___,___,___,Cn3 ;
	GTM         ___,___,___,___,___,001,___,___
	VOL         ___,___,___,___,___,230,___,___
	INS         ___,___,___,___,___,089,___,___
	FRQ         ___,___,___,___,___,Cn7,___,___ ;
	GTM         ___,___,___,___,___,255,___,___
	VOL         ___,___,___,___,___,255,___,___
	INS         ___,___,___,___,___,005,___,___
	FRQ         ___,___,___,___,___,Cn3,___,___ ;
	SPEED       006
	PCM         $86
	DEL         ___,___,___,___,___,___,001,___
	FRQ         Cn4,En4,Gn4,En4,Gn4,Cn3,Gn4,Cn3 ;
	FRQ         ___,___,___,___,___,___,___,Cn3 ;
	SPEED       012
	FRQ         ___,___,___,___,___,___,___,Cn3 ;
	GTM         ___,___,___,___,___,001,___,___
	VOL         ___,___,___,___,___,230,___,___
	INS         ___,___,___,___,___,089,___,___
	FRQ         ___,___,___,___,___,Cn7,___,An2 ;
	FRQ         ___,___,___,___,___,Cn7,___,An2 ;
	GTM         ___,___,___,___,___,255,___,___
	VOL         ___,___,___,___,___,255,___,___
	INS         ___,___,___,___,___,005,___,___
	FRQ         ___,___,___,___,___,Cn3,___,En2 ;
	FRQ         ___,___,___,___,___,___,___,En2 ;
	SPEED       003
	GTM         ___,___,___,___,___,001,___,___
	VOL         ___,___,___,___,___,230,___,___
	INS         ___,___,___,___,___,089,___,___
	FRQ         ___,___,___,___,___,Cn7,___,Cn3 ;
	GTM         ___,___,___,___,___,255,___,___
	VOL         ___,___,___,___,___,255,___,___
	INS         ___,___,___,___,___,005,___,___
	FRQ         ___,___,___,___,___,___,___,An2 ;
	FRQ         ___,___,___,___,___,___,___,En2 ;
	FRQ         ___,___,___,___,___,___,___,Cn2 ;
	SPEED       012
	FRQ         ___,___,___,___,___,Cn3,___,Cn2 ;
	DEL         ___,___,___,___,___,___,001,___
	PCM         $81
	FRQ         Gn3,Cn4,En4,Cn4,En4,Cn3,En4,Cn2 ;
	FRQ         ___,___,___,___,___,___,___,___ ;
	GTM         ___,___,___,___,___,001,___,___
	VOL         ___,___,___,___,___,230,___,___
	INS         ___,___,___,___,___,089,___,___
	FRQ         ___,___,___,___,___,Cn7,___,___ ;
	GTM         ___,___,___,___,___,255,___,___
	VOL         ___,___,___,___,___,255,___,___
	INS         ___,___,___,___,___,005,___,___
	FRQ         ___,___,___,___,___,___,___,___ ;
	DEL         ___,___,___,___,___,___,001,___
	FRQ         Gn4,Cn4,En4,An3,Cn4,Cn3,Cn4,Cn3 ;
	DEL         ___,___,___,___,___,___,001,___
	FRQ         ___,___,___,Bn3,Dn4,___,Dn4,___ ;
	GTM         ___,___,___,___,___,001,___,___
	VOL         ___,___,___,___,___,230,___,___
	INS         ___,___,___,___,___,089,___,___
	DEL         ___,___,___,___,___,___,001,___
	FRQ         ___,___,___,Cn4,En4,Cn7,En4,___ ;
	GTM         ___,___,___,___,___,255,___,___
	VOL         ___,___,___,___,___,255,___,___
	INS         ___,___,___,___,___,005,___,___
	FRQ         ___,___,___,___,___,___,___,___ ;
	DEL         ___,___,___,___,___,___,001,___
	FRQ         Gn3,Bn3,Dn3,Bn3,Dn4,Bn2,Dn4,Cn2 ;
	DEL         ___,___,___,___,___,___,001,___
	FRQ         ___,___,Cn3,___,Cn4,___,Cn4,___ ;
	GTM         ___,___,___,___,___,001,___,___
	VOL         ___,___,___,___,___,230,___,___
	INS         ___,___,___,___,___,089,___,___
	DEL         ___,___,___,___,___,___,001,___
	FRQ         ___,___,Dn3,___,Dn4,Cn7,Dn4,___ ;
	GTM         ___,___,___,___,___,255,___,___
	VOL         ___,___,___,___,___,255,___,___
	INS         ___,___,___,___,___,005,___,___
	FRQ         Gn4,Cn4,En4,___,___,___,___,Cn2 ;
	DEL         ___,___,___,___,___,___,001,___
	FRQ         ___,___,Gn3,___,Gn4,Bn2,Gn4,Cn3 ;
	FRQ         ___,___,___,___,___,___,___,___ ;
	GTM         ___,___,___,___,___,001,___,___
	VOL         ___,___,___,___,___,230,___,___
	INS         ___,___,___,___,___,089,___,___
	DEL         ___,___,___,___,___,___,001,___
	FRQ         Gn3,Bn3,Fn3,Bn3,Fn4,Cn7,Fn4,___ ;
	FRQ         ___,___,___,___,___,Cn7,___,___ ;
	GTM         ___,___,___,___,___,255,___,___
	VOL         ___,___,___,___,___,255,___,___
	INS         ___,___,___,___,___,005,___,___
	DEL         ___,___,___,___,___,___,001,___
	FRQ         Fn3,As3,Dn4,As3,Dn4,As2,Dn4,Cn2 ;
	FRQ         ___,___,___,___,___,___,___,___ ;
	GTM         ___,___,___,___,___,001,___,___
	VOL         ___,___,___,___,___,230,___,___
	INS         ___,___,___,___,___,089,___,___
	DEL         ___,___,___,___,___,___,001,___
	FRQ         ___,___,___,___,As3,Cn7,As3,___ ;
	GTM         ___,___,___,___,___,255,___,___
	VOL         ___,___,___,___,___,255,___,___
	INS         ___,___,___,___,___,005,___,___
	DEL         ___,___,___,___,___,___,001,___
	FRQ         ___,___,___,___,Dn4,___,Dn4,___ ;
	DEL         ___,___,___,___,___,___,001,___
	FRQ         Dn4,Fn4,An4,Fn4,An4,As2,An4,Cn3 ;
	FRQ         ___,___,___,___,___,___,___,___ ;
	GTM         ___,___,___,___,___,001,___,___
	VOL         ___,___,___,___,___,230,___,___
	INS         ___,___,___,___,___,089,___,___
	FRQ         ___,___,___,___,___,Cn7,___,___ ;
	GTM         ___,___,___,___,___,255,___,___
	VOL         ___,___,___,___,___,255,___,___
	INS         ___,___,___,___,___,005,___,___
	FRQ         ___,___,___,___,___,___,___,___ ;
	DEL         ___,___,___,___,___,___,001,___
	FRQ         Cn4,En4,Gn4,En4,Gn4,As2,Gn4,Cn2 ;
	FRQ         ___,___,___,___,___,___,___,Cn2 ;
	GTM         ___,___,___,___,___,001,___,___
	VOL         ___,___,___,___,___,230,___,___
	INS         ___,___,___,___,___,089,___,___
	FRQ         ___,___,___,___,___,Cn7,___,___ ;
	GTM         ___,___,___,___,___,255,___,___
	VOL         ___,___,___,___,___,255,___,___
	INS         ___,___,___,___,___,005,___,___
	FRQ         ___,___,___,___,___,___,___,___ ;
	DEL         ___,___,___,___,___,___,001,___
	FRQ         Cn4,En4,Gn4,___,Gn4,As2,Gn4,Cn3 ;
	GTM         ___,___,___,___,___,001,___,___
	VOL         ___,___,___,___,___,230,___,___
	INS         ___,___,___,___,___,089,___,___
	DEL         ___,___,___,___,___,___,001,___
	FRQ         ___,___,___,___,An4,Cn7,An4,Cn3 ;
	DEL         ___,___,___,___,___,___,001,___
	FRQ         ___,___,___,___,As4,Cn7,As4,Cn3 ;
	GTM         ___,___,___,___,___,255,___,___
	VOL         ___,___,___,___,___,255,___,___
	INS         ___,___,___,___,___,005,___,___
	FRQ         ___,___,___,___,___,___,___,___ ;
	DEL         ___,___,___,___,___,___,001,___
	PCM         $82
	FRQ         En4,Gn4,Cn5,Gn4,Cn5,An2,Cn5,Cn2 ;
	FRQ         ___,___,___,___,___,___,___,___ ;
	GTM         ___,___,___,___,___,001,___,___
	VOL         ___,___,___,___,___,230,___,___
	INS         ___,___,___,___,___,089,___,___
	DEL         ___,___,___,___,___,___,001,___
	FRQ         ___,___,___,___,En4,Cn7,En4,___ ;
	GTM         ___,___,___,___,___,255,___,___
	VOL         ___,___,___,___,___,255,___,___
	INS         ___,___,___,___,___,005,___,___
	DEL         ___,___,___,___,___,___,001,___
	FRQ         ___,___,___,___,Gn4,___,Gn4,___ ;
	DEL         ___,___,___,___,___,___,001,___
	FRQ         ___,___,___,___,Bn4,An2,Bn4,Cn3 ;
	DEL         ___,___,___,___,___,___,001,___
	FRQ         ___,___,___,___,Cn5,___,Cn5,___ ;
	GTM         ___,___,___,___,___,001,___,___
	VOL         ___,___,___,___,___,230,___,___
	INS         ___,___,___,___,___,089,___,___
	FRQ         ___,___,___,___,___,Cn7,___,___ ;
	GTM         ___,___,___,___,___,255,___,___
	VOL         ___,___,___,___,___,255,___,___
	INS         ___,___,___,___,___,005,___,___
	FRQ         ___,___,___,___,___,___,___,___ ;
	DEL         ___,___,___,___,___,___,001,___
	FRQ         En4,Gn4,___,En4,Gn4,An2,Gn4,Cn2 ;
	FRQ         ___,___,___,___,___,___,___,___ ;
	GTM         ___,___,___,___,___,001,___,___
	VOL         ___,___,___,___,___,230,___,___
	INS         ___,___,___,___,___,089,___,___
	DEL         ___,___,___,___,___,___,001,___
	FRQ         ___,___,___,Gn4,An4,Cn7,An4,___ ;
	GTM         ___,___,___,___,___,255,___,___
	VOL         ___,___,___,___,___,255,___,___
	INS         ___,___,___,___,___,005,___,___
	DEL         ___,___,___,___,___,___,001,___
	FRQ         En4,Gn4,___,En4,Gn4,___,Gn4,___ ;
	FRQ         ___,___,___,___,___,An2,___,Cn3 ;
	FRQ         ___,___,___,___,___,___,___,Cn2 ;
	GTM         ___,___,___,___,___,001,___,___
	VOL         ___,___,___,___,___,230,___,___
	INS         ___,___,___,___,___,089,___,___
	FRQ         ___,___,___,___,___,Cn7,___,___ ;
	VOL         ___,___,___,___,___,255,___,___
	GTM         ___,___,___,___,___,255,___,___
	INS         ___,___,___,___,___,005,___,___
	FRQ         ___,___,___,___,___,___,___,___ ;
	DEL         ___,___,___,___,___,___,001,___
	FRQ         Dn4,Fn4,As4,Gn4,As4,Gn2,As4,Cn2 ;
	FRQ         ___,___,___,___,___,___,___,___ ;
	GTM         ___,___,___,___,___,001,___,___
	VOL         ___,___,___,___,___,230,___,___
	INS         ___,___,___,___,___,089,___,___
	FRQ         ___,___,___,___,___,Cn7,___,___ ;
	GTM         ___,___,___,___,___,255,___,___
	VOL         ___,___,___,___,___,255,___,___
	INS         ___,___,___,___,___,005,___,___
	FRQ         ___,___,___,___,___,___,___,___ ;
	DEL         ___,___,___,___,___,___,001,___
	FRQ         Dn4,Fn4,An3,Fn4,An4,An2,An4,Cn3 ;
	DEL         ___,___,___,___,___,___,001,___
	FRQ         ___,___,Dn3,___,Dn4,___,Dn2,Cn3 ;
	GTM         ___,___,___,___,___,001,___,___
	VOL         ___,___,___,___,___,230,___,___
	INS         ___,___,___,___,___,089,___,___
	DEL         ___,___,___,___,___,___,001,___
	FRQ         ___,___,En3,___,En4,Cn7,En4,___ ;
	GTM         ___,___,___,___,___,255,___,___
	VOL         ___,___,___,___,___,255,___,___
	INS         ___,___,___,___,___,005,___,___
	DEL         ___,___,___,___,___,___,001,___
	FRQ         ___,___,An3,___,An4,___,An4,___ ;
	DEL         ___,___,___,___,___,___,001,___
	FRQ         Cn4,Dn4,Fn4,Dn4,Fn4,As2,Fn4,Cn2 ;
	FRQ         ___,___,___,___,___,___,___,Cn3 ;
	GTM         ___,___,___,___,___,001,___,___
	VOL         ___,___,___,___,___,230,___,___
	INS         ___,___,___,___,___,089,___,___
	FRQ         ___,___,___,___,___,Cn7,___,Cn3 ;
	GTM         ___,___,___,___,___,255,___,___
	VOL         ___,___,___,___,___,255,___,___
	INS         ___,___,___,___,___,005,___,___
	FRQ         ___,___,___,___,___,___,___,___ ;
	DEL         ___,___,___,___,___,___,001,___
	FRQ         Cn4,En4,Gn3,En4,Gn4,Cn3,Gn4,Cn2 ;
	DEL         ___,___,___,___,___,___,001,___
	FRQ         ___,___,Cn3,___,Cn4,___,Cn4,Cn3 ;
	GTM         ___,___,___,___,___,001,___,___
	VOL         ___,___,___,___,___,230,___,___
	INS         ___,___,___,___,___,089,___,___
	DEL         ___,___,___,___,___,___,001,___
	FRQ         ___,___,En3,___,En4,Cn7,En4,Cn3 ;
	GTM         ___,___,___,___,___,255,___,___
	VOL         ___,___,___,___,___,255,___,___
	INS         ___,___,___,___,___,005,___,___
	DEL         ___,___,___,___,___,___,001,___
	FRQ         ___,___,Gn3,___,Gn4,___,Gn4,Cn3 ;
	DEL         ___,___,___,___,___,___,001,___
	PCM         $83
	FRQ         Fn3,As3,Dn4,As3,Dn4,As2,Dn4,Cn2 ;
	FRQ         ___,___,___,___,___,___,___,___ ;
	GTM         ___,___,___,___,___,001,___,___
	VOL         ___,___,___,___,___,230,___,___
	INS         ___,___,___,___,___,089,___,___
	DEL         ___,___,___,___,___,___,001,___
	FRQ         ___,___,___,Fn4,An4,Cn7,An4,___ ;
	FRQ         ___,___,___,___,___,Cn7,___,___ ;
	GTM         ___,___,___,___,___,255,___,___
	VOL         ___,___,___,___,___,255,___,___
	INS         ___,___,___,___,___,005,___,___
	DEL         ___,___,___,___,___,___,001,___
	FRQ         ___,___,___,En4,Gn4,As2,Gn4,Cn3 ;
	FRQ         ___,___,___,___,___,___,___,___ ;
	GTM         ___,___,___,___,___,001,___,___
	VOL         ___,___,___,___,___,230,___,___
	INS         ___,___,___,___,___,089,___,___
	DEL         ___,___,___,___,___,___,001,___
	FRQ         ___,___,___,Dn4,Fn4,Cn7,Fn4,___ ;
	GTM         ___,___,___,___,___,255,___,___
	VOL         ___,___,___,___,___,255,___,___
	INS         ___,___,___,___,___,005,___,___
	FRQ         ___,___,___,___,___,As2,___,Cn2 ;
	DEL         ___,___,___,___,___,___,001,___
	FRQ         ___,___,___,Cn4,En4,As2,En4,Cn2 ;
	FRQ         ___,___,___,___,___,___,___,___ ;
	GTM         ___,___,___,___,___,001,___,___
	VOL         ___,___,___,___,___,230,___,___
	INS         ___,___,___,___,___,089,___,___
	FRQ         ___,___,___,___,___,Cn7,___,___ ;
	FRQ         ___,___,___,___,___,Cn7,___,___ ;
	GTM         ___,___,___,___,___,255,___,___
	VOL         ___,___,___,___,___,255,___,___
	INS         ___,___,___,___,___,005,___,___
	FRQ         ___,Fn4,An4,___,___,As2,___,Cn3 ;
	FRQ         ___,En4,Gn4,___,___,___,___,___ ;
	GTM         ___,___,___,___,___,001,___,___
	VOL         ___,___,___,___,___,230,___,___
	INS         ___,___,___,___,___,089,___,___
	FRQ         ___,___,___,___,___,Cn7,___,___ ;
	GTM         ___,___,___,___,___,255,___,___
	VOL         ___,___,___,___,___,255,___,___
	INS         ___,___,___,___,___,005,___,___
	FRQ         ___,___,___,___,___,As2,___,Cn2 ;
	DEL         ___,___,___,___,___,___,001,___
	PCM         $84
	FRQ         Gn3,Cn5,An4,Cn5,An4,An2,An4,Cn2 ;
	FRQ         ___,___,___,___,___,___,___,___ ;
	GTM         ___,___,___,___,___,001,___,___
	VOL         ___,___,___,___,___,230,___,___
	INS         ___,___,___,___,___,089,___,___
	FRQ         ___,___,___,___,___,Cn7,___,___ ;
	FRQ         ___,___,___,___,___,Cn7,___,___ ;
	GTM         ___,___,___,___,___,255,___,___
	VOL         ___,___,___,___,___,255,___,___
	INS         ___,___,___,___,___,005,___,___
	FRQ         ___,___,___,___,___,An2,___,Cn3 ;
	FRQ         ___,___,___,___,___,___,___,___ ;
	GTM         ___,___,___,___,___,001,___,___
	VOL         ___,___,___,___,___,230,___,___
	INS         ___,___,___,___,___,089,___,___
	FRQ         ___,___,___,___,___,Cn7,___,___ ;
	GTM         ___,___,___,___,___,255,___,___
	VOL         ___,___,___,___,___,255,___,___
	INS         ___,___,___,___,___,005,___,___
	FRQ         ___,___,___,___,___,An2,___,Cn2 ;
	FRQ         ___,___,___,___,___,An2,___,Cn2 ;
	FRQ         ___,___,___,___,___,___,___,___ ;
	GTM         ___,___,___,___,___,001,___,___
	VOL         ___,___,___,___,___,230,___,___
	INS         ___,___,___,___,___,089,___,___
	FRQ         ___,___,___,___,___,Cn7,___,___ ;
	FRQ         ___,___,___,___,___,Cn7,___,___ ;
	GTM         ___,___,___,___,___,255,___,___
	VOL         ___,___,___,___,___,255,___,___
	INS         ___,___,___,___,___,005,___,___
	FRQ         ___,Gn4,Cn5,___,___,An2,___,Cn3 ;
	FRQ         ___,Gn4,Cn5,___,___,___,___,___ ;
	GTM         ___,___,___,___,___,001,___,___
	VOL         ___,___,___,___,___,230,___,___
	INS         ___,___,___,___,___,089,___,___
	FRQ         ___,Q__,Q__,___,___,Cn7,___,___ ;
	GTM         ___,___,___,___,___,255,___,___
	VOL         ___,___,___,___,___,255,___,___
	INS         ___,___,___,___,___,005,___,___
	FRQ         ___,___,___,___,___,An2,___,Cn2 ;
	DEL         ___,___,___,___,___,___,001,___
	PCM         $83
	FRQ         Fn3,As3,Dn4,As3,Fn4,As2,Fn4,Cn2 ;
	FRQ         ___,___,___,___,___,___,___,___ ;
	GTM         ___,___,___,___,___,001,___,___
	VOL         ___,___,___,___,___,230,___,___
	INS         ___,___,___,___,___,089,___,___
	FRQ         ___,___,___,___,___,Cn7,___,___ ;
	FRQ         ___,___,___,___,___,Cn7,___,___ ;
	GTM         ___,___,___,___,___,255,___,___
	VOL         ___,___,___,___,___,255,___,___
	INS         ___,___,___,___,___,005,___,___
	FRQ         ___,___,___,___,___,As2,___,Cn3 ;
	FRQ         ___,___,___,___,___,___,___,___ ;
	GTM         ___,___,___,___,___,001,___,___
	VOL         ___,___,___,___,___,230,___,___
	INS         ___,___,___,___,___,089,___,___
	FRQ         ___,___,___,___,___,Cn7,___,___ ;
	GTM         ___,___,___,___,___,255,___,___
	VOL         ___,___,___,___,___,255,___,___
	INS         ___,___,___,___,___,005,___,___
	FRQ         ___,___,___,___,___,As2,___,Cn2 ;
	FRQ         ___,___,___,___,___,As2,___,Cn2 ;
	FRQ         ___,___,___,___,___,___,___,___ ;
	GTM         ___,___,___,___,___,001,___,___
	VOL         ___,___,___,___,___,230,___,___
	INS         ___,___,___,___,___,089,___,___
	FRQ         ___,___,___,___,___,Cn7,___,___ ;
	FRQ         ___,___,___,___,___,Cn7,___,___ ;
	GTM         ___,___,___,___,___,255,___,___
	VOL         ___,___,___,___,___,255,___,___
	INS         ___,___,___,___,___,005,___,___
	DEL         ___,___,___,___,___,___,001,___
	FRQ         ___,Dn4,Fn4,Dn4,Fn4,As2,Fn4,Cn3 ;
	DEL         ___,___,___,___,___,___,001,___
	FRQ         ___,En4,Gn4,En4,Gn4,___,Gn4,___ ;
	GTM         ___,___,___,___,___,001,___,___
	VOL         ___,___,___,___,___,230,___,___
	INS         ___,___,___,___,___,089,___,___
	FRQ         ___,___,___,___,___,Cn7,___,___ ;
	GTM         ___,___,___,___,___,255,___,___
	VOL         ___,___,___,___,___,255,___,___
	INS         ___,___,___,___,___,005,___,___
	FRQ         ___,___,___,___,___,As2,___,Cn2 ;
	DEL         ___,___,___,___,___,___,001,___
	PCM         $84
	FRQ         Gn3,Cn4,En4,Cn4,Cn5,An2,Cn5,Cn2 ;
	DEL         ___,___,___,___,___,___,001,___
	FRQ         ___,___,___,___,An4,___,An4,___ ;
	GTM         ___,___,___,___,___,001,___,___
	VOL         ___,___,___,___,___,230,___,___
	INS         ___,___,___,___,___,089,___,___
	DEL         ___,___,___,___,___,___,001,___
	FRQ         ___,___,___,___,Gn4,Cn7,Gn4,___ ;
	GTM         ___,___,___,___,___,255,___,___
	VOL         ___,___,___,___,___,255,___,___
	INS         ___,___,___,___,___,005,___,___
	DEL         ___,___,___,___,___,___,001,___
	FRQ         ___,___,___,___,An4,___,An4,___ ;
	DEL         ___,___,___,___,___,___,001,___
	FRQ         ___,___,___,___,Fn4,An2,Fn4,Cn3 ;
	DEL         ___,___,___,___,___,___,001,___
	FRQ         ___,___,___,___,Gn4,___,Gn4,___ ;
	GTM         ___,___,___,___,___,001,___,___
	VOL         ___,___,___,___,___,230,___,___
	INS         ___,___,___,___,___,089,___,___
	DEL         ___,___,___,___,___,___,001,___
	FRQ         ___,___,___,___,Cn4,Cn7,Cn4,___ ;
	GTM         ___,___,___,___,___,255,___,___
	VOL         ___,___,___,___,___,255,___,___
	INS         ___,___,___,___,___,005,___,___
	DEL         ___,___,___,___,___,___,001,___
	FRQ         ___,___,___,___,Dn4,An2,Dn4,Cn2 ;
	DEL         ___,___,___,___,___,___,001,___
	FRQ         ___,___,___,An3,Cn4,An2,Cn4,Cn2 ;
	FRQ         ___,___,___,___,___,___,___,___ ;
	GTM         ___,___,___,___,___,001,___,___
	VOL         ___,___,___,___,___,230,___,___
	INS         ___,___,___,___,___,089,___,___
	FRQ         ___,___,___,___,___,Cn7,___,___ ;
	FRQ         ___,___,___,___,___,Cn7,___,___ ;
	GTM         ___,___,___,___,___,255,___,___
	VOL         ___,___,___,___,___,255,___,___
	INS         ___,___,___,___,___,005,___,___
	FRQ         ___,Gn4,Cn5,___,___,An2,___,Cn3 ;
	FRQ         ___,Gn4,Cn5,___,___,___,___,___ ;
	GTM         ___,___,___,___,___,001,___,___
	VOL         ___,___,___,___,___,230,___,___
	INS         ___,___,___,___,___,089,___,___
	FRQ         ___,Q__,Q__,___,___,Cn7,___,___ ;
	GTM         ___,___,___,___,___,255,___,___
	VOL         ___,___,___,___,___,255,___,___
	INS         ___,___,___,___,___,005,___,___
	FRQ         ___,Gn4,Cn5,___,___,An2,___,Cn2 ;
	DEL         ___,___,___,___,___,___,001,___
	PCM         $83
	FRQ         Fn3,As3,Dn4,As3,Dn4,As2,Dn4,Cn2 ;
	FRQ         ___,___,___,___,___,___,___,___ ;
	GTM         ___,___,___,___,___,001,___,___
	VOL         ___,___,___,___,___,230,___,___
	INS         ___,___,___,___,___,089,___,___
	DEL         ___,___,___,___,___,___,001,___
	FRQ         ___,___,___,___,En4,Cn7,En4,___ ;
	FRQ         ___,___,___,___,___,Cn7,___,___ ;
	GTM         ___,___,___,___,___,255,___,___
	VOL         ___,___,___,___,___,255,___,___
	INS         ___,___,___,___,___,005,___,___
	DEL         ___,___,___,___,___,___,001,___
	FRQ         ___,___,___,___,Fn4,As2,Fn4,Cn3 ;
	FRQ         ___,___,___,___,___,___,___,___ ;
	GTM         ___,___,___,___,___,001,___,___
	VOL         ___,___,___,___,___,230,___,___
	INS         ___,___,___,___,___,089,___,___
	FRQ         ___,___,___,___,___,Cn7,___,___ ;
	GTM         ___,___,___,___,___,255,___,___
	VOL         ___,___,___,___,___,255,___,___
	INS         ___,___,___,___,___,005,___,___
	FRQ         ___,___,___,___,___,As2,___,Cn2 ;
	FRQ         ___,___,___,___,___,As2,___,Cn2 ;
	FRQ         ___,___,___,___,___,___,___,___ ;
	GTM         ___,___,___,___,___,001,___,___
	VOL         ___,___,___,___,___,230,___,___
	INS         ___,___,___,___,___,089,___,___
	FRQ         ___,___,___,___,___,Cn7,___,___ ;
	FRQ         ___,___,___,___,___,Cn7,___,___ ;
	GTM         ___,___,___,___,___,255,___,___
	VOL         ___,___,___,___,___,255,___,___
	INS         ___,___,___,___,___,005,___,___
	FRQ         ___,Fn4,An4,___,___,As2,___,Cn3 ;
	FRQ         ___,En4,Gn4,___,___,___,___,___ ;
	GTM         ___,___,___,___,___,001,___,___
	VOL         ___,___,___,___,___,230,___,___
	INS         ___,___,___,___,___,089,___,___
	FRQ         ___,___,___,___,___,Cn7,___,___ ;
	GTM         ___,___,___,___,___,255,___,___
	VOL         ___,___,___,___,___,255,___,___
	INS         ___,___,___,___,___,005,___,___
	FRQ         ___,___,___,___,___,As2,___,Cn2 ;
	DEL         ___,___,___,___,___,___,001,___
	PCM         $84
	FRQ         Gn3,Cn4,En4,Cn4,En4,An2,En4,Cn2 ;
	FRQ         ___,___,___,___,___,___,___,___ ;
	GTM         ___,___,___,___,___,001,___,___
	VOL         ___,___,___,___,___,230,___,___
	INS         ___,___,___,___,___,089,___,___
	DEL         ___,___,___,___,___,___,001,___
	FRQ         ___,___,___,___,Fn4,Cn7,Fn4,___ ;
	FRQ         ___,___,___,___,___,Cn7,___,___ ;
	GTM         ___,___,___,___,___,255,___,___
	VOL         ___,___,___,___,___,255,___,___
	INS         ___,___,___,___,___,005,___,___
	DEL         ___,___,___,___,___,___,001,___
	FRQ         ___,___,___,___,Gn4,An2,Gn4,Cn3 ;
	FRQ         ___,___,___,___,___,___,___,___ ;
	GTM         ___,___,___,___,___,001,___,___
	VOL         ___,___,___,___,___,230,___,___
	INS         ___,___,___,___,___,089,___,___
	FRQ         ___,___,___,___,___,Cn7,___,___ ;
	GTM         ___,___,___,___,___,255,___,___
	VOL         ___,___,___,___,___,255,___,___
	INS         ___,___,___,___,___,005,___,___
	FRQ         ___,___,___,___,___,An2,___,Cn2 ;
	FRQ         ___,___,___,___,___,An2,___,Cn2 ;
	FRQ         ___,___,___,___,___,___,___,___ ;
	GTM         ___,___,___,___,___,001,___,___
	VOL         ___,___,___,___,___,230,___,___
	INS         ___,___,___,___,___,089,___,___
	FRQ         ___,___,___,___,___,Cn7,___,___ ;
	FRQ         ___,___,___,___,___,Cn7,___,___ ;
	GTM         ___,___,___,___,___,255,___,___
	VOL         ___,___,___,___,___,255,___,___
	INS         ___,___,___,___,___,005,___,___
	FRQ         ___,Gn4,Cn5,___,___,An2,___,Cn3 ;
	FRQ         ___,Gn4,Cn5,___,___,___,___,___ ;
	GTM         ___,___,___,___,___,001,___,___
	VOL         ___,___,___,___,___,230,___,___
	INS         ___,___,___,___,___,089,___,___
	FRQ         ___,Q__,Q__,___,___,Cn7,___,___ ;
	GTM         ___,___,___,___,___,255,___,___
	VOL         ___,___,___,___,___,255,___,___
	INS         ___,___,___,___,___,005,___,___
	FRQ         ___,___,___,___,___,An2,___,Cn2 ;
	DEL         ___,___,___,___,___,___,001,___
	PCM         $83
	FRQ         Fn3,As3,Dn4,As3,Dn4,As2,Dn4,Cn2 ;
	FRQ         ___,___,___,___,___,___,___,___ ;
	GTM         ___,___,___,___,___,001,___,___
	VOL         ___,___,___,___,___,230,___,___
	INS         ___,___,___,___,___,089,___,___
	DEL         ___,___,___,___,___,___,001,___
	FRQ         ___,___,___,___,Fn3,Cn7,Fn3,___ ;
	DEL         ___,___,___,___,___,___,001,___
	FRQ         ___,___,___,___,As3,Cn7,As3,___ ;
	GTM         ___,___,___,___,___,255,___,___
	VOL         ___,___,___,___,___,255,___,___
	INS         ___,___,___,___,___,005,___,___
	DEL         ___,___,___,___,___,___,001,___
	FRQ         ___,___,___,___,Dn4,As2,Dn4,Cn3 ;
	DEL         ___,___,___,___,___,___,001,___
	FRQ         ___,___,___,___,En4,___,En4,___ ;
	GTM         ___,___,___,___,___,001,___,___
	VOL         ___,___,___,___,___,230,___,___
	INS         ___,___,___,___,___,089,___,___
	FRQ         ___,___,___,___,___,Cn7,___,___ ;
	GTM         ___,___,___,___,___,255,___,___
	VOL         ___,___,___,___,___,255,___,___
	INS         ___,___,___,___,___,005,___,___
	FRQ         ___,___,___,___,___,As2,___,Cn2 ;
	FRQ         ___,___,___,___,___,As2,___,Cn2 ;
	FRQ         ___,___,___,___,___,___,___,___ ;
	GTM         ___,___,___,___,___,001,___,___
	VOL         ___,___,___,___,___,230,___,___
	INS         ___,___,___,___,___,089,___,___
	FRQ         ___,___,___,___,___,Cn7,___,___ ;
	FRQ         ___,___,___,___,___,Cn7,___,___ ;
	GTM         ___,___,___,___,___,255,___,___
	VOL         ___,___,___,___,___,255,___,___
	INS         ___,___,___,___,___,005,___,___
	DEL         ___,___,___,___,___,___,001,___
	FRQ         ___,Dn4,Fn4,Dn4,Fn4,As2,Fn4,Cn3 ;
	DEL         ___,___,___,___,___,___,001,___
	FRQ         ___,En4,Gn4,En4,Gn4,___,Gn4,Cn3 ;
	GTM         ___,___,___,___,___,001,___,___
	VOL         ___,___,___,___,___,230,___,___
	INS         ___,___,___,___,___,089,___,___
	FRQ         ___,___,___,___,___,Cn7,___,___ ;
	GTM         ___,___,___,___,___,255,___,___
	VOL         ___,___,___,___,___,255,___,___
	INS         ___,___,___,___,___,005,___,___
	FRQ         ___,___,___,___,___,As2,___,Cn2 ;
	DEL         ___,___,___,___,___,___,001,___
	PCM         $85
	FRQ         Cn4,Fn4,Gn4,Fn4,Gn4,Cn3,Gn4,Cn2 ;
	FRQ         ___,___,___,___,___,___,___,___ ;
	GTM         ___,___,___,___,___,001,___,___
	VOL         ___,___,___,___,___,230,___,___
	INS         ___,___,___,___,___,089,___,___
	FRQ         ___,___,___,___,___,Cn7,___,___ ;
	FRQ         ___,___,___,___,___,Cn7,___,___ ;
	GTM         ___,___,___,___,___,255,___,___
	VOL         ___,___,___,___,___,255,___,___
	INS         ___,___,___,___,___,005,___,___
	FRQ         ___,___,___,___,___,Cn3,___,Cn3 ;
	FRQ         ___,___,___,___,___,___,___,Cn3 ;
	GTM         ___,___,___,___,___,001,___,___
	VOL         ___,___,___,___,___,230,___,___
	INS         ___,___,___,___,___,089,___,___
	FRQ         ___,___,___,___,___,Cn7,___,___ ;
	GTM         ___,___,___,___,___,255,___,___
	VOL         ___,___,___,___,___,255,___,___
	INS         ___,___,___,___,___,005,___,___
	FRQ         ___,___,___,___,___,Cn3,___,___ ;
	SPEED       006
	DEL         ___,___,___,___,___,___,001,___
	PCM         $86
	FRQ         Cn4,En4,Gn4,En4,Gn4,Cn3,Gn4,Cn3 ;
	FRQ         ___,___,___,___,___,___,___,Cn3 ;
	SPEED       012
	FRQ         ___,___,___,___,___,___,___,Cn3 ;
	GTM         ___,___,___,___,___,001,___,___
	VOL         ___,___,___,___,___,230,___,___
	INS         ___,___,___,___,___,089,___,___
	FRQ         ___,___,___,___,___,Cn7,___,An2 ;
	FRQ         ___,___,___,___,___,Cn7,___,An2 ;
	GTM         ___,___,___,___,___,255,___,___
	VOL         ___,___,___,___,___,255,___,___
	INS         ___,___,___,___,___,005,___,___
	FRQ         ___,___,___,___,___,Cn3,___,En2 ;
	FRQ         ___,___,___,___,___,___,___,En2 ;
	SPEED       003
	GTM         ___,___,___,___,___,001,___,___
	VOL         ___,___,___,___,___,230,___,___
	INS         ___,___,___,___,___,089,___,___
	FRQ         ___,___,___,___,___,Cn7,___,Cn3 ;
	GTM         ___,___,___,___,___,255,___,___
	VOL         ___,___,___,___,___,255,___,___
	INS         ___,___,___,___,___,005,___,___
	FRQ         ___,___,___,___,___,___,___,An2 ;
	FRQ         ___,___,___,___,___,___,___,En2 ;
	FRQ         ___,___,___,___,___,___,___,Cn2 ;
	SPEED       012
	FRQ         ___,___,___,___,___,Cn3,___,Cn2 ;
	INS         040,040,040,011,011,___,011,___
	VOL         250,250,250,235,250,___,250,___
	PAN         _C_,_C_,_C_,___,L__,___,__R,___
	DEL         ___,___,___,___,___,___,001,___
	PCM         $81
	FRQ         Gn3,Cn4,En4,___,En4,Cn3,En4,Cn2 ;
	FRQ         ___,___,___,___,___,___,___,___ ;
	GTM         ___,___,___,___,___,001,___,___
	VOL         ___,___,___,___,___,230,___,___
	INS         ___,___,___,___,___,089,___,___
	FRQ         ___,___,___,En4,___,Cn7,___,___ ;
	FRQ         ___,___,___,___,___,___,___,___ ;
	GTM         ___,___,___,___,___,255,___,___
	VOL         ___,___,___,___,___,255,___,___
	INS         ___,___,___,___,___,005,___,___
	DEL         ___,___,___,___,___,___,001,___
	FRQ         Cn4,En4,Gn4,___,Cn4,Cn3,Cn4,Cn3 ;
	FRQ         ___,___,___,___,Dn4,___,___,___ ;
	GTM         ___,___,___,___,___,001,___,___
	VOL         ___,___,___,___,___,230,___,___
	INS         ___,___,___,___,___,089,___,___
	DEL         ___,___,___,___,___,___,001,___
	FRQ         ___,___,___,Cn4,En4,Cn7,En4,___ ;
	FRQ         ___,___,___,Dn4,___,___,___,___ ;
	GTM         ___,___,___,___,___,255,___,___
	VOL         ___,___,___,___,___,255,___,___
	INS         ___,___,___,___,___,005,___,___
	DEL         ___,___,___,___,___,___,001,___
	FRQ         Gn3,Bn3,Dn3,En4,Dn4,Bn2,Dn4,Cn2 ;
	FRQ         ___,___,___,___,___,___,___,___ ;
	GTM         ___,___,___,___,___,001,___,___
	VOL         ___,___,___,___,___,230,___,___
	INS         ___,___,___,___,___,089,___,___
	FRQ         ___,___,___,Dn4,___,Cn7,___,___ ;
	FRQ         ___,___,___,___,___,___,___,Cn2 ;
	GTM         ___,___,___,___,___,255,___,___
	VOL         ___,___,___,___,___,255,___,___
	INS         ___,___,___,___,___,005,___,___
	DEL         ___,___,___,___,___,___,001,___
	FRQ         Gn4,Cn4,En4,___,Gn4,Bn2,Gn4,Cn3 ;
	FRQ         ___,___,___,___,___,___,___,___ ;
	GTM         ___,___,___,___,___,001,___,___
	VOL         ___,___,___,___,___,230,___,___
	INS         ___,___,___,___,___,089,___,___
	DEL         ___,___,___,___,___,___,001,___
	FRQ         ___,___,___,Gn4,Fn4,Cn7,Fn4,___ ;
	FRQ         ___,___,___,___,___,Cn7,___,___ ;
	GTM         ___,___,___,___,___,255,___,___
	VOL         ___,___,___,___,___,255,___,___
	INS         ___,___,___,___,___,005,___,___
	DEL         ___,___,___,___,___,___,001,___
	FRQ         Fn3,As3,Dn4,Fn4,Dn4,As2,Dn4,Cn2 ;
	FRQ         ___,___,___,___,___,___,___,___ ;
	GTM         ___,___,___,___,___,001,___,___
	VOL         ___,___,___,___,___,230,___,___
	INS         ___,___,___,___,___,089,___,___
	FRQ         ___,___,___,Dn4,___,Cn7,___,___ ;
	FRQ         ___,___,___,___,___,___,___,___ ;
	GTM         ___,___,___,___,___,255,___,___
	VOL         ___,___,___,___,___,255,___,___
	INS         ___,___,___,___,___,005,___,___
	DEL         ___,___,___,___,___,___,001,___
	FRQ         Dn4,Fn4,An4,___,An4,As2,An4,Cn3 ;
	FRQ         ___,___,___,___,___,___,___,___ ;
	GTM         ___,___,___,___,___,001,___,___
	VOL         ___,___,___,___,___,230,___,___
	INS         ___,___,___,___,___,089,___,___
	FRQ         ___,___,___,An4,___,Cn7,___,___ ;
	FRQ         ___,___,___,___,___,___,___,___ ;
	GTM         ___,___,___,___,___,255,___,___
	VOL         ___,___,___,___,___,255,___,___
	INS         ___,___,___,___,___,005,___,___
	DEL         ___,___,___,___,___,___,001,___
	FRQ         Cn4,En4,Gn4,___,Gn4,As2,Gn4,Cn2 ;
	FRQ         ___,___,___,___,___,___,___,Cn2 ;
	GTM         ___,___,___,___,___,001,___,___
	VOL         ___,___,___,___,___,230,___,___
	INS         ___,___,___,___,___,089,___,___
	FRQ         ___,___,___,Gn4,___,Cn7,___,___ ;
	FRQ         ___,___,___,___,___,___,___,___ ;
	GTM         ___,___,___,___,___,255,___,___
	VOL         ___,___,___,___,___,255,___,___
	INS         ___,___,___,___,___,005,___,___
	DEL         ___,___,___,___,___,___,001,___
	FRQ         ___,___,___,___,Gn4,As2,Gn4,Cn3 ;
	GTM         ___,___,___,___,___,001,___,___
	VOL         ___,___,___,___,___,230,___,___
	INS         ___,___,___,___,___,089,___,___
	DEL         ___,___,___,___,___,___,001,___
	FRQ         ___,___,___,___,An4,Cn7,An4,Cn3 ;
	DEL         ___,___,___,___,___,___,001,___
	FRQ         ___,___,___,Gn4,As4,Cn7,As4,Cn3 ;
	FRQ         ___,___,___,An4,___,___,___,___ ;
	GTM         ___,___,___,___,___,255,___,___
	VOL         ___,___,___,___,___,255,___,___
	INS         ___,___,___,___,___,005,___,___
	DEL         ___,___,___,___,___,___,001,___
	PCM         $82
	FRQ         En4,Gn4,Cn5,As4,Cn5,An2,Cn5,Cn2 ;
	FRQ         ___,___,___,___,___,___,___,___ ;
	GTM         ___,___,___,___,___,001,___,___
	VOL         ___,___,___,___,___,230,___,___
	INS         ___,___,___,___,___,089,___,___
	FRQ         ___,___,___,Cn5,___,Cn7,___,___ ;
	FRQ         ___,___,___,___,___,___,___,___ ;
	GTM         ___,___,___,___,___,255,___,___
	VOL         ___,___,___,___,___,255,___,___
	INS         ___,___,___,___,___,005,___,___
	FRQ         ___,___,___,___,___,An2,___,Cn3 ;
	FRQ         ___,___,___,___,___,___,___,___ ;
	GTM         ___,___,___,___,___,001,___,___
	VOL         ___,___,___,___,___,230,___,___
	INS         ___,___,___,___,___,089,___,___
	FRQ         ___,___,___,___,___,Cn7,___,___ ;
	FRQ         ___,___,___,___,___,___,___,___ ;
	GTM         ___,___,___,___,___,255,___,___
	VOL         ___,___,___,___,___,255,___,___
	INS         ___,___,___,___,___,005,___,___
	DEL         ___,___,___,___,___,___,001,___
	FRQ         Cn4,En4,Gn4,___,Gn4,An2,Gn4,Cn2 ;
	FRQ         ___,___,___,___,___,___,___,___ ;
	GTM         ___,___,___,___,___,001,___,___
	VOL         ___,___,___,___,___,230,___,___
	INS         ___,___,___,___,___,089,___,___
	FRQ         ___,___,___,Gn4,___,Cn7,___,___ ;
	DEL         ___,___,___,___,___,___,001,___
	FRQ         ___,___,___,___,An4,___,An4,___ ;
	GTM         ___,___,___,___,___,255,___,___
	VOL         ___,___,___,___,___,255,___,___
	INS         ___,___,___,___,___,005,___,___
	FRQ         ___,___,___,___,___,An2,___,Cn3 ;
	FRQ         ___,___,___,An4,___,___,___,Cn2 ;
	GTM         ___,___,___,___,___,001,___,___
	VOL         ___,___,___,___,___,230,___,___
	INS         ___,___,___,___,___,089,___,___
	DEL         ___,___,___,___,___,___,001,___
	FRQ         ___,___,___,___,Gn4,Cn7,Gn4,___ ;
	FRQ         ___,___,___,___,___,___,___,___ ;
	GTM         ___,___,___,___,___,255,___,___
	VOL         ___,___,___,___,___,255,___,___
	INS         ___,___,___,___,___,005,___,___
	DEL         ___,___,___,___,___,___,001,___
	FRQ         Dn4,Fn4,As4,Gn4,As4,Gn2,As4,Cn2 ;
	FRQ         ___,___,___,___,___,___,___,___ ;
	GTM         ___,___,___,___,___,001,___,___
	VOL         ___,___,___,___,___,230,___,___
	INS         ___,___,___,___,___,089,___,___
	FRQ         ___,___,___,As4,___,___,___,___ ;
	FRQ         ___,___,___,___,___,___,___,___ ;
	GTM         ___,___,___,___,___,255,___,___
	VOL         ___,___,___,___,___,255,___,___
	INS         ___,___,___,___,___,005,___,___
	DEL         ___,___,___,___,___,___,001,___
	FRQ         Dn4,Fn4,An3,___,An4,An2,An4,Cn3 ;
	FRQ         ___,___,___,___,___,___,___,Cn3 ;
	GTM         ___,___,___,___,___,001,___,___
	VOL         ___,___,___,___,___,230,___,___
	INS         ___,___,___,___,___,089,___,___
	FRQ         ___,___,___,An4,___,Cn7,___,___ ;
	FRQ         ___,___,___,___,___,___,___,___ ;
	GTM         ___,___,___,___,___,255,___,___
	VOL         ___,___,___,___,___,255,___,___
	INS         ___,___,___,___,___,005,___,___
	DEL         ___,___,___,___,___,___,001,___
	FRQ         Cn4,Dn4,Fn4,___,Fn4,As2,Fn4,Cn2 ;
	FRQ         ___,___,___,___,___,___,___,Cn3 ;
	GTM         ___,___,___,___,___,001,___,___
	VOL         ___,___,___,___,___,230,___,___
	INS         ___,___,___,___,___,089,___,___
	FRQ         ___,___,___,Fn4,___,Cn7,___,Cn3 ;
	FRQ         ___,___,___,___,___,___,___,___ ;
	GTM         ___,___,___,___,___,255,___,___
	VOL         ___,___,___,___,___,255,___,___
	INS         ___,___,___,___,___,005,___,___
	DEL         ___,___,___,___,___,___,001,___
	FRQ         Cn4,En4,Gn3,___,Gn4,Cn3,Gn4,Cn2 ;
	FRQ         ___,___,___,___,___,___,___,Cn3 ;
	GTM         ___,___,___,___,___,001,___,___
	VOL         ___,___,___,___,___,230,___,___
	INS         ___,___,___,___,___,089,___,___
	FRQ         ___,___,___,Gn4,___,Cn7,___,Cn3 ;
	FRQ         ___,___,___,___,___,___,___,Cn3 ;
	GTM         ___,___,___,___,___,255,___,___
	VOL         ___,___,___,___,___,255,___,___
	INS         ___,___,___,___,___,005,___,___
	DEL         ___,___,___,___,___,___,001,___
	PCM         $83
	FRQ         Fn3,As3,Dn4,___,Dn4,As2,Dn4,Cn2 ;
	FRQ         ___,___,___,___,___,___,___,___ ;
	GTM         ___,___,___,___,___,001,___,___
	VOL         ___,___,___,___,___,230,___,___
	INS         ___,___,___,___,___,089,___,___
	DEL         ___,___,___,___,___,___,001,___
	FRQ         ___,___,___,Dn4,An4,Cn7,An4,___ ;
	FRQ         ___,___,___,___,___,Cn7,___,___ ;
	GTM         ___,___,___,___,___,255,___,___
	VOL         ___,___,___,___,___,255,___,___
	INS         ___,___,___,___,___,005,___,___
	DEL         ___,___,___,___,___,___,001,___
	FRQ         ___,___,___,An4,Gn4,As2,Gn4,Cn3 ;
	FRQ         ___,___,___,___,___,___,___,___ ;
	GTM         ___,___,___,___,___,001,___,___
	VOL         ___,___,___,___,___,230,___,___
	INS         ___,___,___,___,___,089,___,___
	DEL         ___,___,___,___,___,___,001,___
	FRQ         ___,___,___,Gn4,Fn4,Cn7,Fn4,___ ;
	GTM         ___,___,___,___,___,255,___,___
	VOL         ___,___,___,___,___,255,___,___
	INS         ___,___,___,___,___,005,___,___
	FRQ         ___,___,___,___,___,As2,___,Cn2 ;
	FRQ         ___,___,___,Fn4,___,As2,___,Cn2 ;
	FRQ         ___,___,___,___,___,___,___,___ ;
	GTM         ___,___,___,___,___,001,___,___
	VOL         ___,___,___,___,___,230,___,___
	INS         ___,___,___,___,___,089,___,___
	FRQ         ___,___,___,___,___,Cn7,___,___ ;
	FRQ         ___,___,___,___,___,Cn7,___,___ ;
	GTM         ___,___,___,___,___,255,___,___
	VOL         ___,___,___,___,___,255,___,___
	INS         ___,___,___,___,___,005,___,___
	FRQ         ___,___,___,___,___,As2,___,Cn3 ;
	FRQ         ___,___,___,___,___,___,___,___ ;
	GTM         ___,___,___,___,___,001,___,___
	VOL         ___,___,___,___,___,230,___,___
	INS         ___,___,___,___,___,089,___,___
	FRQ         ___,___,___,___,___,Cn7,___,___ ;
	GTM         ___,___,___,___,___,255,___,___
	VOL         ___,___,___,___,___,255,___,___
	INS         ___,___,___,___,___,005,___,___
	FRQ         ___,___,___,___,___,As2,___,Cn2 ;
	DEL         ___,___,___,___,___,___,001,___
	PCM         $84
	FRQ         Gn3,Cn5,An4,___,An4,An2,An4,Cn2 ;
	FRQ         ___,___,___,___,___,___,___,___ ;
	GTM         ___,___,___,___,___,001,___,___
	VOL         ___,___,___,___,___,230,___,___
	INS         ___,___,___,___,___,089,___,___
	FRQ         ___,___,___,An4,___,Cn7,___,___ ;
	FRQ         ___,___,___,___,___,Cn7,___,___ ;
	GTM         ___,___,___,___,___,255,___,___
	VOL         ___,___,___,___,___,255,___,___
	INS         ___,___,___,___,___,005,___,___
	FRQ         ___,___,___,___,___,An2,___,Cn3 ;
	FRQ         ___,___,___,___,___,___,___,___ ;
	GTM         ___,___,___,___,___,001,___,___
	VOL         ___,___,___,___,___,230,___,___
	INS         ___,___,___,___,___,089,___,___
	FRQ         ___,___,___,___,___,Cn7,___,___ ;
	GTM         ___,___,___,___,___,255,___,___
	VOL         ___,___,___,___,___,255,___,___
	INS         ___,___,___,___,___,005,___,___
	FRQ         ___,___,___,___,___,An2,___,Cn2 ;
	FRQ         ___,___,___,___,___,An2,___,Cn2 ;
	FRQ         ___,___,___,___,___,___,___,___ ;
	GTM         ___,___,___,___,___,001,___,___
	VOL         ___,___,___,___,___,230,___,___
	INS         ___,___,___,___,___,089,___,___
	FRQ         ___,___,___,___,___,Cn7,___,___ ;
	FRQ         ___,___,___,___,___,Cn7,___,Cn2 ;
	GTM         ___,___,___,___,___,255,___,___
	VOL         ___,___,___,___,___,255,___,___
	INS         ___,___,___,___,___,005,___,___
	FRQ         ___,___,___,___,___,An2,___,Cn3 ;
	FRQ         ___,___,___,___,___,___,___,Cn3 ;
	GTM         ___,___,___,___,___,001,___,___
	VOL         ___,___,___,___,___,230,___,___
	INS         ___,___,___,___,___,089,___,___
	FRQ         ___,___,___,___,___,Cn7,___,___ ;
	GTM         ___,___,___,___,___,255,___,___
	VOL         ___,___,___,___,___,255,___,___
	INS         ___,___,___,___,___,005,___,___
	FRQ         ___,___,___,___,___,An2,___,___ ;
	DEL         ___,___,___,___,___,___,001,___
	PCM         $83
	FRQ         Fn3,As3,Dn4,___,Fn4,As2,Fn4,Cn2 ;
	FRQ         ___,___,___,___,___,___,___,___ ;
	GTM         ___,___,___,___,___,001,___,___
	VOL         ___,___,___,___,___,230,___,___
	INS         ___,___,___,___,___,089,___,___
	FRQ         ___,___,___,Fn4,___,Cn7,___,___ ;
	FRQ         ___,___,___,___,___,Cn7,___,___ ;
	GTM         ___,___,___,___,___,255,___,___
	VOL         ___,___,___,___,___,255,___,___
	INS         ___,___,___,___,___,005,___,___
	FRQ         ___,___,___,___,___,As2,___,Cn3 ;
	FRQ         ___,___,___,___,___,___,___,___ ;
	GTM         ___,___,___,___,___,001,___,___
	VOL         ___,___,___,___,___,230,___,___
	INS         ___,___,___,___,___,089,___,___
	FRQ         ___,___,___,___,___,Cn7,___,___ ;
	GTM         ___,___,___,___,___,255,___,___
	VOL         ___,___,___,___,___,255,___,___
	INS         ___,___,___,___,___,005,___,___
	FRQ         ___,___,___,___,___,As2,___,Cn2 ;
	FRQ         ___,___,___,___,___,As2,___,Cn2 ;
	FRQ         ___,___,___,___,___,___,___,___ ;
	GTM         ___,___,___,___,___,001,___,___
	VOL         ___,___,___,___,___,230,___,___
	INS         ___,___,___,___,___,089,___,___
	FRQ         ___,___,___,___,___,Cn7,___,___ ;
	FRQ         ___,___,___,___,___,Cn7,___,___ ;
	GTM         ___,___,___,___,___,255,___,___
	VOL         ___,___,___,___,___,255,___,___
	INS         ___,___,___,___,___,005,___,___
	DEL         ___,___,___,___,___,___,001,___
	FRQ         ___,___,___,Dn4,Fn4,As2,Fn4,Cn3 ;
	DEL         ___,___,___,___,___,___,001,___
	FRQ         ___,___,___,En4,Gn4,___,Gn4,___ ;
	GTM         ___,___,___,___,___,001,___,___
	VOL         ___,___,___,___,___,230,___,___
	INS         ___,___,___,___,___,089,___,___
	FRQ         ___,___,___,___,___,Cn7,___,___ ;
	GTM         ___,___,___,___,___,255,___,___
	VOL         ___,___,___,___,___,255,___,___
	INS         ___,___,___,___,___,005,___,___
	FRQ         ___,___,___,___,___,As2,___,Cn2 ;
	DEL         ___,___,___,___,___,___,001,___
	PCM         $84
	FRQ         Gn3,Cn4,En4,___,Cn5,An2,Cn5,Cn2 ;
	DEL         ___,___,___,___,___,___,001,___
	FRQ         ___,___,___,___,An4,___,An4,___ ;
	GTM         ___,___,___,___,___,001,___,___
	VOL         ___,___,___,___,___,230,___,___
	INS         ___,___,___,___,___,089,___,___
	DEL         ___,___,___,___,___,___,001,___
	FRQ         ___,___,___,Cn5,Gn4,Cn7,Gn4,___ ;
	DEL         ___,___,___,___,___,___,001,___
	FRQ         ___,___,___,An4,An4,Cn7,An4,___ ;
	GTM         ___,___,___,___,___,255,___,___
	VOL         ___,___,___,___,___,255,___,___
	INS         ___,___,___,___,___,005,___,___
	DEL         ___,___,___,___,___,___,001,___
	FRQ         ___,___,___,Gn4,Fn4,An2,Fn4,Cn3 ;
	DEL         ___,___,___,___,___,___,001,___
	FRQ         ___,___,___,An4,Gn4,___,Gn4,___ ;
	GTM         ___,___,___,___,___,001,___,___
	VOL         ___,___,___,___,___,230,___,___
	INS         ___,___,___,___,___,089,___,___
	DEL         ___,___,___,___,___,___,001,___
	FRQ         ___,___,___,Fn4,Cn4,Cn7,Cn4,___ ;
	GTM         ___,___,___,___,___,255,___,___
	VOL         ___,___,___,___,___,255,___,___
	INS         ___,___,___,___,___,005,___,___
	DEL         ___,___,___,___,___,___,001,___
	FRQ         ___,___,___,Gn4,Dn4,An2,Dn4,Cn2 ;
	DEL         ___,___,___,___,___,___,001,___
	FRQ         ___,___,___,Cn4,Cn4,An2,Cn4,Cn2 ;
	FRQ         ___,___,___,Dn4,___,___,___,___ ;
	GTM         ___,___,___,___,___,001,___,___
	VOL         ___,___,___,___,___,230,___,___
	INS         ___,___,___,___,___,089,___,___
	FRQ         ___,___,___,Cn4,___,Cn7,___,___ ;
	FRQ         ___,___,___,___,___,Cn7,___,___ ;
	GTM         ___,___,___,___,___,255,___,___
	VOL         ___,___,___,___,___,255,___,___
	INS         ___,___,___,___,___,005,___,___
	FRQ         ___,___,___,___,___,An2,___,Cn3 ;
	FRQ         ___,___,___,___,___,___,___,___ ;
	GTM         ___,___,___,___,___,001,___,___
	VOL         ___,___,___,___,___,230,___,___
	INS         ___,___,___,___,___,089,___,___
	FRQ         ___,___,___,___,___,Cn7,___,___ ;
	GTM         ___,___,___,___,___,255,___,___
	VOL         ___,___,___,___,___,255,___,___
	INS         ___,___,___,___,___,005,___,___
	FRQ         ___,___,___,___,___,An2,___,Cn2 ;
	DEL         ___,___,___,___,___,___,001,___
	PCM         $83
	FRQ         Fn3,As3,Dn4,___,Dn4,As2,Dn4,Cn2 ;
	FRQ         ___,___,___,___,___,___,___,___ ;
	GTM         ___,___,___,___,___,001,___,___
	VOL         ___,___,___,___,___,230,___,___
	INS         ___,___,___,___,___,089,___,___
	DEL         ___,___,___,___,___,___,001,___
	FRQ         ___,___,___,Dn4,En4,Cn7,En4,___ ;
	FRQ         ___,___,___,___,___,Cn7,___,___ ;
	GTM         ___,___,___,___,___,255,___,___
	VOL         ___,___,___,___,___,255,___,___
	INS         ___,___,___,___,___,005,___,___
	DEL         ___,___,___,___,___,___,001,___
	FRQ         ___,___,___,En4,Fn4,As2,Fn4,Cn3 ;
	FRQ         ___,___,___,___,___,___,___,___ ;
	GTM         ___,___,___,___,___,001,___,___
	VOL         ___,___,___,___,___,230,___,___
	INS         ___,___,___,___,___,089,___,___
	DEL         ___,___,___,___,___,___,001,___
	FRQ         ___,___,___,Fn4,As4,Cn7,As4,___ ;
	GTM         ___,___,___,___,___,255,___,___
	VOL         ___,___,___,___,___,255,___,___
	INS         ___,___,___,___,___,005,___,___
	FRQ         ___,___,___,___,___,As2,___,Cn2 ;
	FRQ         ___,___,___,As4,___,As2,___,Cn2 ;
	FRQ         ___,___,___,___,___,___,___,___ ;
	GTM         ___,___,___,___,___,001,___,___
	VOL         ___,___,___,___,___,230,___,___
	INS         ___,___,___,___,___,089,___,___
	FRQ         ___,___,___,___,___,Cn7,___,___ ;
	FRQ         ___,___,___,___,___,Cn7,___,___ ;
	GTM         ___,___,___,___,___,255,___,___
	VOL         ___,___,___,___,___,255,___,___
	INS         ___,___,___,___,___,005,___,___
	FRQ         ___,___,___,___,___,As2,___,Cn3 ;
	FRQ         ___,___,___,___,___,___,___,___ ;
	GTM         ___,___,___,___,___,001,___,___
	VOL         ___,___,___,___,___,230,___,___
	INS         ___,___,___,___,___,089,___,___
	FRQ         ___,___,___,___,___,Cn7,___,___ ;
	GTM         ___,___,___,___,___,255,___,___
	VOL         ___,___,___,___,___,255,___,___
	INS         ___,___,___,___,___,005,___,___
	FRQ         ___,___,___,___,___,As2,___,Cn2 ;
	DEL         ___,___,___,___,___,___,001,___
	PCM         $84
	FRQ         Gn3,Cn4,En4,___,En4,An2,En4,Cn2 ;
	FRQ         ___,___,___,___,___,___,___,___ ;
	GTM         ___,___,___,___,___,001,___,___
	VOL         ___,___,___,___,___,230,___,___
	INS         ___,___,___,___,___,089,___,___
	DEL         ___,___,___,___,___,___,001,___
	FRQ         ___,___,___,En4,Fn4,Cn7,Fn4,___ ;
	FRQ         ___,___,___,___,___,Cn7,___,___ ;
	GTM         ___,___,___,___,___,255,___,___
	VOL         ___,___,___,___,___,255,___,___
	INS         ___,___,___,___,___,005,___,___
	DEL         ___,___,___,___,___,___,001,___
	FRQ         ___,___,___,Fn4,Gn4,An2,Gn4,Cn3 ;
	FRQ         ___,___,___,___,___,___,___,___ ;
	GTM         ___,___,___,___,___,001,___,___
	VOL         ___,___,___,___,___,230,___,___
	INS         ___,___,___,___,___,089,___,___
	DEL         ___,___,___,___,___,___,001,___
	FRQ         ___,___,___,Gn4,Cn5,Cn7,Cn5,___ ;
	GTM         ___,___,___,___,___,255,___,___
	VOL         ___,___,___,___,___,255,___,___
	INS         ___,___,___,___,___,005,___,___
	FRQ         ___,___,___,___,___,An2,___,Cn2 ;
	FRQ         ___,___,___,Cn5,___,An2,___,Cn2 ;
	FRQ         ___,___,___,___,___,___,___,___ ;
	GTM         ___,___,___,___,___,001,___,___
	VOL         ___,___,___,___,___,230,___,___
	INS         ___,___,___,___,___,089,___,___
	FRQ         ___,___,___,___,___,Cn7,___,___ ;
	FRQ         ___,___,___,___,___,Cn7,___,___ ;
	GTM         ___,___,___,___,___,255,___,___
	VOL         ___,___,___,___,___,255,___,___
	INS         ___,___,___,___,___,005,___,___
	FRQ         ___,___,___,___,___,An2,___,Cn3 ;
	FRQ         ___,___,___,___,___,___,___,___ ;
	GTM         ___,___,___,___,___,001,___,___
	VOL         ___,___,___,___,___,230,___,___
	INS         ___,___,___,___,___,089,___,___
	FRQ         ___,___,___,___,___,Cn7,___,___ ;
	GTM         ___,___,___,___,___,255,___,___
	VOL         ___,___,___,___,___,255,___,___
	INS         ___,___,___,___,___,005,___,___
	FRQ         ___,___,___,___,___,An2,___,Cn2 ;
	DEL         ___,___,___,___,___,___,001,___
	PCM         $83
	FRQ         Fn3,As3,Dn4,As3,Dn4,As2,Dn4,Cn2 ;
	FRQ         ___,___,___,___,___,___,___,___ ;
	GTM         ___,___,___,___,___,001,___,___
	VOL         ___,___,___,___,___,230,___,___
	INS         ___,___,___,___,___,089,___,___
	DEL         ___,___,___,___,___,___,001,___
	FRQ         ___,___,___,___,Fn3,Cn7,Fn3,___ ;
	DEL         ___,___,___,___,___,___,001,___
	FRQ         ___,___,___,___,As3,Cn7,As3,___ ;
	GTM         ___,___,___,___,___,255,___,___
	VOL         ___,___,___,___,___,255,___,___
	INS         ___,___,___,___,___,005,___,___
	DEL         ___,___,___,___,___,___,001,___
	FRQ         ___,___,___,Fn3,Dn4,As2,Dn4,Cn3 ;
	DEL         ___,___,___,___,___,___,001,___
	FRQ         ___,___,___,As3,En4,___,En4,___ ;
	GTM         ___,___,___,___,___,001,___,___
	VOL         ___,___,___,___,___,230,___,___
	INS         ___,___,___,___,___,089,___,___
	FRQ         ___,___,___,Dn4,___,Cn7,___,___ ;
	GTM         ___,___,___,___,___,255,___,___
	VOL         ___,___,___,___,___,255,___,___
	INS         ___,___,___,___,___,005,___,___
	DEL         ___,___,___,___,___,___,001,___
	FRQ         ___,___,___,En4,Fn4,As2,Fn4,Cn2 ;
	FRQ         ___,___,___,___,___,As2,___,Cn2 ;
	FRQ         ___,___,___,Fn4,___,___,___,___ ;
	GTM         ___,___,___,___,___,001,___,___
	VOL         ___,___,___,___,___,230,___,___
	INS         ___,___,___,___,___,089,___,___
	FRQ         ___,___,___,___,___,Cn7,___,___ ;
	FRQ         ___,___,___,___,___,Cn7,___,___ ;
	GTM         ___,___,___,___,___,255,___,___
	VOL         ___,___,___,___,___,255,___,___
	INS         ___,___,___,___,___,005,___,___
	DEL         ___,___,___,___,___,___,001,___
	FRQ         ___,___,___,Dn4,Fn4,As2,Fn4,Cn3 ;
	DEL         ___,___,___,___,___,___,001,___
	FRQ         ___,___,___,En4,Gn4,___,Gn4,___ ;
	GTM         ___,___,___,___,___,001,___,___
	VOL         ___,___,___,___,___,230,___,___
	INS         ___,___,___,___,___,089,___,___
	FRQ         ___,___,___,___,___,Cn7,___,___ ;
	GTM         ___,___,___,___,___,255,___,___
	VOL         ___,___,___,___,___,255,___,___
	INS         ___,___,___,___,___,005,___,___
	FRQ         ___,___,___,___,___,As2,___,Cn2 ;
	DEL         ___,___,___,___,___,___,001,___
	PCM         $85
	FRQ         Cn4,Fn4,Gn4,Fn4,Gn4,Cn3,Gn4,Cn2 ;
	FRQ         ___,___,___,___,___,___,___,___ ;
	GTM         ___,___,___,___,___,001,___,___
	VOL         ___,___,___,___,___,230,___,___
	INS         ___,___,___,___,___,089,___,___
	FRQ         ___,___,___,___,___,Cn7,___,___ ;
	FRQ         ___,___,___,___,___,Cn7,___,___ ;
	GTM         ___,___,___,___,___,255,___,___
	VOL         ___,___,___,___,___,255,___,___
	INS         ___,___,___,___,___,005,___,___
	FRQ         ___,___,___,___,___,Cn3,___,Cn3 ;
	FRQ         ___,___,___,___,___,___,___,Cn3 ;
	GTM         ___,___,___,___,___,001,___,___
	VOL         ___,___,___,___,___,230,___,___
	INS         ___,___,___,___,___,089,___,___
	FRQ         ___,___,___,___,___,Cn7,___,___ ;
	GTM         ___,___,___,___,___,255,___,___
	VOL         ___,___,___,___,___,255,___,___
	INS         ___,___,___,___,___,005,___,___
	FRQ         ___,___,___,___,___,Cn3,___,___ ;
	SPEED       006
	DEL         ___,___,___,___,___,___,001,___
	PCM         $86
	FRQ         Cn4,En4,Gn4,En4,Gn4,Cn3,Gn4,Cn3 ;
	FRQ         ___,___,___,___,___,___,___,Cn3 ;
	SPEED       012
	FRQ         ___,___,___,___,___,___,___,Cn3 ;
	GTM         ___,___,___,___,___,001,___,___
	VOL         ___,___,___,___,___,230,___,___
	INS         ___,___,___,___,___,089,___,___
	FRQ         ___,___,___,___,___,Cn7,___,An2 ;
	FRQ         ___,___,___,___,___,Cn7,___,An2 ;
	GTM         ___,___,___,___,___,255,___,___
	VOL         ___,___,___,___,___,255,___,___
	INS         ___,___,___,___,___,005,___,___
	FRQ         ___,___,___,___,___,Cn3,___,En2 ;
	FRQ         ___,___,___,___,___,___,___,En2 ;
	SPEED       003
	GTM         ___,___,___,___,___,001,___,___
	VOL         ___,___,___,___,___,230,___,___
	INS         ___,___,___,___,___,089,___,___
	FRQ         ___,___,___,___,___,Cn7,___,Cn3 ;
	FRQ         ___,___,___,___,___,___,___,An2 ;
	GTM         ___,___,___,___,___,255,___,___
	VOL         ___,___,___,___,___,255,___,___
	INS         ___,___,___,___,___,005,___,___
	FRQ         ___,___,___,___,___,___,___,En2 ;
	FRQ         ___,___,___,___,___,___,___,Cn2 ;
	SPEED       012
	FRQ         ___,___,___,___,___,Cn3,___,Cn2 ;
	INS         ___,___,___,086,086,___,086,___
	PAN         L__,_C_,__R,_C_,L__,___,__R,___
	VOL         ___,___,___,235,244,___,244,___
	LFO         ___,___,___,001,___,___,001,___
	DEL         ___,___,___,___,___,___,001,___
	PCM         $81
	FRQ         Gn3,Cn4,En4,___,En4,Cn3,En4,Cn2 ;
	FRQ         ___,___,___,___,___,___,___,___ ;
	GTM         ___,___,___,___,___,001,___,___
	VOL         ___,___,___,___,___,230,___,___
	INS         ___,___,___,___,___,089,___,___
	DEL         ___,___,___,___,___,___,001,___
	FRQ         ___,___,___,En4,Gn4,Cn7,Gn4,___ ;
	FRQ         ___,___,___,___,___,___,___,___ ;
	GTM         ___,___,___,___,___,255,___,___
	VOL         ___,___,___,___,___,255,___,___
	INS         ___,___,___,___,___,005,___,___
	DEL         ___,___,___,___,___,___,001,___
	FRQ         Cn4,En4,Gn4,Gn4,Cn4,Cn3,Cn4,Cn3 ;
	DEL         ___,___,___,___,___,___,001,___
	FRQ         ___,___,___,___,Dn4,___,Dn4,___ ;
	GTM         ___,___,___,___,___,001,___,___
	VOL         ___,___,___,___,___,230,___,___
	INS         ___,___,___,___,___,089,___,___
	DEL         ___,___,___,___,___,___,001,___
	FRQ         ___,___,___,Cn4,En4,Cn7,En4,___ ;
	FRQ         ___,___,___,Dn4,___,___,___,___ ;
	GTM         ___,___,___,___,___,255,___,___
	VOL         ___,___,___,___,___,255,___,___
	INS         ___,___,___,___,___,005,___,___
	PIT         ___,___,___,___,036,___,036,___
	PITRAT      ___,___,___,___,018,___,018,___
	PITDEP      ___,___,___,___,255,___,255,___
	DEL         ___,___,___,___,___,___,001,___
	FRQ         Gn3,Bn3,Dn3,En4,Dn4,Bn2,Dn4,Cn2 ;
	FRQ         ___,___,___,___,___,___,___,___ ;
	PIT         ___,___,___,036,___,___,___,___
	PITRAT      ___,___,___,018,___,___,___,___
	PITDEP      ___,___,___,255,___,___,___,___
	GTM         ___,___,___,___,___,001,___,___
	VOL         ___,___,___,___,___,230,___,___
	INS         ___,___,___,___,___,089,___,___
	FRQ         ___,___,___,Dn4,___,Cn7,___,Cn2 ;
	FRQ         ___,___,___,___,___,___,___,___ ;
	GTM         ___,___,___,___,___,255,___,___
	VOL         ___,___,___,___,___,255,___,___
	INS         ___,___,___,___,___,005,___,___
	FRQ         Gn4,Cn4,En4,___,___,Bn2,___,Cn3 ;
	FRQ         ___,___,___,___,___,___,___,___ ;
	GTM         ___,___,___,___,___,001,___,___
	VOL         ___,___,___,___,___,230,___,___
	INS         ___,___,___,___,___,089,___,___
	FRQ         ___,___,___,___,___,Cn7,___,___ ;
	FRQ         ___,___,___,___,___,Cn7,___,___ ;
	GTM         ___,___,___,___,___,255,___,___
	VOL         ___,___,___,___,___,255,___,___
	INS         ___,___,___,___,___,005,___,___
	PIT         ___,___,___,040,042,___,042,___
	PITRAT      ___,___,___,045,045,___,045,___
	PITDEP      ___,___,___,255,255,___,255,___
	DEL         ___,___,___,___,___,___,001,___
	FRQ         Fn3,As3,Dn4,___,Dn4,As2,Dn4,Cn2 ;
	FRQ         ___,___,___,___,___,___,___,___ ;
	GTM         ___,___,___,___,___,001,___,___
	VOL         ___,___,___,___,___,230,___,___
	INS         ___,___,___,___,___,089,___,___
	FRQ         ___,___,___,Dn4,___,Cn7,___,___ ;
	FRQ         ___,___,___,___,___,___,___,___ ;
	GTM         ___,___,___,___,___,255,___,___
	VOL         ___,___,___,___,___,255,___,___
	INS         ___,___,___,___,___,005,___,___
	PIT         ___,___,___,011,013,___,013,___
	PITRAT      ___,___,___,145,148,___,148,___
	PITDEP      ___,___,___,130,130,___,130,___
	DEL         ___,___,___,___,___,___,001,___
	FRQ         Dn4,Fn4,An4,___,An4,As2,An4,Cn3 ;
	FRQ         ___,___,___,___,___,___,___,___ ;
	GTM         ___,___,___,___,___,001,___,___
	VOL         ___,___,___,___,___,230,___,___
	INS         ___,___,___,___,___,089,___,___
	FRQ         ___,___,___,An4,___,Cn7,___,___ ;
	FRQ         ___,___,___,___,___,___,___,___ ;
	GTM         ___,___,___,___,___,255,___,___
	VOL         ___,___,___,___,___,255,___,___
	INS         ___,___,___,___,___,005,___,___
	DEL         ___,___,___,___,___,___,001,___
	FRQ         Cn4,En4,Gn4,___,Gn4,As2,Gn4,Cn2 ;
	FRQ         ___,___,___,___,___,___,___,Cn2 ;
	GTM         ___,___,___,___,___,001,___,___
	VOL         ___,___,___,___,___,230,___,___
	INS         ___,___,___,___,___,089,___,___
	FRQ         ___,___,___,Gn4,___,Cn7,___,___ ;
	FRQ         ___,___,___,___,___,___,___,___ ;
	GTM         ___,___,___,___,___,255,___,___
	VOL         ___,___,___,___,___,255,___,___
	INS         ___,___,___,___,___,005,___,___
	DEL         ___,___,___,___,___,___,001,___
	FRQ         ___,___,___,___,Gn4,As2,Gn4,Cn3 ;
	GTM         ___,___,___,___,___,001,___,___
	VOL         ___,___,___,___,___,230,___,___
	INS         ___,___,___,___,___,089,___,___
	DEL         ___,___,___,___,___,___,001,___
	FRQ         ___,___,___,___,An4,Cn7,An4,Cn3 ;
	DEL         ___,___,___,___,___,___,001,___
	FRQ         ___,___,___,Gn4,As4,Cn7,As4,Cn3 ;
	FRQ         ___,___,___,An4,___,___,___,___ ;
	PIT         ___,___,___,___,046,___,046,___
	PITRAT      ___,___,___,___,025,___,025,___
	PITDEP      ___,___,___,___,255,___,255,___
	GTM         ___,___,___,___,___,255,___,___
	VOL         ___,___,___,___,___,255,___,___
	INS         ___,___,___,___,___,005,___,___
	DEL         ___,___,___,___,___,___,001,___
	PCM         $82
	FRQ         En4,Gn4,Cn5,As4,Cn5,An2,Cn5,Cn2 ;
	PIT         ___,___,___,046,___,___,___,___
	PITRAT      ___,___,___,025,___,___,___,___
	PITDEP      ___,___,___,255,___,___,___,___
	FRQ         ___,___,___,___,___,___,___,___ ;
	GTM         ___,___,___,___,___,001,___,___
	VOL         ___,___,___,___,___,230,___,___
	INS         ___,___,___,___,___,089,___,___
	FRQ         ___,___,___,Cn5,___,Cn7,___,___ ;
	FRQ         ___,___,___,___,___,___,___,___ ;
	GTM         ___,___,___,___,___,255,___,___
	VOL         ___,___,___,___,___,255,___,___
	INS         ___,___,___,___,___,005,___,___
	FRQ         ___,___,___,___,___,An2,___,Cn3 ;
	FRQ         ___,___,___,___,___,___,___,___ ;
	GTM         ___,___,___,___,___,001,___,___
	VOL         ___,___,___,___,___,230,___,___
	INS         ___,___,___,___,___,089,___,___
	FRQ         ___,___,___,___,___,Cn7,___,___ ;
	FRQ         ___,___,___,___,___,___,___,___ ;
	GTM         ___,___,___,___,___,255,___,___
	VOL         ___,___,___,___,___,255,___,___
	INS         ___,___,___,___,___,005,___,___
	PIT         ___,___,___,011,013,___,013,___
	PITRAT      ___,___,___,145,148,___,148,___
	PITDEP      ___,___,___,130,130,___,130,___
	DEL         ___,___,___,___,___,___,001,___
	FRQ         Cn4,En4,Gn4,___,Gn4,An2,Gn4,Cn2 ;
	FRQ         ___,___,___,___,___,___,___,___ ;
	GTM         ___,___,___,___,___,001,___,___
	VOL         ___,___,___,___,___,230,___,___
	INS         ___,___,___,___,___,089,___,___
	FRQ         ___,___,___,Gn4,___,Cn7,___,___ ;
	DEL         ___,___,___,___,___,___,001,___
	FRQ         ___,___,___,___,An4,___,An4,___ ;
	GTM         ___,___,___,___,___,255,___,___
	VOL         ___,___,___,___,___,255,___,___
	INS         ___,___,___,___,___,005,___,___
	FRQ         ___,___,___,___,___,An2,___,Cn3 ;
	FRQ         ___,___,___,An4,___,___,___,Cn2 ;
	GTM         ___,___,___,___,___,001,___,___
	VOL         ___,___,___,___,___,230,___,___
	INS         ___,___,___,___,___,089,___,___
	DEL         ___,___,___,___,___,___,001,___
	FRQ         ___,___,___,___,Gn4,Cn7,Gn4,___ ;
	FRQ         ___,___,___,___,___,___,___,___ ;
	GTM         ___,___,___,___,___,255,___,___
	VOL         ___,___,___,___,___,255,___,___
	INS         ___,___,___,___,___,005,___,___
	DEL         ___,___,___,___,___,___,001,___
	FRQ         Dn4,Fn4,As4,Gn4,As4,Gn2,As4,Cn2 ;
	FRQ         ___,___,___,___,___,___,___,___ ;
	GTM         ___,___,___,___,___,001,___,___
	VOL         ___,___,___,___,___,230,___,___
	INS         ___,___,___,___,___,089,___,___
	FRQ         ___,___,___,As4,___,Cn7,___,___ ;
	FRQ         ___,___,___,___,___,___,___,___ ;
	GTM         ___,___,___,___,___,255,___,___
	VOL         ___,___,___,___,___,255,___,___
	INS         ___,___,___,___,___,005,___,___
	DEL         ___,___,___,___,___,___,001,___
	FRQ         Dn4,Fn4,An3,___,An4,An2,An4,Cn3 ;
	FRQ         ___,___,___,___,___,___,___,Cn3 ;
	GTM         ___,___,___,___,___,001,___,___
	VOL         ___,___,___,___,___,230,___,___
	INS         ___,___,___,___,___,089,___,___
	FRQ         ___,___,___,An4,___,Cn7,___,___ ;
	FRQ         ___,___,___,___,___,___,___,___ ;
	GTM         ___,___,___,___,___,255,___,___
	VOL         ___,___,___,___,___,255,___,___
	INS         ___,___,___,___,___,005,___,___
	DEL         ___,___,___,___,___,___,001,___
	FRQ         Cn4,Dn4,Fn4,___,Fn4,As2,Fn4,Cn2 ;
	FRQ         ___,___,___,___,___,___,___,Cn3 ;
	GTM         ___,___,___,___,___,001,___,___
	VOL         ___,___,___,___,___,230,___,___
	INS         ___,___,___,___,___,089,___,___
	FRQ         ___,___,___,Fn4,___,Cn7,___,Cn3 ;
	FRQ         ___,___,___,___,___,___,___,___ ;
	GTM         ___,___,___,___,___,255,___,___
	VOL         ___,___,___,___,___,255,___,___
	INS         ___,___,___,___,___,005,___,___
	DEL         ___,___,___,___,___,___,001,___
	FRQ         Cn4,En4,Gn3,___,Gn4,Cn3,Gn4,Cn2 ;
	FRQ         ___,___,___,___,___,___,___,Cn3 ;
	GTM         ___,___,___,___,___,001,___,___
	VOL         ___,___,___,___,___,230,___,___
	INS         ___,___,___,___,___,089,___,___
	FRQ         ___,___,___,Gn4,___,Cn7,___,Cn3 ;
	FRQ         ___,___,___,___,___,___,___,Cn3 ;
	GTM         ___,___,___,___,___,255,___,___
	VOL         ___,___,___,___,___,255,___,___
	INS         ___,___,___,___,___,005,___,___
	DEL         ___,___,___,___,___,___,001,___
	PCM         $83
	FRQ         Fn3,As3,Dn4,Dn4,Fn4,As2,Fn4,Cn2 ;
	FRQ         ___,___,___,___,___,___,___,___ ;
	GTM         ___,___,___,___,___,001,___,___
	VOL         ___,___,___,___,___,230,___,___
	INS         ___,___,___,___,___,089,___,___
	FRQ         ___,___,___,___,___,Cn7,___,___ ;
	FRQ         ___,___,___,___,___,___,___,___ ;
	GTM         ___,___,___,___,___,255,___,___
	VOL         ___,___,___,___,___,255,___,___
	INS         ___,___,___,___,___,005,___,___
	FRQ         ___,___,___,___,___,As2,___,Cn3 ;
	FRQ         ___,___,___,___,___,___,___,___ ;
	GTM         ___,___,___,___,___,001,___,___
	VOL         ___,___,___,___,___,230,___,___
	INS         ___,___,___,___,___,089,___,___
	FRQ         ___,___,___,___,___,Cn7,___,___ ;
	GTM         ___,___,___,___,___,255,___,___
	VOL         ___,___,___,___,___,255,___,___
	INS         ___,___,___,___,___,005,___,___
	FRQ         ___,___,___,___,___,As2,___,Cn2 ;
	DEL         ___,___,___,___,___,___,001,___
	FRQ         ___,___,___,En4,Gn4,As2,Gn4,Cn2 ;
	FRQ         ___,___,___,___,___,___,___,___ ;
	GTM         ___,___,___,___,___,001,___,___
	VOL         ___,___,___,___,___,230,___,___
	INS         ___,___,___,___,___,089,___,___
	FRQ         ___,___,___,___,___,Cn7,___,___ ;
	FRQ         ___,___,___,___,___,Cn7,___,___ ;
	GTM         ___,___,___,___,___,255,___,___
	VOL         ___,___,___,___,___,255,___,___
	INS         ___,___,___,___,___,005,___,___
	DEL         ___,___,___,___,___,___,001,___
	FRQ         ___,___,___,Fn4,An4,As2,An4,Cn3 ;
	FRQ         ___,___,___,___,___,___,___,___ ;
	GTM         ___,___,___,___,___,001,___,___
	VOL         ___,___,___,___,___,230,___,___
	INS         ___,___,___,___,___,089,___,___
	FRQ         ___,___,___,___,___,Cn7,___,___ ;
	GTM         ___,___,___,___,___,255,___,___
	VOL         ___,___,___,___,___,255,___,___
	INS         ___,___,___,___,___,005,___,___
	FRQ         ___,___,___,___,___,As2,___,Cn2 ;
	DEL         ___,___,___,___,___,___,001,___
	PCM         $84
	FRQ         Gn3,Cn5,An4,En4,Gn4,An2,Gn4,Cn2 ;
	FRQ         ___,___,___,___,___,___,___,___ ;
	GTM         ___,___,___,___,___,001,___,___
	VOL         ___,___,___,___,___,230,___,___
	INS         ___,___,___,___,___,089,___,___
	FRQ         ___,___,___,___,___,Cn7,___,___ ;
	FRQ         ___,___,___,___,___,Cn7,___,___ ;
	GTM         ___,___,___,___,___,255,___,___
	VOL         ___,___,___,___,___,255,___,___
	INS         ___,___,___,___,___,005,___,___
	FRQ         ___,___,___,___,___,An2,___,Cn3 ;
	FRQ         ___,___,___,___,___,___,___,___ ;
	GTM         ___,___,___,___,___,001,___,___
	VOL         ___,___,___,___,___,230,___,___
	INS         ___,___,___,___,___,089,___,___
	FRQ         ___,___,___,___,___,Cn7,___,___ ;
	GTM         ___,___,___,___,___,255,___,___
	VOL         ___,___,___,___,___,255,___,___
	INS         ___,___,___,___,___,005,___,___
	FRQ         ___,___,___,___,___,An2,___,Cn2 ;
	DEL         ___,___,___,___,___,___,001,___
	FRQ         ___,___,___,An4,Cn5,An2,Cn5,Cn2 ;
	FRQ         ___,___,___,___,___,___,___,___ ;
	GTM         ___,___,___,___,___,001,___,___
	VOL         ___,___,___,___,___,230,___,___
	INS         ___,___,___,___,___,089,___,___
	FRQ         ___,___,___,___,___,Cn7,___,___ ;
	FRQ         ___,___,___,___,___,Cn7,___,Cn2 ;
	GTM         ___,___,___,___,___,255,___,___
	VOL         ___,___,___,___,___,255,___,___
	INS         ___,___,___,___,___,005,___,___
	FRQ         ___,___,___,___,___,An2,___,Cn3 ;
	FRQ         ___,___,___,___,___,___,___,Cn3 ;
	GTM         ___,___,___,___,___,001,___,___
	VOL         ___,___,___,___,___,230,___,___
	INS         ___,___,___,___,___,089,___,___
	FRQ         ___,___,___,___,___,Cn7,___,___ ;
	GTM         ___,___,___,___,___,255,___,___
	VOL         ___,___,___,___,___,255,___,___
	INS         ___,___,___,___,___,005,___,___
	FRQ         ___,___,___,___,___,An2,___,___ ;
	DEL         ___,___,___,___,___,___,001,___
	PCM         $83
	FRQ         Fn3,As3,Dn4,___,Dn5,As2,Dn5,Cn2 ;
	DEL         ___,___,___,___,___,___,001,___
	FRQ         ___,___,___,___,Cn5,___,Cn5,___ ;
	GTM         ___,___,___,___,___,001,___,___
	VOL         ___,___,___,___,___,230,___,___
	INS         ___,___,___,___,___,089,___,___
	DEL         ___,___,___,___,___,___,001,___
	FRQ         ___,___,___,Dn5,An4,Cn7,An4,Cn2 ;
	DEL         ___,___,___,___,___,___,001,___
	FRQ         ___,___,___,Cn5,Cn5,Cn7,Cn5,___ ;
	GTM         ___,___,___,___,___,255,___,___
	VOL         ___,___,___,___,___,255,___,___
	INS         ___,___,___,___,___,005,___,___
	DEL         ___,___,___,___,___,___,001,___
	FRQ         ___,___,___,An4,An4,As2,An4,Cn3 ;
	DEL         ___,___,___,___,___,___,001,___
	FRQ         ___,___,___,Cn5,Gn4,___,Gn4,___ ;
	GTM         ___,___,___,___,___,001,___,___
	VOL         ___,___,___,___,___,230,___,___
	INS         ___,___,___,___,___,089,___,___
	DEL         ___,___,___,___,___,___,001,___
	FRQ         ___,___,___,An4,An4,Cn7,An4,___ ;
	GTM         ___,___,___,___,___,255,___,___
	VOL         ___,___,___,___,___,255,___,___
	INS         ___,___,___,___,___,005,___,___
	DEL         ___,___,___,___,___,___,001,___
	FRQ         ___,___,___,Gn4,Gn4,As2,Gn4,Cn2 ;
	DEL         ___,___,___,___,___,___,001,___
	FRQ         ___,___,___,An4,Fn4,As2,Fn4,Cn2 ;
	FRQ         ___,___,___,Gn4,___,___,___,___ ;
	GTM         ___,___,___,___,___,001,___,___
	VOL         ___,___,___,___,___,230,___,___
	INS         ___,___,___,___,___,089,___,___
	DEL         ___,___,___,___,___,___,001,___
	FRQ         ___,___,___,Fn4,Gn4,Cn7,Gn4,___ ;
	DEL         ___,___,___,___,___,___,001,___
	FRQ         ___,___,___,___,An4,Cn7,An4,___ ;
	GTM         ___,___,___,___,___,255,___,___
	VOL         ___,___,___,___,___,255,___,___
	INS         ___,___,___,___,___,005,___,___
	DEL         ___,___,___,___,___,___,001,___
	FRQ         ___,___,___,Gn4,Dn4,As2,Dn4,Cn3 ;
	FRQ         ___,___,___,An4,___,___,___,___ ;
	GTM         ___,___,___,___,___,001,___,___
	VOL         ___,___,___,___,___,230,___,___
	INS         ___,___,___,___,___,089,___,___
	DEL         ___,___,___,___,___,___,001,___
	FRQ         ___,___,___,Dn4,En4,Cn7,En4,___ ;
	GTM         ___,___,___,___,___,255,___,___
	VOL         ___,___,___,___,___,255,___,___
	INS         ___,___,___,___,___,005,___,___
	DEL         ___,___,___,___,___,___,001,___
	FRQ         ___,___,___,___,Fn4,As2,Fn4,Cn2 ;
	DEL         ___,___,___,___,___,___,001,___
	PCM         $84
	FRQ         Gn3,Cn4,En4,En4,Cn5,An2,Cn5,Cn2 ;
	DEL         ___,___,___,___,___,___,001,___
	FRQ         ___,___,___,Fn4,Dn5,___,Dn5,___ ;
	GTM         ___,___,___,___,___,001,___,___
	VOL         ___,___,___,___,___,230,___,___
	INS         ___,___,___,___,___,089,___,___
	DEL         ___,___,___,___,___,___,001,___
	FRQ         ___,___,___,Cn5,Gn4,Cn7,Gn4,___ ;
	DEL         ___,___,___,___,___,___,001,___
	FRQ         ___,___,___,Dn5,An4,Cn7,An4,___ ;
	GTM         ___,___,___,___,___,255,___,___
	VOL         ___,___,___,___,___,255,___,___
	INS         ___,___,___,___,___,005,___,___
	DEL         ___,___,___,___,___,___,001,___
	FRQ         ___,___,___,Gn4,Fn4,An2,Fn4,Cn3 ;
	DEL         ___,___,___,___,___,___,001,___
	FRQ         ___,___,___,An4,Gn4,___,Gn4,___ ;
	GTM         ___,___,___,___,___,001,___,___
	VOL         ___,___,___,___,___,230,___,___
	INS         ___,___,___,___,___,089,___,___
	DEL         ___,___,___,___,___,___,001,___
	FRQ         ___,___,___,Fn4,Cn4,Cn7,Cn4,___ ;
	GTM         ___,___,___,___,___,255,___,___
	VOL         ___,___,___,___,___,255,___,___
	INS         ___,___,___,___,___,005,___,___
	DEL         ___,___,___,___,___,___,001,___
	FRQ         ___,___,___,Gn4,Dn4,An2,Dn4,Cn2 ;
	DEL         ___,___,___,___,___,___,001,___
	FRQ         ___,___,___,Cn4,Cn4,An2,Cn4,Cn2 ;
	FRQ         ___,___,___,Dn4,___,___,___,___ ;
	GTM         ___,___,___,___,___,001,___,___
	VOL         ___,___,___,___,___,230,___,___
	INS         ___,___,___,___,___,089,___,___
	FRQ         ___,___,___,Cn4,___,Cn7,___,___ ;
	FRQ         ___,___,___,___,___,Cn7,___,___ ;
	GTM         ___,___,___,___,___,255,___,___
	VOL         ___,___,___,___,___,255,___,___
	INS         ___,___,___,___,___,005,___,___
	FRQ         ___,___,___,___,___,An2,___,Cn3 ;
	FRQ         ___,___,___,___,___,___,___,___ ;
	GTM         ___,___,___,___,___,001,___,___
	VOL         ___,___,___,___,___,230,___,___
	INS         ___,___,___,___,___,089,___,___
	FRQ         ___,___,___,___,___,Cn7,___,___ ;
	GTM         ___,___,___,___,___,255,___,___
	VOL         ___,___,___,___,___,255,___,___
	INS         ___,___,___,___,___,005,___,___
	FRQ         ___,___,___,___,___,An2,___,Cn2 ;
	DEL         ___,___,___,___,___,___,001,___
	PCM         $83
	FRQ         Fn3,As3,Dn4,___,Dn4,As2,Dn4,Cn2 ;
	FRQ         ___,___,___,___,___,___,___,___ ;
	GTM         ___,___,___,___,___,001,___,___
	VOL         ___,___,___,___,___,230,___,___
	INS         ___,___,___,___,___,089,___,___
	DEL         ___,___,___,___,___,___,001,___
	FRQ         ___,___,___,Dn4,En4,Cn7,En4,___ ;
	FRQ         ___,___,___,___,___,Cn7,___,___ ;
	GTM         ___,___,___,___,___,255,___,___
	VOL         ___,___,___,___,___,255,___,___
	INS         ___,___,___,___,___,005,___,___
	DEL         ___,___,___,___,___,___,001,___
	FRQ         ___,___,___,En4,Fn4,As2,Fn4,Cn3 ;
	FRQ         ___,___,___,___,___,___,___,___ ;
	GTM         ___,___,___,___,___,001,___,___
	VOL         ___,___,___,___,___,230,___,___
	INS         ___,___,___,___,___,089,___,___
	DEL         ___,___,___,___,___,___,001,___
	FRQ         ___,___,___,Fn4,As4,Cn7,As4,___ ;
	GTM         ___,___,___,___,___,255,___,___
	VOL         ___,___,___,___,___,255,___,___
	INS         ___,___,___,___,___,005,___,___
	FRQ         ___,___,___,___,___,As2,___,Cn2 ;
	FRQ         ___,___,___,As4,___,As2,___,Cn2 ;
	FRQ         ___,___,___,___,___,___,___,___ ;
	GTM         ___,___,___,___,___,001,___,___
	VOL         ___,___,___,___,___,230,___,___
	INS         ___,___,___,___,___,089,___,___
	FRQ         ___,___,___,___,___,Cn7,___,___ ;
	FRQ         ___,___,___,___,___,Cn7,___,___ ;
	GTM         ___,___,___,___,___,255,___,___
	VOL         ___,___,___,___,___,255,___,___
	INS         ___,___,___,___,___,005,___,___
	DEL         ___,___,___,___,___,___,001,___
	FRQ         ___,___,___,___,An4,As2,An4,Cn3 ;
	FRQ         ___,___,___,___,___,___,___,___ ;
	GTM         ___,___,___,___,___,001,___,___
	VOL         ___,___,___,___,___,230,___,___
	INS         ___,___,___,___,___,089,___,___
	DEL         ___,___,___,___,___,___,001,___
	FRQ         ___,___,___,An4,As4,Cn7,As4,___ ;
	GTM         ___,___,___,___,___,255,___,___
	VOL         ___,___,___,___,___,255,___,___
	INS         ___,___,___,___,___,005,___,___
	FRQ         ___,___,___,___,___,As2,___,Cn2 ;
	DEL         ___,___,___,___,___,___,001,___
	PCM         $84
	FRQ         Gn3,Cn4,En4,As4,En4,An2,En4,Cn2 ;
	FRQ         ___,___,___,___,___,___,___,___ ;
	GTM         ___,___,___,___,___,001,___,___
	VOL         ___,___,___,___,___,230,___,___
	INS         ___,___,___,___,___,089,___,___
	DEL         ___,___,___,___,___,___,001,___
	FRQ         ___,___,___,En4,Fn4,Cn7,Fn4,___ ;
	FRQ         ___,___,___,___,___,Cn7,___,___ ;
	GTM         ___,___,___,___,___,255,___,___
	VOL         ___,___,___,___,___,255,___,___
	INS         ___,___,___,___,___,005,___,___
	DEL         ___,___,___,___,___,___,001,___
	FRQ         ___,___,___,Fn4,Gn4,An2,Gn4,Cn3 ;
	FRQ         ___,___,___,___,___,___,___,___ ;
	GTM         ___,___,___,___,___,001,___,___
	VOL         ___,___,___,___,___,230,___,___
	INS         ___,___,___,___,___,089,___,___
	DEL         ___,___,___,___,___,___,001,___
	FRQ         ___,___,___,Gn4,Cn5,Cn7,Cn5,___ ;
	GTM         ___,___,___,___,___,255,___,___
	VOL         ___,___,___,___,___,255,___,___
	INS         ___,___,___,___,___,005,___,___
	FRQ         ___,___,___,___,___,An2,___,Cn2 ;
	FRQ         ___,___,___,Cn5,___,An2,___,Cn2 ;
	FRQ         ___,___,___,___,___,___,___,___ ;
	GTM         ___,___,___,___,___,001,___,___
	VOL         ___,___,___,___,___,230,___,___
	INS         ___,___,___,___,___,089,___,___
	FRQ         ___,___,___,___,___,Cn7,___,___ ;
	FRQ         ___,___,___,___,___,Cn7,___,___ ;
	GTM         ___,___,___,___,___,255,___,___
	VOL         ___,___,___,___,___,255,___,___
	INS         ___,___,___,___,___,005,___,___
	FRQ         ___,___,___,___,___,An2,___,Cn3 ;
	FRQ         ___,___,___,___,___,___,___,___ ;
	GTM         ___,___,___,___,___,001,___,___
	VOL         ___,___,___,___,___,230,___,___
	INS         ___,___,___,___,___,089,___,___
	FRQ         ___,___,___,___,___,Cn7,___,___ ;
	GTM         ___,___,___,___,___,255,___,___
	VOL         ___,___,___,___,___,255,___,___
	INS         ___,___,___,___,___,005,___,___
	FRQ         ___,___,___,___,___,An2,___,Cn2 ;
	DEL         ___,___,___,___,___,___,001,___
	PCM         $83
	FRQ         Fn3,As3,Dn4,As3,Dn4,As2,Dn4,Cn2 ;
	FRQ         ___,___,___,___,___,___,___,___ ;
	GTM         ___,___,___,___,___,001,___,___
	VOL         ___,___,___,___,___,230,___,___
	INS         ___,___,___,___,___,089,___,___
	DEL         ___,___,___,___,___,___,001,___
	FRQ         ___,___,___,___,Fn3,Cn7,Fn3,___ ;
	DEL         ___,___,___,___,___,___,001,___
	FRQ         ___,___,___,___,As3,Cn7,As3,___ ;
	GTM         ___,___,___,___,___,255,___,___
	VOL         ___,___,___,___,___,255,___,___
	INS         ___,___,___,___,___,005,___,___
	DEL         ___,___,___,___,___,___,001,___
	FRQ         ___,___,___,Fn3,Dn4,As2,Dn4,Cn3 ;
	DEL         ___,___,___,___,___,___,001,___
	FRQ         ___,___,___,As3,En4,___,En4,___ ;
	GTM         ___,___,___,___,___,001,___,___
	VOL         ___,___,___,___,___,230,___,___
	INS         ___,___,___,___,___,089,___,___
	FRQ         ___,___,___,Dn4,___,Cn7,___,___ ;
	GTM         ___,___,___,___,___,255,___,___
	VOL         ___,___,___,___,___,255,___,___
	INS         ___,___,___,___,___,005,___,___
	DEL         ___,___,___,___,___,___,001,___
	FRQ         ___,___,___,En4,Fn4,As2,Fn4,Cn2 ;
	FRQ         ___,___,___,___,___,As2,___,Cn2 ;
	FRQ         ___,___,___,Fn4,___,___,___,___ ;
	GTM         ___,___,___,___,___,001,___,___
	VOL         ___,___,___,___,___,230,___,___
	INS         ___,___,___,___,___,089,___,___
	FRQ         ___,___,___,___,___,Cn7,___,___ ;
	FRQ         ___,___,___,___,___,Cn7,___,___ ;
	GTM         ___,___,___,___,___,255,___,___
	VOL         ___,___,___,___,___,255,___,___
	INS         ___,___,___,___,___,005,___,___
	DEL         ___,___,___,___,___,___,001,___
	FRQ         ___,___,___,Dn4,Fn4,As2,Fn4,Cn3 ;
	DEL         ___,___,___,___,___,___,001,___
	FRQ         ___,___,___,En4,Gn4,___,Gn4,___ ;
	GTM         ___,___,___,___,___,001,___,___
	VOL         ___,___,___,___,___,230,___,___
	INS         ___,___,___,___,___,089,___,___
	FRQ         ___,___,___,___,___,Cn7,___,___ ;
	GTM         ___,___,___,___,___,255,___,___
	VOL         ___,___,___,___,___,255,___,___
	INS         ___,___,___,___,___,005,___,___
	FRQ         ___,___,___,___,___,As2,___,Cn2 ;
	DEL         ___,___,___,___,___,___,001,___
	PCM         $85
	FRQ         Cn4,Fn4,Gn4,Fn4,Gn4,Cn3,Gn4,Cn2 ;
	FRQ         ___,___,___,___,___,___,___,___ ;
	GTM         ___,___,___,___,___,001,___,___
	VOL         ___,___,___,___,___,230,___,___
	INS         ___,___,___,___,___,089,___,___
	FRQ         ___,___,___,___,___,Cn7,___,___ ;
	FRQ         ___,___,___,___,___,Cn7,___,___ ;
	GTM         ___,___,___,___,___,255,___,___
	VOL         ___,___,___,___,___,255,___,___
	INS         ___,___,___,___,___,005,___,___
	FRQ         Cn4,Fn4,Gn4,___,___,Cn3,___,Cn2 ;
	FRQ         ___,___,___,___,___,___,___,___ ;
	GTM         ___,___,___,___,___,001,___,___
	VOL         ___,___,___,___,___,230,___,___
	INS         ___,___,___,___,___,089,___,___
	FRQ         ___,___,___,___,___,Cn7,___,___ ;
	GTM         ___,___,___,___,___,255,___,___
	VOL         ___,___,___,___,___,255,___,___
	INS         ___,___,___,___,___,005,___,___
	FRQ         ___,___,___,___,___,Cn3,___,___ ;
	PCM         $85
	FRQ         Cn4,Fn4,Gn4,___,___,Cn3,___,Cn2 ;
	FRQ         ___,___,___,___,___,___,___,___ ;
	GTM         ___,___,___,___,___,001,___,___
	VOL         ___,___,___,___,___,230,___,___
	INS         ___,___,___,___,___,089,___,___
	FRQ         ___,___,___,___,___,Cn7,___,___ ;
	FRQ         ___,___,___,___,___,Cn7,___,___ ;
	GTM         ___,___,___,___,___,255,___,___
	VOL         ___,___,___,___,___,255,___,___
	INS         ___,___,___,___,___,005,___,___
	FRQ         Cn4,Fn4,Gn4,___,___,Cn3,___,Cn3 ;
	FRQ         ___,___,___,___,___,___,___,Cn3 ;
	GTM         ___,___,___,___,___,001,___,___
	VOL         ___,___,___,___,___,230,___,___
	INS         ___,___,___,___,___,089,___,___
	FRQ         Cn4,Fn4,Gn4,___,___,Cn7,___,___ ;
	GTM         ___,___,___,___,___,255,___,___
	VOL         ___,___,___,___,___,255,___,___
	INS         ___,___,___,___,___,005,___,___
	FRQ         ___,___,___,___,___,Cn3,___,___ ;
	DEL         ___,___,___,___,___,___,001,___
	PCM         $86
	FRQ         Cn4,En4,Gn4,En4,Gn4,Cn3,Gn4,Cn2 ;
	FRQ         ___,___,___,___,___,___,___,___ ;
	GTM         ___,___,___,___,___,001,___,___
	VOL         ___,___,___,___,___,230,___,___
	INS         ___,___,___,___,___,089,___,___
	FRQ         ___,___,___,___,___,Cn7,___,___ ;
	FRQ         ___,___,___,___,___,Cn7,___,___ ;
	GTM         ___,___,___,___,___,255,___,___
	VOL         ___,___,___,___,___,255,___,___
	INS         ___,___,___,___,___,005,___,___
	FRQ         Cn4,En4,Gn4,___,___,Cn3,___,Cn2 ;
	FRQ         ___,___,___,___,___,___,___,___ ;
	GTM         ___,___,___,___,___,001,___,___
	VOL         ___,___,___,___,___,230,___,___
	INS         ___,___,___,___,___,089,___,___
	FRQ         ___,___,___,___,___,Cn7,___,___ ;
	GTM         ___,___,___,___,___,255,___,___
	VOL         ___,___,___,___,___,255,___,___
	INS         ___,___,___,___,___,005,___,___
	FRQ         ___,___,___,___,___,Cn3,___,___ ;
	PCM         $86
	FRQ         Cn4,En4,Gn4,___,___,Cn3,___,Cn2 ;
	FRQ         ___,___,___,___,___,___,___,___ ;
	FRQ         ___,___,___,___,___,Q__,___,___ ;
	FRQ         ___,___,___,___,___,___,___,___ ;
	FRQ         Cn4,En4,Gn4,___,___,Cn3,___,Cn2 ;
	FRQ         ___,___,___,___,___,___,___,Cn3 ;
	FRQ         ___,___,___,___,___,Q__,___,Cn3 ;
	FRQ         ___,___,___,___,___,___,___,Cn3 ;
	SPEED       013
	DEL         ___,___,___,___,___,___,001,___
	PCM         $86
	FRQ         Cn4,En4,Gn4,En4,Gn4,Cn3,Gn4,Cn2 ;
	FRQ         ___,___,___,___,___,___,___,___ ;
	FRQ         ___,___,___,Q__,Q__,Q__,Q__,___ ;
	FRQ         ___,___,___,___,___,___,___,___ ;
	SPEED       014
	DEL         ___,___,___,___,___,___,001,___
	PCM         $86
	FRQ         Cn4,En4,Gn4,En4,Gn4,Cn3,Gn4,Cn2 ;
	FRQ         ___,___,___,___,___,___,___,___ ;
	FRQ         ___,___,___,Q__,Q__,Q__,Q__,___ ;
	FRQ         ___,___,___,___,___,___,___,___ ;
	SPEED       015
	DEL         ___,___,___,___,___,___,001,___
	PCM         $86
	FRQ         Cn4,En4,Gn4,En4,Gn4,Cn3,Gn4,Cn2 ;
	FRQ         ___,___,___,___,___,___,___,___ ;
	FRQ         ___,___,___,Q__,Q__,Q__,Q__,___ ;
	FRQ         ___,___,___,___,___,___,___,___ ;
	SPEED       016
	DEL         ___,___,___,___,___,___,001,___
	PCM         $86
	FRQ         Cn4,En4,Gn4,En4,Gn4,Cn3,Gn4,Cn2 ;
	FRQ         ___,___,___,___,___,___,___,___ ;
	FRQ         ___,___,___,Q__,Q__,Q__,Q__,Q__ ;
	FRQ         ___,___,___,___,___,___,___,___ ;
	DEL         ___,___,___,___,___,___,001,___
	PCM         $86
	FRQ         Cn4,En4,Gn4,En4,Gn4,Cn3,Gn4,Cn2 ;
	FRQ         ___,___,___,___,___,___,___,___ ;
	FRQ         ___,___,___,___,___,___,___,___ ;
	FRQ         ___,___,___,___,___,___,___,___ ;
	PCM         $86
	FRQ         ___,___,___,___,___,___,___,___ ;
	FRQ         ___,___,___,___,___,___,___,___ ;
	FRQ         ___,___,___,___,___,___,___,___ ;
	FRQ         ___,___,___,___,___,___,___,___ ;
	PCM         $86
	FRQ         ___,___,___,___,___,___,___,___ ;
	FRQ         ___,___,___,___,___,___,___,___ ;
	FRQ         ___,___,___,___,___,___,___,___ ;
	FRQ         ___,___,___,___,___,___,___,___ ;
	VOL         255,255,255,255,255,255,255,255
	SPEED       012
	DEL         ___,___,___,___,___,___,001,___
	FRQ         Cn3,En3,Gn3,Cn2,Cn3,Cn3,Cn3,Cn2 ;
	FRQ         ___,___,___,___,___,___,___,___ ;
	DEL         ___,___,___,___,___,___,001,___
	FRQ         Cn3,En3,Gn3,Cn2,Cn3,Cn3,Cn3,Cn2 ;
	FRQ         ___,___,___,___,___,___,___,___ ;
	DEL         ___,___,___,___,___,___,001,___
	FRQ         Cn3,En3,Gn3,Cn2,Cn3,Cn3,Cn3,Cn2 ;
	FRQ         ___,___,___,___,___,___,___,___ ;
	SPEED       120
	DEL         ___,___,___,___,___,___,001,___
	FRQ         Cn3,En3,Gn3,Cn2,Cn3,Cn3,Cn3,Cn2 ;
	FRQ         ___,___,___,___,___,___,___,___ ;
	FRQ         ___,___,___,___,___,___,___,___ ;
	SPEED       005
	FRQ         ___,___,___,___,___,___,___,Cn3 ;
	FRQ         ___,___,___,___,___,___,___,Cn3 ;
	FRQ         ___,___,___,___,___,___,___,Cn2 ;
	SPEED       012
	FRQ         Q__,Q__,Q__,Q__,Q__,Q__,Q__,___ ;
	FRQ         ___,___,___,___,___,___,___,___ ;
	RET
.endproc
