	.include "song.inc"
	.segment "BANK0"
	.export lastscene
.proc lastscene
song015_start:
	INIT        %11111111
	TEMPO       001
	TVOL        250
	SPEED       011
	PIT         011,013,011,013,015,017,011,013
	PITDEP      120,120,100,120,120,055,120,120
	PITRAT      140,142,133,135,145,062,140,140
	INS         011,011,011,011,017,017,011,011
	VOL         245,230,245,225,245,230,245,235
	LFO         ___,001,___,001,___,001,___,___
	PAN         L__,___,L__,___,___,___,__R,__R
	DTN         ___,018,004,022,008,032,036,032
	VOL         217,190,217,201,203,203,217,217
	DEL         ___,___,001,___,___,___,001,___
	FRQ         Gn5,___,Gn4,___,Gn4,___,Gn5,Gn4 ;
	VOL         220,211,220,203,207,206,220,220
	FRQ         ___,Gn5,___,___,___,Gn4,___,___ ;
	VOL         223,214,223,205,210,210,223,223
	FRQ         ___,___,___,Gn4,Dn5,___,___,___ ;
	VOL         225,215,225,210,215,215,225,225
	FRQ         ___,___,___,___,___,Dn5,___,___ ;
	VOL         227,217,227,213,220,217,227,227
	FRQ         ___,___,Dn5,___,Cn5,___,___,Dn5 ;
	VOL         232,220,232,215,225,220,232,232
	FRQ         ___,___,___,___,___,Cn5,___,___ ;
	VOL         235,223,235,218,230,222,235,235
	FRQ         ___,___,___,Dn5,Dn5,___,___,___ ;
	VOL         237,225,237,220,235,225,237,237
	FRQ         ___,___,___,___,___,Dn5,___,___ ;
	VOL         240,227,240,222,240,227,240,240
	FRQ         ___,Gn5,Cn5,___,Gn4,___,___,Cn5 ;
	VOL         245,230,245,225,245,230,245,245
	FRQ         ___,___,___,___,___,Gn4,___,___ ;
	FRQ         ___,___,___,Cn5,Dn5,___,___,___ ;
	FRQ         ___,___,___,___,___,Dn5,___,___ ;
	DEL         ___,___,___,___,___,___,001,___
	FRQ         An5,___,Dn5,___,As4,___,An5,Dn5 ;
	FRQ         ___,An5,___,___,___,As4,___,___ ;
	DEL         ___,___,___,___,___,___,001,___
	FRQ         As5,___,___,Dn5,Dn5,___,As5,___ ;
	FRQ         ___,As5,___,___,___,Dn5,___,___ ;
	DEL         ___,___,___,___,___,___,001,___
	FRQ         An5,___,Fs4,___,Fs4,___,An5,Fs4 ;
	FRQ         ___,An5,___,___,___,Fs4,___,___ ;
	FRQ         ___,___,___,Fs4,Dn5,___,___,___ ;
	FRQ         ___,___,___,___,___,Dn5,___,___ ;
	FRQ         ___,An5,Dn5,___,Cn5,___,___,Dn5 ;
	FRQ         ___,___,___,___,___,Cn5,___,___ ;
	FRQ         ___,As5,___,Dn5,Dn5,___,___,___ ;
	FRQ         ___,___,___,___,___,Dn5,___,___ ;
	FRQ         ___,An5,Cn5,___,Fs4,___,___,Cn5 ;
	FRQ         ___,___,___,___,___,Fs4,___,___ ;
	FRQ         ___,___,___,Cn5,Dn5,___,___,___ ;
	FRQ         ___,___,___,___,___,Dn5,___,___ ;
	DEL         ___,___,___,___,___,___,001,___
	FRQ         As5,___,Dn5,___,As4,___,As5,Dn5 ;
	FRQ         ___,As5,___,___,___,As4,___,___ ;
	DEL         ___,___,___,___,___,___,001,___
	FRQ         Cn6,___,___,Dn5,Dn5,___,Cn6,___ ;
	FRQ         ___,Cn6,___,___,___,Dn5,___,___ ;
	DEL         ___,___,___,___,___,___,001,___
	FRQ         As5,___,Fn4,___,Fn4,___,As5,Fn4 ;
	FRQ         ___,As5,___,___,___,Fn4,___,___ ;
	FRQ         ___,___,___,Fn4,Dn5,___,___,___ ;
	FRQ         ___,___,___,___,___,Dn5,___,___ ;
	FRQ         ___,As5,Dn5,___,Cn5,___,___,Dn5 ;
	PCM         $87
	FRQ         ___,___,___,___,___,Cn5,___,___ ;
	SPEED       013
	FRQ         ___,Cn6,___,Dn5,Dn5,___,___,___ ;
	FRQ         ___,___,___,___,___,Dn5,___,___ ;
	SPEED       014
	FRQ         ___,As5,Cn5,___,Fn4,___,___,Cn5 ;
	FRQ         ___,___,___,___,___,Fn4,___,___ ;
	SPEED       015
	FRQ         ___,___,___,Cn5,Dn5,___,___,___ ;
	FRQ         ___,___,___,___,___,Dn5,___,___ ;
	SPEED       016
	FRQ         ___,___,Dn5,___,As4,___,___,Dn5 ;
	FRQ         ___,___,___,___,___,As4,___,___ ;
	FRQ         ___,___,___,Dn5,Dn5,___,___,___ ;
	SPEED       008
	FRQ         ___,___,___,___,___,Dn5,___,___ ;
	DEL         ___,___,___,___,___,___,001,___
	FRQ         En5,___,Cn5,___,En5,___,En5,Cn5 ;
	FRQ         ___,Gn5,___,Cn5,___,___,___,___ ;
	DEL         ___,___,___,___,___,___,001,___
	FRQ         As5,___,___,___,___,En5,As5,___ ;
	FRQ         Cn6,___,___,___,___,___,___,Cn6 ;
	FRQ         ___,___,___,___,___,___,___,___ ;
	FRQ         ___,___,___,___,___,___,___,___ ;
	FRQ         ___,___,___,___,___,___,___,___ ;
	FRQ         ___,___,___,___,___,___,___,___ ;
	FRQ         ___,___,___,___,___,___,___,___ ;
	FRQ         ___,___,___,___,___,___,___,___ ;
	FRQ         ___,___,___,___,___,___,___,___ ;
	FRQ         ___,___,___,___,___,___,___,___ ;
	FRQ         ___,___,___,___,___,___,___,___ ;
	FRQ         ___,___,___,___,___,___,___,___ ;
	FRQ         ___,___,___,___,___,___,___,___ ;
	FRQ         ___,___,___,___,___,___,___,___ ;
	RET
.endproc
