	.include "song.inc"
	.segment "BANK0"
	.export lastboss
.proc lastboss
song007_start:
	INIT        %11111111
	TEMPO       001
	TVOL        250
	SPEED       004
	PIT         019,015,017,011,015,015,004,004
	PITDEP      100,100,100,120,120,120,160,160
	PITRAT      150,150,150,145,145,145,100,100
	PAN         ___,___,___,___,___,___,___,___
	INS         086,086,086,086,086,086,001,001
	VOL         248,248,230,230,230,236,255,255
	PAN         L__,__R,___,___,___,___,L__,__R
	DTN         ___,054,___,___,___,___,000,064
	LFO         ___,001,___,___,___,___,___,___
	FRQ         ___,___,___,___,___,___,Cn2,Cn2 ;
	FRQ         ___,___,___,___,___,___,___,___ ;
	DEL         ___,___,___,___,___,___,001,___
	FRQ         ___,___,___,___,___,___,Cn3,Cn3 ;
	FRQ         ___,___,___,___,___,___,___,___ ;
	DEL         ___,___,___,___,___,___,001,___
	FRQ         ___,___,___,___,___,___,Cn3,Cn3 ;
	FRQ         ___,___,___,___,___,___,___,___ ;
	DEL         ___,___,___,___,___,___,001,___
	FRQ         ___,___,___,___,___,___,Cn3,Cn3 ;
	FRQ         ___,___,___,___,___,___,___,___ ;
	DEL         ___,___,___,___,___,___,001,___
	FRQ         ___,___,___,___,___,___,Cn3,Cn3 ;
	FRQ         ___,___,___,___,___,___,___,___ ;
	DEL         ___,___,___,___,___,___,001,___
	FRQ         ___,___,___,___,___,___,Cn3,Cn3 ;
	FRQ         ___,___,___,___,___,___,___,___ ;
	INS         ___,___,___,___,___,___,005,___
	PAN         ___,___,___,___,___,___,___,_C_
	PIT         ___,___,___,___,___,___,000,___
	PITDEP      ___,___,___,___,___,___,000,___
	PITRAT      ___,___,___,___,___,___,000,___
song007_jmp000:
	DEL         ___,___,___,___,___,___,001,___
	FRQ         Cn2,Cn2,Gn4,Cn5,Ds5,Cn3,Cn3,Cn2 ;
	FRQ         ___,___,___,___,___,___,___,___ ;
	DEL         ___,___,___,___,___,___,001,___
	FRQ         ___,___,___,___,___,Gn3,Gn3,___ ;
	FRQ         ___,___,___,___,___,___,___,___ ;
	DEL         ___,___,___,___,___,___,001,___
	FRQ         ___,___,___,___,___,Cn3,Cn3,Cn2 ;
	FRQ         ___,___,___,___,___,___,___,___ ;
	DEL         ___,___,___,___,___,___,001,___
	FRQ         ___,___,___,___,___,As3,As3,Cn3 ;
	FRQ         ___,___,___,___,___,___,___,___ ;
	DEL         ___,___,___,___,___,___,001,___
	FRQ         ___,___,___,___,___,Cn3,Cn3,___ ;
	FRQ         ___,___,___,___,___,___,___,___ ;
	DEL         ___,___,___,___,___,___,001,___
	FRQ         ___,___,___,___,___,Cn4,Cn4,___ ;
	FRQ         ___,___,___,___,___,___,___,___ ;
	DEL         ___,___,___,___,___,___,001,___
	FRQ         ___,___,___,___,___,Cn3,Cn3,Cn2 ;
	FRQ         ___,___,___,___,___,___,___,___ ;
	DEL         ___,___,___,___,___,___,001,___
	FRQ         ___,___,___,___,___,Gn3,Gn3,___ ;
	FRQ         ___,___,___,___,___,___,___,___ ;
	DEL         ___,___,___,___,___,___,001,___
	FRQ         ___,___,___,___,___,Cn3,Cn3,Cn2 ;
	FRQ         ___,___,___,___,___,___,___,___ ;
	DEL         ___,___,___,___,___,___,001,___
	FRQ         ___,___,___,___,___,As3,As3,Cn3 ;
	FRQ         ___,___,___,___,___,___,___,___ ;
	DEL         ___,___,___,___,___,___,001,___
	FRQ         ___,___,___,___,___,Cn3,Cn3,___ ;
	FRQ         ___,___,___,___,___,___,___,___ ;
	DEL         ___,___,___,___,___,___,001,___
	FRQ         ___,___,___,___,___,Cn4,Cn4,___ ;
	FRQ         ___,___,___,___,___,___,___,___ ;
	DEL         ___,___,___,___,___,___,001,___
	FRQ         Cn2,Cn2,Gn4,As4,Dn5,Cn3,Cn3,Cn2 ;
	FRQ         ___,___,___,___,___,___,___,___ ;
	DEL         ___,___,___,___,___,___,001,___
	FRQ         ___,___,___,___,___,Gn3,Gn3,___ ;
	FRQ         ___,___,___,___,___,___,___,___ ;
	DEL         ___,___,___,___,___,___,001,___
	FRQ         ___,___,___,___,___,Cn3,Cn3,Cn2 ;
	FRQ         ___,___,___,___,___,___,___,___ ;
	DEL         ___,___,___,___,___,___,001,___
	FRQ         ___,___,___,___,___,As3,As3,Cn3 ;
	FRQ         ___,___,___,___,___,___,___,___ ;
	DEL         ___,___,___,___,___,___,001,___
	FRQ         ___,___,___,___,___,Cn3,Cn3,___ ;
	FRQ         ___,___,___,___,___,___,___,___ ;
	DEL         ___,___,___,___,___,___,001,___
	FRQ         ___,___,___,___,___,Cn4,Cn4,___ ;
	FRQ         ___,___,___,___,___,___,___,___ ;
	DEL         ___,___,___,___,___,___,001,___
	FRQ         ___,___,___,___,___,Cn3,Cn3,Cn2 ;
	FRQ         ___,___,___,___,___,___,___,___ ;
	DEL         ___,___,___,___,___,___,001,___
	FRQ         ___,___,___,___,___,Gn3,Gn3,___ ;
	FRQ         ___,___,___,___,___,___,___,___ ;
	DEL         ___,___,___,___,___,___,001,___
	FRQ         ___,___,___,___,___,Cn3,Cn3,Cn2 ;
	FRQ         ___,___,___,___,___,___,___,___ ;
	DEL         ___,___,___,___,___,___,001,___
	FRQ         ___,___,___,___,___,As3,As3,Cn3 ;
	FRQ         ___,___,___,___,___,___,___,___ ;
	DEL         ___,___,___,___,___,___,001,___
	FRQ         ___,___,___,___,___,Cn3,Cn3,Cn2 ;
	FRQ         ___,___,___,___,___,___,___,___ ;
	DEL         ___,___,___,___,___,___,001,___
	FRQ         ___,___,___,___,___,Cn4,Cn4,___ ;
	FRQ         ___,___,___,___,___,___,___,___ ;
	DEL         ___,___,___,___,___,___,001,___
	FRQ         ___,___,An4,Cn5,Fn5,Cn3,Cn3,Cn2 ;
	FRQ         ___,___,___,___,___,___,___,___ ;
	DEL         ___,___,___,___,___,___,001,___
	FRQ         ___,___,___,___,___,Gn3,Gn3,___ ;
	FRQ         ___,___,___,___,___,___,___,___ ;
	DEL         ___,___,___,___,___,___,001,___
	FRQ         ___,___,___,___,___,Cn3,Cn3,Cn2 ;
	FRQ         ___,___,___,___,___,___,___,___ ;
	DEL         ___,___,___,___,___,___,001,___
	FRQ         ___,___,___,___,___,As3,As3,Cn3 ;
	FRQ         ___,___,___,___,___,___,___,___ ;
	DEL         ___,___,___,___,___,___,001,___
	FRQ         ___,___,___,___,___,Cn3,Cn3,___ ;
	FRQ         ___,___,___,___,___,___,___,___ ;
	DEL         ___,___,___,___,___,___,001,___
	FRQ         ___,___,___,___,___,Cn4,Cn4,___ ;
	FRQ         ___,___,___,___,___,___,___,___ ;
	DEL         ___,___,___,___,___,___,001,___
	FRQ         Cn2,Cn2,___,___,___,Cn3,Cn3,Cn2 ;
	FRQ         ___,___,___,___,___,___,___,___ ;
	DEL         ___,___,___,___,___,___,001,___
	FRQ         ___,___,___,___,___,Gn3,Gn3,___ ;
	FRQ         ___,___,___,___,___,___,___,___ ;
	DEL         ___,___,___,___,___,___,001,___
	FRQ         ___,___,___,___,___,Cn3,Cn3,Cn2 ;
	FRQ         ___,___,___,___,___,___,___,___ ;
	DEL         ___,___,___,___,___,___,001,___
	FRQ         ___,___,___,___,___,As3,As3,Cn3 ;
	FRQ         ___,___,___,___,___,___,___,___ ;
	DEL         ___,___,___,___,___,___,001,___
	FRQ         ___,___,___,___,___,Cn3,Cn3,___ ;
	FRQ         ___,___,___,___,___,___,___,___ ;
	DEL         ___,___,___,___,___,___,001,___
	FRQ         ___,___,___,___,___,Cn4,Cn4,___ ;
	FRQ         ___,___,___,___,___,___,___,___ ;
	DEL         ___,___,___,___,___,___,001,___
	FRQ         ___,___,___,___,___,Cn3,Cn3,Cn2 ;
	FRQ         ___,___,___,___,___,___,___,___ ;
	DEL         ___,___,___,___,___,___,001,___
	FRQ         ___,___,___,___,___,Gn3,Gn3,___ ;
	FRQ         ___,___,___,___,___,___,___,___ ;
	DEL         ___,___,___,___,___,___,001,___
	FRQ         ___,___,___,___,___,Cn3,Cn3,Cn2 ;
	FRQ         ___,___,___,___,___,___,___,___ ;
	DEL         ___,___,___,___,___,___,001,___
	FRQ         ___,___,___,___,___,As3,As3,Cn3 ;
	FRQ         ___,___,___,___,___,___,___,___ ;
	DEL         ___,___,___,___,___,___,001,___
	FRQ         ___,___,___,___,___,Cn3,Cn3,Cn3 ;
	FRQ         ___,___,___,___,___,___,___,___ ;
	DEL         ___,___,___,___,___,___,001,___
	FRQ         ___,___,___,___,___,Cn4,Cn4,Cn3 ;
	FRQ         ___,___,___,___,___,___,___,___ ;
	DEL         ___,___,___,___,___,___,001,___
	FRQ         ___,___,___,___,___,Cn3,Cn3,Cn3 ;
	FRQ         ___,___,___,___,___,___,___,___ ;
	DEL         ___,___,___,___,___,___,001,___
	FRQ         ___,___,___,___,___,Gn3,Gn3,Cn3 ;
	FRQ         ___,___,___,___,___,___,___,___ ;
	DEL         ___,___,___,___,___,___,001,___
	FRQ         ___,___,___,___,___,Cn3,Cn3,Cn3 ;
	FRQ         ___,___,___,___,___,___,___,___ ;
	DEL         ___,___,___,___,___,___,001,___
	FRQ         ___,___,___,___,___,As3,As3,Cn3 ;
	FRQ         ___,___,___,___,___,___,___,___ ;
	DEL         ___,___,___,___,___,___,001,___
	FRQ         ___,___,___,___,___,Cn3,Cn3,Cn3 ;
	FRQ         ___,___,___,___,___,___,___,___ ;
	DEL         ___,___,___,___,___,___,001,___
	FRQ         ___,___,___,___,___,Cn4,Cn4,Cn3 ;
	FRQ         ___,___,___,___,___,___,___,___ ;
	LOOP        $01, song007_loop000
	DEL         ___,___,___,___,___,___,001,___
	FRQ         Cn2,Cn2,Q__,Q__,Q__,Cn3,Cn3,Cn2 ;
	FRQ         ___,___,___,___,___,___,___,___ ;
	DEL         ___,___,___,___,___,___,001,___
	FRQ         ___,___,As4,Fn5,As5,Gn3,Gn3,___ ;
	FRQ         ___,___,___,___,___,___,___,___ ;
	DEL         ___,___,___,___,___,___,001,___
	FRQ         ___,___,___,Q__,Q__,Cn3,Cn3,Cn2 ;
	FRQ         ___,___,___,___,___,___,___,___ ;
	PIT         ___,___,044,044,044,___,___,___
	PITDEP      ___,___,255,255,255,___,___,___
	PITRAT      ___,___,002,002,002,___,___,___
	DEL         ___,___,___,___,___,___,001,___
	FRQ         ___,___,As4,Gn5,Cn6,As3,As3,Cn3 ;
	FRQ         ___,___,___,___,___,___,___,___ ;
	DEL         ___,___,___,___,___,___,001,___
	FRQ         ___,___,___,___,___,Cn3,Cn3,___ ;
	FRQ         ___,___,___,___,___,___,___,___ ;
	DEL         ___,___,___,___,___,___,001,___
	FRQ         ___,___,___,___,___,Cn4,Cn4,___ ;
	FRQ         ___,___,___,___,___,___,___,___ ;
	DEL         ___,___,___,___,___,___,001,___
	FRQ         ___,___,___,___,___,Cn3,Cn3,Cn2 ;
	FRQ         ___,___,___,___,___,___,___,___ ;
	DEL         ___,___,___,___,___,___,001,___
	FRQ         ___,___,___,___,___,Gn3,Gn3,___ ;
	FRQ         ___,___,___,___,___,___,___,___ ;
	DEL         ___,___,___,___,___,___,001,___
	FRQ         ___,___,___,___,___,Cn3,Cn3,Cn2 ;
	FRQ         ___,___,___,___,___,___,___,___ ;
	DEL         ___,___,___,___,___,___,001,___
	FRQ         ___,___,___,___,___,As3,As3,Cn3 ;
	FRQ         ___,___,___,___,___,___,___,___ ;
	DEL         ___,___,___,___,___,___,001,___
	FRQ         ___,___,___,___,___,Cn3,Cn3,___ ;
	FRQ         ___,___,___,___,___,___,___,___ ;
	DEL         ___,___,___,___,___,___,001,___
	FRQ         ___,___,___,___,___,Cn4,Cn4,___ ;
	FRQ         ___,___,___,___,___,___,___,___ ;
	PIT         ___,___,017,011,015,___,___,___
	PITDEP      ___,___,100,120,120,___,___,___
	PITRAT      ___,___,145,145,145,___,___,___
	DEL         ___,___,___,___,___,___,001,___
	FRQ         ___,___,Q__,Q__,Q__,Cn3,Cn3,Cn2 ;
	FRQ         ___,___,___,___,___,___,___,___ ;
	DEL         ___,___,___,___,___,___,001,___
	FRQ         ___,___,___,___,___,Gn3,Gn3,___ ;
	FRQ         ___,___,___,___,___,___,___,___ ;
	DEL         ___,___,___,___,___,___,001,___
	FRQ         ___,___,___,___,___,Cn3,Cn3,Cn2 ;
	FRQ         ___,___,___,___,___,___,___,___ ;
	DEL         ___,___,___,___,___,___,001,___
	FRQ         ___,___,___,___,___,As3,As3,Cn3 ;
	FRQ         ___,___,___,___,___,___,___,___ ;
	DEL         ___,___,___,___,___,___,001,___
	FRQ         ___,___,___,___,___,Cn3,Cn3,___ ;
	FRQ         ___,___,___,___,___,___,___,___ ;
	DEL         ___,___,___,___,___,___,001,___
	FRQ         ___,___,___,___,___,Cn4,Cn4,___ ;
	FRQ         ___,___,___,___,___,___,___,___ ;
	DEL         ___,___,___,___,___,___,001,___
	FRQ         ___,___,___,___,___,Cn3,Cn3,Cn2 ;
	FRQ         ___,___,___,___,___,___,___,___ ;
	DEL         ___,___,___,___,___,___,001,___
	FRQ         ___,___,___,___,___,Gn3,Gn3,___ ;
	FRQ         ___,___,___,___,___,___,___,___ ;
	DEL         ___,___,___,___,___,___,001,___
	FRQ         ___,___,___,___,___,Cn3,Cn3,Cn2 ;
	FRQ         ___,___,___,___,___,___,___,___ ;
	DEL         ___,___,___,___,___,___,001,___
	FRQ         ___,___,___,___,___,As3,As3,Cn3 ;
	FRQ         ___,___,___,___,___,___,___,___ ;
	DEL         ___,___,___,___,___,___,001,___
	FRQ         ___,___,___,___,___,Cn3,Cn3,___ ;
	FRQ         ___,___,___,___,___,___,___,___ ;
	DEL         ___,___,___,___,___,___,001,___
	FRQ         ___,___,___,___,___,Cn4,Cn4,___ ;
	FRQ         ___,___,___,___,___,___,___,___ ;
	DEL         ___,___,___,___,___,___,001,___
	FRQ         ___,___,___,___,___,Cn3,Cn3,Cn2 ;
	FRQ         ___,___,___,___,___,___,___,___ ;
	DEL         ___,___,___,___,___,___,001,___
	FRQ         ___,___,___,___,___,Gn3,Gn3,___ ;
	FRQ         ___,___,___,___,___,___,___,___ ;
	DEL         ___,___,___,___,___,___,001,___
	FRQ         ___,___,___,___,___,Cn3,Cn3,Cn2 ;
	FRQ         ___,___,___,___,___,___,___,___ ;
	DEL         ___,___,___,___,___,___,001,___
	FRQ         ___,___,___,___,___,As3,As3,Cn3 ;
	FRQ         ___,___,___,___,___,___,___,___ ;
	DEL         ___,___,___,___,___,___,001,___
	FRQ         ___,___,___,___,___,Cn3,Cn3,___ ;
	FRQ         ___,___,___,___,___,___,___,___ ;
	DEL         ___,___,___,___,___,___,001,___
	FRQ         ___,___,___,___,___,Cn4,Cn4,___ ;
	FRQ         ___,___,___,___,___,___,___,___ ;
	DEL         ___,___,___,___,___,___,001,___
	FRQ         ___,___,___,___,___,Cn3,Cn3,Cn2 ;
	FRQ         ___,___,___,___,___,___,___,___ ;
	DEL         ___,___,___,___,___,___,001,___
	FRQ         ___,___,___,___,___,Gn3,Gn3,___ ;
	FRQ         ___,___,___,___,___,___,___,___ ;
	DEL         ___,___,___,___,___,___,001,___
	FRQ         ___,___,___,___,___,Cn3,Cn3,Cn2 ;
	FRQ         ___,___,___,___,___,___,___,___ ;
	DEL         ___,___,___,___,___,___,001,___
	FRQ         ___,___,___,___,___,As3,As3,Cn3 ;
	FRQ         ___,___,___,___,___,___,___,___ ;
	DEL         ___,___,___,___,___,___,001,___
	FRQ         ___,___,___,___,___,Cn3,Cn3,___ ;
	FRQ         ___,___,___,___,___,___,___,___ ;
	DEL         ___,___,___,___,___,___,001,___
	FRQ         ___,___,___,___,___,Cn4,Cn4,___ ;
	FRQ         ___,___,___,___,___,___,___,___ ;
	DEL         ___,___,___,___,___,___,001,___
	FRQ         ___,___,___,Cn6,___,Cn3,Cn3,En3 ;
	FRQ         ___,___,___,___,___,___,___,En3 ;
	DEL         ___,___,___,___,___,___,001,___
	FRQ         ___,___,___,As5,___,Gn3,Gn3,En3 ;
	FRQ         ___,___,___,___,Cn6,___,___,___ ;
	DEL         ___,___,___,___,___,___,001,___
	FRQ         ___,___,___,Gn5,Q__,Cn3,Cn3,En3 ;
	FRQ         ___,___,___,___,As5,___,___,___ ;
	DEL         ___,___,___,___,___,___,001,___
	FRQ         ___,___,___,As5,Q__,As3,As3,Cn3 ;
	FRQ         ___,___,___,___,Gn5,___,___,Cn3 ;
	DEL         ___,___,___,___,___,___,001,___
	FRQ         ___,___,___,Gn5,Q__,Cn3,Cn3,Cn3 ;
	FRQ         ___,___,___,___,As5,___,___,___ ;
	DEL         ___,___,___,___,___,___,001,___
	FRQ         ___,___,___,Fn5,Q__,Cn4,Cn4,Cn3 ;
	FRQ         ___,___,___,___,Gn5,___,___,___ ;
	DEL         ___,___,___,___,___,___,001,___
	FRQ         ___,___,___,Gn5,Q__,Cn3,Cn3,Gn2 ;
	FRQ         ___,___,___,___,Fn5,___,___,___ ;
	DEL         ___,___,___,___,___,___,001,___
	FRQ         ___,___,___,Fn5,Q__,Gn3,Gn3,Gn2 ;
	FRQ         ___,___,___,___,Gn5,___,___,___ ;
	DEL         ___,___,___,___,___,___,001,___
	FRQ         ___,___,___,Ds5,Q__,Cn3,Cn3,Gn2 ;
	FRQ         ___,___,___,___,Fn5,___,___,___ ;
	DEL         ___,___,___,___,___,___,001,___
	FRQ         ___,___,___,Fn5,Q__,As3,As3,Cn3 ;
	FRQ         ___,___,___,___,Ds5,___,___,___ ;
	DEL         ___,___,___,___,___,___,001,___
	FRQ         ___,___,___,Ds5,Q__,Cn3,Cn3,Cn2 ;
	FRQ         ___,___,___,___,Fn5,___,___,___ ;
	DEL         ___,___,___,___,___,___,001,___
	FRQ         ___,___,___,Cn5,Q__,Cn4,Cn4,Cn2 ;
	FRQ         ___,___,___,___,___,___,___,___ ;
	JUMP        song007_jmp000
song007_loop000:
	DEL         ___,___,___,___,___,___,001,___
	FRQ         Cn2,Cn2,Cn4,Gn4,Cn5,Cn3,Cn3,Cn2 ;
	FRQ         ___,___,___,___,___,___,___,___ ;
	DEL         ___,___,___,___,___,___,001,___
	FRQ         ___,___,Cn3,Gn3,Cn4,Gn3,Gn3,___ ;
	FRQ         ___,___,___,___,___,___,___,___ ;
	DEL         ___,___,___,___,___,___,001,___
	FRQ         ___,___,Cn4,Gn4,Cn5,Cn3,Cn3,Cn2 ;
	FRQ         ___,___,___,___,___,___,___,___ ;
	DEL         ___,___,___,___,___,___,001,___
	FRQ         ___,___,Cn3,Gn3,Cn4,As3,As3,Cn3 ;
	FRQ         ___,___,___,___,___,___,___,___ ;
	DEL         ___,___,___,___,___,___,001,___
	FRQ         ___,___,Cn4,Gn4,Cn5,Cn3,Cn3,___ ;
	FRQ         ___,___,___,___,___,___,___,___ ;
	DEL         ___,___,___,___,___,___,001,___
	FRQ         ___,___,Cn3,Gn3,Cn4,Cn4,Cn4,___ ;
	FRQ         ___,___,___,___,___,___,___,___ ;
	DEL         ___,___,___,___,___,___,001,___
	FRQ         ___,___,Cn4,Gn4,Cn5,Cn3,Cn3,Cn2 ;
	FRQ         ___,___,___,___,___,___,___,___ ;
	DEL         ___,___,___,___,___,___,001,___
	FRQ         ___,___,Cn3,Gn3,Cn4,Gn3,Gn3,___ ;
	FRQ         ___,___,___,___,___,___,___,___ ;
	DEL         ___,___,___,___,___,___,001,___
	FRQ         ___,___,Cn4,Gn4,Cn5,Cn3,Cn3,Cn2 ;
	FRQ         ___,___,___,___,___,___,___,___ ;
	DEL         ___,___,___,___,___,___,001,___
	FRQ         ___,___,Cn4,Gn4,Cn5,As3,As3,Cn3 ;
	FRQ         ___,___,___,___,___,___,___,___ ;
	DEL         ___,___,___,___,___,___,001,___
	FRQ         ___,___,Cn4,Gn4,Cn5,Cn3,Cn3,___ ;
	FRQ         ___,___,___,___,___,___,___,___ ;
	DEL         ___,___,___,___,___,___,001,___
	FRQ         ___,___,Cn4,Gn4,Cn5,Cn4,Cn4,___ ;
	FRQ         ___,___,___,___,___,___,___,___ ;
	DEL         ___,___,___,___,___,___,001,___
	FRQ         ___,___,Q__,Q__,Q__,Cn3,Cn3,Cn2 ;
	FRQ         ___,___,___,___,___,___,___,___ ;
	DEL         ___,___,___,___,___,___,001,___
	FRQ         ___,___,___,___,___,Gn3,Gn3,___ ;
	FRQ         ___,___,___,___,___,___,___,___ ;
	DEL         ___,___,___,___,___,___,001,___
	FRQ         ___,___,___,___,___,Cn3,Cn3,Cn2 ;
	FRQ         ___,___,___,___,___,___,___,___ ;
	DEL         ___,___,___,___,___,___,001,___
	FRQ         ___,___,___,___,___,As3,As3,Cn3 ;
	FRQ         ___,___,___,___,___,___,___,___ ;
	DEL         ___,___,___,___,___,___,001,___
	FRQ         ___,___,___,___,___,Cn3,Cn3,___ ;
	FRQ         ___,___,___,___,___,___,___,___ ;
	DEL         ___,___,___,___,___,___,001,___
	FRQ         ___,___,___,___,___,Cn4,Cn4,___ ;
	FRQ         ___,___,___,___,___,___,___,___ ;
	DEL         ___,___,___,___,___,___,001,___
	FRQ         ___,___,___,___,___,Cn3,Cn3,Cn2 ;
	FRQ         ___,___,___,___,___,___,___,___ ;
	DEL         ___,___,___,___,___,___,001,___
	FRQ         ___,___,___,___,___,Gn3,Gn3,___ ;
	FRQ         ___,___,___,___,___,___,___,___ ;
	DEL         ___,___,___,___,___,___,001,___
	FRQ         ___,___,___,___,___,Cn3,Cn3,Cn2 ;
	FRQ         ___,___,___,___,___,___,___,___ ;
	DEL         ___,___,___,___,___,___,001,___
	FRQ         ___,___,___,___,___,As3,As3,Cn3 ;
	FRQ         ___,___,___,___,___,___,___,___ ;
	DEL         ___,___,___,___,___,___,001,___
	FRQ         ___,___,___,___,___,Cn3,Cn3,___ ;
	FRQ         ___,___,___,___,___,___,___,___ ;
	DEL         ___,___,___,___,___,___,001,___
	FRQ         ___,___,___,___,___,Cn4,Cn4,___ ;
	FRQ         ___,___,___,___,___,___,___,___ ;
	DEL         ___,___,___,___,___,___,001,___
	FRQ         ___,___,___,___,___,Cn3,Cn3,Cn2 ;
	FRQ         ___,___,___,___,___,___,___,___ ;
	DEL         ___,___,___,___,___,___,001,___
	FRQ         ___,___,___,___,___,Gn3,Gn3,___ ;
	FRQ         ___,___,___,___,___,___,___,___ ;
	DEL         ___,___,___,___,___,___,001,___
	FRQ         ___,___,___,___,___,Cn3,Cn3,Cn2 ;
	FRQ         ___,___,___,___,___,___,___,___ ;
	DEL         ___,___,___,___,___,___,001,___
	FRQ         ___,___,___,___,___,As3,As3,Cn3 ;
	FRQ         ___,___,___,___,___,___,___,___ ;
	DEL         ___,___,___,___,___,___,001,___
	FRQ         ___,___,___,___,___,Cn3,Cn3,___ ;
	FRQ         ___,___,___,___,___,___,___,___ ;
	DEL         ___,___,___,___,___,___,001,___
	FRQ         ___,___,___,___,___,Cn4,Cn4,___ ;
	FRQ         ___,___,___,___,___,___,___,___ ;
	DEL         ___,___,___,___,___,___,001,___
	FRQ         ___,___,___,___,___,Cn3,Cn3,Cn2 ;
	FRQ         ___,___,___,___,___,___,___,___ ;
	DEL         ___,___,___,___,___,___,001,___
	FRQ         ___,___,___,___,___,Gn3,Gn3,___ ;
	FRQ         ___,___,___,___,___,___,___,___ ;
	DEL         ___,___,___,___,___,___,001,___
	FRQ         ___,___,___,___,___,Cn3,Cn3,Cn2 ;
	FRQ         ___,___,___,___,___,___,___,___ ;
	DEL         ___,___,___,___,___,___,001,___
	FRQ         ___,___,___,___,___,As3,As3,Cn3 ;
	FRQ         ___,___,___,___,___,___,___,___ ;
	DEL         ___,___,___,___,___,___,001,___
	FRQ         ___,___,___,___,___,Cn3,Cn3,___ ;
	FRQ         ___,___,___,___,___,___,___,___ ;
	DEL         ___,___,___,___,___,___,001,___
	FRQ         ___,___,___,___,___,Cn4,Cn4,___ ;
	FRQ         ___,___,___,___,___,___,___,___ ;
	DEL         ___,___,___,___,___,___,001,___
	FRQ         ___,___,___,___,___,Cn3,Cn3,En3 ;
	FRQ         ___,___,___,___,___,___,___,___ ;
	DEL         ___,___,___,___,___,___,001,___
	FRQ         ___,___,___,___,___,Gn3,Gn3,Cn3 ;
	FRQ         ___,___,___,___,___,___,___,___ ;
	DEL         ___,___,___,___,___,___,001,___
	FRQ         ___,___,___,___,___,Cn3,Cn3,Gn2 ;
	FRQ         ___,___,___,___,___,___,___,___ ;
	DEL         ___,___,___,___,___,___,001,___
	FRQ         ___,___,___,___,___,As3,As3,En3 ;
	FRQ         ___,___,___,___,___,___,___,___ ;
	DEL         ___,___,___,___,___,___,001,___
	FRQ         ___,___,___,___,___,Cn3,Cn3,Gn2 ;
	FRQ         ___,___,___,___,___,___,___,___ ;
	DEL         ___,___,___,___,___,___,001,___
	FRQ         ___,___,___,___,___,Cn4,Cn4,Gn2 ;
	FRQ         ___,___,___,___,___,___,___,___ ;
	SPEED       002
	DEL         ___,___,___,___,___,___,001,___
	FRQ         ___,___,___,___,___,Cn3,Cn3,Gn2 ;
	FRQ         ___,___,___,___,___,___,___,Gn2 ;
	SPEED       004
	FRQ         ___,___,___,___,___,___,___,___ ;
	DEL         ___,___,___,___,___,___,001,___
	FRQ         ___,___,___,___,___,Gn3,Gn3,___ ;
	FRQ         ___,___,___,___,___,___,___,___ ;
	SPEED       002
	DEL         ___,___,___,___,___,___,001,___
	FRQ         ___,___,___,___,___,Cn3,Cn3,Cn2 ;
	FRQ         ___,___,___,___,___,___,___,Cn2 ;
	SPEED       004
	FRQ         ___,___,___,___,___,___,___,___ ;
	SPEED       002
	DEL         ___,___,___,___,___,___,001,___
	FRQ         ___,___,___,___,___,As3,As3,En3 ;
	FRQ         ___,___,___,___,___,___,___,En3 ;
	SPEED       004
	FRQ         ___,___,___,___,___,___,___,___ ;
	DEL         ___,___,___,___,___,___,001,___
	FRQ         ___,___,___,___,___,Cn3,Cn3,Cn3 ;
	FRQ         ___,___,___,___,___,___,___,___ ;
	DEL         ___,___,___,___,___,___,001,___
	FRQ         ___,___,___,___,___,Cn4,Cn4,Cn3 ;
	FRQ         ___,___,___,___,___,___,___,___ ;
	DEL         ___,___,___,___,___,___,001,___
	FRQ         Cn1,Cn1,Cn2,Cn3,Cn3,Cn2,Cn2,Cn2 ;
	FRQ         ___,___,___,___,___,___,___,___ ;
	FRQ         ___,___,___,___,___,___,___,___ ;
	FRQ         ___,___,___,___,___,___,___,___ ;
	FRQ         ___,___,___,___,___,___,___,___ ;
	FRQ         ___,___,___,___,___,___,___,___ ;
	FRQ         ___,___,___,___,___,___,___,___ ;
	FRQ         ___,___,___,___,___,___,___,___ ;
	FRQ         ___,___,___,___,___,___,___,___ ;
	FRQ         ___,___,___,___,___,___,___,___ ;
	FRQ         ___,___,___,___,___,___,___,___ ;
	FRQ         ___,___,___,___,___,___,___,___ ;
	FRQ         ___,___,___,___,___,___,___,___ ;
	FRQ         ___,___,___,___,___,___,___,___ ;
	FRQ         ___,___,___,___,___,___,___,___ ;
	FRQ         ___,___,___,___,___,___,___,___ ;
	FRQ         ___,___,___,___,___,___,___,___ ;
	FRQ         ___,___,___,___,___,___,___,___ ;
	FRQ         ___,___,___,___,___,___,___,___ ;
	FRQ         ___,___,___,___,___,___,___,___ ;
	FRQ         ___,___,___,___,___,___,___,___ ;
	FRQ         ___,___,___,___,___,___,___,___ ;
	FRQ         ___,___,___,___,___,___,___,___ ;
	FRQ         ___,___,___,___,___,___,___,___ ;
	FRQ         ___,___,___,___,___,___,___,___ ;
	FRQ         ___,___,___,___,___,___,___,___ ;
	FRQ         ___,___,___,___,___,___,___,___ ;
	FRQ         ___,___,___,___,___,___,___,___ ;
	FRQ         ___,___,___,___,___,___,___,___ ;
	FRQ         ___,___,___,___,___,___,___,___ ;
	FRQ         ___,___,___,___,___,___,___,___ ;
	FRQ         ___,___,___,___,___,___,___,___ ;
	FRQ         ___,___,___,___,___,___,___,___ ;
	FRQ         ___,___,___,___,___,___,___,___ ;
	FRQ         ___,___,___,___,___,___,___,___ ;
	FRQ         ___,___,___,___,___,___,___,___ ;
	SPEED       002
	FRQ         ___,___,___,___,___,___,___,En3 ;
	FRQ         ___,___,___,___,___,___,___,En3 ;
	FRQ         ___,___,___,___,___,___,___,___ ;
	FRQ         ___,___,___,___,___,___,___,___ ;
	FRQ         ___,___,___,___,___,___,___,Cn3 ;
	FRQ         ___,___,___,___,___,___,___,Cn3 ;
	FRQ         ___,___,___,___,___,___,___,___ ;
	FRQ         ___,___,___,___,___,___,___,___ ;
	FRQ         ___,___,___,___,___,___,___,Gn2 ;
	FRQ         ___,___,___,___,___,___,___,Gn2 ;
	FRQ         ___,___,___,___,___,___,___,___ ;
	FRQ         ___,___,___,___,___,___,___,___ ;
	FRQ         ___,___,___,___,___,___,___,Cn2 ;
	FRQ         ___,___,___,___,___,___,___,Cn2 ;
	FRQ         ___,___,___,___,___,___,___,___ ;
	FRQ         ___,___,___,___,___,___,___,___ ;
	FRQ         ___,___,___,___,___,___,___,Cn2 ;
	FRQ         ___,___,___,___,___,___,___,Cn2 ;
	FRQ         ___,___,___,___,___,___,___,___ ;
	FRQ         ___,___,___,___,___,___,___,___ ;
	FRQ         ___,___,___,___,___,___,___,Cn3 ;
	FRQ         ___,___,___,___,___,___,___,Cn3 ;
	FRQ         ___,___,___,___,___,___,___,___ ;
	FRQ         ___,___,___,___,___,___,___,___ ;
	SPEED       004
	JUMP        song007_jmp000
.endproc
