	.include "song.inc"
	.segment "BANK0"
	.export midnight
.proc midnight
song041_start:
	INIT        %11111111
	TEMPO       001
	TVOL        255
	SPEED       012
	PIT         ___,___,___,___,___,___,___,004
	PITRAT      ___,___,___,___,___,___,___,100
	TRS         ___,___,___,___,___,___,___,___
	PITDEP      ___,___,___,___,___,___,___,180
	ENV         ___,___,___,___,___,___,___,___
	GTM         ___,___,___,___,___,___,___,003
	INS         013,013,013,007,011,011,005,001
	VOL         245,245,245,240,250,250,255,255
	LFO         ___,___,___,___,___,001,___,___
	DTN         004,008,022,___,000,018,___,___
	PAN         L__,__R,___,___,L__,__R,___,___
	INS         ___,___,___,___,___,___,___,___
	VOL         ___,___,___,___,___,___,___,___
	LFO         ___,___,___,___,___,___,___,___
	PAN         ___,___,___,___,___,___,___,___
	SPEED       004
song041_jmp000:
	FRQ         Cn5,En5,Gn5,Cn6,Gn4,Gn4,Cn3,Cn2 ;
	FRQ         ___,___,___,___,___,___,___,___ ;
	FRQ         ___,___,___,En5,___,___,___,___ ;
	FRQ         ___,___,___,___,___,___,___,___ ;
	FRQ         ___,___,___,Gn5,___,___,Cn3,Cn2 ;
	FRQ         ___,___,___,___,___,___,___,___ ;
	GTM         ___,___,___,___,___,___,___,255
	FRQ         ___,___,___,Cn5,___,___,Cn4,Cn3 ;
	GTM         ___,___,___,___,___,___,___,003
	FRQ         ___,___,___,___,___,___,___,___ ;
	FRQ         ___,___,___,En5,___,___,Cn3,___ ;
	FRQ         ___,___,___,___,___,___,___,___ ;
	FRQ         ___,___,___,Gn5,___,___,Cn4,___ ;
	FRQ         ___,___,___,___,___,___,___,___ ;
	FRQ         ___,___,___,Cn6,___,___,Cn3,Cn2 ;
	FRQ         ___,___,___,___,___,___,___,___ ;
	FRQ         ___,___,___,En5,___,___,___,___ ;
	FRQ         ___,___,___,___,___,___,___,___ ;
	FRQ         ___,___,___,Gn5,___,___,Cn3,Cn2 ;
	FRQ         ___,___,___,___,___,___,___,___ ;
	GTM         ___,___,___,___,___,___,___,255
	FRQ         ___,___,___,Cn5,An4,An4,Cn4,Cn3 ;
	GTM         ___,___,___,___,___,___,___,003
	FRQ         ___,___,___,___,___,___,___,___ ;
	FRQ         ___,___,___,En5,Gn4,Gn4,Cn3,Cn2 ;
	FRQ         ___,___,___,___,___,___,___,___ ;
	FRQ         ___,___,___,Gn5,Fs4,Fs4,Cn4,___ ;
	FRQ         ___,___,___,___,___,___,___,___ ;
	FRQ         ___,___,___,Cn6,Gn4,Gn4,Cn3,Cn2 ;
	FRQ         ___,___,___,___,___,___,___,___ ;
	FRQ         ___,___,___,En5,___,___,___,___ ;
	FRQ         ___,___,___,___,___,___,___,___ ;
	FRQ         ___,___,___,Gn5,___,___,Cn3,Cn2 ;
	FRQ         ___,___,___,___,___,___,___,___ ;
	FRQ         ___,___,___,Cn5,___,___,Cn4,Cn3 ;
	FRQ         ___,___,___,___,___,___,___,___ ;
	FRQ         ___,___,___,En5,___,___,Cn3,___ ;
	FRQ         ___,___,___,___,___,___,___,___ ;
	FRQ         ___,___,___,Gn5,___,___,Cn4,___ ;
	FRQ         ___,___,___,___,___,___,___,___ ;
	FRQ         Cn5,En5,Gn4,En6,En4,En4,Cn3,Cn2 ;
	FRQ         ___,___,___,___,___,___,___,___ ;
	FRQ         Q__,Q__,Q__,Q__,Q__,Q__,Q__,Q__ ;
	FRQ         ___,___,___,___,___,___,___,___ ;
	FRQ         Cn5,An4,Fn5,Fn6,Fn4,Fn4,Cn3,Cn2 ;
	FRQ         ___,___,___,___,___,___,___,___ ;
	FRQ         Q__,Q__,Q__,Q__,Q__,Q__,Q__,Q__ ;
	FRQ         ___,___,___,___,___,___,___,___ ;
	FRQ         Bn4,Dn5,Gn5,Gn6,Gn4,Gn4,Cn3,Cn2 ;
	FRQ         ___,___,___,___,___,___,___,___ ;
	FRQ         Q__,Q__,Q__,Q__,Q__,Q__,Q__,Q__ ;
	FRQ         ___,___,___,___,___,___,___,___ ;
	FRQ         As4,Dn5,Gn5,Gn5,Gn4,Gn4,As2,Cn2 ;
	FRQ         ___,___,___,___,___,___,___,___ ;
	FRQ         ___,___,___,As4,___,___,___,___ ;
	FRQ         ___,___,___,___,___,___,___,___ ;
	FRQ         ___,___,___,Dn5,___,___,As2,Cn2 ;
	FRQ         ___,___,___,___,___,___,___,___ ;
	GTM         ___,___,___,___,___,___,___,255
	FRQ         ___,___,___,Gn4,___,___,As3,Cn3 ;
	GTM         ___,___,___,___,___,___,___,003
	FRQ         ___,___,___,___,___,___,___,___ ;
	FRQ         ___,___,___,As4,___,___,As2,___ ;
	FRQ         ___,___,___,___,___,___,___,___ ;
	FRQ         ___,___,___,Dn5,___,___,As3,___ ;
	FRQ         ___,___,___,___,___,___,___,___ ;
	FRQ         ___,___,___,Gn5,___,___,As2,Cn2 ;
	FRQ         ___,___,___,___,___,___,___,___ ;
	FRQ         ___,___,___,As4,___,___,___,___ ;
	FRQ         ___,___,___,___,___,___,___,___ ;
	FRQ         ___,___,___,Dn5,___,___,As2,Cn2 ;
	FRQ         ___,___,___,___,___,___,___,___ ;
	GTM         ___,___,___,___,___,___,___,255
	FRQ         ___,___,___,Gn4,An4,An4,As3,Cn3 ;
	GTM         ___,___,___,___,___,___,___,003
	FRQ         ___,___,___,___,___,___,___,___ ;
	FRQ         ___,___,___,As4,Gn4,Gn4,As2,Cn2 ;
	FRQ         ___,___,___,___,___,___,___,___ ;
	FRQ         ___,___,___,Dn5,Fs4,Fs4,As3,___ ;
	FRQ         ___,___,___,___,___,___,___,___ ;
	FRQ         ___,___,___,Gn5,Gn4,Gn4,As2,Cn2 ;
	FRQ         ___,___,___,___,___,___,___,___ ;
	FRQ         ___,___,___,As4,___,___,___,___ ;
	FRQ         ___,___,___,___,___,___,___,___ ;
	FRQ         ___,___,___,Dn5,___,___,As2,Cn2 ;
	FRQ         ___,___,___,___,___,___,___,___ ;
	GTM         ___,___,___,___,___,___,___,255
	FRQ         ___,___,___,Gn4,___,___,As3,Cn3 ;
	GTM         ___,___,___,___,___,___,___,003
	FRQ         ___,___,___,___,___,___,___,___ ;
	FRQ         ___,___,___,As4,___,___,As2,___ ;
	FRQ         ___,___,___,___,___,___,___,___ ;
	FRQ         ___,___,___,Dn5,___,___,As3,___ ;
	FRQ         ___,___,___,___,___,___,___,___ ;
	FRQ         As4,En5,Cn5,En6,En4,En4,As2,Cn2 ;
	FRQ         ___,___,___,___,___,___,___,___ ;
	FRQ         Q__,Q__,Q__,Q__,Q__,Q__,Q__,Q__ ;
	FRQ         ___,___,___,___,___,___,___,___ ;
	FRQ         As4,Fn5,Dn5,Fn6,Fn4,Fn4,As2,Cn2 ;
	FRQ         ___,___,___,___,___,___,___,___ ;
	FRQ         Q__,Q__,Q__,Q__,Q__,Q__,Q__,Q__ ;
	FRQ         ___,___,___,___,___,___,___,___ ;
	FRQ         As4,Gn5,En5,Gn6,Gn4,Gn4,As2,Cn2 ;
	FRQ         ___,___,___,___,___,___,___,___ ;
	FRQ         Q__,Q__,Q__,Q__,Q__,Q__,Q__,Q__ ;
	FRQ         ___,___,___,___,___,___,___,___ ;
	FRQ         An4,Cn5,Fn5,Fn5,Fn4,Fn4,An2,Cn2 ;
	FRQ         ___,___,___,___,___,___,___,___ ;
	FRQ         ___,___,___,An4,___,___,___,___ ;
	FRQ         ___,___,___,___,___,___,___,___ ;
	FRQ         ___,___,___,Cn5,___,___,An2,Cn2 ;
	FRQ         ___,___,___,___,___,___,___,___ ;
	GTM         ___,___,___,___,___,___,___,255
	FRQ         ___,___,___,Fn4,Cn5,Cn5,An3,Cn3 ;
	GTM         ___,___,___,___,___,___,___,003
	FRQ         ___,___,___,___,___,___,___,___ ;
	FRQ         ___,___,___,An4,___,___,An2,___ ;
	FRQ         ___,___,___,___,___,___,___,___ ;
	FRQ         ___,___,___,Cn5,___,___,An3,___ ;
	FRQ         ___,___,___,___,___,___,___,___ ;
	FRQ         ___,___,___,Fn5,___,___,An2,Cn2 ;
	FRQ         ___,___,___,___,___,___,___,___ ;
	FRQ         ___,___,___,An4,___,___,___,___ ;
	FRQ         ___,___,___,___,___,___,___,___ ;
	FRQ         ___,___,___,Cn5,___,___,An2,Cn2 ;
	FRQ         ___,___,___,___,___,___,___,___ ;
	GTM         ___,___,___,___,___,___,___,255
	FRQ         ___,___,___,Fn4,An4,An4,An3,Cn3 ;
	GTM         ___,___,___,___,___,___,___,003
	FRQ         ___,___,___,___,___,___,___,___ ;
	FRQ         ___,___,___,An4,___,___,An2,___ ;
	FRQ         ___,___,___,___,___,___,___,___ ;
	FRQ         ___,___,___,Cn5,___,___,An3,___ ;
	FRQ         ___,___,___,___,___,___,___,___ ;
	FRQ         ___,___,___,Fn5,Gn4,Gn4,An2,Cn2 ;
	FRQ         ___,___,___,___,___,___,___,___ ;
	FRQ         ___,___,___,An4,___,___,___,___ ;
	FRQ         ___,___,___,___,___,___,___,___ ;
	FRQ         ___,___,___,Cn5,___,___,An2,Cn2 ;
	FRQ         ___,___,___,___,___,___,___,___ ;
	GTM         ___,___,___,___,___,___,___,255
	FRQ         ___,___,___,Fn4,Fn4,Fn4,An3,Cn3 ;
	GTM         ___,___,___,___,___,___,___,003
	FRQ         ___,___,___,___,___,___,___,___ ;
	FRQ         ___,___,___,An4,___,___,An2,___ ;
	FRQ         ___,___,___,___,___,___,___,___ ;
	FRQ         ___,___,___,Cn5,___,___,An3,___ ;
	FRQ         ___,___,___,___,___,___,___,___ ;
	FRQ         ___,___,___,Fn5,En4,En4,An2,Cn2 ;
	FRQ         ___,___,___,___,___,___,___,___ ;
	FRQ         ___,___,___,Cn5,___,___,___,___ ;
	FRQ         ___,___,___,___,___,___,___,___ ;
	FRQ         ___,___,___,Fn4,___,___,An2,Cn2 ;
	FRQ         ___,___,___,___,___,___,___,___ ;
	GTM         ___,___,___,___,___,___,___,255
	FRQ         ___,___,___,An4,Fn4,Fn4,An3,Cn3 ;
	GTM         ___,___,___,___,___,___,___,003
	FRQ         ___,___,___,___,___,___,___,___ ;
	FRQ         ___,___,___,Cn5,___,___,An2,___ ;
	FRQ         ___,___,___,___,___,___,___,___ ;
	FRQ         ___,___,___,Fn5,___,___,An3,___ ;
	FRQ         ___,___,___,___,___,___,___,___ ;
	FRQ         Fn4,An4,Cn5,An5,An3,___,Fn2,Cn2 ;
	FRQ         ___,___,___,___,___,An3,___,___ ;
	FRQ         ___,___,___,Bn5,Bn3,___,___,___ ;
	FRQ         ___,___,___,___,___,Bn3,___,___ ;
	FRQ         ___,___,___,Cn6,Cn4,___,Fn2,Cn2 ;
	FRQ         ___,___,___,___,___,Cn4,___,___ ;
	GTM         ___,___,___,___,___,___,___,255
	FRQ         ___,___,___,Dn6,Dn4,___,Fn3,Cn3 ;
	FRQ         ___,___,___,___,___,Dn4,___,Cn3 ;
	FRQ         ___,___,___,Cn6,Cn4,___,Fn2,Gn3 ;
	FRQ         ___,___,___,___,___,Cn4,___,En3 ;
	FRQ         ___,___,___,Bn5,Bn3,___,Fn3,Cn3 ;
	FRQ         ___,___,___,___,___,Bn3,___,Gn2 ;
	GTM         ___,___,___,___,___,___,___,003
	FRQ         Gn4,Bn4,Dn5,Bn5,Gn3,___,Gn2,Cn2 ;
	FRQ         ___,___,___,___,___,Bn3,___,___ ;
	FRQ         ___,___,___,Cn6,An3,___,___,___ ;
	FRQ         ___,___,___,___,___,Cn4,___,___ ;
	FRQ         ___,___,___,Dn6,Bn3,___,Gn2,Cn2 ;
	FRQ         ___,___,___,___,___,Dn4,___,___ ;
	GTM         ___,___,___,___,___,___,___,255
	FRQ         ___,___,___,En6,Cn4,___,Gn3,Cn3 ;
	FRQ         ___,___,___,___,___,En4,___,___ ;
	FRQ         ___,___,___,Fn6,Dn4,___,Gn2,Cn3 ;
	FRQ         ___,___,___,___,___,Fn4,___,___ ;
	FRQ         ___,___,___,Gn6,En4,___,Gn3,Gn3 ;
	GTM         ___,___,___,___,___,___,___,003
	FRQ         ___,___,___,___,___,Gn4,___,___ ;
	JUMP        song041_jmp000
.endproc
