	.include "song.inc"
	.segment "BANK0"
	.export name2
.proc name2
song014_start:
	INIT        %11111111
	TEMPO       001
	TVOL        255
	SPEED       012
	PIT         ___,___,___,___,___,___,___,004
	PITRAT      ___,___,___,___,___,___,___,100
	TRS         ___,___,___,___,___,___,___,___
	PITDEP      ___,___,___,___,___,___,___,180
	ENV         ___,___,___,___,___,___,___,___
	GTM         ___,___,___,___,___,___,___,255
	INS         084,084,084,084,084,044,005,001
	VOL         225,225,225,225,225,235,255,255
	LFO         ___,___,___,001,001,___,___,___
	PAN         __R,___,___,L__,___,___,___,___
	DTN         032,018,000,022,004,___,___,___
	INS         ___,___,___,___,___,___,___,___
	VOL         ___,___,___,___,___,___,___,___
	LFO         ___,___,___,___,___,___,___,___
	PAN         ___,___,___,___,___,___,___,___
	SPEED       008
	GTM         ___,___,___,___,___,___,___,003
	FRQ         Cn6,___,___,___,___,___,___,___ ;
	FRQ         ___,As5,___,___,___,___,___,___ ;
	FRQ         ___,___,Gn5,___,___,___,___,___ ;
	FRQ         ___,___,___,Fn5,___,___,___,___ ;
	FRQ         ___,___,___,___,___,___,___,___ ;
	FRQ         ___,___,___,___,___,___,___,___ ;
	FRQ         ___,___,___,___,___,___,___,___ ;
	FRQ         ___,___,___,___,___,___,___,___ ;
	FRQ         ___,___,___,Cn5,___,___,___,___ ;
	FRQ         ___,___,As4,___,___,___,___,___ ;
	FRQ         ___,Gn4,___,___,___,___,___,___ ;
	FRQ         Fn4,___,___,___,___,___,___,___ ;
	FRQ         ___,___,___,___,___,___,___,___ ;
	FRQ         ___,___,___,___,___,___,___,___ ;
	FRQ         ___,___,___,___,___,___,___,___ ;
	FRQ         ___,___,___,___,___,___,___,___ ;
	FRQ         Cn4,___,___,Cn4,___,___,___,___ ;
	FRQ         ___,As3,___,___,___,___,___,___ ;
	GTM         ___,___,___,___,___,___,___,255
	FRQ         ___,___,Gn3,___,___,___,___,Cn3 ;
	FRQ         Fn3,___,___,Fn3,___,___,___,Gn2 ;
	GTM         ___,___,___,___,___,___,___,003
song014_jmp000:
	LFO         ___,___,___,255,___,___,___,___
	PAN         _C_,L__,__R,L__,__R,___,___,___
	FRQ         Cn3,Gn4,Cn5,Ds5,Ds5,___,Cn3,Cn2 ;
	FRQ         ___,___,___,___,___,___,___,___ ;
	FRQ         ___,___,___,___,___,___,___,___ ;
	FRQ         ___,___,___,___,___,___,Cn3,___ ;
	FRQ         ___,___,___,___,___,___,Cn3,Cn2 ;
	FRQ         ___,___,___,___,___,___,___,___ ;
	FRQ         ___,___,___,___,___,___,Gn3,___ ;
	FRQ         ___,___,___,___,___,___,___,___ ;
	GTM         ___,___,___,___,___,___,___,255
	FRQ         ___,___,___,___,___,Cn2,Cn4,Cn3 ;
	GTM         ___,___,___,___,___,___,___,003
	FRQ         ___,___,___,___,___,Cn2,___,___ ;
	FRQ         ___,___,___,___,___,Cn2,___,___ ;
	FRQ         ___,___,___,___,___,Cn2,___,___ ;
	FRQ         ___,___,___,___,___,___,Cn3,Cn2 ;
	FRQ         ___,___,___,___,___,___,___,___ ;
	FRQ         ___,___,___,___,___,___,___,___ ;
	FRQ         ___,___,___,___,___,___,Cn3,___ ;
	FRQ         ___,___,___,___,___,___,Cn3,Cn2 ;
	FRQ         ___,___,___,___,___,___,___,___ ;
	FRQ         ___,___,___,___,___,___,Gn3,___ ;
	FRQ         ___,___,___,___,___,___,___,___ ;
	GTM         ___,___,___,___,___,___,___,255
	FRQ         ___,___,___,___,___,Cn2,Cn4,Gn2 ;
	GTM         ___,___,___,___,___,___,___,003
	FRQ         ___,___,___,___,___,Cn2,___,___ ;
	FRQ         ___,___,___,___,___,Cn2,___,___ ;
	FRQ         ___,___,___,___,___,Cn2,___,___ ;
	FRQ         Cn3,Gn4,As4,Dn5,Dn5,___,Cn3,Cn2 ;
	FRQ         ___,___,___,___,___,___,___,___ ;
	FRQ         ___,___,___,___,___,___,___,___ ;
	FRQ         ___,___,___,___,___,___,Cn3,___ ;
	FRQ         ___,___,___,___,___,___,Cn3,Cn2 ;
	FRQ         ___,___,___,___,___,___,___,___ ;
	FRQ         ___,___,___,___,___,___,Gn3,___ ;
	FRQ         ___,___,___,___,___,___,___,___ ;
	GTM         ___,___,___,___,___,___,___,255
	FRQ         ___,___,___,___,___,___,Cn4,Cn3 ;
	FRQ         ___,___,___,___,___,___,___,___ ;
	FRQ         ___,___,___,___,___,___,___,Gn2 ;
	GTM         ___,___,___,___,___,___,___,003
	FRQ         ___,___,___,___,___,___,___,___ ;
	FRQ         Cn3,Gs4,Cn5,Fn5,Fn5,___,Cn3,Cn2 ;
	FRQ         ___,___,___,___,___,___,___,___ ;
	FRQ         ___,___,___,___,___,___,___,___ ;
	FRQ         ___,___,___,___,___,___,Cn3,___ ;
	FRQ         ___,___,___,___,___,___,Cn3,Cn2 ;
	FRQ         ___,___,___,___,___,___,___,___ ;
	FRQ         ___,___,___,___,___,___,Gn3,___ ;
	FRQ         ___,___,___,___,___,___,___,___ ;
	GTM         ___,___,___,___,___,___,___,255
	FRQ         ___,___,___,___,___,___,Cn4,En3 ;
	FRQ         ___,___,___,___,___,___,___,Cn3 ;
	FRQ         ___,___,___,___,___,___,Gn3,Gn2 ;
	GTM         ___,___,___,___,___,___,___,003
	FRQ         ___,___,___,___,___,___,Cn3,___ ;
	JUMP        song014_jmp000
.endproc
