	.include "song.inc"
	.segment "BANK0"
	.export name1
.proc name1
song013_start:
	INIT        %11111111
	TEMPO       001
	TVOL        255
	SPEED       012
	PIT         ___,___,___,___,___,004,___,004
	PITRAT      ___,___,___,___,___,100,___,100
	TRS         ___,___,___,___,___,___,___,___
	PITDEP      ___,___,___,___,___,186,___,180
	ENV         ___,___,___,___,___,___,___,___
	GTM         ___,___,___,___,___,255,___,255
	INS         084,084,084,007,084,001,005,001
	VOL         225,225,225,235,225,255,255,240
	PAN         ___,___,L__,___,__R,L__,___,__R
	DTN         ___,___,___,___,032,000,___,000
	SPEED       003
	FRQ         ___,___,___,___,___,Gn3,___,Gn3 ;
	FRQ         ___,___,___,___,___,Gn3,___,Gn3 ;
	FRQ         ___,___,___,___,___,Gn3,___,Gn3 ;
	FRQ         ___,___,___,___,___,___,___,___ ;
	FRQ         ___,___,___,___,___,Gn3,___,Gn3 ;
	FRQ         ___,___,___,___,___,___,___,___ ;
	FRQ         ___,___,___,___,___,Gn3,___,Gn3 ;
	FRQ         ___,___,___,___,___,___,___,___ ;
	VOL         ___,___,___,___,___,240,___,255
	FRQ         ___,___,___,___,___,En3,___,En3 ;
	FRQ         ___,___,___,___,___,En3,___,En3 ;
	FRQ         ___,___,___,___,___,En3,___,En3 ;
	FRQ         ___,___,___,___,___,___,___,___ ;
	FRQ         ___,___,___,___,___,En3,___,En3 ;
	FRQ         ___,___,___,___,___,___,___,___ ;
	FRQ         ___,___,___,___,___,En3,___,En3 ;
	FRQ         ___,___,___,___,___,___,___,___ ;
	VOL         ___,___,___,___,___,249,___,249
	FRQ         ___,___,___,___,___,Cn3,___,Cn3 ;
	FRQ         ___,___,___,___,___,Cn3,___,Cn3 ;
	FRQ         ___,___,___,___,___,Cn3,___,Cn3 ;
	FRQ         ___,___,___,___,___,___,___,___ ;
	FRQ         ___,___,___,___,___,Cn3,___,Cn3 ;
	FRQ         ___,___,___,___,___,___,___,___ ;
	FRQ         ___,___,___,___,___,Cn3,___,Cn3 ;
	FRQ         ___,___,___,___,___,___,___,___ ;
	SPEED       006
	DTN         ___,___,___,___,___,000,___,064
	VOL         ___,___,___,___,___,255,___,255
	DEL         ___,___,___,___,___,___,___,001
	FRQ         ___,___,___,___,___,Gn2,___,Gn2 ;
	DEL         ___,___,___,___,___,___,___,001
	FRQ         ___,___,___,___,___,Gn2,___,Gn2 ;
	DEL         ___,___,___,___,___,___,___,001
	FRQ         ___,___,___,___,___,Gn2,___,Gn2 ;
	FRQ         ___,___,___,___,___,___,___,___ ;
song013_rept000:
	PAN         ___,___,L__,_C_,__R,___,___,___
	DTN         ___,___,___,___,032,000,___,048
	GTM         ___,___,___,___,___,003,___,003
	FRQ         Gn3,Cn4,En4,Cn4,En4,Cn2,Cn2,Cn2 ;
	FRQ         ___,___,___,___,___,___,___,___ ;
	FRQ         ___,___,___,Gn4,___,___,Cn3,___ ;
	FRQ         Q__,Q__,Q__,___,Q__,___,___,___ ;
	GTM         ___,___,___,___,___,255,___,255
	DEL         ___,___,___,___,___,___,___,001
	FRQ         An3,Cn4,Fn4,Cn5,Fn4,Cn3,Cn2,Cn3 ;
	FRQ         ___,___,___,___,___,___,___,___ ;
	FRQ         ___,___,___,Cn4,___,___,Cn3,___ ;
	FRQ         Q__,Q__,Q__,___,Q__,___,___,___ ;
	GTM         ___,___,___,___,___,003,___,003
	FRQ         ___,___,___,Gn4,___,Cn2,Cn2,Cn2 ;
	FRQ         ___,___,___,___,___,Cn2,___,Cn2 ;
	FRQ         Gn3,Cn4,En4,Cn5,En4,___,Cn3,___ ;
	FRQ         ___,___,___,___,___,Cn2,___,Cn2 ;
	GTM         ___,___,___,___,___,255,___,255
	DEL         ___,___,___,___,___,___,___,001
	FRQ         ___,___,___,Cn4,___,Cn3,Cn2,Cn3 ;
	FRQ         ___,___,___,___,___,___,___,___ ;
	FRQ         An3,Cn4,Fn4,Gn4,Fn4,___,Cn3,___ ;
	FRQ         ___,___,___,___,___,___,___,___ ;
	GTM         ___,___,___,___,___,003,___,003
	FRQ         ___,___,___,___,___,Cn2,Cn2,Cn2 ;
	FRQ         Q__,Q__,Q__,___,Q__,___,___,___ ;
	FRQ         ___,___,___,___,___,___,Cn3,___ ;
	FRQ         ___,___,___,___,___,___,___,___ ;
	GTM         ___,___,___,___,___,255,___,255
	DEL         ___,___,___,___,___,___,___,001
	FRQ         ___,___,___,___,___,Cn3,Cn2,Cn3 ;
	FRQ         ___,___,___,___,___,___,___,___ ;
	FRQ         Fn3,An3,Cn4,___,Cn4,___,Cn3,___ ;
	FRQ         ___,___,___,___,___,___,___,___ ;
	GTM         ___,___,___,___,___,003,___,003
	FRQ         Q__,Q__,Q__,___,Q__,Cn2,Cn2,Cn2 ;
	FRQ         ___,___,___,___,___,Cn2,___,Cn2 ;
	FRQ         Fn3,An3,Cn4,Cn6,Cn4,___,Cn3,___ ;
	FRQ         ___,___,___,Cn6,___,Cn2,___,Cn2 ;
	GTM         ___,___,___,___,___,255,___,255
	DEL         ___,___,___,___,___,___,___,001
	FRQ         Gn3,Bn3,Dn4,Cn6,Dn4,Cn3,Cn2,Cn3 ;
	FRQ         ___,___,___,Cn6,___,___,___,___ ;
	FRQ         ___,___,___,Cn6,___,___,Cn3,___ ;
	FRQ         ___,___,___,___,___,___,___,___ ;
	REPT        $01, song013_rept000
song013_rept001:
	GTM         ___,___,___,___,___,003,___,003
	FRQ         Gn3,Cn4,En4,En5,En4,Cn2,Fn2,Cn2 ;
	FRQ         ___,___,___,___,___,___,___,___ ;
	FRQ         ___,___,___,___,___,___,Fn3,___ ;
	FRQ         Q__,Q__,Q__,___,Q__,___,___,___ ;
	GTM         ___,___,___,___,___,255,___,255
	DEL         ___,___,___,___,___,___,___,001
	FRQ         An3,Cn4,Fn4,Dn5,Fn4,Cn3,Fn2,Cn3 ;
	FRQ         ___,___,___,___,___,___,___,___ ;
	FRQ         ___,___,___,___,___,___,Fn3,___ ;
	FRQ         Q__,Q__,Q__,___,Q__,___,___,___ ;
	GTM         ___,___,___,___,___,003,___,003
	FRQ         ___,___,___,Cn5,___,Cn2,Fn2,Cn2 ;
	FRQ         ___,___,___,___,___,Cn2,___,Cn2 ;
	FRQ         Gn3,Cn4,En4,Dn5,En4,___,Fn3,___ ;
	FRQ         ___,___,___,___,___,Cn2,___,Cn2 ;
	GTM         ___,___,___,___,___,255,___,255
	DEL         ___,___,___,___,___,___,___,001
	FRQ         ___,___,___,___,___,Cn3,Fn2,Cn3 ;
	FRQ         ___,___,___,___,___,___,___,___ ;
	FRQ         An3,Cn4,Fn4,En5,Fn4,___,Fn3,___ ;
	FRQ         ___,___,___,___,___,___,___,___ ;
	GTM         ___,___,___,___,___,003,___,003
	FRQ         ___,___,___,___,___,Cn2,Fn2,Cn2 ;
	FRQ         Q__,Q__,Q__,___,Q__,___,___,___ ;
	FRQ         ___,___,___,An4,___,___,Fn3,___ ;
	FRQ         ___,___,___,___,___,___,___,___ ;
	GTM         ___,___,___,___,___,255,___,255
	DEL         ___,___,___,___,___,___,___,001
	FRQ         ___,___,___,An4,___,Cn3,Fn2,Cn3 ;
	FRQ         ___,___,___,___,___,___,___,___ ;
	FRQ         Fn3,An3,Cn4,___,Cn4,___,Fn3,___ ;
	FRQ         ___,___,___,___,___,___,___,___ ;
	GTM         ___,___,___,___,___,003,___,003
	FRQ         Q__,Q__,Q__,___,Q__,Cn2,Fn2,Cn2 ;
	FRQ         ___,___,___,___,___,Cn2,___,Cn2 ;
	FRQ         Fn3,An3,Cn4,___,Cn4,___,Fn3,___ ;
	FRQ         ___,___,___,___,___,Cn2,___,Cn2 ;
	GTM         ___,___,___,___,___,255,___,255
	DEL         ___,___,___,___,___,___,___,001
	FRQ         Gn3,Bn3,Dn4,___,Dn4,Cn3,Fn2,Cn3 ;
	FRQ         ___,___,___,___,___,___,___,___ ;
	FRQ         ___,___,___,___,___,___,Fn3,___ ;
	FRQ         ___,___,___,___,___,___,___,___ ;
	REPT        $01, song013_rept001
	CALL        song013_sub000
	JUMP        song013_rept000
song013_sub000:
	INIT        %11111111
	TEMPO       001
	TVOL        255
	SPEED       012
	PIT         ___,___,___,___,___,004,___,004
	PITRAT      ___,___,___,___,___,100,___,100
	TRS         ___,___,___,___,___,___,___,___
	PITDEP      ___,___,___,___,___,180,___,180
	ENV         ___,___,___,___,___,___,___,___
	GTM         ___,___,___,___,___,255,___,255
	INS         084,084,084,007,084,001,005,001
	VOL         225,225,226,235,226,255,255,255
song013_rept002:
	PAN         _C_,___,L__,___,__R,L__,___,__R
	DTN         ___,___,___,___,032,000,___,064
	SPEED       006
	GTM         ___,___,___,___,___,003,___,003
	FRQ         ___,Dn4,Fn4,___,Fn4,Cn2,As2,Cn2 ;
	FRQ         ___,___,___,___,___,___,___,___ ;
	FRQ         As3,___,___,___,___,Cn2,As2,Cn2 ;
	FRQ         ___,___,___,___,___,___,___,___ ;
	GTM         ___,___,___,___,___,255,___,255
	DEL         ___,___,___,___,___,___,___,001
	FRQ         ___,Dn4,Fn4,___,Fn4,Cn3,___,Cn3 ;
	GTM         ___,___,___,___,___,003,___,003
	FRQ         ___,___,___,___,___,___,___,___ ;
	FRQ         ___,En4,Gn4,___,Gn4,___,As3,___ ;
	FRQ         ___,___,___,___,___,___,___,___ ;
	FRQ         As3,___,___,___,___,Cn2,As3,Cn2 ;
	FRQ         ___,___,___,___,___,___,___,___ ;
	FRQ         ___,En4,Gn4,___,Gn4,Cn2,___,Cn2 ;
	FRQ         ___,___,___,___,___,___,___,___ ;
	GTM         ___,___,___,___,___,255,___,255
	DEL         ___,___,___,___,___,___,___,001
	FRQ         ___,Fn4,An4,___,An4,Cn3,As2,Cn3 ;
	GTM         ___,___,___,___,___,003,___,003
	FRQ         ___,___,___,___,___,___,___,___ ;
	FRQ         As3,___,___,___,___,___,As2,___ ;
	FRQ         ___,___,___,___,___,___,___,___ ;
	FRQ         ___,Fn4,An4,___,An4,Cn2,___,Cn2 ;
	FRQ         ___,___,___,___,___,___,___,___ ;
	FRQ         ___,En4,Gn4,___,Gn4,Cn2,As3,Cn2 ;
	FRQ         ___,___,___,___,___,___,___,___ ;
	GTM         ___,___,___,___,___,255,___,255
	DEL         ___,___,___,___,___,___,___,001
	FRQ         As3,___,___,___,___,Cn3,As3,Cn3 ;
	GTM         ___,___,___,___,___,003,___,003
	FRQ         ___,___,___,___,___,___,___,___ ;
	FRQ         ___,En4,Gn4,___,Gn4,___,___,___ ;
	FRQ         ___,___,___,___,___,Cn2,___,Cn2 ;
	FRQ         ___,Dn4,Fn4,___,Fn4,Cn2,As2,Cn2 ;
	FRQ         ___,___,___,___,___,___,___,___ ;
	FRQ         As3,___,___,___,___,Cn2,As3,Cn2 ;
	FRQ         ___,___,___,___,___,___,___,___ ;
	GTM         ___,___,___,___,___,255,___,255
	FRQ         ___,Dn4,Fn4,___,Fn4,Cn3,As2,Cn3 ;
	GTM         ___,___,___,___,___,003,___,003
	FRQ         ___,___,___,___,___,___,___,___ ;
	FRQ         As3,___,___,___,___,___,As3,___ ;
	FRQ         ___,___,___,___,___,___,___,___ ;
	REPT        $01, song013_rept002
song013_rept003:
	GTM         ___,___,___,___,___,003,___,003
	FRQ         Cn4,Dn4,Fn4,___,Fn4,Cn2,Cn3,Cn2 ;
	FRQ         ___,___,___,___,___,___,___,___ ;
	FRQ         ___,___,___,___,___,Cn2,Cn3,Cn2 ;
	FRQ         ___,___,___,___,___,___,___,___ ;
	GTM         ___,___,___,___,___,255,___,255
	DEL         ___,___,___,___,___,___,___,001
	FRQ         ___,Dn4,Fn4,___,Fn4,Cn3,___,Cn3 ;
	GTM         ___,___,___,___,___,003,___,003
	FRQ         ___,___,___,___,___,___,___,___ ;
	FRQ         ___,En4,Gn4,___,Gn4,___,Cn4,___ ;
	FRQ         ___,___,___,___,___,___,___,___ ;
	FRQ         Cn4,___,___,___,___,Cn2,Cn4,Cn2 ;
	FRQ         ___,___,___,___,___,___,___,___ ;
	FRQ         ___,En4,Gn4,___,Gn4,Cn2,___,Cn2 ;
	FRQ         ___,___,___,___,___,___,___,___ ;
	GTM         ___,___,___,___,___,255,___,255
	DEL         ___,___,___,___,___,___,___,001
	FRQ         ___,Fn4,An4,___,An4,Cn3,Cn3,Cn3 ;
	GTM         ___,___,___,___,___,003,___,003
	FRQ         ___,___,___,___,___,___,___,___ ;
	FRQ         Cn4,___,___,___,___,___,Cn3,___ ;
	FRQ         ___,___,___,___,___,___,___,___ ;
	FRQ         ___,Fn4,An4,___,An4,Cn2,___,Cn2 ;
	FRQ         ___,___,___,___,___,___,___,___ ;
	FRQ         ___,En4,Gn4,___,Gn4,Cn2,Cn4,Cn2 ;
	FRQ         ___,___,___,___,___,___,___,___ ;
	GTM         ___,___,___,___,___,255,___,255
	DEL         ___,___,___,___,___,___,___,001
	FRQ         Cn4,___,___,___,___,Cn3,Cn4,Cn3 ;
	GTM         ___,___,___,___,___,003,___,003
	FRQ         ___,___,___,___,___,___,___,___ ;
	FRQ         ___,En4,Gn4,___,Gn4,___,___,___ ;
	FRQ         ___,___,___,___,___,Cn2,___,Cn2 ;
	FRQ         ___,Dn4,Fn4,___,Fn4,Cn2,Cn3,Cn2 ;
	FRQ         ___,___,___,___,___,___,___,___ ;
	FRQ         Cn4,___,___,___,___,Cn2,Cn4,Cn2 ;
	FRQ         ___,___,___,___,___,___,___,___ ;
	GTM         ___,___,___,___,___,255,___,255
	DEL         ___,___,___,___,___,___,___,001
	FRQ         ___,Dn4,Fn4,___,Fn4,Cn3,Cn3,Cn3 ;
	GTM         ___,___,___,___,___,003,___,003
	FRQ         ___,___,___,___,___,___,___,___ ;
	FRQ         Cn4,___,___,___,___,___,Cn4,___ ;
	FRQ         ___,___,___,___,___,___,___,___ ;
	REPT        $01, song013_rept003
	RET
.endproc
